<svg id="Calque_1" data-name="Calque 1" xmlns="http://www.w3.org/2000/svg" viewBox="0 0 770 39.64"><defs><style>.cls-1{fill:#d40808;}.cls-2{fill:#99d6c9;}.cls-3{fill:#ffcf00;}.cls-4{fill:#ffe5a6;}.cls-5{fill:#247da6;}</style></defs><title>bandeau-couleurs</title><polygon class="cls-1" points="239.94 11.48 285.39 24.43 281.32 8.19 239.94 11.48"/><polygon class="cls-1" points="318.46 9.36 285.39 24.43 325.42 26.38 318.46 9.36"/><polygon class="cls-1" points="281.32 8.19 318.46 9.36 325.42 0 281.32 8.19"/><polygon class="cls-1" points="231.92 39.64 284.56 39.38 285.39 24.43 231.92 39.64"/><polygon class="cls-2" points="224.56 25.79 231.92 39.64 285.39 24.43 224.56 25.79"/><polygon class="cls-2" points="268.63 0 239.94 11.48 281.32 8.19 268.63 0"/><polygon class="cls-2" points="325.42 0 318.46 9.36 402.93 17.1 325.42 0"/><polygon class="cls-3" points="284.56 39.38 325.42 26.38 285.39 24.43 284.56 39.38"/><polygon class="cls-3" points="318.46 9.36 325.42 26.38 366.75 13.78 318.46 9.36"/><polygon class="cls-4" points="325.42 26.38 368.8 39.38 402.93 17.1 325.42 26.38"/><polygon class="cls-4" points="192.02 0 224.56 25.79 239.94 11.48 192.02 0"/><polygon class="cls-4" points="268.63 0 281.32 8.19 325.42 0 268.63 0"/><polygon class="cls-1" points="192.02 0 239.94 11.48 268.63 0 192.02 0"/><polygon class="cls-3" points="192.02 39.64 231.92 39.64 224.56 25.79 192.02 39.64"/><polygon class="cls-5" points="284.56 39.38 368.8 39.38 325.42 26.38 284.56 39.38"/><polygon class="cls-5" points="281.32 8.19 285.39 24.43 318.46 9.36 281.32 8.19"/><polygon class="cls-5" points="239.94 11.48 224.56 25.79 285.39 24.43 239.94 11.48"/><polygon class="cls-5" points="325.42 0 402.93 17.1 368.8 0 325.42 0"/><polygon class="cls-2" points="192.02 39.64 224.56 25.79 154.58 3.17 192.02 39.64"/><polygon class="cls-1" points="368.8 0 402.93 17.1 431.28 0 368.8 0"/><polygon class="cls-1" points="421.54 39.38 472.24 25.79 402.93 17.1 421.54 39.38"/><polygon class="cls-2" points="384.19 29.33 421.54 39.38 402.93 17.1 384.19 29.33"/><polygon class="cls-3" points="368.8 39.38 421.54 39.38 384.19 29.33 368.8 39.38"/><polygon class="cls-1" points="325.42 26.38 366.75 13.78 402.93 17.1 325.42 26.38"/><polygon class="cls-5" points="431.28 0 402.93 17.1 439.59 21.69 431.28 0"/><polygon class="cls-5" points="421.54 39.38 476.83 39.38 472.24 25.79 421.54 39.38"/><polygon class="cls-4" points="431.28 0 439.59 21.69 472.24 25.79 431.28 0"/><polygon class="cls-2" points="431.28 0 472.24 25.79 495.6 0 431.28 0"/><polygon class="cls-3" points="495.6 0 472.24 25.79 524.53 39.64 495.6 0"/><polygon class="cls-4" points="476.83 39.38 524.53 39.64 472.24 25.79 476.83 39.38"/><polygon class="cls-5" points="495.6 0 524.53 39.64 537.17 0 495.6 0"/><polygon class="cls-1" points="537.17 0 529.38 24.43 587.27 0 537.17 0"/><polygon class="cls-3" points="529.38 24.43 561.78 39.38 587.27 0 529.38 24.43"/><polygon class="cls-2" points="524.53 39.64 561.78 39.38 529.38 24.43 524.53 39.64"/><polygon class="cls-5" points="192.02 0 154.58 3.17 224.56 25.79 192.02 0"/><polygon class="cls-3" points="123.36 0 154.58 3.17 192.02 0 123.36 0"/><polygon class="cls-1" points="139.51 39.38 192.02 39.64 154.58 3.17 139.51 39.38"/><polygon class="cls-4" points="123.36 0 146.28 23.11 154.58 3.17 123.36 0"/><polygon class="cls-2" points="96.72 39.38 139.51 39.38 146.28 23.11 96.72 39.38"/><polygon class="cls-5" points="71.93 0 146.28 23.11 123.36 0 71.93 0"/><polygon class="cls-3" points="96.72 39.38 146.28 23.11 71.93 0 96.72 39.38"/><polygon class="cls-1" points="71.93 0 43.05 39.64 96.72 39.38 71.93 0"/><polygon class="cls-4" points="0 15.21 43.05 39.64 60.85 15.21 0 15.21"/><polygon class="cls-2" points="71.93 0 0 15.21 60.85 15.21 71.93 0"/><polygon class="cls-5" points="0 39.64 43.05 39.64 0 15.21 0 39.64"/><polygon class="cls-1" points="0 0 0 15.21 71.93 0 0 0"/><polygon class="cls-5" points="561.78 39.38 626.01 39.38 574.9 19.11 561.78 39.38"/><polygon class="cls-2" points="587.27 0 574.9 19.11 604.73 30.95 587.27 0"/><polygon class="cls-3" points="587.27 0 604.73 30.95 637.45 15.47 587.27 0"/><polygon class="cls-1" points="604.73 30.95 626.01 39.38 637.45 15.47 604.73 30.95"/><polygon class="cls-1" points="587.27 0 637.45 15.47 615.09 0 587.27 0"/><polygon class="cls-4" points="626.01 39.38 685.81 39.64 637.45 15.47 626.01 39.38"/><polygon class="cls-5" points="615.09 0 637.45 15.47 663.71 0 615.09 0"/><polygon class="cls-2" points="663.71 0 637.45 15.47 685.81 39.64 663.71 0"/><polygon class="cls-3" points="663.71 0 675.81 21.69 716.57 0 663.71 0"/><polygon class="cls-4" points="675.81 21.69 696.19 10.85 710.64 32.39 675.81 21.69"/><polygon class="cls-1" points="685.81 39.64 734.24 39.64 675.81 21.69 685.81 39.64"/><polygon class="cls-5" points="710.64 32.39 770 17.09 696.19 10.85 710.64 32.39"/><polygon class="cls-2" points="716.57 0 696.19 10.85 770 17.1 716.57 0"/><polygon class="cls-3" points="710.64 32.39 734.24 39.64 770 17.09 710.64 32.39"/><polygon class="cls-1" points="716.57 0 770 17.1 770 0 716.57 0"/><polygon class="cls-4" points="734.24 39.64 770 39.64 770 17.1 734.24 39.64"/></svg>