<svg id="Calque_1" data-name="Calque 1" xmlns="http://www.w3.org/2000/svg" viewBox="0 0 770 39.64"><defs><style>.cls-1{fill:#d40808}.cls-2{fill:#99d6c9}.cls-3{fill:#ffcf00}.cls-4{fill:#ffe5a6}.cls-5{fill:#247da6}</style></defs><path class="cls-1" d="M239.94 11.48l45.45 12.95-4.07-16.24-41.38 3.29zm78.52-2.12l-33.07 15.07 40.03 1.95-6.96-17.02zm-37.14-1.17l37.14 1.17L325.42 0l-44.1 8.19zm-49.4 31.45l52.64-.26.83-14.95-53.47 15.21z"/><path class="cls-2" d="M224.56 25.79l7.36 13.85 53.47-15.21-60.83 1.36zM268.63 0l-28.69 11.48 41.38-3.29L268.63 0zm56.79 0l-6.96 9.36 84.47 7.74L325.42 0z"/><path class="cls-3" d="M284.56 39.38l40.86-13-40.03-1.95-.83 14.95zm33.9-30.02l6.96 17.02 41.33-12.6-48.29-4.42z"/><path class="cls-4" d="M325.42 26.38l43.38 13 34.13-22.28-77.51 9.28zM192.02 0l32.54 25.79 15.38-14.31L192.02 0zm76.61 0l12.69 8.19L325.42 0h-56.79z"/><path class="cls-1" d="M192.02 0l47.92 11.48L268.63 0h-76.61z"/><path class="cls-3" d="M192.02 39.64h39.9l-7.36-13.85-32.54 13.85z"/><path class="cls-5" d="M284.56 39.38h84.24l-43.38-13-40.86 13zm-3.24-31.19l4.07 16.24 33.07-15.07-37.14-1.17zm-41.38 3.29l-15.38 14.31 60.83-1.36-45.45-12.95zM325.42 0l77.51 17.1L368.8 0h-43.38z"/><path class="cls-2" d="M192.02 39.64l32.54-13.85-69.98-22.62 37.44 36.47z"/><path class="cls-1" d="M368.8 0l34.13 17.1L431.28 0H368.8zm52.74 39.38l50.7-13.59-69.31-8.69 18.61 22.28z"/><path class="cls-2" d="M384.19 29.33l37.35 10.05-18.61-22.28-18.74 12.23z"/><path class="cls-3" d="M368.8 39.38h52.74l-37.35-10.05-15.39 10.05z"/><path class="cls-1" d="M325.42 26.38l41.33-12.6 36.18 3.32-77.51 9.28z"/><path class="cls-5" d="M431.28 0l-28.35 17.1 36.66 4.59L431.28 0zm-9.74 39.38h55.29l-4.59-13.59-50.7 13.59z"/><path class="cls-4" d="M431.28 0l8.31 21.69 32.65 4.1L431.28 0z"/><path class="cls-2" d="M431.28 0l40.96 25.79L495.6 0h-64.32z"/><path class="cls-3" d="M495.6 0l-23.36 25.79 52.29 13.85L495.6 0z"/><path class="cls-4" d="M476.83 39.38l47.7.26-52.29-13.85 4.59 13.59z"/><path class="cls-5" d="M495.6 0l28.93 39.64L537.17 0H495.6z"/><path class="cls-1" d="M537.17 0l-7.79 24.43L587.27 0h-50.1z"/><path class="cls-3" d="M529.38 24.43l32.4 14.95L587.27 0l-57.89 24.43z"/><path class="cls-2" d="M524.53 39.64l37.25-.26-32.4-14.95-4.85 15.21z"/><path class="cls-5" d="M192.02 0l-37.44 3.17 69.98 22.62L192.02 0z"/><path class="cls-3" d="M123.36 0l31.22 3.17L192.02 0h-68.66z"/><path class="cls-1" d="M139.51 39.38l52.51.26-37.44-36.47-15.07 36.21z"/><path class="cls-4" d="M123.36 0l22.92 23.11 8.3-19.94L123.36 0z"/><path class="cls-2" d="M96.72 39.38h42.79l6.77-16.27-49.56 16.27z"/><path class="cls-5" d="M71.93 0l74.35 23.11L123.36 0H71.93z"/><path class="cls-3" d="M96.72 39.38l49.56-16.27L71.93 0l24.79 39.38z"/><path class="cls-1" d="M71.93 0L43.05 39.64l53.67-.26L71.93 0z"/><path class="cls-4" d="M0 15.21l43.05 24.43 17.8-24.43H0z"/><path class="cls-2" d="M71.93 0L0 15.21h60.85L71.93 0z"/><path class="cls-5" d="M0 39.64h43.05L0 15.21v24.43z"/><path class="cls-1" d="M0 0v15.21L71.93 0H0z"/><path class="cls-5" d="M561.78 39.38h64.23L574.9 19.11l-13.12 20.27z"/><path class="cls-2" d="M587.27 0L574.9 19.11l29.83 11.84L587.27 0z"/><path class="cls-3" d="M587.27 0l17.46 30.95 32.72-15.48L587.27 0z"/><path class="cls-1" d="M604.73 30.95l21.28 8.43 11.44-23.91-32.72 15.48zM587.27 0l50.18 15.47L615.09 0h-27.82z"/><path class="cls-4" d="M626.01 39.38l59.8.26-48.36-24.17-11.44 23.91z"/><path class="cls-5" d="M615.09 0l22.36 15.47L663.71 0h-48.62z"/><path class="cls-2" d="M663.71 0l-26.26 15.47 48.36 24.17L663.71 0z"/><path class="cls-3" d="M663.71 0l12.1 21.69L716.57 0h-52.86z"/><path class="cls-4" d="M675.81 21.69l20.38-10.84 14.45 21.54-34.83-10.7z"/><path class="cls-1" d="M685.81 39.64h48.43l-58.43-17.95 10 17.95z"/><path class="cls-5" d="M710.64 32.39L770 17.09l-73.81-6.24 14.45 21.54z"/><path class="cls-2" d="M716.57 0l-20.38 10.85L770 17.1 716.57 0z"/><path class="cls-3" d="M710.64 32.39l23.6 7.25L770 17.09l-59.36 15.3z"/><path class="cls-1" d="M716.57 0L770 17.1V0h-53.43z"/><path class="cls-4" d="M734.24 39.64H770V17.1l-35.76 22.54z"/></svg>