<?xml version="1.0" encoding="UTF-8" standalone="no"?>
<!-- Created with Inkscape (http://www.inkscape.org/) -->

<svg
   xmlns:dc="http://purl.org/dc/elements/1.1/"
   xmlns:cc="http://creativecommons.org/ns#"
   xmlns:rdf="http://www.w3.org/1999/02/22-rdf-syntax-ns#"
   xmlns:svg="http://www.w3.org/2000/svg"
   xmlns="http://www.w3.org/2000/svg"
   xmlns:sodipodi="http://sodipodi.sourceforge.net/DTD/sodipodi-0.dtd"
   xmlns:inkscape="http://www.inkscape.org/namespaces/inkscape"
   version="1.1"
   id="svg2"
   width="749.32965"
   height="749.3255"
   viewBox="0 0 749.32965 749.3255"
   sodipodi:docname="power.svg"
   inkscape:version="0.92.3 (2405546, 2018-03-11)">
  <metadata
     id="metadata8">
    <rdf:RDF>
      <cc:Work
         rdf:about="">
        <dc:format>image/svg+xml</dc:format>
        <dc:type
           rdf:resource="http://purl.org/dc/dcmitype/StillImage" />
        <dc:title></dc:title>
      </cc:Work>
    </rdf:RDF>
  </metadata>
  <defs
     id="defs6" />
  <sodipodi:namedview
     pagecolor="#ffffff"
     bordercolor="#666666"
     borderopacity="1"
     objecttolerance="10"
     gridtolerance="10"
     guidetolerance="10"
     inkscape:pageopacity="0"
     inkscape:pageshadow="2"
     inkscape:window-width="1364"
     inkscape:window-height="732"
     id="namedview4"
     showgrid="false"
     fit-margin-top="0"
     fit-margin-left="0"
     fit-margin-right="0"
     fit-margin-bottom="0"
     inkscape:zoom="0.25285715"
     inkscape:cx="410.25988"
     inkscape:cy="410.82485"
     inkscape:window-x="554"
     inkscape:window-y="1235"
     inkscape:window-maximized="0"
     inkscape:current-layer="svg2" />
  <path
     style="fill:#000000;stroke-width:1.33333325"
     d="m 255.66664,747.8853 c -6.19184,-3.6064 -6.33331,-5.2257 -6.33331,-72.49359 V 611.99217 L 201,611.96897 c -55.0096,-0.0264 -60.1817,-0.64858 -77.7551,-9.354 -20.458,-10.13439 -36.788602,-29.02075 -44.198502,-51.11549 l -3.6356,-10.84064 -0.4565,-51.60303 -0.4565,-51.60302 L 40.4648,437.05581 6.4318,436.65884 3.2159,432.91783 C 1.4472,430.86027 0,427.51531 0,425.4846 0,423.45389 20.1109,361.11005 44.690898,286.94274 81.972998,174.44854 90.690198,149.4875 97.273698,136.37597 134.6838,61.871006 206.37743,11.820976 290.63169,1.3908364 297.7968,0.50384636 348.03697,-0.00495364 427.96502,3.6363224e-5 533.38907,0.00603636 556.17815,0.33618636 567.31939,2.0153764 c 47.91274,7.22137 88.60185,28.1605696 122.09189,62.8302296 13.66955,14.15103 21.07399,23.74879 30.78996,39.910504 13.74938,22.87091 24.37254,54.06051 27.66896,81.23607 0.96928,7.9907 1.45687,60.48705 1.45936,157.12389 0.004,140.54871 -0.0815,145.54218 -2.70022,158.39255 -5.16279,25.33427 -16.2416,47.16023 -33.21207,65.42988 -10.59072,11.40151 -22.60464,21.15033 -32.59719,26.45137 l -6.15342,3.26439 v 72.43819 72.43815 l -3.89744,3.8975 -3.89743,3.8974 -204.4359,-0.041 c -136.38245,-0.027 -205.21262,-0.4929 -206.76925,-1.3996 z m 169.00002,-79.22647 v -56 l -74.99999,-0.34444 -75,-0.34442 v 56.68886 56.68887 l 75,-0.3444 74.99999,-0.3445 z m 224.96586,-13.86088 c 0.35504,-68.14286 0.45672,-70.62613 3.00707,-73.4434 1.45177,-1.60373 4.59503,-3.73289 6.98499,-4.73149 6.41918,-2.68209 21.45446,-12.76104 28.83188,-19.32753 14.66568,-13.05361 27.50522,-34.77296 33.0871,-55.97003 2.98003,-11.31657 2.98514,-11.53346 3.4553,-146.66666 C 725.47644,217.3895 724.90166,193.84843 720.5718,173.32551 707.67427,112.19385 663.85604,60.838046 604.46407,37.245036 c -23.54022,-9.35118 -50.07446,-13.19236 -91.13074,-13.19236 -62.93448,0 -103.39443,10.86734 -143.99766,38.67704 -6.72287,4.60458 -12.60938,7.78538 -13.18394,7.124 -3.49954,-4.02834 -13.48506,-17.49983 -13.48506,-18.19274 0,-1.13676 21.81188,-15.64063 32.9379,-21.90216 l 9.06209,-5.09998 -29.33333,-0.39092 c -69.75053,-0.92956 -104.76621,6.09646 -146.32953,29.36155 -38.79333,21.71458 -74.6741,60.297584 -92.6605,99.638804 -1.8584,4.06482 -22.119502,63.79057 -45.024602,132.72391 L 29.6731,411.32551 l 30.830098,0.66666 c 20.8138,0.45008 31.7592,1.199 33.6899,2.30519 5.4056,3.0972 5.8062,7.5614 5.822702,64.89377 0.012,42.15548 0.4377,56.38549 1.8441,61.66745 4.5804,17.20284 16.7327,31.65563 33.6482,40.01791 l 10.3481,5.11568 64.55762,0.38225 64.55761,0.38227 -5.52064,-6.93363 c -3.03635,-3.81349 -7.62076,-11.1855 -10.18756,-16.38226 -8.86266,-17.94323 -8.98004,-18.86356 -9.58098,-75.1153 l -0.54482,-50.99999 -32.23537,-0.005 c -29.45639,-0.004 -32.59799,-0.22608 -36.44148,-2.56969 -7.56991,-4.61581 -7.2848,-6.83668 6.21714,-48.43073 6.72392,-20.7137 12.7749,-38.23403 13.44662,-38.93407 0.76993,-0.80241 5.34865,0.0713 12.38877,2.36401 l 11.16745,3.63684 -9.17361,27.95196 c -5.04548,15.37392 -9.17361,28.56011 -9.17361,29.30299 0,0.87101 10.395,1.35069 29.2706,1.35069 19.85387,0 30.39531,0.51246 32.76665,1.59292 7.17889,3.27092 7.29474,4.28502 7.3119,64.00753 0.0168,58.4815 0.33152,62.01226 6.70026,75.16828 3.79208,7.8334 15.99638,21.03098 23.53186,25.44707 3.21615,1.88478 9.47951,4.55728 13.91859,5.93886 7.57881,2.3588 13.71544,2.512 100.61892,2.512 h 92.54787 v 12.66667 12.66667 h -31.33333 -31.33333 v 55.77777 c 0,30.67779 0.4,56.17782 0.88889,56.66662 0.48888,0.4889 45.47352,0.8889 99.96585,0.8889 h 99.07697 z M 281.84392,360.54779 c -6.16315,-3.04048 -7.17725,-6.70732 -7.17725,-25.95168 0,-9.49883 -0.41432,-17.2706 -0.9207,-17.2706 -0.50638,0 -6.72234,5.7 -13.81324,12.66666 -12.26602,12.05115 -13.1721,12.66667 -18.64591,12.66667 -5.62438,0 -6.19479,-0.43788 -25.43935,-19.52892 -10.82729,-10.74091 -20.39028,-21.22926 -21.25109,-23.30745 -2.60286,-6.28385 -0.3423,-10.45055 13.08361,-24.11587 l 12.81917,-13.04776 h -17.04808 c -18.82674,0 -24.58504,-1.57552 -27.26633,-7.46032 -2.4198,-5.31088 -2.05075,-56.97537 0.44141,-61.79466 2.79903,-5.41274 8.16287,-6.74502 27.15572,-6.74502 h 16.71728 l -12.81917,-13.04775 c -13.42591,-13.66532 -15.68647,-17.83202 -13.08361,-24.11587 0.86081,-2.07819 10.4238,-12.56655 21.25109,-23.30745 19.24456,-19.09104 19.81497,-19.52892 25.43935,-19.52892 5.47381,0 6.37989,0.61552 18.64591,12.66666 7.0909,6.96667 13.30686,12.66667 13.81324,12.66667 0.50638,0 0.9207,-7.8298 0.9207,-17.39955 0,-19.770954 1.32712,-24.074484 8.15845,-26.455894 2.52373,-0.87978 14.42887,-1.47789 29.41667,-1.47789 26.77929,0 32.77202,1.08692 35.65089,6.46613 0.82889,1.54881 1.44065,10.372614 1.44065,20.779554 0,9.94821 0.3934,18.08765 0.87422,18.08765 0.48081,0 6.74833,-5.7 13.92782,-12.66667 12.34997,-11.98389 13.36047,-12.66666 18.74629,-12.66666 5.57419,0 6.13476,0.44206 26.9276,21.23492 l 21.23492,21.2349 -0.75678,5.64222 c -0.66554,4.96196 -2.333,7.22438 -13.8304,18.76509 l -13.07364,13.12286 h 17.01781 c 18.22795,0 24.8666,1.56144 27.49151,6.46614 1.95465,3.6523 1.95465,59.41542 0,63.06773 -2.62491,4.90469 -9.26356,6.46613 -27.49151,6.46613 h -17.01781 l 13.30832,13.35844 C 429.60241,288.97666 430,289.55524 430,295.3846 c 0,5.98178 -0.0936,6.10191 -20.75199,26.64156 -20.23085,20.11456 -20.89395,20.63268 -26.40551,20.63268 -5.33636,0 -6.38582,-0.7106 -18.70713,-12.66667 -7.17949,-6.96666 -13.44701,-12.66666 -13.92782,-12.66666 -0.48082,0 -0.87422,8.13944 -0.87422,18.08765 0,10.40695 -0.61176,19.23073 -1.44065,20.77955 -2.89657,5.41228 -8.83241,6.46806 -36.18319,6.43577 -20.39628,-0.0241 -26.5684,-0.45409 -29.86557,-2.08069 z m 43.19445,-40.69258 c 0.34074,-15.40375 0.61843,-17.0299 3.33334,-19.51985 3.82089,-3.50429 18.84682,-9.82592 25.321,-10.6529 4.81812,-0.61546 5.52248,-0.15622 17.02717,11.10173 l 12.00113,11.74374 8.59137,-8.51498 8.59136,-8.515 -11.28521,-11.70661 c -13.15725,-13.64856 -13.45761,-14.86538 -7.46551,-30.24359 5.87999,-15.09044 6.43943,-15.43233 26.54502,-16.22224 l 16.96862,-0.66667 v -12 -12 l -16.96862,-0.66666 c -20.10559,-0.78991 -20.66503,-1.1318 -26.54502,-16.22224 -6.01188,-15.42895 -5.72446,-16.56108 7.75382,-30.54267 l 11.57352,-12.00568 -7.86511,-7.94804 c -4.32581,-4.37142 -8.44485,-7.94804 -9.15343,-7.94804 -0.70857,0 -6.56564,5.16414 -13.0157,11.47587 -11.22627,10.98549 -11.94215,11.44843 -16.75341,10.83385 -6.47418,-0.82698 -21.50011,-7.14861 -25.321,-10.6529 -2.71491,-2.48995 -2.9926,-4.1161 -3.33334,-19.51986 l -0.3717,-16.80362 -12.33334,-0.38338 L 300,111.89211 v 14.75952 c 0,20.93219 -0.73364,22.27352 -15.5386,28.4101 -6.54232,2.71174 -12.96197,4.93045 -14.26591,4.93045 -4.12065,0 -7.90852,-2.68131 -18.52518,-13.11341 l -10.32968,-10.15011 -8.64635,8.56949 -8.64636,8.5695 11.21726,11.46309 c 6.16947,6.30471 11.60797,13.01989 12.08553,14.92264 0.59801,2.38265 -0.36459,6.30449 -3.09239,12.59917 -2.17837,5.02679 -4.37017,10.49621 -4.87065,12.15425 -1.62103,5.37022 -7.16756,6.98538 -23.98812,6.98538 H 200 v 12.66666 12.66667 h 15.39955 c 20.61241,0 21.33587,0.42664 27.78558,16.38575 3.65144,9.03508 4.81791,13.51626 4.10826,15.78261 -0.54507,1.74073 -5.99828,8.293 -12.11825,14.56057 l -11.12722,11.3956 8.64636,8.5695 8.64635,8.56949 10.32968,-10.15011 c 10.61666,-10.4321 14.40453,-13.11341 18.52518,-13.11341 1.30394,0 7.72359,2.21871 14.26591,4.93045 14.80496,6.13658 15.5386,7.47791 15.5386,28.41009 v 14.75952 l 12.33333,-0.38336 12.33334,-0.38337 z m -28.3717,-47.83309 c -37.82316,-12.51556 -46.22336,-62.7601 -14.55523,-87.05994 23.81865,-18.27672 59.46359,-10.54824 73.54795,15.94654 8.28857,15.59203 8.28666,31.88018 -0.005,47.50024 -11.00364,20.72755 -36.66424,30.99975 -58.98714,23.61316 z m 27.00034,-25.52481 c 8.63255,-4.17895 13.00174,-11.49051 12.99186,-21.74109 -0.009,-10.00654 -3.68442,-16.63251 -11.89206,-21.44251 -6.4722,-3.79296 -15.58396,-4.40865 -22.49713,-1.52015 -7.61413,3.1814 -15.58815,14.87798 -15.58815,22.86528 0,7.81718 7.88856,19.58196 15.29368,22.80858 6.05382,2.63781 15.07196,2.2345 21.6918,-0.97011 z"
     id="path12"
     inkscape:connector-curvature="0"
     sodipodi:nodetypes="cscsscccccccsssssssssccsscccccscccccccccccsccssscssscsscsscscsccsscccscscccscsccsscscccscccccscscsssscsscscsscscscssssscscssssscsccsscsccssssssccssscscccscscccssscssscsscccscsscccacccscccsscscccsscscccscsscccscscscs" />
</svg>
