<svg xmlns="http://www.w3.org/2000/svg" width="749.33" height="749.326"><path d="M255.667 747.885c-6.192-3.606-6.334-5.225-6.334-72.493v-63.4L201 611.97c-55.01-.026-60.182-.649-77.755-9.354-20.458-10.134-36.789-29.02-44.199-51.116l-3.635-10.84-.457-51.603-.456-51.603-34.033-.397-34.033-.397-3.216-3.741C1.447 430.86 0 427.515 0 425.485c0-2.031 20.11-64.375 44.69-138.542 37.283-112.494 46-137.455 52.584-150.567C134.684 61.871 206.377 11.821 290.632 1.391 297.797.504 348.037-.005 427.965 0c105.424.006 128.213.336 139.354 2.015 47.913 7.222 88.602 28.16 122.092 62.83 13.67 14.152 21.074 23.75 30.79 39.911 13.75 22.871 24.373 54.06 27.67 81.236.968 7.99 1.456 60.487 1.459 157.124.004 140.549-.082 145.542-2.7 158.393-5.163 25.334-16.242 47.16-33.213 65.43-10.59 11.401-22.604 21.15-32.597 26.45l-6.153 3.265v144.877l-3.898 3.897-3.897 3.898-204.436-.041c-136.383-.027-205.213-.493-206.77-1.4zm169-79.226v-56l-75-.345-75-.344v113.378l75-.345 75-.344zm224.966-13.861c.355-68.143.456-70.626 3.007-73.443 1.451-1.604 4.595-3.733 6.985-4.732 6.419-2.682 21.454-12.761 28.831-19.327 14.666-13.054 27.506-34.773 33.088-55.97 2.98-11.317 2.985-11.534 3.455-146.667.477-137.27-.097-160.81-4.427-181.333-12.898-61.132-56.716-112.488-116.108-136.081-23.54-9.351-50.074-13.192-91.13-13.192-62.935 0-103.395 10.867-143.998 38.677-6.723 4.604-12.61 7.785-13.184 7.124-3.5-4.029-13.485-17.5-13.485-18.193 0-1.137 21.812-15.64 32.938-21.902l9.062-5.1-29.334-.391c-69.75-.93-104.766 6.096-146.33 29.361-38.793 21.715-74.673 60.298-92.66 99.64-1.858 4.064-22.12 63.79-45.024 132.723L29.673 411.326l30.83.666c20.814.45 31.76 1.2 33.69 2.305 5.406 3.098 5.806 7.562 5.823 64.894.012 42.156.438 56.386 1.844 61.668 4.58 17.202 16.733 31.655 33.648 40.017l10.348 5.116 64.558.382 64.557.383-5.52-6.934c-3.037-3.813-7.621-11.185-10.188-16.382-8.862-17.943-8.98-18.864-9.58-75.116l-.546-51-32.235-.004c-29.456-.004-32.598-.227-36.441-2.57-7.57-4.616-7.285-6.837 6.217-48.43 6.724-20.715 12.775-38.235 13.446-38.935.77-.802 5.349.071 12.39 2.364l11.167 3.637-9.174 27.952c-5.046 15.374-9.174 28.56-9.174 29.303 0 .87 10.395 1.35 29.27 1.35 19.855 0 30.396.513 32.768 1.593 7.178 3.271 7.294 4.285 7.311 64.008.017 58.481.332 62.012 6.7 75.168 3.793 7.834 15.997 21.031 23.533 25.447 3.216 1.885 9.48 4.558 13.918 5.94 7.579 2.358 13.716 2.511 100.62 2.511H512v25.334h-62.667v55.777c0 30.678.4 56.178.89 56.667.488.489 45.473.889 99.965.889h99.077zm-367.79-294.25c-6.162-3.04-7.176-6.708-7.176-25.952 0-9.499-.415-17.27-.921-17.27s-6.722 5.7-13.813 12.666c-12.266 12.051-13.172 12.667-18.646 12.667-5.625 0-6.195-.438-25.44-19.53-10.827-10.74-20.39-21.228-21.25-23.307-2.603-6.283-.343-10.45 13.083-24.115l12.82-13.048h-17.05c-18.827 0-24.585-1.576-27.266-7.46-2.42-5.311-2.051-56.976.441-61.795 2.8-5.413 8.163-6.745 27.156-6.745h16.717L207.68 173.61c-13.426-13.665-15.686-17.832-13.084-24.116.861-2.078 10.424-12.566 21.251-23.307 19.245-19.091 19.815-19.53 25.44-19.53 5.474 0 6.38.616 18.646 12.668 7.09 6.966 13.307 12.666 13.813 12.666.506 0 .92-7.83.92-17.4 0-19.77 1.328-24.074 8.16-26.455 2.523-.88 14.428-1.478 29.416-1.478 26.78 0 32.772 1.087 35.65 6.466.83 1.549 1.441 10.373 1.441 20.78 0 9.948.394 18.087.875 18.087.48 0 6.748-5.7 13.927-12.666 12.35-11.984 13.36-12.667 18.747-12.667 5.574 0 6.134.442 26.927 21.235l21.235 21.235-.757 5.642c-.665 4.962-2.333 7.224-13.83 18.765l-13.074 13.123h17.018c18.228 0 24.867 1.561 27.492 6.466 1.954 3.652 1.954 59.415 0 63.068-2.625 4.904-9.264 6.466-27.492 6.466h-17.018l13.309 13.358c12.91 12.96 13.308 13.538 13.308 19.368 0 5.981-.094 6.102-20.752 26.641-20.23 20.115-20.894 20.633-26.405 20.633-5.337 0-6.386-.71-18.708-12.667-7.18-6.966-13.447-12.666-13.927-12.666-.481 0-.875 8.139-.875 18.087 0 10.407-.611 19.23-1.44 20.78-2.897 5.412-8.833 6.468-36.184 6.435-20.396-.024-26.568-.454-29.865-2.08zm43.195-40.693c.341-15.404.619-17.03 3.334-19.52 3.82-3.504 18.847-9.826 25.32-10.653 4.819-.615 5.523-.156 17.028 11.102l12.001 11.744 8.591-8.515 8.592-8.515-11.285-11.707c-13.158-13.648-13.458-14.865-7.466-30.243 5.88-15.09 6.44-15.433 26.545-16.222l16.969-.667v-24l-16.969-.667c-20.106-.79-20.665-1.132-26.545-16.222-6.012-15.429-5.724-16.561 7.754-30.543l11.573-12.005-7.865-7.948c-4.326-4.372-8.445-7.948-9.153-7.948-.709 0-6.566 5.164-13.016 11.475-11.226 10.986-11.942 11.449-16.753 10.834-6.474-.827-21.5-7.148-25.321-10.653-2.715-2.49-2.993-4.116-3.334-19.52l-.371-16.803-12.334-.384-12.333-.383v14.76c0 20.932-.734 22.273-15.539 28.41-6.542 2.711-12.962 4.93-14.266 4.93-4.12 0-7.908-2.681-18.525-13.113l-10.33-10.15-8.646 8.57-8.646 8.569 11.217 11.463c6.17 6.304 11.608 13.02 12.086 14.922.598 2.383-.365 6.305-3.093 12.6-2.178 5.026-4.37 10.496-4.87 12.154-1.621 5.37-7.168 6.985-23.988 6.985H200v25.334h15.4c20.612 0 21.335.426 27.785 16.385 3.652 9.035 4.818 13.517 4.108 15.783-.545 1.74-5.998 8.293-12.118 14.56l-11.127 11.396 8.646 8.57 8.647 8.569 10.33-10.15c10.616-10.432 14.404-13.113 18.524-13.113 1.304 0 7.724 2.218 14.266 4.93 14.805 6.137 15.539 7.478 15.539 28.41v14.76l12.333-.384 12.334-.383zm-28.371-47.833c-37.823-12.515-46.224-62.76-14.556-87.06 23.82-18.277 59.464-10.548 73.548 15.947 8.289 15.592 8.287 31.88-.005 47.5-11.003 20.728-36.664 31-58.987 23.613zm27-25.525c8.633-4.179 13.002-11.49 12.992-21.74-.01-10.007-3.685-16.633-11.892-21.443-6.472-3.793-15.584-4.409-22.497-1.52-7.614 3.181-15.588 14.878-15.588 22.865 0 7.817 7.888 19.582 15.293 22.808 6.054 2.638 15.072 2.235 21.692-.97z" fill="#333" fill-opacity=".994"/></svg>