<svg xmlns="http://www.w3.org/2000/svg" width="748.235" height="751.153"><path d="M228.925 713.444c29.828-.2 79.028-.2 109.333 0 30.305.2 5.9.363-54.234.363-60.133 0-84.928-.163-55.1-.363zm385.1-129C670.854 527.61 717.65 481.11 718.017 481.11c.367 0-45.83 46.5-102.66 103.333-56.83 56.834-103.627 103.334-103.994 103.334-.366 0 45.83-46.5 102.66-103.334zm-251.667 29c27.683-.201 72.983-.201 100.666 0 27.684.201 5.034.366-50.333.366s-78.017-.165-50.333-.366zm198.333-43.667c4.724-4.767 8.89-8.667 9.256-8.667.367 0-3.198 3.9-7.923 8.667-4.724 4.766-8.89 8.666-9.256 8.666-.367 0 3.199-3.9 7.923-8.666zm-37.333 1.496c0-.276 1.05-1.326 2.333-2.333 2.115-1.658 2.162-1.611.503.503-1.741 2.221-2.836 2.928-2.836 1.83zm-16.794-27.83l-2.54-3 3 2.54c1.65 1.397 3 2.747 3 3 0 1.067-1.073.28-3.46-2.54zm-163.376-24.666c-1.659-2.115-1.612-2.162.503-.504 2.221 1.742 2.927 2.837 1.83 2.837-.277 0-1.327-1.05-2.333-2.333zm246.836-15.667c4.725-4.767 8.89-8.667 9.257-8.667.366 0-3.199 3.9-7.923 8.667-4.725 4.767-8.89 8.667-9.257 8.667-.366 0 3.2-3.9 7.923-8.667zm42.667-6.667c4.724-4.766 8.89-8.666 9.256-8.666.367 0-3.198 3.9-7.923 8.666-4.724 4.767-8.89 8.667-9.256 8.667-.367 0 3.199-3.9 7.923-8.667zM574.024 349.94c0-.277 1.05-1.327 2.334-2.333 2.114-1.659 2.162-1.612.503.503-1.742 2.221-2.837 2.927-2.837 1.83zM351.358 240.443c1.722-1.833 3.431-3.333 3.798-3.333s-.743 1.5-2.465 3.333c-1.722 1.834-3.431 3.334-3.798 3.334s.742-1.5 2.465-3.334zm-170.334-2.98c3.484-.274 9.184-.274 12.667 0 3.483.275.633.5-6.333.5-6.967 0-9.817-.225-6.334-.5zm50.667 0c3.483-.274 9.183-.274 12.667 0 3.483.275.633.5-6.334.5-6.966 0-9.816-.225-6.333-.5zm209.604-10.02l-5.27-5.666 5.666 5.27c5.27 4.902 6.28 6.063 5.27 6.063-.217 0-2.767-2.55-5.666-5.667zm149.962-2l-3.233-3.666 3.667 3.232c2.017 1.778 3.667 3.428 3.667 3.667 0 1.046-1.08.195-4.101-3.233zm45.915-61.666c0-6.967.224-9.817.5-6.334.274 3.484.274 9.184 0 12.667-.276 3.483-.5.633-.5-6.333zm0-50.667c0-6.967.224-9.817.5-6.333.274 3.483.274 9.183 0 12.666-.276 3.484-.5.634-.5-6.333zm-405.48.353c3.482-.274 9.182-.274 12.666 0 3.483.275.633.5-6.334.5-6.966 0-9.816-.225-6.333-.5zm0-76c3.482-.274 9.182-.274 12.666 0 3.483.275.633.5-6.334.5-6.966 0-9.816-.225-6.333-.5zm224.71-.004c3.875-.27 9.875-.267 13.334.006 3.459.274.288.495-7.045.491-7.333-.003-10.163-.227-6.289-.497z" fill="#333"/><path d="M49.596 750.778c20.665-.207 54.865-.207 76 0 21.136.206 4.228.375-37.572.375-41.8 0-59.092-.169-38.428-.375zM0 600.443c0-76.266.161-107.27.358-68.898.196 38.373.196 100.773 0 138.667C.16 708.106 0 676.71 0 600.443zm423.691 113.002c17.417-.21 45.917-.21 63.333 0 17.417.21 3.167.382-31.666.382-34.834 0-49.084-.172-31.667-.382zm210.333-113.002c61.23-61.233 111.628-111.333 111.994-111.333.367 0-49.43 50.1-110.66 111.333-61.23 61.234-111.628 111.334-111.994 111.334-.367 0 49.43-50.1 110.66-111.334zm-88.055-15.666c5.525-5.887 6.722-6.946 6.722-5.945 0 .214-2.85 3.064-6.333 6.334l-6.334 5.944zm-13.334-22.667c5.526-5.887 6.723-6.945 6.723-5.944 0 .214-2.85 3.064-6.334 6.333l-6.333 5.944zm-138.944-11.33c13.383-.218 35.283-.218 48.667 0 13.383.217 2.433.395-24.334.395-26.766 0-37.716-.178-24.333-.395zM99.95 512.443l.075-12 12.667-.083 12.667-.084-12.284.466-12.284.467-.458 11.617-.458 11.617.075-12zm518.02-1c3.269-3.483 6.119-6.333 6.333-6.333 1.001 0-.057 1.197-5.944 6.723l-6.334 5.944zm-13.334-22.666c5.526-5.887 6.723-6.946 6.723-5.944 0 .213-2.85 3.063-6.334 6.333l-6.333 5.944zm-404.797-213c0-6.967.225-9.817.5-6.334.274 3.484.274 9.184 0 12.667-.275 3.483-.5.633-.5-6.333zm112.958.555c.064-1.553.38-1.869.806-.805.385.962.338 2.112-.105 2.555-.443.443-.758-.344-.7-1.75zm0-6.666c.064-1.554.38-1.87.806-.806.385.963.338 2.113-.105 2.556-.443.443-.758-.345-.7-1.75zm-62.29-19.223c0-6.966.224-9.816.498-6.333.275 3.483.275 9.183 0 12.667-.274 3.483-.499.633-.499-6.334zm-50.668-24c0-6.966.225-9.816.5-6.333.274 3.483.274 9.183 0 12.667-.275 3.483-.5.633-.5-6.334zm234.016-6.333c-1.658-2.115-1.611-2.162.504-.503 2.22 1.742 2.927 2.836 1.83 2.836-.277 0-1.327-1.05-2.334-2.333zm-52.83-69.313c3.484-.275 9.184-.275 12.667 0 3.483.274.633.5-6.333.5-6.967 0-9.817-.226-6.334-.5zm238.667 0c3.483-.275 9.183-.275 12.667 0 3.483.274.633.5-6.334.5-6.966 0-9.816-.226-6.333-.5zm49.333 0c3.484-.275 9.184-.275 12.667 0 3.483.274.633.5-6.333.5-6.967 0-9.817-.226-6.334-.5zM550.611 88.443c0-20.533.185-28.747.41-18.252.226 10.494.226 27.294 0 37.333-.226 10.04-.41 1.453-.41-19.08zM250.505 101.11c0-6.967.225-9.817.5-6.333.274 3.483.274 9.183 0 12.666-.275 3.484-.5.634-.5-6.333zm393.186-.98c3.483-.275 9.183-.275 12.667 0 3.483.275.633.5-6.334.5-6.966 0-9.816-.225-6.333-.5zM199.838 75.777c0-6.967.225-9.817.5-6.334.274 3.484.274 9.184 0 12.667-.275 3.483-.5.633-.5-6.333zm50.667-25.334c0-6.966.225-9.816.5-6.333.274 3.483.274 9.183 0 12.667-.275 3.483-.5.633-.5-6.334zm130.52.354c3.483-.275 9.183-.275 12.666 0 3.483.274.633.5-6.333.5-6.967 0-9.817-.226-6.334-.5zm169.27-37.304l-.27-12.283L537.69.77 525.358.33l12.375-.276c9.284-.208 12.546.167 13.057 1.5.376.979.479 6.829.23 13l-.453 11.223z" fill="#333"/><path d="M463.024 688.114c8.984-.23 23.684-.23 32.667 0s1.633.42-16.333.42c-17.967 0-25.317-.19-16.334-.42zm72.334-93.004c2.487-2.567 4.823-4.667 5.19-4.667.366 0-1.37 2.1-3.857 4.667-2.488 2.567-4.823 4.667-5.19 4.667-.366 0 1.369-2.1 3.857-4.667zm8-44c2.487-2.567 4.823-4.667 5.19-4.667.366 0-1.37 2.1-3.857 4.667-2.488 2.567-4.823 4.667-5.19 4.667-.366 0 1.369-2.1 3.857-4.667zm64-29.333c2.487-2.567 4.823-4.667 5.19-4.667.366 0-1.37 2.1-3.857 4.667-2.488 2.566-4.823 4.666-5.19 4.666-.366 0 1.369-2.1 3.857-4.666zm-246.127-21l-2.54-3 3 2.54c2.82 2.387 3.607 3.46 2.54 3.46-.253 0-1.603-1.35-3-3zm254.127-23c2.487-2.567 4.823-4.667 5.19-4.667.366 0-1.37 2.1-3.857 4.667-2.488 2.566-4.823 4.666-5.19 4.666-.366 0 1.369-2.1 3.857-4.666zm-409-189.647c3.483-.275 9.183-.275 12.666 0 3.484.275.634.5-6.333.5-6.967 0-9.817-.225-6.333-.5zm.711-25.338c3.875-.27 9.875-.267 13.333.007 3.46.274.29.495-7.044.492-7.334-.004-10.163-.228-6.289-.498zm180.77-24.349c0-6.966.224-9.816.499-6.333.274 3.483.274 9.183 0 12.667-.275 3.483-.5.633-.5-6.334zm82.185.83c0-.276 1.05-1.326 2.334-2.333 2.114-1.658 2.162-1.611.503.503-1.742 2.221-2.837 2.928-2.837 1.83zm-15.46-34.496l-2.54-3 3 2.54c2.82 2.387 3.607 3.46 2.54 3.46-.253 0-1.603-1.35-3-3zm152.624.666c-1.659-2.114-1.612-2.161.503-.503 1.283 1.007 2.333 2.057 2.333 2.333 0 1.098-1.095.391-2.836-1.83zM319.73 162.795c3.506-.275 8.906-.272 12 .008 3.095.28.227.505-6.373.501-6.6-.004-9.132-.233-5.627-.508zm342.78-25.018c.004-7.334.228-10.163.498-6.289.27 3.875.267 9.875-.007 13.333-.274 3.46-.495.29-.491-7.044zm25.327.666c0-6.966.225-9.816.5-6.333.274 3.483.274 9.183 0 12.667-.275 3.483-.5.633-.5-6.334zM207.07 88.126c3.875-.27 9.875-.268 13.333.006 3.46.273.29.494-7.044.49-7.334-.002-10.163-.227-6.289-.497zm49.333 0c3.875-.27 9.875-.268 13.334.006 3.459.273.288.494-7.045.49-7.333-.002-10.163-.227-6.289-.497zm63.33.003c3.505-.276 8.905-.273 12 .007 3.094.28.226.505-6.374.5-6.6-.003-9.132-.232-5.627-.508zM207.068 62.792c3.875-.27 9.875-.267 13.333.007 3.46.273.29.494-7.044.49-7.334-.003-10.163-.227-6.289-.497zm49.333 0c3.875-.27 9.875-.267 13.334.007 3.459.273.288.494-7.045.49-7.333-.003-10.163-.227-6.289-.497zm63.33.003c3.505-.276 8.905-.272 12 .007 3.094.28.226.505-6.374.501-6.6-.004-9.132-.232-5.627-.508z" fill="#333"/><path d="M25.305 724.777c-.35-.917-.477-57.467-.284-125.667l.35-124 .327 124.987.326 124.987 62.334.36 62.333.36-62.375.32c-48.91.25-62.512-.04-63.01-1.347zm258.286-36.666c29.829-.2 79.029-.2 109.334 0 30.305.2 5.9.363-54.234.363-60.133 0-84.928-.163-55.1-.363zm241.767-83c2.864-2.934 5.508-5.334 5.874-5.334.367 0-1.677 2.4-4.54 5.333-2.865 2.933-5.509 5.333-5.875 5.333-.367 0 1.676-2.4 4.54-5.333zm-36.837-43.668c-1.659-2.114-1.611-2.161.503-.503 2.221 1.742 2.928 2.837 1.83 2.837-.277 0-1.327-1.05-2.333-2.334zm64.17-19.666c2.488-2.567 4.823-4.667 5.19-4.667s-1.369 2.1-3.857 4.667c-2.487 2.566-4.823 4.666-5.19 4.666-.366 0 1.37-2.1 3.857-4.666zm45.333-10.667c2.488-2.567 4.824-4.667 5.19-4.667.367 0-1.369 2.1-3.856 4.667-2.488 2.567-4.823 4.667-5.19 4.667s1.369-2.1 3.856-4.667zm-485.049-5.641l11.617-.458.467-12.284.466-12.284-.083 12.667-.084 12.667-12 .075-12 .075 11.617-.458zm265.92-.026c-.34-.55 12.074-.846 27.588-.66 53.596.647 58.717 1.088 15.953 1.374-23.606.157-43.2-.164-43.54-.714zm245.796-57c2.488-2.566 4.823-4.666 5.19-4.666s-1.369 2.1-3.857 4.666c-2.487 2.567-4.823 4.667-5.19 4.667-.366 0 1.37-2.1 3.857-4.667zM364.521 364.11c-1.658-2.115-1.611-2.162.503-.503 1.284 1.006 2.334 2.056 2.334 2.333 0 1.097-1.095.391-2.837-1.83zm-6.598-6.667l-3.232-3.666 3.667 3.232c3.427 3.021 4.278 4.101 3.232 4.101-.239 0-1.889-1.65-3.667-3.667zm-132.751-81.666c0-6.967.224-9.817.5-6.334.274 3.484.274 9.184 0 12.667-.276 3.483-.5.633-.5-6.333zm62.549-2.667c0-3.3.26-4.65.578-3 .318 1.65.318 4.35 0 6-.318 1.65-.578.3-.578-3zm-62.55-22.667c0-6.966.225-9.816.5-6.333.275 3.483.275 9.183 0 12.667-.275 3.483-.5.633-.5-6.334zm-.007-24.666c-.004-6.6.221-9.468.5-6.374.28 3.095.284 8.495.009 12-.276 3.506-.505.974-.509-5.626zm250.86 7.333c1.328-1.467 2.714-2.667 3.08-2.667.367 0-.419 1.2-1.746 2.667-1.328 1.467-2.714 2.667-3.08 2.667-.367 0 .42-1.2 1.746-2.667zm-16.836-23.667c-1.659-2.114-1.612-2.161.503-.503 2.221 1.742 2.927 2.837 1.83 2.837-.277 0-1.327-1.05-2.333-2.334zm66.106-84.686c-.356-.928-.477-17.878-.27-37.667l.38-35.98.31 36.95.31 36.95 12.334.44 12.333.44-12.375.277c-8.959.2-12.554-.19-13.022-1.41zm94.437.705c3.506-.276 8.906-.272 12 .008 3.095.28.227.505-6.373.5-6.6-.003-9.132-.232-5.627-.508zm23.96 0c3.483-.274 9.183-.274 12.667 0 3.483.275.633.5-6.334.5-6.966 0-9.816-.225-6.333-.5zm25.333 0c3.484-.274 9.184-.274 12.667 0 3.483.275.633.5-6.333.5-6.967 0-9.817-.225-6.334-.5zM225.172 101.11c0-6.967.224-9.817.5-6.333.274 3.483.274 9.183 0 12.666-.276 3.484-.5.634-.5-6.333zm0-25.333c0-6.967.224-9.817.5-6.334.274 3.484.274 9.184 0 12.667-.276 3.483-.5.633-.5-6.333zm0-25.334c0-6.966.224-9.816.5-6.333.274 3.483.274 9.183 0 12.667-.276 3.483-.5.633-.5-6.334zm155.852-24.98c3.484-.274 9.184-.274 12.667 0 3.483.275.633.5-6.333.5-6.967 0-9.817-.225-6.334-.5zm144.234-.798c-.375-.978-.478-6.828-.23-13l.454-11.222.271 12.284.271 12.283 12.334.44 12.333.44-12.375.277c-9.284.207-12.546-.168-13.058-1.502z" fill="#333"/><path d="M189.097 688.114c7.923-.236 20.523-.235 28 .001 7.477.238.994.43-14.406.43-15.4-.001-21.517-.195-13.594-.432zm171.26-100.003c25.85-.203 68.15-.203 94 0 25.85.202 4.7.368-47 .368s-72.85-.166-47-.368zm226.945-46c3.27-3.484 6.12-6.334 6.333-6.334 1.002 0-.057 1.197-5.944 6.722l-6.333 5.944zm-24-10.668c5.525-5.886 6.722-6.945 6.722-5.944 0 .214-2.85 3.064-6.333 6.334l-6.333 5.944zm-371.944-10.836c0-.277 1.05-1.327 2.333-2.334 2.115-1.658 2.162-1.611.503.504-1.741 2.22-2.836 2.927-2.836 1.83zm-16-18.667c0-.277 1.05-1.327 2.333-2.333 2.115-1.659 2.162-1.612.503.503-1.741 2.221-2.836 2.927-2.836 1.83zm478.666-28c0-.277 1.05-1.327 2.334-2.333 2.114-1.659 2.162-1.612.503.503-1.742 2.221-2.837 2.927-2.837 1.83zm80.636-11.83l-10.636-11 11 10.636c10.217 9.877 11.608 11.364 10.636 11.364-.2 0-5.15-4.95-11-11zm-99.358-4c3.27-3.483 6.12-6.333 6.333-6.333 1.002 0-.057 1.197-5.944 6.722l-6.333 5.944zm43.806-21.91c.962-.386 2.112-.338 2.555.105.443.443-.344.758-1.75.7-1.553-.064-1.869-.38-.805-.806zm6.666 0c.963-.386 2.113-.338 2.556.105.443.443-.344.758-1.75.7-1.553-.064-1.87-.38-.806-.806zm-334.586-50.757c-1.659-2.114-1.612-2.161.503-.503 2.221 1.742 2.927 2.837 1.83 2.837-.277 0-1.327-1.05-2.333-2.334zm230.78-7.333c3.27-3.483 6.12-6.333 6.334-6.333 1.001 0-.057 1.197-5.944 6.722l-6.334 5.944zm-213.447-10c-1.658-2.115-1.611-2.162.503-.503 2.221 1.742 2.928 2.836 1.83 2.836-.277 0-1.327-1.05-2.333-2.333zm196.837-8.333c3.611-3.667 6.866-6.667 7.233-6.667.366 0-2.288 3-5.9 6.667-3.611 3.666-6.866 6.666-7.233 6.666s2.288-3 5.9-6.666zM352.52 352.11c-1.658-2.115-1.611-2.162.503-.503 1.284 1.006 2.334 2.056 2.334 2.333 0 1.097-1.095.391-2.837-1.83zM636.796 279c.064-1.553.38-1.87.806-.806.385.963.338 2.113-.105 2.556-.443.443-.759-.344-.7-1.75zm.106-8.556c0-1.833.302-2.583.672-1.666.37.916.37 2.416 0 3.333-.37.917-.672.167-.672-1.667zm-455.878-7.646c3.484-.275 9.184-.275 12.667 0 3.483.274.633.5-6.333.5-6.967 0-9.817-.226-6.334-.5zm50.667 0c3.483-.275 9.183-.275 12.667 0 3.483.274.633.5-6.334.5-6.966 0-9.816-.226-6.333-.5zm230.083-21.264c.963-.386 2.113-.338 2.556.105.443.443-.344.758-1.75.7-1.553-.064-1.87-.38-.806-.805zm17.584-11.507c0-.23 1.95-2.18 4.333-4.333l4.333-3.916-3.916 4.333c-3.65 4.04-4.75 4.946-4.75 3.916zm-147.334-4.916c1.328-1.467 2.714-2.667 3.08-2.667.367 0-.419 1.2-1.746 2.667-1.328 1.467-2.714 2.667-3.08 2.667-.367 0 .42-1.2 1.746-2.667zm138-20.503c0-.277 1.05-1.327 2.334-2.334 2.114-1.658 2.162-1.611.503.504-1.742 2.22-2.837 2.927-2.837 1.83zm192.481-40.83c0-6.967.225-9.817.5-6.334.274 3.484.274 9.184 0 12.667-.275 3.483-.5.633-.5-6.333zm-205.48-.98c3.483-.275 9.183-.275 12.666 0 3.483.274.633.5-6.333.5-6.967 0-9.817-.226-6.334-.5zm205.48-49.687c0-6.967.225-9.817.5-6.333.274 3.483.274 9.183 0 12.666-.275 3.484-.5.634-.5-6.333zM231.691 88.13c3.483-.275 9.183-.275 12.667 0 3.483.275.633.5-6.334.5-6.966 0-9.816-.225-6.333-.5zm225.333 0c3.484-.275 9.184-.275 12.667 0 3.483.275.633.5-6.333.5-6.967 0-9.817-.225-6.334-.5zM231.691 62.797c3.483-.275 9.183-.275 12.667 0 3.483.274.633.5-6.334.5-6.966 0-9.816-.226-6.333-.5zm225.333 0c3.484-.275 9.184-.275 12.667 0 3.483.274.633.5-6.333.5-6.967 0-9.817-.226-6.334-.5z" fill="#333"/><path d="M150.664 601.11c0-69.3.162-97.65.36-63 .198 34.65.198 91.35 0 126-.198 34.65-.36 6.3-.36-63zm162.508 0c0-6.967.224-9.817.5-6.333.274 3.483.274 9.183 0 12.666-.276 3.484-.5.634-.5-6.333zm248.852-33.7c0-.202 4.65-4.852 10.334-10.333l10.333-9.967-9.967 10.333c-9.256 9.598-10.7 10.942-10.7 9.967zm-56.1-23.3l-3.233-3.667 3.667 3.233c3.427 3.021 4.278 4.1 3.232 4.1-.239 0-1.889-1.65-3.667-3.666zm64.1-19.367c0-.201 4.65-4.851 10.334-10.333l10.333-9.967-9.967 10.334c-9.256 9.597-10.7 10.941-10.7 9.966zm-318.919-24.63c10.494-.226 27.294-.225 37.333 0 10.04.227 1.453.411-19.08.41-20.534 0-28.747-.185-18.253-.41zm382.92-6.036c0-.202 4.65-4.852 10.333-10.334l10.333-9.966-9.967 10.333c-9.256 9.597-10.7 10.942-10.7 9.967zm78.666-18.967c-3.239-3.3-5.588-6-5.222-6 .367 0 3.317 2.7 6.555 6 3.24 3.3 5.589 6 5.222 6-.366 0-3.316-2.7-6.555-6zm-406.917 1.09c.963-.386 2.113-.338 2.556.105.443.443-.344.758-1.75.7-1.553-.064-1.87-.38-.806-.806zM2.024 456.606c0-.277 1.05-1.327 2.334-2.334 2.114-1.658 2.162-1.611.503.504-1.742 2.22-2.837 2.927-2.837 1.83zm47.572-5.83c20.665-.206 54.865-.206 76 0 21.136.207 4.228.376-37.572.376-41.8 0-59.092-.169-38.428-.375zm513.762-55.504c0-.276 1.05-1.326 2.333-2.333 2.115-1.658 2.162-1.611.503.503-1.741 2.221-2.836 2.928-2.836 1.83zm-220-17.496c-3.239-3.3-5.589-6-5.222-6s3.316 2.7 6.555 6 5.589 6 5.222 6-3.317-2.7-6.555-6zm29.163-5.667c-1.658-2.115-1.611-2.162.503-.503 2.221 1.742 2.928 2.836 1.83 2.836-.277 0-1.327-1.05-2.333-2.333zm183.503-3c1.328-1.467 2.714-2.667 3.08-2.667.367 0-.419 1.2-1.746 2.667-1.328 1.467-2.714 2.667-3.08 2.667-.367 0 .42-1.2 1.746-2.667zm16.667-16.503c0-.277 1.05-1.327 2.333-2.334 2.115-1.658 2.162-1.611.504.504-1.742 2.22-2.837 2.927-2.837 1.83zm64.105-77.608c.064-1.553.38-1.87.806-.806.385.963.338 2.113-.105 2.556-.443.443-.759-.344-.7-1.75zM199.95 249.777l.075-12 12.667-.084 12.667-.084-12.284.467-12.284.466-.458 11.618-.458 11.617.075-12zm248.013-17l-5.27-5.667 5.666 5.27c5.27 4.902 6.28 6.063 5.27 6.063-.218 0-2.768-2.55-5.666-5.666zm41.396-13c1.327-1.467 2.713-2.667 3.08-2.667.366 0-.42 1.2-1.747 2.667-1.327 1.466-2.713 2.666-3.08 2.666s.42-1.2 1.747-2.666zm-283-6.314c3.483-.274 9.183-.274 12.666 0 3.484.275.634.5-6.333.5-6.967 0-9.817-.225-6.333-.5zm259.666-5.02c1.723-1.833 3.432-3.333 3.799-3.333.366 0-.743 1.5-2.465 3.333-1.723 1.834-3.432 3.334-3.798 3.334-.367 0 .742-1.5 2.464-3.334zM313.242 187.11c.001-13.2.2-18.42.443-11.6.243 6.821.242 17.621-.003 24-.243 6.38-.442.8-.44-12.4zm287.279 13c-1.659-2.115-1.611-2.162.503-.503 2.221 1.742 2.928 2.836 1.83 2.836-.277 0-1.327-1.05-2.333-2.333zm-65.497.06c1.65-.319 4.35-.319 6 0 1.65.317.3.577-3 .577s-4.65-.26-3-.578zm-197.846-23.727c.004-7.333.227-10.163.498-6.288.27 3.874.267 9.874-.007 13.333-.274 3.459-.495.289-.492-7.045zm41.93-.244c.962-.385 2.112-.337 2.555.106.443.443-.344.758-1.75.7-1.553-.064-1.869-.38-.805-.806zm152 0c.962-.385 2.112-.337 2.555.106.443.443-.344.758-1.75.7-1.553-.064-1.869-.38-.805-.806zm-80.497-50.422c0-20.534.185-28.747.41-18.253.226 10.494.226 27.294 0 37.333-.226 10.04-.41 1.453-.41-19.08zm186.647 24.222c-.375-.978-.478-6.828-.23-13l.454-11.222.271 12.283.271 12.283 12.334.44 12.333.44-12.375.277c-9.284.208-12.546-.167-13.058-1.501zM399.945 113.11c0-20.9.184-29.45.41-19 .225 10.45.225 27.55 0 38-.226 10.45-.41 1.9-.41-19zm213.227 25.333c0-6.966.224-9.816.5-6.333.274 3.483.274 9.183 0 12.667-.276 3.483-.5.633-.5-6.334zm-300.48-12.666V113.11h25.332v25.333h-25.333zm24 0v-11.334h-22.668v22.667h22.667zm-86.187-50c0-6.967.225-9.817.5-6.334.274 3.484.274 9.184 0 12.667-.275 3.483-.5.633-.5-6.333zm62.667 0c0-6.967.224-9.817.5-6.334.274 3.484.274 9.184 0 12.667-.276 3.483-.5.633-.5-6.333zm24 0c0-6.967.224-9.817.5-6.334.274 3.484.274 9.184 0 12.667-.276 3.483-.5.633-.5-6.333zm113.333-25.334c0-6.966.225-9.816.5-6.333.274 3.483.274 9.183 0 12.667-.275 3.483-.5.633-.5-6.334zm81.186.354c3.483-.275 9.183-.275 12.667 0 3.483.274.633.5-6.334.5-6.966 0-9.816-.226-6.333-.5zM399.838 38.443c0-6.966.225-9.816.5-6.333.274 3.483.274 9.183 0 12.667-.275 3.483-.5.633-.5-6.334z" fill="#333"/><path d="M7.384 748.73C.506 745.25.732 750.279.711 600.213l-.02-140.23 3.452-4.103 3.452-4.102h159.614l3.741 3.215 3.741 3.214.423 22.144.424 22.143 6.873-6.012c8.083-7.072 22.128-14.303 34.28-17.65 7.524-2.073 14.47-2.386 52.667-2.373 49.638.016 52.836.47 71.428 10.125 13.332 6.924 23.754 16.429 32.152 29.323l6.864 10.537H425.3c49.957 0 55.174.613 67.984 7.977 3.707 2.131 9.855 7.058 13.66 10.95 6.589 6.734 15.08 20.554 15.08 24.542 0 1.026.54 1.865 1.2 1.865.659 0 28.036-27.287 60.838-60.638s62.564-62.515 66.137-64.808c18.276-11.727 44.882-12.381 63.825-1.568 8.529 4.868 33.01 29.171 34.02 33.773.49 2.226.016 5.22-1.183 7.477-2.37 4.463-221.51 223.484-225.749 225.625-2.079 1.051-51.962 1.472-174.333 1.472H175.358v12.468c0 6.857-.665 14.375-1.478 16.707-2.9 8.32-1.211 8.16-86.123 8.139-59.137-.015-77.835-.41-80.373-1.693zm143.974-147.62V475.777H24.69v250.666h126.667zm-50.667-88v-12h24v24h-24zm514.44 71.561l104.432-104.44-7.314-6.683c-4.022-3.677-9.618-7.8-12.436-9.164-7.345-3.554-21.214-4.118-30.01-1.218-6.63 2.185-10.502 5.79-57.064 53.144-27.474 27.94-60.01 61-72.302 73.467l-22.35 22.666-102.03.358-102.033.358V589.11h186.667v-3.762c0-7.643-4.32-16.733-11.246-23.658-11.17-11.17-11.656-11.247-70.812-11.247-58.854 0-54.76.932-61.768-14.046-8.073-17.252-25.055-30.686-43.814-34.661-12.592-2.669-74.705-2.688-87.258-.027-20.32 4.307-35.982 16.526-44.768 34.929l-5 10.472-.378 71-.378 71h335.428zM440.19 451.443c-63.612-38.61-116.115-87.359-137.204-127.394-9.265-17.587-13.067-30.414-13.92-46.96-1.155-22.408 4.8-41.582 18.446-59.386l6.512-8.496v-45.43h22.667v12.666c0 6.967.533 12.667 1.184 12.667.65 0 5-1.78 9.666-3.955s12.383-4.962 17.15-6.192c11.537-2.978 32.655-2.997 44-.04 17.289 4.506 35.704 15.285 47.928 28.054 2.527 2.64 5.141 4.8 5.808 4.8.667 0 5.572-4.05 10.9-9 16.666-15.484 32.338-22.901 54.084-25.595 27.059-3.352 52.221 4.787 74.552 24.115 24.82 21.484 35.886 46.502 34.357 77.675-.813 16.56-3.31 25.61-11.816 42.805-16.638 33.636-57.717 75.17-109.146 110.355-24.536 16.786-48.088 30.311-52.78 30.311-2.989 0-9.69-3.292-22.388-11zm55.168-35.1c54.487-36.248 93.232-74.235 108.668-106.542 14.934-31.257 10.625-62.178-11.823-84.825-17.004-17.156-33.51-24.476-54.845-24.322-21.467.155-35.038 6.833-56.87 27.986-17.67 17.121-17.294 17.144-38.693-2.297-22.407-20.356-32.921-25.233-54.4-25.233-21.324 0-36.982 6.603-53.004 22.35-18.51 18.194-25.722 42.503-19.692 66.37 2.823 11.174 12.413 30.046 21.684 42.67 21.896 29.816 64.591 66.422 111.273 95.404l14.816 9.197 6.11-3.504c3.36-1.928 15.41-9.692 26.776-17.254zm-156.6-146.9c1.845-13.045 9.27-25.662 19.537-33.198 6.506-4.776 19.76-9.802 25.848-9.802 3.16 0 3.215.208 3.215 12 0 11.19-.184 12-2.72 12-4.208 0-12.57 4.77-16.455 9.389-1.931 2.294-4.178 6.82-4.993 10.058l-1.482 5.887H337.86zm-138.067 6.334v-12h24v24h-24zm-25.333-25.334v-12h24v24h-24zm50.666 0v-12h24v24h-24zm-25.333-24.666v-11.334h24v22.667h-24zm437.333-62v-12h24v24h-24zm-186.666-38V89.11h24v73.333h-24zm-76-12.667V75.777h24v74.666h-24zm238.666 25.333v-12h22.667v24h-22.667zm49.334 0v-12h24v24h-24zm-349.334-12.666v-11.334h22.667v22.667h-22.667zm212-37.334V51.777h24v73.333h-24zm112 24.667v-12h24v24h-24zm-412-12v-12h24v24h-24zm-25.333-25.333v-12h24v24h-24zm50.667 0v-12h24v24h-24zm62.666 0v-12h22.667v24h-22.667zm-88-25.334v-12h24v24h-24zm225.334 0v-12h24v24h-24zm-76-12v-12h24v24h-24zM526.024 13.11v-12h24v24h-24z" fill="#333"/></svg>