<?xml version="1.0" encoding="UTF-8" standalone="no"?>
<!-- Created with Inkscape (http://www.inkscape.org/) -->

<svg
   xmlns:dc="http://purl.org/dc/elements/1.1/"
   xmlns:cc="http://creativecommons.org/ns#"
   xmlns:rdf="http://www.w3.org/1999/02/22-rdf-syntax-ns#"
   xmlns:svg="http://www.w3.org/2000/svg"
   xmlns="http://www.w3.org/2000/svg"
   xmlns:sodipodi="http://sodipodi.sourceforge.net/DTD/sodipodi-0.dtd"
   xmlns:inkscape="http://www.inkscape.org/namespaces/inkscape"
   version="1.1"
   id="svg2"
   width="748.23505"
   height="751.15302"
   viewBox="0 0 748.23504 751.15301"
   sodipodi:docname="education.svg"
   inkscape:version="0.92.3 (2405546, 2018-03-11)">
  <metadata
     id="metadata8">
    <rdf:RDF>
      <cc:Work
         rdf:about="">
        <dc:format>image/svg+xml</dc:format>
        <dc:type
           rdf:resource="http://purl.org/dc/dcmitype/StillImage" />
        <dc:title></dc:title>
      </cc:Work>
    </rdf:RDF>
  </metadata>
  <defs
     id="defs6" />
  <sodipodi:namedview
     pagecolor="#ffffff"
     bordercolor="#666666"
     borderopacity="1"
     objecttolerance="10"
     gridtolerance="10"
     guidetolerance="10"
     inkscape:pageopacity="0"
     inkscape:pageshadow="2"
     inkscape:window-width="1918"
     inkscape:window-height="1181"
     id="namedview4"
     showgrid="false"
     fit-margin-top="0"
     fit-margin-left="0"
     fit-margin-right="0"
     fit-margin-bottom="0"
     inkscape:zoom="0.35759401"
     inkscape:cx="-255.28757"
     inkscape:cy="1037.7329"
     inkscape:window-x="1920"
     inkscape:window-y="17"
     inkscape:window-maximized="0"
     inkscape:current-layer="svg2" />
  <g
     id="g12"
     transform="translate(-91.308915,-24.223205)">
    <path
       style="fill:#d1d1d1;stroke-width:1.33333325"
       d="m 320.23374,737.66715 c 29.82856,-0.19997 79.02856,-0.20005 109.33333,-1.7e-4 30.30477,0.19987 5.89959,0.36348 -54.23375,0.36357 -60.13333,1.1e-4 -84.92814,-0.16342 -55.09958,-0.3634 z m 385.09958,-129.0005 c 56.82978,-56.83333 103.62687,-103.33333 103.99354,-103.33333 0.36667,0 -45.83043,46.5 -102.66021,103.33333 -56.82979,56.83333 -103.62688,103.33333 -103.99355,103.33333 -0.36666,0 45.83043,-46.5 102.66022,-103.33333 z m -251.66666,29.00049 c 27.68333,-0.20124 72.98333,-0.20124 100.66666,0 27.68333,0.20123 5.03333,0.36588 -50.33333,0.36588 -55.36667,0 -78.01667,-0.16465 -50.33333,-0.36588 z m 198.33332,-43.66715 c 4.7243,-4.76667 8.88963,-8.66667 9.2563,-8.66667 0.36666,0 -3.19867,3.9 -7.92296,8.66667 -4.7243,4.76666 -8.88963,8.66666 -9.2563,8.66666 -0.36666,0 3.19867,-3.9 7.92296,-8.66666 z m -37.33333,1.49658 c 0,-0.27686 1.05,-1.32686 2.33333,-2.33333 2.11475,-1.65849 2.16191,-1.61133 0.50342,0.50341 -1.74183,2.221 -2.83675,2.92731 -2.83675,1.82992 z m -16.79334,-27.82992 -2.53999,-3 3,2.53999 c 1.65,1.39699 3,2.74699 3,3 0,1.067 -1.07306,0.27927 -3.46001,-2.53999 z M 434.49658,542.99999 c -1.6585,-2.11475 -1.61134,-2.16191 0.50341,-0.50342 2.221,1.74183 2.92731,2.83675 1.82992,2.83675 -0.27687,0 -1.32687,-1.05 -2.33333,-2.33333 z m 246.83674,-15.66667 c 4.72429,-4.76667 8.88962,-8.66667 9.25629,-8.66667 0.36667,0 -3.19867,3.9 -7.92296,8.66667 -4.72429,4.76667 -8.88963,8.66667 -9.25629,8.66667 -0.36667,0 3.19866,-3.9 7.92296,-8.66667 z m 42.66666,-6.66667 c 4.7243,-4.76666 8.88963,-8.66666 9.2563,-8.66666 0.36666,0 -3.19867,3.9 -7.92296,8.66666 -4.7243,4.76667 -8.88963,8.66667 -9.2563,8.66667 -0.36666,0 3.19867,-3.9 7.92296,-8.66667 z M 665.33332,374.16324 c 0,-0.27686 1.05,-1.32686 2.33333,-2.33333 2.11475,-1.65849 2.16191,-1.61133 0.50341,0.50341 -1.74182,2.221 -2.83674,2.92731 -2.83674,1.82992 z M 442.66666,264.66666 c 1.72233,-1.83333 3.4315,-3.33333 3.79817,-3.33333 0.36667,0 -0.74251,1.5 -2.46484,3.33333 -1.72233,1.83333 -3.43151,3.33333 -3.79817,3.33333 -0.36667,0 0.7425,-1.5 2.46484,-3.33333 z m -170.33333,-2.98005 c 3.48333,-0.27467 9.18333,-0.27467 12.66666,0 3.48334,0.27466 0.63334,0.49938 -6.33333,0.49938 -6.96667,0 -9.81667,-0.22472 -6.33333,-0.49938 z m 50.66666,0 c 3.48334,-0.27467 9.18334,-0.27467 12.66667,0 3.48333,0.27466 0.63333,0.49938 -6.33333,0.49938 -6.96667,0 -9.81667,-0.22472 -6.33334,-0.49938 z m 209.60393,-10.01995 -5.2706,-5.66667 5.66667,5.2706 c 5.26994,4.9016 6.27937,6.06274 5.2706,6.06274 -0.21784,0 -2.76784,-2.55 -5.66667,-5.66667 z m 149.96181,-2 -3.23241,-3.66667 3.66666,3.23242 c 2.01667,1.77784 3.66667,3.42784 3.66667,3.66666 0,1.04571 -1.07973,0.19464 -4.10092,-3.23241 z M 728.48065,188 c 0,-6.96667 0.22472,-9.81667 0.49939,-6.33334 0.27466,3.48334 0.27466,9.18334 0,12.66667 -0.27467,3.48333 -0.49939,0.63333 -0.49939,-6.33333 z m 0,-50.66667 c 0,-6.96667 0.22472,-9.81667 0.49939,-6.33333 0.27466,3.48333 0.27466,9.18333 0,12.66666 -0.27467,3.48334 -0.49939,0.63334 -0.49939,-6.33333 z m -405.48066,0.35328 c 3.48334,-0.27467 9.18334,-0.27467 12.66667,0 3.48333,0.27467 0.63333,0.49939 -6.33333,0.49939 -6.96667,0 -9.81667,-0.22472 -6.33334,-0.49939 z m 0,-75.999997 c 3.48334,-0.274665 9.18334,-0.274665 12.66667,0 3.48333,0.274664 0.63333,0.499391 -6.33333,0.499391 -6.96667,0 -9.81667,-0.224727 -6.33334,-0.499391 z m 224.71136,-0.0045 c 3.87458,-0.27019 9.87458,-0.26735 13.33333,0.0063 3.45875,0.27366 0.28864,0.494724 -7.04469,0.491252 -7.33334,-0.0035 -10.16323,-0.227376 -6.28864,-0.497564 z"
       id="path26"
       inkscape:connector-curvature="0"
       sodipodi:nodetypes="ssssssssssssssscsssccscccscccsccsssccssscsccscssscccscccscscsssccsscsccssccsssssssssccccc" />
    <path
       style="fill:#b6b6b6;stroke-width:1.33333325"
       d="m 140.90506,775.00099 c 20.66446,-0.20656 54.86446,-0.2067 76,-3.4e-4 21.13555,0.20636 4.22827,0.37536 -37.57173,0.37554 -41.8,1.9e-4 -59.09272,-0.16865 -38.42827,-0.3752 z M 91.308915,624.66665 c 6.1e-5,-76.26666 0.160956,-107.2708 0.357543,-68.89808 0.196586,38.37272 0.196537,100.77272 -1.12e-4,138.66667 -0.196648,37.89394 -0.357492,6.49808 -0.357431,-69.76859 z M 514.99999,737.66782 c 17.41666,-0.21052 45.91666,-0.21052 63.33333,0 17.41667,0.21053 3.16667,0.38279 -31.66667,0.38279 -34.83333,0 -49.08333,-0.17226 -31.66666,-0.38279 z M 725.33332,624.66665 c 61.23003,-61.23333 111.62734,-111.33333 111.99401,-111.33333 0.36666,0 -49.43064,50.1 -110.66068,111.33333 -61.23004,61.23333 -111.62735,111.33333 -111.99401,111.33333 -0.36667,0 49.43064,-50.1 110.66068,-111.33333 z M 637.2776,608.99998 c 5.52528,-5.88692 6.72238,-6.94545 6.72238,-5.94428 0,0.21399 -2.85,3.06399 -6.33333,6.33334 l -6.33333,5.94428 z m -13.33334,-22.66666 c 5.52528,-5.88692 6.72239,-6.94545 6.72239,-5.94428 0,0.21399 -2.85,3.06399 -6.33333,6.33333 l -6.33334,5.94428 z m -138.94427,-11.3314 c 13.38333,-0.21748 35.28333,-0.21748 48.66666,0 13.38334,0.21748 2.43334,0.39541 -24.33333,0.39541 -26.76667,0 -37.71667,-0.17793 -24.33333,-0.39541 z m -293.74165,-38.33527 0.0749,-12 12.66666,-0.0839 12.66667,-0.0839 -12.28395,0.46652 -12.28396,0.46652 -0.45769,11.61729 -0.45771,11.61728 0.0749,-12 z m 518.01926,-1 c 3.26934,-3.48333 6.11934,-6.33333 6.33333,-6.33333 1.00117,0 -0.0573,1.19711 -5.94428,6.72239 l -6.33333,5.94428 z m -13.33334,-22.66666 c 5.52528,-5.88692 6.72239,-6.94546 6.72239,-5.94428 0,0.21398 -2.85,3.06398 -6.33333,6.33333 l -6.33334,5.94428 z m -404.79693,-213 c 0,-6.96666 0.22472,-9.81666 0.49938,-6.33333 0.27467,3.48333 0.27467,9.18333 0,12.66667 -0.27466,3.48333 -0.49938,0.63333 -0.49938,-6.33334 z m 112.95793,0.55556 c 0.064,-1.55326 0.37992,-1.8692 0.80554,-0.80556 0.38516,0.9625 0.3378,2.1125 -0.1052,2.55556 -0.44305,0.44306 -0.75818,-0.34445 -0.70029,-1.75 z m 0,-6.66666 c 0.064,-1.55327 0.37992,-1.8692 0.80554,-0.80556 0.38516,0.96249 0.3378,2.11249 -0.1052,2.55556 -0.44305,0.44305 -0.75818,-0.34446 -0.70029,-1.75 z m -62.29127,-19.22223 c 0,-6.96667 0.22472,-9.81667 0.49939,-6.33333 0.27466,3.48333 0.27466,9.18333 0,12.66666 -0.27467,3.48334 -0.49939,0.63334 -0.49939,-6.33333 z m -50.66666,-24 c 0,-6.96667 0.22472,-9.81667 0.49938,-6.33333 0.27467,3.48333 0.27467,9.18333 0,12.66666 -0.27466,3.48334 -0.49938,0.63334 -0.49938,-6.33333 z m 234.01591,-6.33333 c -1.65849,-2.11475 -1.61133,-2.16191 0.50341,-0.50342 2.221,1.74183 2.92731,2.83675 1.82992,2.83675 -0.27686,0 -1.32686,-1.05 -2.33333,-2.33333 z m -52.82992,-69.31339 c 3.48333,-0.27466 9.18333,-0.27466 12.66667,0 3.48333,0.27467 0.63333,0.49939 -6.33334,0.49939 -6.96666,0 -9.81666,-0.22472 -6.33333,-0.49939 z m 238.66666,0 c 3.48334,-0.27466 9.18334,-0.27466 12.66667,0 3.48333,0.27467 0.63333,0.49939 -6.33333,0.49939 -6.96667,0 -9.81667,-0.22472 -6.33334,-0.49939 z m 49.33333,0 c 3.48334,-0.27466 9.18334,-0.27466 12.66667,0 3.48333,0.27467 0.63333,0.49939 -6.33333,0.49939 -6.96667,0 -9.81667,-0.22472 -6.33334,-0.49939 z M 641.91946,112.66666 c 6.7e-4,-20.533329 0.18576,-28.747027 0.41131,-18.25266 0.22555,10.49437 0.225,27.29437 -10e-4,37.33333 -0.22621,10.03897 -0.41076,1.45267 -0.41008,-19.08067 z m -300.10547,12.66667 c 0,-6.96667 0.22472,-9.81667 0.49939,-6.33333 0.27466,3.48333 0.27466,9.18333 0,12.66666 -0.27467,3.48334 -0.49939,0.63334 -0.49939,-6.33333 z m 393.18599,-0.98005 c 3.48333,-0.27467 9.18333,-0.27467 12.66667,0 3.48333,0.27466 0.63333,0.49939 -6.33334,0.49939 -6.96666,0 -9.81666,-0.22473 -6.33333,-0.49939 z M 291.14733,99.999998 c 0,-6.966667 0.22472,-9.816667 0.49938,-6.333334 0.27467,3.483334 0.27467,9.183336 0,12.666666 -0.27466,3.48333 -0.49938,0.63333 -0.49938,-6.333332 z m 50.66666,-25.333333 c 0,-6.966667 0.22472,-9.816667 0.49939,-6.333333 0.27466,3.483333 0.27466,9.183333 0,12.666666 -0.27467,3.483333 -0.49939,0.633333 -0.49939,-6.333333 z m 130.51933,0.353281 c 3.48333,-0.274665 9.18333,-0.274665 12.66667,0 3.48333,0.274664 0.63333,0.499391 -6.33334,0.499391 -6.96666,0 -9.81666,-0.224727 -6.33333,-0.499391 z m 169.2714,-37.303246 -0.2714,-12.283298 -12.33334,-0.439979 -12.33333,-0.439978 12.37517,-0.276723 c 9.28411,-0.207603 12.54562,0.167416 13.05752,1.501396 0.37528,0.977967 0.47858,6.827967 0.22955,13 l -0.45279,11.221881 z"
       id="path24"
       inkscape:connector-curvature="0" />
    <path
       style="fill:#939393;stroke-width:1.33333325"
       d="m 554.33332,712.33732 c 8.98333,-0.23068 23.68333,-0.23068 32.66667,0 8.98333,0.23068 1.63333,0.41941 -16.33334,0.41941 -17.96666,0 -25.31666,-0.18873 -16.33333,-0.41941 z m 72.33333,-93.004 c 2.48771,-2.56667 4.82311,-4.66667 5.18977,-4.66667 0.36667,0 -1.36873,2.1 -3.85644,4.66667 -2.4877,2.56666 -4.8231,4.66666 -5.18977,4.66666 -0.36667,0 1.36873,-2.1 3.85644,-4.66666 z m 8,-44 c 2.48771,-2.56667 4.82311,-4.66667 5.18977,-4.66667 0.36667,0 -1.36873,2.1 -3.85644,4.66667 -2.4877,2.56667 -4.8231,4.66667 -5.18977,4.66667 -0.36667,0 1.36873,-2.1 3.85644,-4.66667 z m 64,-29.33333 c 2.48771,-2.56667 4.82311,-4.66667 5.18977,-4.66667 0.36667,0 -1.36873,2.1 -3.85644,4.66667 -2.4877,2.56666 -4.8231,4.66666 -5.18977,4.66666 -0.36667,0 1.36873,-2.1 3.85644,-4.66666 z m -246.12667,-21 -2.53999,-3 3,2.53998 c 2.81925,2.38696 3.60699,3.46002 2.53999,3.46002 -0.25302,0 -1.60302,-1.35 -3,-3 z m 254.12667,-23 c 2.48771,-2.56667 4.82311,-4.66667 5.18977,-4.66667 0.36667,0 -1.36873,2.1 -3.85644,4.66667 -2.4877,2.56666 -4.8231,4.66666 -5.18977,4.66666 -0.36667,0 1.36873,-2.1 3.85644,-4.66666 z M 297.66666,312.35327 c 3.48333,-0.27466 9.18333,-0.27466 12.66667,0 3.48333,0.27467 0.63333,0.49939 -6.33334,0.49939 -6.96666,0 -9.81666,-0.22472 -6.33333,-0.49939 z m 0.71136,-25.33781 c 3.87459,-0.2702 9.87459,-0.26736 13.33333,0.007 3.45875,0.27366 0.28864,0.49472 -7.04469,0.49125 -7.33333,-0.004 -10.16323,-0.22737 -6.28864,-0.49756 z m 180.7693,-24.3488 c 0,-6.96667 0.22472,-9.81667 0.49939,-6.33333 0.27466,3.48333 0.27466,9.18333 0,12.66666 -0.27467,3.48334 -0.49939,0.63334 -0.49939,-6.33333 z m 82.186,0.82992 c 0,-0.27687 1.05,-1.32687 2.33333,-2.33333 2.11475,-1.6585 2.16191,-1.61134 0.50342,0.50341 -1.74183,2.221 -2.83675,2.92731 -2.83675,1.82992 z m -15.46001,-34.49659 -2.53999,-3 3,2.53999 c 2.81925,2.38696 3.60699,3.46001 2.53999,3.46001 -0.25302,0 -1.60302,-1.35 -3,-3 z m 152.62326,0.66667 c -1.65849,-2.11475 -1.61133,-2.16191 0.50341,-0.50341 1.28334,1.00646 2.33334,2.05646 2.33334,2.33333 0,1.09739 -1.09492,0.39108 -2.83675,-1.82992 z M 411.04022,187.0183 c 3.50546,-0.27557 8.90546,-0.27224 12,0.008 3.09454,0.27963 0.22644,0.5051 -6.37356,0.50103 -6.6,-0.004 -9.1319,-0.23285 -5.62644,-0.50841 z M 753.82029,162 c 0.004,-7.33334 0.22737,-10.16323 0.49756,-6.28864 0.2702,3.87458 0.26736,9.87458 -0.007,13.33333 -0.27367,3.45875 -0.49472,0.28864 -0.49125,-7.04469 z m 25.32702,0.66666 c 0,-6.96666 0.22472,-9.81666 0.49939,-6.33333 0.27467,3.48333 0.27467,9.18333 0,12.66667 -0.27467,3.48333 -0.49939,0.63333 -0.49939,-6.33334 z M 298.37802,112.34879 c 3.87459,-0.27019 9.87459,-0.26735 13.33333,0.006 3.45875,0.27366 0.28864,0.49472 -7.04469,0.49125 -7.33333,-0.003 -10.16323,-0.22738 -6.28864,-0.49756 z m 49.33333,0 c 3.87459,-0.27019 9.87459,-0.26735 13.33333,0.006 3.45875,0.27366 0.28864,0.49472 -7.04469,0.49125 -7.33333,-0.003 -10.16323,-0.22738 -6.28864,-0.49756 z m 63.32887,0.003 c 3.50546,-0.27557 8.90546,-0.27224 12,0.007 3.09454,0.27963 0.22644,0.50509 -6.37356,0.50103 -6.6,-0.004 -9.1319,-0.23285 -5.62644,-0.50842 z M 298.37802,87.015459 c 3.87459,-0.270189 9.87459,-0.267349 13.33333,0.0063 3.45875,0.27366 0.28864,0.494724 -7.04469,0.491252 -7.33333,-0.0035 -10.16323,-0.227376 -6.28864,-0.497564 z m 49.33333,0 c 3.87459,-0.270189 9.87459,-0.267349 13.33333,0.0063 3.45875,0.27366 0.28864,0.494724 -7.04469,0.491252 -7.33333,-0.0035 -10.16323,-0.227376 -6.28864,-0.497564 z m 63.32887,0.0028 c 3.50546,-0.275568 8.90546,-0.272244 12,0.0073 3.09454,0.279632 0.22644,0.505098 -6.37356,0.501035 -6.6,-0.004 -9.1319,-0.232853 -5.62644,-0.508423 z"
       id="path22"
       inkscape:connector-curvature="0"
       sodipodi:nodetypes="sssscssscsscsscsssccccsccssscccsccccccsccssccsccsscccscccccccccccsssscccccccccccccccccccccccccccccc" />
    <path
       style="fill:#787878;stroke-width:1.33333325"
       d="m 116.61423,748.99998 c -0.34947,-0.91667 -0.47749,-57.46666 -0.28449,-125.66666 l 0.35091,-124 0.32634,124.98681 0.32634,124.98681 62.33333,0.36003 62.33333,0.36002 -62.37517,0.31983 c -48.90992,0.25079 -62.51235,-0.04 -63.01059,-1.34684 z M 374.9004,712.33382 c 29.82856,-0.19997 79.02856,-0.20005 109.33333,-1.7e-4 30.30478,0.19987 5.89959,0.36348 -54.23374,0.36357 -60.13333,1.1e-4 -84.92815,-0.16342 -55.09959,-0.3634 z m 241.76625,-83.0005 c 2.86432,-2.93334 5.50787,-5.33334 5.87453,-5.33334 0.36667,0 -1.67688,2.4 -4.5412,5.33334 -2.86432,2.93333 -5.50786,5.33333 -5.87453,5.33333 -0.36667,0 1.67688,-2.4 4.5412,-5.33333 z m -36.83674,-43.66667 c -1.6585,-2.11474 -1.61134,-2.1619 0.50341,-0.50341 2.221,1.74183 2.92731,2.83675 1.82992,2.83675 -0.27687,0 -1.32687,-1.05 -2.33333,-2.33334 z m 64.17007,-19.66666 c 2.48771,-2.56667 4.82311,-4.66667 5.18978,-4.66667 0.36666,0 -1.36874,2.1 -3.85644,4.66667 -2.48771,2.56666 -4.82311,4.66666 -5.18978,4.66666 -0.36666,0 1.36874,-2.1 3.85644,-4.66666 z m 45.33334,-10.66667 c 2.4877,-2.56667 4.8231,-4.66667 5.18977,-4.66667 0.36667,0 -1.36873,2.1 -3.85644,4.66667 -2.48771,2.56667 -4.82311,4.66667 -5.18977,4.66667 -0.36667,0 1.36873,-2.1 3.85644,-4.66667 z m -485.04938,-5.64107 11.61729,-0.45769 0.46652,-12.28396 0.46652,-12.28395 -0.0837,12.66667 -0.0839,12.66667 -12,0.0749 -11.99999,0.0749 11.61727,-0.4577 z m 265.92027,-0.0256 c -0.34089,-0.55 12.0737,-0.84685 27.58799,-0.65968 53.59547,0.6466 58.71633,1.08732 15.95315,1.37298 -23.60672,0.15769 -43.20023,-0.1633 -43.54114,-0.7133 z m 245.79577,-57 c 2.48771,-2.56666 4.82311,-4.66666 5.18978,-4.66666 0.36666,0 -1.36874,2.1 -3.85644,4.66666 -2.48771,2.56667 -4.82311,4.66667 -5.18978,4.66667 -0.36666,0 1.36874,-2.1 3.85644,-4.66667 z M 455.82991,388.33332 c -1.65849,-2.11474 -1.61133,-2.1619 0.50341,-0.50341 1.28334,1.00647 2.33334,2.05647 2.33334,2.33333 0,1.09739 -1.09492,0.39108 -2.83675,-1.82992 z m -6.59751,-6.66666 -3.23241,-3.66667 3.66667,3.23241 c 3.42705,3.02119 4.27812,4.10092 3.23241,4.10092 -0.23883,0 -1.88883,-1.65 -3.66667,-3.66666 z M 316.48066,299.99999 c 0,-6.96666 0.22472,-9.81666 0.49939,-6.33333 0.27466,3.48333 0.27466,9.18333 0,12.66667 -0.27467,3.48333 -0.49939,0.63333 -0.49939,-6.33334 z m 62.54914,-2.66666 c 0,-3.3 0.26003,-4.65 0.57783,-3 0.31781,1.65 0.31781,4.35 0,6 -0.3178,1.65 -0.57783,0.3 -0.57783,-3 z m -62.54914,-22.66667 c 0,-6.96667 0.22472,-9.81667 0.49939,-6.33333 0.27466,3.48333 0.27466,9.18333 0,12.66666 -0.27467,3.48334 -0.49939,0.63334 -0.49939,-6.33333 z m -0.008,-24.66667 c -0.004,-6.6 0.2214,-9.4681 0.50103,-6.37356 0.27962,3.09454 0.28296,8.49454 0.008,12 -0.27556,3.50546 -0.50436,0.97356 -0.50842,-5.62644 z m 250.86066,7.33334 c 1.32732,-1.46667 2.71331,-2.66667 3.07997,-2.66667 0.36667,0 -0.41932,1.2 -1.74664,2.66667 -1.32732,1.46666 -2.7133,2.66666 -3.07997,2.66666 -0.36667,0 0.41932,-1.2 1.74664,-2.66666 z m -16.83675,-23.66667 c -1.65849,-2.11475 -1.61133,-2.16191 0.50342,-0.50341 2.221,1.74182 2.9273,2.83674 1.82992,2.83674 -0.27687,0 -1.32687,-1.05 -2.33334,-2.33333 z m 66.10587,-84.68654 c -0.35596,-0.9276 -0.47691,-17.8776 -0.26878,-37.66667 l 0.37843,-35.980119 0.31061,36.949969 0.31062,36.94996 12.33333,0.43998 12.33333,0.43998 -12.37517,0.27672 c -8.95852,0.20032 -12.55387,-0.18892 -13.02237,-1.40982 z m 94.43777,0.70485 c 3.50547,-0.27557 8.90547,-0.27224 12,0.008 3.09455,0.27963 0.22644,0.50509 -6.37356,0.50103 -6.6,-0.004 -9.13189,-0.23286 -5.62644,-0.50842 z m 23.95977,0.001 c 3.48333,-0.27466 9.18333,-0.27466 12.66667,0 3.48333,0.27467 0.63333,0.49939 -6.33334,0.49939 -6.96666,0 -9.81666,-0.22472 -6.33333,-0.49939 z m 25.33333,0 c 3.48334,-0.27466 9.18334,-0.27466 12.66667,0 3.48333,0.27467 0.63333,0.49939 -6.33333,0.49939 -6.96667,0 -9.81667,-0.22472 -6.33334,-0.49939 z M 316.48066,125.33333 c 0,-6.96667 0.22472,-9.81667 0.49939,-6.33333 0.27466,3.48333 0.27466,9.18333 0,12.66666 -0.27467,3.48334 -0.49939,0.63334 -0.49939,-6.33333 z m 0,-25.333332 c 0,-6.966667 0.22472,-9.816667 0.49939,-6.333334 0.27466,3.483334 0.27466,9.183336 0,12.666666 -0.27467,3.48333 -0.49939,0.63333 -0.49939,-6.333332 z m 0,-25.333333 c 0,-6.966667 0.22472,-9.816667 0.49939,-6.333333 0.27466,3.483333 0.27466,9.183333 0,12.666666 -0.27467,3.483333 -0.49939,0.633333 -0.49939,-6.333333 z M 472.33332,49.686613 c 3.48333,-0.274665 9.18333,-0.274665 12.66667,0 3.48333,0.274664 0.63333,0.499391 -6.33334,0.499391 -6.96666,0 -9.81666,-0.224727 -6.33333,-0.499391 z m 144.23397,-0.798066 c -0.37528,-0.977967 -0.47857,-6.827967 -0.22955,-13 l 0.45279,-11.221881 0.27139,12.283298 0.2714,12.283299 12.33333,0.439978 12.33333,0.439979 -12.37517,0.276723 c -9.28411,0.207602 -12.54561,-0.167416 -13.05752,-1.501396 z"
       id="path20"
       inkscape:connector-curvature="0"
       sodipodi:nodetypes="cscccccscsssscscscccscsscsscsssccccccccccccssccssscccsccccscsccssccssccsccccccscscccsccscccccsccccccccscccscsccssccssccssssscccccccsc" />
    <path
       style="fill:#545454;stroke-width:1.33333325"
       d="m 280.40579,712.33764 c 7.92319,-0.23615 20.52319,-0.23526 28,0.001 7.47682,0.23723 0.9942,0.43043 -14.4058,0.42933 -15.4,-10e-4 -21.51738,-0.19517 -13.5942,-0.4313 z M 451.66666,612.33388 c 25.84999,-0.2024 68.14999,-0.2024 93.99999,0 25.85,0.2024 4.7,0.368 -47,0.368 -51.69999,0 -72.84999,-0.1656 -46.99999,-0.368 z m 226.94427,-46.00056 c 3.26935,-3.48333 6.11935,-6.33333 6.33333,-6.33333 1.00118,0 -0.0573,1.1971 -5.94428,6.72238 l -6.33333,5.94428 z m -24,-10.66667 c 5.52528,-5.88692 6.72239,-6.94545 6.72239,-5.94428 0,0.21399 -2.85,3.06399 -6.33334,6.33334 l -6.33333,5.94428 z M 282.66666,544.82991 c 0,-0.27687 1.05,-1.32687 2.33333,-2.33334 2.11475,-1.65849 2.16191,-1.61133 0.50342,0.50342 -1.74183,2.221 -2.83675,2.9273 -2.83675,1.82992 z m -16,-18.66667 c 0,-0.27687 1.05,-1.32687 2.33333,-2.33333 2.11475,-1.6585 2.16191,-1.61134 0.50342,0.50341 -1.74183,2.221 -2.83675,2.92731 -2.83675,1.82992 z m 478.66665,-28 c 0,-0.27687 1.05,-1.32687 2.33334,-2.33333 2.11474,-1.6585 2.1619,-1.61134 0.50341,0.50341 -1.74183,2.221 -2.83675,2.92731 -2.83675,1.82992 z m 80.63539,-11.82992 -10.63539,-11 11,10.63539 c 10.21647,9.87782 11.60786,11.36461 10.63539,11.36461 -0.20053,0 -5.15053,-4.95 -11,-11 z m -99.35777,-4 c 3.26935,-3.48333 6.11935,-6.33333 6.33333,-6.33333 1.00117,0 -0.0573,1.1971 -5.94428,6.72238 l -6.33333,5.94428 z m 43.80572,-21.91081 c 0.96249,-0.38516 2.1125,-0.3378 2.55556,0.1052 0.44305,0.44305 -0.34446,0.75819 -1.75,0.70029 -1.55327,-0.064 -1.8692,-0.37992 -0.80556,-0.80554 z m 6.66666,0 c 0.9625,-0.38516 2.11251,-0.3378 2.55556,0.1052 0.44306,0.44305 -0.34445,0.75819 -1.75,0.70029 -1.55326,-0.064 -1.8692,-0.37992 -0.80556,-0.80554 z M 442.49658,409.66666 c -1.6585,-2.11475 -1.61134,-2.16191 0.50341,-0.50342 2.221,1.74183 2.92731,2.83675 1.82992,2.83675 -0.27687,0 -1.32687,-1.05 -2.33333,-2.33333 z m 230.78102,-7.33334 c 3.26934,-3.48333 6.11934,-6.33333 6.33333,-6.33333 1.00117,0 -0.0573,1.19711 -5.94428,6.72239 l -6.33333,5.94428 z m -213.44769,-10 c -1.65849,-2.11474 -1.61133,-2.1619 0.50341,-0.50341 2.221,1.74183 2.92731,2.83675 1.82992,2.83675 -0.27686,0 -1.32686,-1.05 -2.33333,-2.33334 z m 196.83674,-8.33333 c 3.61153,-3.66667 6.86643,-6.66667 7.23309,-6.66667 0.36667,0 -2.28822,3 -5.89976,6.66667 -3.61153,3.66667 -6.86642,6.66667 -7.23309,6.66667 -0.36667,0 2.28823,-3 5.89976,-6.66667 z m -212.83674,-7.66667 c -1.65849,-2.11474 -1.61133,-2.1619 0.50341,-0.50341 1.28334,1.00647 2.33334,2.05647 2.33334,2.33333 0,1.09739 -1.09492,0.39108 -2.83675,-1.82992 z m 284.27534,-73.1111 c 0.064,-1.55327 0.37992,-1.8692 0.80555,-0.80556 0.38516,0.96249 0.3378,2.11249 -0.1052,2.55556 -0.44306,0.44305 -0.75819,-0.34445 -0.7003,-1.75 z m 0.10525,-8.55556 c 0,-1.83333 0.30264,-2.58333 0.67252,-1.66667 0.36988,0.91667 0.36988,2.41667 0,3.33334 -0.36988,0.91666 -0.67252,0.16666 -0.67252,-1.66667 z m -455.87717,-7.64672 c 3.48333,-0.27467 9.18333,-0.27467 12.66666,0 3.48334,0.27467 0.63334,0.49939 -6.33333,0.49939 -6.96667,0 -9.81667,-0.22472 -6.33333,-0.49939 z m 50.66666,0 c 3.48334,-0.27467 9.18334,-0.27467 12.66667,0 3.48333,0.27467 0.63333,0.49939 -6.33333,0.49939 -6.96667,0 -9.81667,-0.22472 -6.33334,-0.49939 z m 230.08333,-21.26409 c 0.96249,-0.38516 2.11251,-0.3378 2.55556,0.1052 0.44305,0.44305 -0.34445,0.75818 -1.75,0.70029 -1.55327,-0.064 -1.8692,-0.37992 -0.80556,-0.80555 z m 17.58333,-11.5064 c 0,-0.22947 1.95,-2.17947 4.33334,-4.33334 l 4.33333,-3.91612 -3.91612,4.33334 c -3.65037,4.03928 -4.75055,4.9462 -4.75055,3.91612 z m -147.33333,-4.91612 c 1.32732,-1.46667 2.71331,-2.66667 3.07998,-2.66667 0.36666,0 -0.41932,1.2 -1.74664,2.66667 -1.32732,1.46666 -2.71331,2.66666 -3.07998,2.66666 -0.36666,0 0.41932,-1.2 1.74664,-2.66666 z m 138,-20.50342 c 0,-0.27686 1.05,-1.32686 2.33333,-2.33333 2.11475,-1.65849 2.16191,-1.61133 0.50342,0.50341 -1.74183,2.221 -2.83675,2.92731 -2.83675,1.82992 z M 753.81398,188 c 0,-6.96667 0.22472,-9.81667 0.49939,-6.33334 0.27466,3.48334 0.27466,9.18334 0,12.66667 -0.27467,3.48333 -0.49939,0.63333 -0.49939,-6.33333 z m -205.48066,-0.98006 c 3.48333,-0.27466 9.18333,-0.27466 12.66667,0 3.48333,0.27467 0.63333,0.49939 -6.33334,0.49939 -6.96666,0 -9.81666,-0.22472 -6.33333,-0.49939 z m 205.48066,-49.68661 c 0,-6.96667 0.22472,-9.81667 0.49939,-6.33333 0.27466,3.48333 0.27466,9.18333 0,12.66666 -0.27467,3.48334 -0.49939,0.63334 -0.49939,-6.33333 z M 322.99999,112.35328 c 3.48334,-0.27467 9.18334,-0.27467 12.66667,0 3.48333,0.27466 0.63333,0.49939 -6.33333,0.49939 -6.96667,0 -9.81667,-0.22473 -6.33334,-0.49939 z m 225.33333,0 c 3.48333,-0.27467 9.18333,-0.27467 12.66667,0 3.48333,0.27466 0.63333,0.49939 -6.33334,0.49939 -6.96666,0 -9.81666,-0.22473 -6.33333,-0.49939 z M 322.99999,87.019946 c 3.48334,-0.274666 9.18334,-0.274666 12.66667,0 3.48333,0.274664 0.63333,0.49939 -6.33333,0.49939 -6.96667,0 -9.81667,-0.224726 -6.33334,-0.49939 z m 225.33333,0 c 3.48333,-0.274666 9.18333,-0.274666 12.66667,0 3.48333,0.274664 0.63333,0.49939 -6.33334,0.49939 -6.96666,0 -9.81666,-0.224726 -6.33333,-0.49939 z"
       id="path18"
       inkscape:connector-curvature="0"
       sodipodi:nodetypes="cccccssssssccsssccssccssccssccsscsssssccsccccccccccccsccscccccscsscssccsccccccsccssssssssscccccsscsscscscsccssccsccscsccsccscccscssssssss" />
    <path
       style="fill:#323232;stroke-width:1.33333325"
       d="m 241.97325,625.33332 c 0,-69.3 0.16189,-97.65 0.35976,-63 0.19786,34.65 0.19786,91.35 0,126 -0.19787,34.65 -0.35976,6.3 -0.35976,-63 z m 162.50741,0 c 0,-6.96667 0.22472,-9.81667 0.49938,-6.33334 0.27467,3.48334 0.27467,9.18334 0,12.66667 -0.27466,3.48333 -0.49938,0.63333 -0.49938,-6.33333 z m 248.85266,-33.70004 c 0,-0.20168 4.65,-4.85168 10.33333,-10.33333 l 10.33333,-9.96663 -9.96662,10.33333 c -9.25679,9.59738 -10.70004,10.9417 -10.70004,9.96663 z m -56.10092,-23.29996 -3.23241,-3.66667 3.66666,3.23242 c 3.42705,3.02118 4.27812,4.10092 3.23241,4.10092 -0.23882,0 -1.88882,-1.65 -3.66666,-3.66667 z m 64.10092,-19.36671 c 0,-0.20168 4.65,-4.85168 10.33333,-10.33333 l 10.33333,-9.96663 -9.96662,10.33334 c -9.25679,9.59737 -10.70004,10.94169 -10.70004,9.96662 z M 342.41399,524.33587 c 10.49437,-0.22555 27.29437,-0.225 37.33333,10e-4 10.03898,0.22622 1.45267,0.41076 -19.08066,0.41008 -20.53334,-6.6e-4 -28.74703,-0.18576 -18.25267,-0.4113 z m 382.91933,-6.03592 c 0,-0.20168 4.65,-4.85168 10.33333,-10.33334 l 10.33333,-9.96662 -9.96663,10.33333 c -9.25678,9.59737 -10.70003,10.94169 -10.70003,9.96663 z m 78.66666,-18.96663 c -3.23871,-3.3 -5.58856,-6 -5.22189,-6 0.36666,0 3.31652,2.7 6.55522,6 3.23871,3.3 5.58856,6 5.2219,6 -0.36667,0 -3.31652,-2.7 -6.55523,-6 z m -406.91666,1.08919 c 0.9625,-0.38516 2.11251,-0.3378 2.55556,0.1052 0.44306,0.44305 -0.34445,0.75818 -1.75,0.70029 -1.55326,-0.064 -1.8692,-0.37992 -0.80556,-0.80555 z M 93.333331,480.82991 c 0,-0.27687 1.05,-1.32687 2.333333,-2.33334 2.114742,-1.65849 2.161902,-1.61133 0.503407,0.50342 -1.741825,2.221 -2.83674,2.9273 -2.83674,1.82992 z M 140.90506,475.001 c 20.66446,-0.20656 54.86446,-0.20671 76,-3.5e-4 21.13555,0.20636 4.22827,0.37536 -37.57173,0.37555 -41.8,1.9e-4 -59.09272,-0.16865 -38.42827,-0.3752 z m 513.76159,-55.50442 c 0,-0.27687 1.05,-1.32687 2.33333,-2.33334 2.11475,-1.65849 2.16191,-1.61133 0.50342,0.50342 -1.74183,2.221 -2.83675,2.9273 -2.83675,1.82992 z M 434.66666,401.99999 c -3.23871,-3.3 -5.58856,-6 -5.2219,-6 0.36667,0 3.31652,2.7 6.55523,6 3.23871,3.3 5.58856,6 5.22189,6 -0.36666,0 -3.31652,-2.7 -6.55522,-6 z m 29.16325,-5.66667 c -1.65849,-2.11474 -1.61133,-2.1619 0.50341,-0.50341 2.221,1.74183 2.92731,2.83675 1.82992,2.83675 -0.27686,0 -1.32686,-1.05 -2.33333,-2.33334 z m 183.50341,-3 c 1.32732,-1.46666 2.7133,-2.66666 3.07997,-2.66666 0.36667,0 -0.41932,1.2 -1.74664,2.66666 -1.32732,1.46667 -2.71331,2.66667 -3.07997,2.66667 -0.36667,0 0.41932,-1.2 1.74664,-2.66667 z m 16.66666,-16.50341 c 0,-0.27687 1.05,-1.32687 2.33334,-2.33333 2.11474,-1.6585 2.1619,-1.61134 0.50341,0.50341 -1.74183,2.221 -2.83675,2.92731 -2.83675,1.82992 z m 64.10527,-77.60769 c 0.064,-1.55327 0.37992,-1.8692 0.80555,-0.80556 0.38516,0.96249 0.3378,2.11249 -0.1052,2.55556 -0.44306,0.44305 -0.75819,-0.34445 -0.7003,-1.75 z m -436.84691,-25.22223 0.0749,-12 12.66667,-0.0839 12.66667,-0.0837 -12.28395,0.46652 -12.28396,0.46652 -0.45769,11.6173 -0.45771,11.61728 0.0749,-12 z m 248.01225,-17 -5.2706,-5.66666 5.66666,5.2706 c 5.26995,4.9016 6.27938,6.06273 5.2706,6.06273 -0.21784,0 -2.76784,-2.55 -5.66666,-5.66667 z m 41.39606,-13 c 1.32732,-1.46666 2.71331,-2.66666 3.07998,-2.66666 0.36666,0 -0.41932,1.2 -1.74664,2.66666 -1.32732,1.46667 -2.71331,2.66667 -3.07998,2.66667 -0.36666,0 0.41932,-1.2 1.74664,-2.66667 z m -282.99999,-6.31338 c 3.48333,-0.27467 9.18333,-0.27467 12.66667,0 3.48333,0.27466 0.63333,0.49938 -6.33334,0.49938 -6.96666,0 -9.81666,-0.22472 -6.33333,-0.49938 z m 259.66666,-5.01995 c 1.72233,-1.83333 3.43151,-3.33333 3.79817,-3.33333 0.36667,0 -0.7425,1.5 -2.46484,3.33333 -1.72233,1.83333 -3.4315,3.33333 -3.79817,3.33333 -0.36667,0 0.74251,-1.5 2.46484,-3.33333 z M 404.5509,211.33333 c 10e-4,-13.2 0.20093,-18.41965 0.44341,-11.59923 0.24248,6.82043 0.24133,17.62043 -0.003,24 -0.24388,6.37957 -0.44226,0.79923 -0.44086,-12.40077 z m 287.279,13 c -1.65849,-2.11475 -1.61133,-2.16191 0.50342,-0.50342 2.221,1.74183 2.9273,2.83675 1.82992,2.83675 -0.27687,0 -1.32687,-1.05 -2.33334,-2.33333 z m -65.49658,0.0591 c 1.65,-0.31781 4.35,-0.31781 6,0 1.65,0.3178 0.3,0.57783 -3,0.57783 -3.3,0 -4.65,-0.26003 -3,-0.57783 z M 428.48696,200.66666 c 0.004,-7.33333 0.22738,-10.16322 0.49756,-6.28864 0.2702,3.87459 0.26736,9.87459 -0.007,13.33333 -0.27367,3.45875 -0.49472,0.28864 -0.49126,-7.04469 z m 41.92969,-0.24415 c 0.9625,-0.38516 2.11251,-0.3378 2.55556,0.1052 0.44306,0.44306 -0.34445,0.75819 -1.75,0.7003 -1.55326,-0.064 -1.8692,-0.37992 -0.80556,-0.80555 z m 152,0 c 0.96249,-0.38516 2.11251,-0.3378 2.55556,0.1052 0.44305,0.44306 -0.34445,0.75819 -1.75,0.7003 -1.55327,-0.064 -1.8692,-0.37992 -0.80556,-0.80555 z M 541.91947,150 c 6.6e-4,-20.53334 0.18576,-28.74704 0.4113,-18.25267 0.22555,10.49437 0.225,27.29437 -10e-4,37.33333 -0.22622,10.03898 -0.41076,1.45267 -0.41008,-19.08066 z m 186.64782,24.22188 c -0.37528,-0.97796 -0.47857,-6.82796 -0.22955,-13 L 728.79053,150 l 0.27139,12.28329 0.2714,12.28331 12.33333,0.43997 12.33333,0.43999 -12.37517,0.27672 c -9.28411,0.2076 -12.54561,-0.16742 -13.05752,-1.5014 z M 491.25401,137.33333 c 0,-20.9 0.18432,-29.45 0.4096,-19 0.22528,10.45 0.22528,27.55 0,38 -0.22528,10.45 -0.4096,1.9 -0.4096,-19 z m 213.22664,25.33333 c 0,-6.96666 0.22472,-9.81666 0.49939,-6.33333 0.27466,3.48333 0.27466,9.18333 0,12.66667 -0.27467,3.48333 -0.49939,0.63333 -0.49939,-6.33334 z M 403.99999,150 v -12.66667 h 12.66667 12.66666 V 150 162.66666 h -12.66666 -12.66667 z m 24,0 V 138.66666 H 416.66666 405.33332 V 150 161.33333 h 11.33334 11.33333 z m -86.186,-50.000002 c 0,-6.966667 0.22472,-9.816667 0.49939,-6.333334 0.27466,3.483334 0.27466,9.183336 0,12.666666 -0.27467,3.48333 -0.49939,0.63333 -0.49939,-6.333332 z m 62.66667,0 c 0,-6.966667 0.22472,-9.816667 0.49938,-6.333334 0.27467,3.483334 0.27467,9.183336 0,12.666666 -0.27466,3.48333 -0.49938,0.63333 -0.49938,-6.333332 z m 24,0 c 0,-6.966667 0.22472,-9.816667 0.49938,-6.333334 0.27467,3.483334 0.27467,9.183336 0,12.666666 -0.27466,3.48333 -0.49938,0.63333 -0.49938,-6.333332 z M 541.81399,74.666665 c 0,-6.966667 0.22472,-9.816667 0.49938,-6.333333 0.27467,3.483333 0.27467,9.183333 0,12.666666 -0.27466,3.483333 -0.49938,0.633333 -0.49938,-6.333333 z m 81.18599,0.353281 c 3.48334,-0.274665 9.18334,-0.274665 12.66667,0 3.48333,0.274664 0.63333,0.499391 -6.33333,0.499391 -6.96667,0 -9.81667,-0.224727 -6.33334,-0.499391 z M 491.14732,62.666665 c 0,-6.966666 0.22472,-9.816666 0.49939,-6.333333 0.27466,3.483333 0.27466,9.183333 0,12.666666 -0.27467,3.483334 -0.49939,0.633334 -0.49939,-6.333333 z"
       id="path16"
       inkscape:connector-curvature="0"
       sodipodi:nodetypes="sssssccssscsscccscssccsccsccsccsssscsscccccscsssssssccscssscccsccscscsccsccccccccccccccccccsccscscccscsscsscscccccscccscccccccccccccccccsccccccccccscsssssccsccccccccccccccccccsccssccssccssccssssssccs" />
    <path
       style="fill:#000000;stroke-width:1.33333325"
       d="m 98.692942,772.95405 c -6.878158,-3.48018 -6.652255,1.54746 -6.673288,-148.51843 l -0.01966,-140.23103 3.451858,-4.1023 3.451858,-4.1023 h 79.80713 79.80711 l 3.74103,3.21482 3.74101,3.21484 0.42339,22.14312 0.42339,22.14312 6.87265,-6.01202 c 8.08399,-7.07168 22.12899,-14.30304 34.28057,-17.65007 7.52352,-2.07228 14.47032,-2.38524 52.66667,-2.37269 49.63793,0.0163 52.83652,0.46972 71.42776,10.12497 13.33224,6.92401 23.75446,16.42899 32.15276,29.32301 l 6.86345,10.53756 h 45.49788 c 49.95705,0 55.17468,0.61216 67.98441,7.97632 3.70721,2.13123 9.85463,7.05843 13.66089,10.94932 6.58797,6.73444 15.07951,20.55508 15.07951,24.5431 0,1.02553 0.53948,1.8646 1.19884,1.8646 0.65934,0 28.03688,-27.2872 60.83893,-60.63823 32.80207,-33.35101 62.5637,-62.51428 66.13698,-64.80725 18.27619,-11.7278 44.8814,-12.38161 63.82524,-1.5685 8.52815,4.86787 33.00966,29.1716 34.02036,33.77334 0.48888,2.22586 0.0149,5.22002 -1.1834,7.47665 -2.37013,4.46316 -221.51107,223.48411 -225.7493,225.6257 -2.07901,1.05053 -51.96213,1.47161 -174.33333,1.47161 H 266.66666 v 12.46771 c 0,6.85723 -0.66505,14.37547 -1.47789,16.70717 -2.90039,8.32008 -1.21127,8.16046 -86.12256,8.1388 -59.13751,-0.0151 -77.83557,-0.40893 -80.373272,-1.69294 z M 242.66666,625.33332 V 499.99999 H 179.33333 116 v 125.33333 125.33333 h 63.33333 63.33333 z m -50.66666,-88 v -12 h 11.99999 12 v 12 12 h -12 H 192 Z m 514.4391,71.56089 104.43275,-104.4391 -7.31368,-6.6843 c -4.02254,-3.67636 -9.6187,-7.79982 -12.43594,-9.16326 -7.34501,-3.5547 -21.21453,-4.1179 -30.01082,-1.21864 -6.62886,2.18486 -10.50108,5.79113 -57.06348,53.14417 -27.47363,27.94013 -60.00937,61.00024 -72.30165,73.4669 l -22.3496,22.66667 -102.03168,0.35771 -102.03168,0.3577 v -12.02437 -12.02437 h 93.33333 93.33334 v -3.76248 c 0,-7.64303 -4.3208,-16.73224 -11.24638,-23.65781 -11.16901,-11.169 -11.65614,-11.24638 -70.81133,-11.24638 -58.85402,0 -54.75944,0.93116 -61.76848,-14.04684 -8.07286,-17.25132 -25.05497,-30.68565 -43.81406,-34.66078 -12.59215,-2.66834 -74.70459,-2.68743 -87.25797,-0.0268 -20.31918,4.3065 -35.98147,16.52645 -44.76811,34.9287 l -5.00033,10.47239 -0.37787,71 -0.37785,71 H 434.29198 602.00636 Z M 531.49868,475.66665 C 467.88719,437.05671 415.3842,388.30759 394.29474,348.27254 c -9.2645,-17.58719 -13.06666,-30.41415 -13.9198,-46.95977 -1.15543,-22.40828 4.80034,-41.58251 18.44618,-59.38627 l 6.5122,-8.49648 V 210.71501 188 h 11.33334 11.33333 v 12.66666 c 0,6.96667 0.53264,12.66667 1.18364,12.66667 0.651,0 5.001,-1.77976 9.66667,-3.95502 4.66566,-2.17526 12.38302,-4.96168 17.14969,-6.19202 11.537,-2.97788 32.655,-2.99727 44,-0.0404 17.28856,4.50596 35.70418,15.28538 47.92822,28.05436 2.52719,2.63985 5.14066,4.79973 5.8077,4.79973 0.66704,0 5.57201,-4.05 10.89992,-9 16.66625,-15.48412 32.33845,-22.9008 54.08442,-25.5948 27.05844,-3.35214 52.22109,4.78729 74.55119,24.11528 24.82032,21.48344 35.88624,46.50153 34.357,77.67507 -0.8124,16.56062 -3.3102,25.60941 -11.8156,42.80445 -16.63795,33.6363 -57.71676,75.17005 -109.14619,110.35498 -24.53593,16.78601 -48.08752,30.31169 -52.78025,30.31169 -2.98836,0 -9.68883,-3.29221 -22.38772,-11 z m 55.16797,-35.10038 c 54.48688,-36.24788 93.2318,-74.23477 108.66821,-106.54215 14.93434,-31.25658 10.62472,-62.17742 -11.82252,-84.82463 -17.0044,-17.1559 -33.51094,-24.47598 -54.84569,-24.32216 -21.46672,0.15476 -35.03765,6.83306 -56.86901,27.98538 -17.67131,17.12167 -17.29491,17.144 -38.69383,-2.29626 -22.40688,-20.35598 -32.9213,-25.23312 -54.39902,-25.23312 -21.32511,0 -36.98333,6.60256 -53.00492,22.35042 -18.50941,18.19319 -25.72219,42.50288 -19.69203,66.36944 2.82328,11.17418 12.41355,30.0456 21.68438,42.6698 21.89613,29.81628 64.59117,66.42241 111.27309,95.404 l 14.81513,9.19769 6.10977,-3.50486 c 3.36038,-1.92767 15.40978,-9.69178 26.77644,-17.25355 z M 430.06606,293.66666 c 1.84584,-13.04552 9.2709,-25.662 19.53828,-33.19895 6.50564,-4.77557 19.75905,-9.80105 25.84777,-9.80105 3.15905,0 3.21454,0.20715 3.21454,12 0,11.18923 -0.18376,12 -2.71978,12 -4.20835,0 -12.56939,4.77028 -16.45519,9.38829 -1.93073,2.29455 -4.17744,6.82086 -4.99268,10.05847 l -1.48225,5.88657 h -11.92341 -11.92342 z m -138.06607,6.33333 v -12 h 12 12 v 12 12 h -12 -12 z m -25.33333,-25.33333 v -12 h 12 12 v 12 12 h -12 -12 z m 50.66667,0 v -12 h 12 11.99999 v 12 12 h -11.99999 -12 z m -25.33334,-24.66667 v -11.33333 h 12 12 v 11.33333 11.33334 h -12 -12 z M 729.33332,188 v -12 h 11.99999 12 v 12 12 h -12 -11.99999 z M 542.66665,150 v -36.66667 h 12 12 V 150 186.66666 h -12 -12 z m -76,-12.66667 V 99.999998 h 12 12 v 37.333332 37.33333 h -12 -12 z m 238.66667,25.33333 v -12 h 11.33333 11.33333 v 12 12 h -11.33333 -11.33333 z m 49.33333,0 v -12 h 12 12 v 12 12 h -12 -12 z M 405.33332,150 v -11.33334 h 11.33334 11.33333 V 150 161.33333 h -11.33333 -11.33334 z m 212,-37.33334 V 75.999998 h 12 12 v 36.666662 36.66667 h -12 -12 z m 112,24.66667 v -12 h 11.99999 12 v 12 12 h -12 -11.99999 z m -411.99999,-12 v -12 h 12 11.99999 v 12 12 h -11.99999 -12 z M 291.99999,99.999998 v -12 h 12 12 v 12 V 112 h -12 -12 z m 50.66667,0 v -12 h 12 12 v 12 V 112 h -12 -12 z m 62.66666,0 v -12 h 11.33334 11.33333 v 12 V 112 H 416.66666 405.33332 Z M 317.33333,74.666665 v -12 h 12 11.99999 v 12 12 h -11.99999 -12 z m 225.33332,0 v -12 h 12 12 v 12 12 h -12 -12 z m -76,-12 v -12 h 12 12 v 12 12 h -12 -12 z M 617.33332,37.333332 V 25.333333 h 12 12 v 11.999999 12 h -12 -12 z"
       id="path14"
       inkscape:connector-curvature="0"
       sodipodi:nodetypes="cscccccccccssssscssssssscccsscscscccccccccccccccccccccccccsscccccccssssscsccccccsssscccccssscssssssssssssssssssssssccscsssscsccccccccccccccccccccccccccccccccccccccccccccccccccccccccccccccccccccccccccccccccccccccccccccccccccccccccccccccccccccaccccccccccccccccccccccccscccccccscccccccccccccczccccccsccccaccccccc" />
  </g>
</svg>
