<svg xmlns="http://www.w3.org/2000/svg" width="748.919" height="749.141"><path d="M6.252 747.415c-11.836-5.987-6.144-27.224 10.991-41.004 20.164-16.217 60.877-29.866 110.825-37.156 16.696-2.437 27.892-3.465 70.85-6.504l13.334-.944v-112l-58-.728c-55.826-.7-58.35-.842-67.333-3.784-23.107-7.567-42.473-23.892-52.519-44.27-8.212-16.66-9.431-24.605-9.458-61.654l-.023-31.769 3.976-3.976 3.977-3.977 66.357.473c59.508.423 67.113.72 73.69 2.874 10.28 3.367 23.585 10.544 31.179 16.82 3.544 2.928 6.98 5.325 7.633 5.325.667 0 1.188-16.669 1.188-38.042 0-29.308-.383-38.144-1.667-38.486-.917-.244-7.672-1.389-15.012-2.545-25.646-4.038-46.948-12.419-69.237-27.239-15.875-10.555-35.667-29.853-45.827-44.684-10.741-15.676-21.094-38.372-25.798-56.553-7.652-29.576-6.7-66.446 2.475-95.785C77.43 59.207 133.277 11.585 198.468 1.905 282.685-10.6 363.67 39.544 390.066 120.538c6.502 19.95 8.635 36.393 7.837 60.415-.928 27.93-5.346 45.582-17.569 70.188-10.148 20.43-18.346 31.822-34.184 47.501-25.582 25.325-58.215 41.81-93.886 47.426-7.34 1.156-14.095 2.301-15.012 2.545-1.306.348-1.667 15.444-1.667 69.82 0 38.155.389 69.374.863 69.374.475 0 3.325-2.015 6.334-4.478 8.888-7.275 18.115-12.418 29.47-16.424l10.667-3.764 66.367-.403 66.367-.402 3.966 3.966 3.966 3.967-.022 31.77c-.027 36.866-1.237 44.804-9.312 61.105-12.253 24.735-35.167 41.839-62.665 46.775-7.247 1.301-24.603 1.808-63.03 1.842l-53.03.046.364 25 .362 25 14 .942c35.264 2.373 52.693 3.99 70 6.497 62.745 9.089 108.87 27.696 122.33 49.35l4.069 6.545h127.601v-76h-45.818c-25.2 0-49.05-.6-53-1.332-11.832-2.194-25.266-9.63-33.536-18.562-13.387-14.46-16.94-25.596-16.963-53.167-.015-18.55.073-19.15 3.308-22.385l3.324-3.324 60.535.385 60.534.385 10.808 5.523 10.808 5.523-.012-18.856-.012-18.857-9.274-5.721c-49.031-30.248-66.496-92.76-40.474-144.87 6-12.015 8.518-15.528 19.042-26.562 12.488-13.094 35.041-27.515 43.024-27.513 1.671 0 6.901 1.829 11.623 4.062 26.826 12.691 47.771 36.863 57.713 66.604 3.985 11.923 4.238 13.84 4.301 32.667.077 22.812-2.126 33.094-10.895 50.827-9.413 19.038-28.374 38.783-46.84 48.777l-4.196 2.272v31.395c0 17.267.527 31.395 1.17 31.395.644 0 1.853-.822 2.686-1.826 2.614-3.15 16.441-8.622 25.478-10.084 11.97-1.937 107.594-1.89 113.175.055 6.71 2.34 8.158 6.786 8.158 25.057 0 8.8-.663 19.18-1.473 23.066-5.251 25.18-26.156 44.934-51.86 49.006-4.767.755-28.617 1.377-53 1.383l-44.334.01v50.667H748.92v24l-369.667-.02c-295.32-.016-370.337-.359-373-1.706zM414.97 723.89c-.425-.688-3.91-3.04-7.745-5.227-23.444-13.367-67.76-24.27-120.972-29.763-22.141-2.285-101.859-2.285-124 0-53.212 5.493-97.528 16.396-120.972 29.763-3.834 2.187-7.32 4.539-7.745 5.227-.48.778 71.733 1.252 190.717 1.252 118.984 0 191.198-.474 190.717-1.252zm286.989-77.263c9.204-4.16 18.28-14.206 20.948-23.19 1.107-3.729 2.013-10.905 2.013-15.947v-9.167l-48.334.41c-45.862.388-48.643.552-54.4 3.216-14.134 6.54-22.13 18.406-23.512 34.89-.434 5.18-.412 10.402.05 11.605.759 1.979 5.333 2.146 48.517 1.775 46.962-.404 47.785-.458 54.718-3.592zM574.24 614.142c-.011-8.714-.661-12.392-3.13-17.695-3.963-8.508-10.32-14.866-18.829-18.828-6.63-3.088-7.168-3.118-55.191-3.131l-48.496-.013.562 11.753c.48 10.048 1.153 12.802 4.637 18.967 4.97 8.797 11.394 14.195 20.733 17.42 6.302 2.177 12.039 2.444 53.394 2.483l46.333.044-.013-11zm-226.502-27.687c17.647-3.326 36.018-16.423 44.138-31.468 6.267-11.61 7.71-20.121 7.71-45.459v-23.053h-53.72c-58.134 0-61.865.367-75.858 7.458-8.283 4.197-20.158 15.146-24.544 22.63-7.046 12.024-8.715 19.768-9.51 44.123-.41 12.583-.38 23.833.068 25 .725 1.89 6.478 2.122 52.674 2.122 29.486 0 54.959-.584 59.042-1.353zM212.21 501.808c-.034-17.722-.577-24.638-2.492-31.705-6.062-22.376-25.793-40.598-48.653-44.934-4.118-.78-29.537-1.36-59.66-1.36H48.918v23.053c0 25.332 1.44 33.827 7.71 45.479 4.996 9.283 17.06 21.01 26.228 25.496 13.949 6.824 17.1 7.111 75.395 6.865l54-.227zm362.043-60v-54h24v54c0 41.59.374 54 1.626 54 .894 0 6.29-4.746 11.99-10.546 17.964-18.28 26.078-39.96 24.7-65.998-1.527-28.891-16.92-54.839-41.328-69.665l-8.09-4.915-7.372 3.895c-16.148 8.534-33.004 29.618-39.357 49.23-7.51 23.178-4.247 50.399 8.661 72.275 4.395 7.447 21.377 25.724 23.902 25.724.781 0 1.268-20.741 1.268-54zM246.657 323.155c49.937-7.527 91.763-38.903 113.758-85.333 3.284-6.935 7.56-18.475 9.501-25.645 3.22-11.893 3.529-15.2 3.529-37.703 0-22.622-.299-25.772-3.602-38-4.378-16.21-15.532-39.38-25.032-52-13.581-18.042-34.06-35.112-54.243-45.216-17.787-8.904-45.846-15.435-66.316-15.435-20.47 0-48.53 6.53-66.316 15.435-20.184 10.104-40.662 27.174-54.243 45.216-9.373 12.452-20.53 35.6-25.063 52-3.426 12.396-3.681 15.068-3.628 38 .052 22.399.382 25.865 3.586 37.703 20.255 74.827 92.3 122.398 168.069 110.978zm-33.738-81.229v-7.214l-5.997-2.903c-10.2-4.938-19.337-18.596-19.337-28.906 0-3.01.335-3.096 12-3.096 10.819 0 12 .245 12 2.485 0 1.367 1.515 4 3.366 5.851 5.615 5.614 12.96 5.642 18.532.07 7.957-7.958 1.78-21.739-9.745-21.739-18.735 0-36.05-17.3-36.123-36.096-.057-14.516 7.075-26.896 19.203-33.33 6.06-3.214 6.1-3.283 6.1-10.238v-7.003h22.667v7.003c0 6.955.041 7.024 6.1 10.238 10.455 5.546 19.234 18.781 19.234 28.997 0 3.01-.335 3.096-12 3.096-10.819 0-12-.245-12-2.485 0-3.194-5.859-9.067-9.7-9.725-12.523-2.143-20.673 11.536-12.52 21.014 2.545 2.958 4.725 3.813 11.937 4.682 10.492 1.263 17.189 4.46 23.876 11.4 13.271 13.772 13.993 34.247 1.736 49.206-2.55 3.111-7.342 6.967-10.649 8.568l-6.014 2.91v14.43H212.92zm-76-67.452v-12h24v24h-24zm150.666 0v-12h24v24h-24z" fill="#333"/></svg>