<?xml version="1.0" encoding="UTF-8" standalone="no"?>
<!-- Created with Inkscape (http://www.inkscape.org/) -->

<svg
   xmlns:dc="http://purl.org/dc/elements/1.1/"
   xmlns:cc="http://creativecommons.org/ns#"
   xmlns:rdf="http://www.w3.org/1999/02/22-rdf-syntax-ns#"
   xmlns:svg="http://www.w3.org/2000/svg"
   xmlns="http://www.w3.org/2000/svg"
   xmlns:sodipodi="http://sodipodi.sourceforge.net/DTD/sodipodi-0.dtd"
   xmlns:inkscape="http://www.inkscape.org/namespaces/inkscape"
   version="1.1"
   id="svg2"
   width="748.91907"
   height="749.14062"
   viewBox="0 0 748.91906 749.14062"
   sodipodi:docname="growth.svg"
   inkscape:version="0.92.3 (2405546, 2018-03-11)">
  <metadata
     id="metadata8">
    <rdf:RDF>
      <cc:Work
         rdf:about="">
        <dc:format>image/svg+xml</dc:format>
        <dc:type
           rdf:resource="http://purl.org/dc/dcmitype/StillImage" />
        <dc:title></dc:title>
      </cc:Work>
    </rdf:RDF>
  </metadata>
  <defs
     id="defs6" />
  <sodipodi:namedview
     pagecolor="#ffffff"
     bordercolor="#666666"
     borderopacity="1"
     objecttolerance="10"
     gridtolerance="10"
     guidetolerance="10"
     inkscape:pageopacity="0"
     inkscape:pageshadow="2"
     inkscape:window-width="1364"
     inkscape:window-height="732"
     id="namedview4"
     showgrid="false"
     fit-margin-top="0"
     fit-margin-left="0"
     fit-margin-right="0"
     fit-margin-bottom="0"
     inkscape:zoom="0.25285715"
     inkscape:cx="844.8735"
     inkscape:cy="406.87"
     inkscape:window-x="554"
     inkscape:window-y="1235"
     inkscape:window-maximized="0"
     inkscape:current-layer="svg2" />
  <g
     id="g12"
     transform="translate(-1013.8835,259.21977)">
    <path
       style="fill:#000000;stroke-width:1.33333325"
       d="m 1020.1356,488.19554 c -11.8365,-5.98697 -6.1438,-27.22469 10.9912,-41.0048 20.1641,-16.21616 60.8765,-29.86568 110.8244,-37.15576 16.6964,-2.4369 27.8923,-3.46468 70.851,-6.50408 l 13.3334,-0.94334 v -56 -56 l -58,-0.72809 c -55.8265,-0.70082 -58.3498,-0.84264 -67.3334,-3.78459 -23.1066,-7.56699 -42.4727,-23.89141 -52.5182,-44.26955 -8.2128,-16.66048 -9.4316,-24.605 -9.4586,-61.65366 l -0.023,-31.76924 3.9766,-3.97665 3.9767,-3.97664 66.3567,0.47264 c 59.5085,0.42386 67.1135,0.7205 73.69,2.87434 10.2804,3.3669 23.5851,10.54399 31.179,16.81924 3.5446,2.92904 6.9793,5.32554 7.6328,5.32554 0.6676,0 1.1882,-16.66835 1.1882,-38.04184 0,-29.308027 -0.3827,-38.143677 -1.6667,-38.485417 -0.9167,-0.24394 -7.6719,-1.38918 -15.0117,-2.54496 -25.6466,-4.0385 -46.9487,-12.4192 -69.2374,-27.23942 -15.8747,-10.5554 -35.6666,-29.85337 -45.8275,-44.68376 -10.7406,-15.6765295 -21.0938,-38.37265 -25.7974,-56.55289 -7.652,-29.57639 -6.6993,-66.446603 2.4751,-95.785043 19.5759,-62.60118 75.4234,-110.22245 140.6147,-119.90242 84.217,-12.50501 165.2016,37.63873 191.5978,118.63275 6.502,19.95082 8.6349,36.39299 7.837,60.415793 -0.9276,27.9287 -5.3462,45.58117 -17.5684,70.1872105 -10.1479,20.4300295 -18.3465,31.8224895 -34.1846,47.5015095 -25.5821,25.32501 -58.2144,41.80918 -93.8859,47.42627 -7.3397,1.15578 -14.095,2.30102 -15.0117,2.54496 -1.3063,0.34766 -1.6667,15.444057 -1.6667,69.818747 0,38.15634 0.3882,69.37517 0.8627,69.37517 0.4745,0 3.3245,-2.01507 6.3334,-4.47791 8.8881,-7.27526 18.1159,-12.41818 29.4706,-16.42486 l 10.6667,-3.7639 66.3669,-0.4023 66.3669,-0.40231 3.9664,3.96641 3.9664,3.9664 -0.023,31.76924 c -0.027,36.86662 -1.2365,44.80447 -9.3117,61.10568 -12.2533,24.73529 -35.1672,41.83903 -62.6651,46.77535 -7.2463,1.30082 -24.6027,1.80797 -63.0294,1.84168 l -53.0294,0.0465 0.3628,25 0.3627,25 14,0.94194 c 35.2637,2.37263 52.6927,3.99034 70,6.49722 62.7447,9.08825 108.8695,27.69569 122.3305,49.34998 l 4.0681,6.54419 h 63.8007 63.8007 v -38 -38 h -45.818 c -25.1999,0 -49.0499,-0.59928 -53,-1.33172 -11.8321,-2.19397 -25.2666,-9.62979 -33.536,-18.56172 -13.3877,-14.46028 -16.9406,-25.59588 -16.9635,-53.16716 -0.015,-18.54938 0.073,-19.14977 3.3083,-22.38473 l 3.3241,-3.32412 60.5345,0.38472 60.5346,0.38473 10.808,5.52342 10.808,5.52341 -0.012,-18.85675 -0.012,-18.85674 -9.2744,-5.72147 c -49.031,-30.24761 -66.4959,-92.75913 -40.4744,-144.86869 6,-12.01544 8.5188,-15.529037 19.0422,-26.562547 12.4883,-13.09382 35.0412,-27.51566 43.0247,-27.5129 1.671,5.7e-4 6.901,1.82853 11.6225,4.0621 26.8262,12.69086 47.7715,36.862707 57.7128,66.603507 3.9856,11.92325 4.238,13.84047 4.3017,32.66667 0.077,22.81217 -2.1268,33.09466 -10.895,50.82739 -9.4137,19.03826 -28.3747,38.7832 -46.8406,48.77726 l -4.1955,2.27132 v 31.39534 c 0,17.26744 0.5265,31.39535 1.1701,31.39535 0.6435,0 1.8522,-0.82198 2.686,-1.8266 2.6134,-3.149 16.4406,-8.62195 25.4772,-10.0842 11.97,-1.93691 107.5941,-1.89013 113.1749,0.0553 6.7107,2.33933 8.1585,6.78597 8.1585,25.05693 0,8.80032 -0.6631,19.18012 -1.4735,23.06622 -5.2509,25.17966 -26.1552,44.93357 -51.8599,49.00581 -4.7666,0.75515 -28.6166,1.37753 -53,1.38308 l -44.3333,0.0101 v 25.33334 25.33333 h 75.3333 75.3334 v 12 12 l -369.6667,-0.0196 c -295.3202,-0.0157 -370.337,-0.35876 -372.9999,-1.70571 z m 408.7171,-23.52625 c -0.4254,-0.68838 -3.9108,-3.0404 -7.7453,-5.22671 -23.4439,-13.36694 -67.7603,-24.27025 -120.9718,-29.76306 -22.1412,-2.28556 -101.8588,-2.28556 -124,0 -53.2116,5.49281 -97.528,16.39612 -120.9719,29.76306 -3.8345,2.18631 -7.3199,4.53833 -7.7453,5.22671 -0.4807,0.77769 71.7329,1.2516 190.7172,1.2516 118.9842,0 191.1978,-0.47391 190.7171,-1.2516 z m 286.9888,-77.2628 c 9.2043,-4.15948 18.2796,-14.20652 20.9475,-23.19048 1.1073,-3.72852 2.0132,-10.90445 2.0132,-15.94652 v -9.1674 l -48.3333,0.4094 c -45.862,0.38847 -48.6436,0.55296 -54.4011,3.21695 -14.1328,6.53924 -22.1292,18.40548 -23.5111,34.88936 -0.4344,5.18069 -0.4123,10.4029 0.049,11.60493 0.7596,1.97947 5.3335,2.14681 48.5176,1.77516 46.9621,-0.40416 47.7848,-0.45816 54.7182,-3.5914 z m -127.719,-32.4856 c -0.011,-8.71365 -0.661,-12.39148 -3.1305,-17.6946 -3.9621,-8.50845 -10.3201,-14.86641 -18.8285,-18.82853 -6.6293,-3.08706 -7.168,-3.11762 -55.191,-3.13051 l -48.4965,-0.0133 0.562,11.75377 c 0.4804,10.04708 1.1537,12.80113 4.6371,18.96683 4.9699,8.79697 11.394,14.19442 20.7337,17.42042 6.3015,2.17658 12.0384,2.44327 53.3934,2.48211 l 46.3334,0.0438 -0.013,-11 z m -226.5023,-27.68692 c 17.6476,-3.32605 36.0178,-16.42272 44.1381,-31.46737 6.2671,-11.61113 7.7106,-20.12143 7.7106,-45.45917 v -23.0532 h -53.7199 c -58.1341,0 -61.8658,0.36686 -75.8589,7.45773 -8.2826,4.19712 -20.1573,15.14621 -24.5432,22.63012 -7.0465,12.02393 -8.7157,19.76803 -9.5105,44.12313 -0.4107,12.5827 -0.3802,23.83269 0.068,25 0.7254,1.89057 6.4778,2.12235 52.6742,2.12235 29.4855,0 54.9585,-0.584 59.0419,-1.35359 z m -135.5276,-84.64641 c -0.034,-17.72207 -0.5771,-24.63836 -2.4918,-31.70515 -6.0626,-22.37633 -25.7931,-40.59862 -48.653,-44.9339 -4.1188,-0.78112 -29.5373,-1.36095 -59.6609,-1.36095 h -52.4847 v 23.0532 c 0,25.33237 1.4403,33.8276 7.7106,45.47907 4.9959,9.28353 17.0593,21.01024 26.2279,25.49604 13.9488,6.82449 17.0991,7.11137 75.3949,6.86581 l 54,-0.22745 z m 362.043,-60 v -54 h 12 12 v 54 c 0,41.58879 0.3736,54 1.6258,54 0.8943,0 6.2897,-4.74588 11.9898,-10.5464 17.9639,-18.28015 26.0779,-39.95981 24.7008,-65.99768 -1.5279,-28.89125 -16.9211,-54.83904 -41.3282,-69.665557 l -8.0911,-4.91506 -7.3716,3.89568 c -16.1473,8.53336 -33.0038,29.618097 -39.3569,49.229017 -7.509,23.17892 -4.2468,50.3992 8.6618,72.27517 4.3948,7.44786 21.3763,25.72483 23.9015,25.72483 0.781,0 1.2681,-20.74173 1.2681,-54 z M 1260.5402,63.934943 c 49.9369,-7.52703 91.7635,-38.90223 113.7579,-85.33283 3.2849,-6.93456 7.5605,-18.47469 9.5014,-25.64474 3.2193,-11.89291 3.5289,-15.20023 3.5289,-37.70313 0,-22.621553 -0.2986,-25.772143 -3.6017,-38.000003 -4.3785,-16.2095 -15.5324,-39.37943 -25.0324,-52 -13.581,-18.04201 -34.0589,-35.11226 -54.2426,-45.21622 -17.7867,-8.90401 -45.8463,-15.43472 -66.3161,-15.43472 -20.4699,0 -48.5295,6.53071 -66.3162,15.43472 -20.1837,10.10396 -40.6616,27.17421 -54.2426,45.21622 -9.3733,12.4522 -20.5303,35.60024 -25.0632,52 -3.4262,12.39566 -3.6813,15.06801 -3.6281,38.000003 0.052,22.39854 0.3817,25.86538 3.5861,37.70313 20.255,74.82685 92.299,122.39834 168.0686,110.97757 z m -33.738,-81.22843 v -7.2144 l -5.9964,-2.90282 c -10.2004,-4.93795 -19.3369,-18.59566 -19.3369,-28.90591 0,-3.00955 0.3344,-3.09581 12,-3.09581 10.8184,0 12,0.24466 12,2.48485 0,1.36667 1.5147,3.99952 3.3659,5.8508 5.6143,5.61423 12.9596,5.64193 18.5316,0.0699 7.9575,-7.95754 1.7798,-21.73886 -9.7449,-21.73886 -18.7352,0 -36.0492,-17.30086 -36.1233,-36.095813 -0.057,-14.51656 7.0755,-26.89604 19.2038,-33.33013 6.0596,-3.21456 6.1002,-3.28283 6.1002,-10.23843 v -7.00229 h 11.3334 11.3333 v 7.00229 c 0,6.9556 0.041,7.02387 6.1002,10.23843 10.4543,5.54601 19.2331,18.78137 19.2331,28.9968 0,3.00955 -0.3344,3.09581 -12,3.09581 -10.8184,0 -12,-0.24466 -12,-2.48485 0,-3.19348 -5.8584,-9.06725 -9.6992,-9.72461 -12.5232,-2.14335 -20.6735,11.53544 -12.5207,21.01365 2.5448,2.958513 4.7249,3.813563 11.9371,4.681833 10.492,1.2631 17.1887,4.46081 23.8765,11.40101 13.2709,13.77162 13.9931,34.24636 1.7357,49.20492 -2.5496,3.11136 -7.3416,6.96702 -10.6491,8.56814 l -6.0136,2.91112 v 7.2144 7.21439 h -11.3333 -11.3334 z m -76,-67.45227 v -12 h 12 12 v 12 11.99999 h -12 -12 z m 150.6667,0 v -12 h 12 12 v 12 11.99999 h -12 -12 z"
       id="path14"
       inkscape:connector-curvature="0"
       sodipodi:nodetypes="cssccccsssccccssssscssssssssssscsscscccccsscsccccsscccccscccccccccccsssccsssccsscccsccscccccccsccsssccsccsscssscscccccccscccccccsscsccccscccscscscssccscccssssscsscsssccssssssssssscccsssccsccscccssssscccscscccccccccccccccccccccccc" />
  </g>
</svg>
