<svg xmlns="http://www.w3.org/2000/svg" id="Calque_1" data-name="Calque 1" version="1.1" width="39.386" height="39.386"><defs id="defs1080"><clipPath clipPathUnits="userSpaceOnUse" id="clipPath2031"><circle cy="19.746" cx="325.804" id="circle2033" r="19.693" fill="#666" fill-opacity="1" stroke="#000" stroke-width=".614" stroke-miterlimit="4" stroke-dasharray="4.90874548,4.90874548" stroke-dashoffset="0"/></clipPath><style id="style1078">.cls-1{fill:#d40808}.cls-2{fill:#99d6c9}.cls-3{fill:#ffcf00}.cls-4{fill:#ffe5a6}.cls-5{fill:#247da6}</style></defs><g id="g2023" transform="translate(-306.11 -.052)" clip-path="url(#clipPath2031)" opacity="1"><path class="cls-1" id="polygon1981" fill="#d40808" d="M281.32 8.19l-41.38 3.29 45.45 12.95z"/><path class="cls-1" id="polygon1983" fill="#d40808" d="M325.42 26.38l-6.96-17.02-33.07 15.07z"/><path class="cls-1" id="polygon1985" fill="#d40808" d="M325.42 0l-44.1 8.19 37.14 1.17z"/><path class="cls-1" id="polygon1987" fill="#d40808" d="M285.39 24.43l-53.47 15.21 52.64-.26z"/><path class="cls-2" id="polygon1989" fill="#99d6c9" d="M285.39 24.43l-60.83 1.36 7.36 13.85z"/><path class="cls-2" id="polygon1991" fill="#99d6c9" d="M281.32 8.19L268.63 0l-28.69 11.48z"/><path class="cls-2" id="polygon1993" fill="#99d6c9" d="M402.93 17.1L325.42 0l-6.96 9.36z"/><path class="cls-3" id="polygon1995" fill="#ffcf00" d="M285.39 24.43l-.83 14.95 40.86-13z"/><path class="cls-3" id="polygon1997" fill="#ffcf00" d="M366.75 13.78l-48.29-4.42 6.96 17.02z"/><path class="cls-4" id="polygon1999" fill="#ffe5a6" d="M402.93 17.1l-77.51 9.28 43.38 13z"/><path class="cls-4" id="polygon2001" fill="#ffe5a6" d="M325.42 0h-56.79l12.69 8.19z"/><path class="cls-5" id="polygon2003" fill="#247da6" d="M325.42 26.38l-40.86 13h84.24z"/><path class="cls-5" id="polygon2005" fill="#247da6" d="M318.46 9.36l-37.14-1.17 4.07 16.24z"/><path class="cls-5" id="polygon2007" fill="#247da6" d="M285.39 24.43l-45.45-12.95-15.38 14.31z"/><path class="cls-5" id="polygon2009" fill="#247da6" d="M368.8 0h-43.38l77.51 17.1z"/><path class="cls-1" id="polygon2011" fill="#d40808" d="M431.28 0H368.8l34.13 17.1z"/><path class="cls-1" id="polygon2013" fill="#d40808" d="M402.93 17.1l18.61 22.28 50.7-13.59z"/><path class="cls-2" id="polygon2015" fill="#99d6c9" d="M402.93 17.1l-18.74 12.23 37.35 10.05z"/><path class="cls-3" id="polygon2017" fill="#ffcf00" d="M384.19 29.33L368.8 39.38h52.74z"/><path class="cls-1" id="polygon2019" fill="#d40808" d="M402.93 17.1l-77.51 9.28 41.33-12.6z"/><path class="cls-5" id="polygon2021" fill="#247da6" d="M439.59 21.69L431.28 0l-28.35 17.1z"/></g><text xml:space="preserve" style="line-height:1.25" x="6.518" y="34.32" id="text2623" font-style="normal" font-weight="400" font-size="40.913" font-family="sans-serif" letter-spacing="0" word-spacing="0" fill="#fff" fill-opacity="1" stroke="none" stroke-width="1.023"><tspan id="tspan2621" x="6.518" y="34.32" fill="#fff" stroke-width="1.023">L</tspan></text></svg>