<svg xmlns="http://www.w3.org/2000/svg" id="Calque_1" data-name="Calque 1" version="1.1" width="500" height="500"><defs id="defs4"><style id="style2">.cls-1,.cls-2{fill:#fff}.cls-2{opacity:.65}</style></defs><path class="cls-1" d="M347.884 439.581c0 8.532 5.232 14.26 13.018 14.26 7.786 0 13.018-5.728 13.018-14.26v-31.544h15.572v32.644c0 16.326-11.36 27.16-28.59 27.16s-28.55-10.834-28.55-27.16v-32.644h15.571z" id="path8" fill="#fff" stroke-width=".786"/><path class="cls-1" d="M422.56 408.037v6.333c4.47-4.997 10.724-8.038 18.628-8.038 16.216 0 29.36 12.665 29.36 30.814 0 17.661-12.382 30.946-29.36 30.946-8.037 0-14.291-2.804-18.628-7.55v32.959h-15.57v-85.464zm0 29.234c0 9.381 6.89 16.805 16.208 16.805 9.428 0 16.208-7.424 16.208-16.805 0-9.38-6.764-16.93-16.208-16.93-9.318 0-16.208 7.55-16.208 16.938z" id="path10" fill="#fff" stroke-width=".786"/><path class="cls-1" d="M206.105 379.337v87.05h-15.713v-6.324c-4.47 4.997-10.724 8.045-18.636 8.045-16.208 0-29.352-12.672-29.352-30.821 0-17.661 12.374-30.939 29.352-30.939 8.045 0 14.299 2.805 18.636 7.55V379.33zm-15.713 57.809c0-9.373-6.765-16.806-16.083-16.806-9.427 0-16.333 7.433-16.333 16.806 0 9.372 6.89 16.93 16.333 16.93 9.334 0 16.099-7.55 16.099-16.93z" id="path12" fill="#fff" stroke-width=".786"/><path class="cls-1" d="M292.055 449.85c0 9.867-8.807 18.274-25.392 18.274-11.612 0-20.427-4.023-25.66-9.876l8.643-9.49c4.714 4.988 10.598 7.424 17.873 7.424 5.995 0 9.059-2.436 9.059-6.089 0-10.48-32.801-5.366-32.801-26.311 0-8.894 7.911-17.418 23.483-17.418 11 0 19.641 3.535 24.245 9.624l-8.768 8.72c-4.077-4.627-9.184-6.457-15.053-6.457-5.366 0-8.555 2.357-8.555 5.5 0 10.228 32.926 4.265 32.926 26.099z" id="path14" fill="#fff" stroke-width=".786"/><path class="cls-1" id="rect16" fill="#fff" stroke-width=".786" d="M223.232 379.337h12.154v24.402h-12.154z"/><path class="cls-1" d="M52.266 470.795a8.037 8.037 0 01-3.37-.738 8.132 8.132 0 01-4.023-10.78l34.962-76.561a8.132 8.132 0 1114.794 6.756l-34.954 76.562a8.147 8.147 0 01-7.409 4.761z" id="path40" fill="#fff" stroke-width=".786"/><path class="cls-2" d="M122.252 470.795a8.147 8.147 0 01-7.409-4.714L79.882 389.52a8.14 8.14 0 1114.802-6.756l34.969 76.514a8.132 8.132 0 01-4.023 10.772 8.037 8.037 0 01-3.378.746z" id="path42" opacity=".65" fill="#fff" stroke-width=".786"/><path id="path854" d="M121.922 334.763a18.835 18.835 0 01-7.899-1.73 19.056 19.056 0 01-9.426-25.26l128.99-282.578a19.074 19.074 0 0134.687 15.834L139.265 323.606a19.056 19.056 0 01-17.343 11.157z" class="cls-1" fill="#fff" stroke-width="1.841"/><path id="path856" d="M241.872 298.42a18.835 18.835 0 01-7.899-1.731 19.056 19.056 0 01-9.426-25.26l81.93-179.42a19.057 19.057 0 1134.669 15.835l-81.912 179.418a19.093 19.093 0 01-17.362 11.157z" class="cls-1" fill="#fff" stroke-width="1.841"/><path id="path858" d="M405.88 298.42a19.093 19.093 0 01-17.362-11.047l-81.93-179.419a19.074 19.074 0 1134.687-15.834l81.948 179.308a19.056 19.056 0 01-9.426 25.242 18.835 18.835 0 01-7.917 1.75z" class="cls-2" opacity=".65" fill="#fff" stroke-width="1.841"/></svg>