<?xml version="1.0" encoding="UTF-8" standalone="no"?>
<!-- Created with Inkscape (http://www.inkscape.org/) -->

<svg
   xmlns:dc="http://purl.org/dc/elements/1.1/"
   xmlns:cc="http://creativecommons.org/ns#"
   xmlns:rdf="http://www.w3.org/1999/02/22-rdf-syntax-ns#"
   xmlns:svg="http://www.w3.org/2000/svg"
   xmlns="http://www.w3.org/2000/svg"
   xmlns:sodipodi="http://sodipodi.sourceforge.net/DTD/sodipodi-0.dtd"
   xmlns:inkscape="http://www.inkscape.org/namespaces/inkscape"
   version="1.1"
   id="svg2"
   width="309.3472"
   height="250.07268"
   viewBox="0 0 309.3472 250.07268"
   sodipodi:docname="alianzafrancesa.svg"
   inkscape:version="0.92.4 5da689c313, 2019-01-14">
  <metadata
     id="metadata8">
    <rdf:RDF>
      <cc:Work
         rdf:about="">
        <dc:format>image/svg+xml</dc:format>
        <dc:type
           rdf:resource="http://purl.org/dc/dcmitype/StillImage" />
        <dc:title></dc:title>
      </cc:Work>
    </rdf:RDF>
  </metadata>
  <defs
     id="defs6" />
  <sodipodi:namedview
     pagecolor="#ffffff"
     bordercolor="#666666"
     borderopacity="1"
     objecttolerance="10"
     gridtolerance="10"
     guidetolerance="10"
     inkscape:pageopacity="0"
     inkscape:pageshadow="2"
     inkscape:window-width="1364"
     inkscape:window-height="734"
     id="namedview4"
     showgrid="false"
     inkscape:zoom="0.834386"
     inkscape:cx="101.23881"
     inkscape:cy="47.70221"
     inkscape:window-x="0"
     inkscape:window-y="33"
     inkscape:window-maximized="0"
     inkscape:current-layer="svg2"
     fit-margin-top="0"
     fit-margin-left="0"
     fit-margin-right="0"
     fit-margin-bottom="0" />
  <g
     id="g817"
     transform="translate(-45.552011,-89.927315)"
     style="fill:#ffffff">
    <path
       style="fill:#ffffff"
       d="m 164.88709,268.19781 c -4.55358,-0.38087 -8.74536,-4.54955 -9.54794,-9.49532 -0.50248,-3.09641 -0.15259,-4.0429 2.46061,-6.6561 3.95619,-3.95618 7.26487,-3.94673 10.61135,0.0303 2.91524,3.46457 3.28782,6.61694 1.12069,9.48214 -2.05703,2.71964 -1.88548,3.44113 0.81816,3.44113 3.1392,0 10.19586,-5.22103 12.14123,-8.98297 C 183.63446,253.80619 194,215.34366 194,213.31227 c 0,-0.15409 -1.8485,0.68333 -4.10779,1.86093 -8.95702,4.66866 -17.99327,3.15959 -22.02796,-3.67871 l -1.99508,-3.38141 -4.47689,3.41728 C 155.76656,215.82457 148.55073,218 139.93269,218 c -13.70088,0 -22.71259,-8.27191 -21.58393,-19.81202 0.68029,-6.95568 3.35439,-11.9421 8.53343,-15.91234 5.54975,-4.25443 12.14706,-6.14881 26.24798,-7.53695 l 11.63016,-1.14492 0.441,-6.54688 c 0.74752,-11.09721 -0.41455,-19.7057 -3.00914,-22.29136 -2.00318,-1.99629 -3.2177,-2.24509 -10.56691,-2.16473 -6.0209,0.0658 -9.35975,0.61564 -12.14553,2 -5.98031,2.97184 -6.52898,4.73145 -2.70543,8.67636 4.24188,4.37651 4.4855,9.59671 0.59082,12.66026 C 130.78628,171.10235 124,166.42659 124,156.71881 124,147.13721 137.56075,139 153.5286,139 c 11.61425,0 21.12518,4.35324 25.18972,11.52957 2.17151,3.83401 2.24934,4.86723 2.26523,30.07121 0.0165,26.22022 0.62043,31.64954 3.64967,32.81197 2.04367,0.78423 7.00332,-1.92841 8.94562,-4.89272 0.87872,-1.3411 3.32764,-10.56231 5.44206,-20.49158 2.11441,-9.92928 4.5497,-20.47941 5.41174,-23.44475 C 205.29469,161.61837 206,158.92394 206,158.59609 206,158.26824 202.592,158 198.42668,158 c -6.67896,0 -7.53212,-0.20667 -7.22439,-1.75 0.29695,-1.48927 1.491,-1.74296 8.01427,-1.70275 l 7.66533,0.0473 3.15073,-9.50179 C 217.65913,122.09317 229.93409,105.09038 244,98.042437 c 10.61522,-5.318923 20.81142,-2.106492 22.50855,7.091583 0.57281,3.1045 0.25182,4.10262 -2.20296,6.85 -7.3494,8.22541 -19.98317,-0.86083 -13.68986,-9.84578 2.32845,-3.324326 0.48545,-4.759044 -3.47949,-2.708692 C 241.21426,102.49192 234.05338,114.06611 228.84117,129 227.04216,134.15447 222,153.005 222,154.57626 c 0,0.3926 3.10382,0.4536 6.89738,0.13556 8.05531,-0.67533 11.19179,-0.10776 10.42643,1.88672 -0.4052,1.05594 -2.7208,1.40146 -9.39225,1.40146 h -8.85447 l -1.1205,4.25 c -14.83411,56.26495 -25.83433,85.94379 -36.5937,98.73057 -4.37935,5.20457 -11.10907,7.83341 -18.4758,7.21724 z m -7.96811,-57.15648 c 2.15193,-1.09783 4.94237,-3.44225 6.201,-5.20982 2.12802,-2.98853 2.27197,-4.09024 2.054,-15.71951 -0.12891,-6.87816 -0.38633,-12.65769 -0.57204,-12.84339 -0.92477,-0.92477 -13.63448,-0.36674 -17.35952,0.76218 -5.61913,1.70296 -11.80495,7.11365 -13.29523,11.62921 -1.58967,4.81677 -0.61311,13.52645 1.98865,17.73619 4.1513,6.71694 12.21583,8.11789 20.98314,3.64514 z"
       id="path821"
       inkscape:connector-curvature="0" />
    <path
       style="fill:#ffffff"
       d="m 101.16992,339.12618 c -0.75546,-0.47892 -1.187475,-2.09236 -1,-3.73469 0.27173,-2.38034 1.25634,-3.33343 5.56976,-5.39149 4.43622,-2.11665 5.20293,-2.88335 5,-5 -0.19295,-2.01255 -0.8567,-2.55986 -3.40421,-2.80698 -2.46888,-0.2395 -3.30804,0.14519 -3.81738,1.75 -0.64181,2.02215 -3.51809,2.9447 -3.51809,1.12841 0,-2.20576 3.36612,-4.07061 7.32143,-4.05612 6.40878,0.0235 7.08343,0.87037 7.51591,9.43464 0.38964,7.71603 0.76813,8.48829 3.08766,6.30005 1.06701,-1.00661 1.2404,-0.97185 0.89048,0.17856 -0.80152,2.63515 -3.48395,3.58683 -6.12538,2.17318 -1.83095,-0.9799 -2.95417,-1.03078 -4.49936,-0.20382 -2.44139,1.30659 -5.17941,1.39561 -7.02082,0.22826 z m 7.89582,-2.16136 c 1.34099,-0.71768 1.93426,-2.0979 1.93426,-4.5 0,-3.94633 -0.0847,-3.98949 -3.92848,-2.00181 -3.11147,1.60901 -4.31811,3.73082 -3.43315,6.03699 0.6718,1.75068 2.70013,1.92439 5.42737,0.46482 z m 55.89837,0.96812 c -1.60179,-2.99297 0.8878,-6.26579 6.51157,-8.56014 3.90814,-1.59442 4.54841,-2.24441 4.3074,-4.3728 -0.22658,-2.00105 -0.91465,-2.56127 -3.44761,-2.80698 -2.46888,-0.2395 -3.30804,0.14519 -3.81738,1.75 C 167.80445,326.19149 165,326.79492 165,324.7 c 0,-2.43527 2.39273,-3.7 7,-3.7 2.53,0 5.14,0.54 5.8,1.2 0.66482,0.66482 1.20683,3.89822 1.21531,7.25 0.015,5.93419 1.55634,10.48093 2.64415,7.8 0.27897,-0.6875 0.93554,-1.25 1.45906,-1.25 0.56296,0 0.51454,0.81712 -0.11852,2 -1.26066,2.35556 -4.24546,2.61409 -5.98475,0.51838 -1.08623,-1.30883 -1.47633,-1.30883 -3.34495,0 -3.09927,2.17081 -7.38533,1.8826 -8.70619,-0.58544 z m 9.10163,-0.96812 C 175.40673,336.24714 176,334.86692 176,332.46482 176,330.55917 175.75265,329 175.45034,329 c -1.81851,0 -6.4081,3.29155 -6.94402,4.98008 -1.18051,3.71946 1.49879,5.15792 5.55942,2.98474 z M 237.2,338.8 c -2.93605,-2.93605 -0.87524,-5.97018 6.6127,-9.7358 3.38176,-1.70066 4.24519,-2.64321 4,-4.36651 -0.44946,-3.15888 -6.71203,-3.79865 -7.50491,-0.76669 C 239.71926,326.18156 237,326.81374 237,324.7 c 0,-2.43527 2.39273,-3.7 7,-3.7 2.53,0 5.14,0.54 5.8,1.2 0.69598,0.69598 1.2,4.03133 1.2,7.94098 0,6.69356 1.30173,9.46399 3.16556,6.73714 0.7151,-1.04622 0.86634,-0.89645 0.62798,0.62188 -0.40014,2.54891 -4.75134,3.3268 -6.01165,1.07474 -0.80794,-1.44371 -1.1178,-1.45286 -3.06289,-0.0905 -2.59492,1.81755 -6.85914,1.97559 -8.519,0.31573 z m 8.86574,-1.83518 c 1.34099,-0.71768 1.93426,-2.0979 1.93426,-4.5 0,-4.02164 -0.38057,-4.13988 -4.75,-1.47578 -5.92235,3.61093 -3.2727,9.23421 2.81574,5.97578 z m 38.38881,0.58063 c -3.49575,-3.49574 -3.46833,-10.62258 0.0544,-14.14533 2.09604,-2.09604 3.28925,-2.45887 7.25,-2.20454 4.04431,0.25968 4.78799,0.63507 5.06058,2.55442 0.39607,2.78877 -1.37672,2.94596 -2.81955,0.25 -1.30204,-2.43289 -5.23717,-2.62408 -7.12756,-0.34631 -2.0867,2.51433 -1.75703,10.71137 0.53255,13.24132 2.40034,2.65235 6.00363,2.69637 8.59501,0.10499 1.1,-1.1 2,-1.61974 2,-1.15499 0,1.95044 -3.9126,4.15499 -7.3742,4.15499 -2.6128,0 -4.44574,-0.72903 -6.17125,-2.45455 z m 20.45879,1.17275 C 302.63566,336.96945 301,333.54121 301,330.51608 c 0,-3.31858 2.43566,-8.08554 4.5448,-8.8949 3.19321,-1.22535 8.15135,-0.61442 9.80021,1.20756 2.27592,2.51486 2.07273,4.17126 -0.51168,4.17126 -1.19166,0 -1.8825,-0.28417 -1.53518,-0.63148 C 314.56581,325.10085 311.86981,322 309.5,322 c -2.97844,0 -4.09858,2.07919 -4.40628,8.17885 -0.38137,7.56004 5.27357,11.45386 9.90628,6.82115 1.51285,-1.51285 2,-1.64321 2,-0.53518 0,3.20148 -8.73155,4.82935 -12.08666,2.25338 z m 16.11853,-2.2182 0.0315,-3 2.05173,2.75 c 2.31122,3.09781 4.98974,3.53354 6.97997,1.13546 1.4085,-1.69714 0.47894,-2.79196 -6.52264,-7.68214 -2.81189,-1.96395 -3.42255,-5.75288 -1.22159,-7.57952 0.74296,-0.6166 3.21796,-1.04793 5.5,-0.95851 3.93529,0.1542 4.14891,0.32166 4.1442,3.24864 l -0.005,3.08607 -2.29074,-2.86267 c -2.28584,-2.85654 -5.62501,-3.36458 -6.41999,-0.97676 -0.43218,1.29811 0.62479,2.34039 5.72066,5.64111 3.77701,2.44647 4.78459,5.36379 3.00255,8.69355 -0.94703,1.76954 -1.89713,2.05188 -6.06259,1.80158 -4.76394,-0.28626 -4.93845,-0.40348 -4.90809,-3.29681 z M 337.2,338.8 c -2.93605,-2.93605 -0.87524,-5.97018 6.6127,-9.7358 3.38176,-1.70066 4.24519,-2.64321 4,-4.36651 -0.44946,-3.15888 -6.71203,-3.79865 -7.50491,-0.76669 C 339.71926,326.18156 337,326.81374 337,324.7 c 0,-2.43527 2.39273,-3.7 7,-3.7 2.53,0 5.14,0.54 5.8,1.2 0.69598,0.69598 1.2,4.03133 1.2,7.94098 0,6.69356 1.30173,9.46399 3.16556,6.73714 0.71523,-1.04642 0.86678,-0.89673 0.62965,0.62188 -0.38672,2.47651 -5.50832,3.41119 -6.37114,1.16272 -0.48888,-1.27399 -0.92382,-1.28379 -3.24432,-0.0731 -3.29492,1.71904 -6.38952,1.80064 -7.97975,0.21041 z m 8.86574,-1.83518 c 1.34099,-0.71768 1.93426,-2.0979 1.93426,-4.5 0,-4.02164 -0.38057,-4.13988 -4.75,-1.47578 -5.92235,3.61093 -3.2727,9.23421 2.81574,5.97578 z m -299.546325,0.64464 c 1.045921,-0.76479 4.394429,-7.34231 7.44113,-14.6167 3.0467,-7.27439 5.912383,-13.28615 6.368184,-13.35946 0.4558,-0.0733 3.535254,6.2792 6.843231,14.1167 5.776317,13.68568 6.129615,14.25 8.921271,14.25 H 79 v -13.03138 c 0,-11.2719 -0.226411,-13.11827 -1.676885,-13.67487 -1.500444,-0.57578 -1.47414,-0.72291 0.25,-1.39833 4.351634,-1.70473 4.426189,-1.49738 4.442198,12.35458 0.01553,13.44123 0.306209,15.00151 2.984687,16.02111 0.825,0.31405 -3.675,0.55432 -10,0.53394 -6.325,-0.0204 -10.7125,-0.24285 -9.75,-0.49438 2.129387,-0.55646 2.205425,-2.28492 0.301027,-6.84279 C 64.151689,328.11879 63.917399,328 58.711542,328 c -4.806014,0 -5.516348,0.27618 -6.551027,2.54705 -1.711253,3.75579 -1.447357,7.23134 0.589485,7.76362 0.9625,0.25153 -0.473508,0.50953 -3.19113,0.57333 -4.451306,0.1045 -4.752613,-0.0219 -3.039455,-1.27454 z M 63,326.08291 c 0,-0.50441 -0.957068,-3.09191 -2.126817,-5.75 L 58.746365,315.5 l -2.311811,5 c -1.271496,2.75 -2.339428,5.3375 -2.373182,5.75 C 54.027617,326.6625 56.025,327 58.5,327 c 2.475,0 4.5,-0.41269 4.5,-0.91709 z m 25,12.1882 c 2.296918,-0.87436 2.969223,-2.40657 2.971033,-6.77111 0.0023,-5.65833 -0.943805,-8.49756 -2.837664,-8.51531 C 86.713468,322.97138 86.696038,322.84269 88,322 c 0.825,-0.53316 2.5125,-0.97627 3.75,-0.98469 2.156539,-0.0147 2.25,0.33472 2.25,8.41137 0,7.18452 0.257963,8.49408 1.75,8.88399 0.9625,0.25153 -0.725,0.474 -3.75,0.49438 -3.025,0.0204 -4.825,-0.21989 -4,-0.53394 z m 33.25,0.0396 c 1.46852,-0.38376 1.75,-1.65185 1.75,-7.88399 C 123,324.3669 122.71306,323 121.44098,323 c -0.85746,0 -1.2809,-0.45 -0.94098,-1 0.84933,-1.37424 5.24536,-1.26392 5.71447,0.1434 0.28595,0.85786 0.91465,0.85786 2.51759,0 2.78778,-1.49198 7.54908,-1.46226 9.06794,0.0566 0.69631,0.69631 1.2,4.0334 1.2,7.95031 0,5.3739 0.35683,6.95814 1.75,7.76959 1.3466,0.78433 0.59744,0.99955 -3.25,0.93369 -2.75,-0.0471 -4.19353,-0.29504 -3.20783,-0.55104 1.54645,-0.40162 1.7521,-1.43393 1.5,-7.52923 -0.34521,-8.34604 -1.91661,-10.23225 -6.19118,-7.43145 -2.35311,1.54182 -2.60099,2.31451 -2.60099,8.10786 0,5.2578 0.31313,6.48545 1.75,6.86094 0.9625,0.25153 -0.725,0.45733 -3.75,0.45733 -3.025,0 -4.7125,-0.2058 -3.75,-0.45733 z m 28.24285,-6.75744 c 3.02893,-4.09573 5.50715,-7.92073 5.50715,-8.5 0,-1.95614 -5.85939,-1.12053 -7.96104,1.13533 L 145,326.37712 v -2.68856 c 0,-2.6791 0.0264,-2.68856 7.5,-2.68856 4.38121,0 7.5,0.41986 7.5,1.00967 0,0.55531 -2.49271,4.38031 -5.53936,8.5 L 148.92127,338 h 4.47198 c 3.59372,0 4.59664,-0.39278 5.10675,-2 0.63565,-2.00277 2.5,-2.8095 2.5,-1.08179 0,3.51676 -1.26164,4.08179 -9.11414,4.08179 h -7.90016 l 5.50715,-7.44677 z m 49.25715,6.41561 c 2.17006,-0.87226 2.25,-1.36201 2.25,-13.7838 0,-12.36824 -0.0893,-12.92248 -2.25,-13.96455 -1.76155,-0.84956 0.30079,-1.09982 9.5,-1.15281 L 220,309 l -0.0147,4.25 c -0.0141,4.06305 -0.07,4.1409 -1.26971,1.76971 -1.5505,-3.06437 -5.18388,-4.98555 -9.46555,-5.00497 L 206,310 v 6.5 c 0,6.47803 0.01,6.5 2.84719,6.5 1.96444,0 3.18361,-0.69759 3.93232,-2.25 0.92536,-1.91872 1.09292,-1.44021 1.13807,3.25 0.0487,5.062 -0.0473,5.30091 -1.20549,3 -0.79758,-1.58446 -2.27436,-2.61755 -4.03257,-2.82099 l -2.77414,-0.32098 0.29731,6.77933 c 0.27485,6.26717 0.48618,6.83162 2.79731,7.47131 1.52535,0.4222 -0.42396,0.70612 -5,0.72826 -5.43512,0.0263 -6.88053,-0.2127 -5.25,-0.86809 z m 21.5,0.34183 c 1.46852,-0.38376 1.75,-1.65185 1.75,-7.88399 0,-6.40053 -0.2418,-7.4288 -1.75,-7.44199 -1.49555,-0.0131 -1.5319,-0.15626 -0.25,-0.98469 2.34712,-1.51682 5,-1.1693 5,0.65499 0,1.53998 0.12708,1.53998 1.82874,0 C 229.49653,320.24067 234,320.45734 234,323 c 0,2.38235 -1.2719,2.58224 -3.02094,0.47477 -1.13,-1.36156 -1.46505,-1.34493 -3.12244,0.15499 -2.63358,2.38336 -2.71794,13.99851 -0.10662,14.68091 0.9625,0.25153 -0.725,0.45733 -3.75,0.45733 -3.025,0 -4.7125,-0.2058 -3.75,-0.45733 z m 38,0 c 1.46852,-0.38376 1.75,-1.65185 1.75,-7.88399 C 260,324.49185 259.69868,323 258.5,323 c -0.825,0 -1.5,-0.45 -1.5,-1 0,-0.55 1.35,-1 3,-1 3.3475,0 3.34472,-0.009 3.02899,9.65216 -0.16496,5.04773 0.12855,6.34379 1.63498,7.2196 1.46839,0.85369 0.83486,1.05028 -3.16397,0.98183 -2.75,-0.0471 -4.2125,-0.29139 -3.25,-0.54292 z m 13,-0.39077 c 1.33197,-0.7758 1.75,-2.33691 1.75,-6.53533 0,-3.03383 -0.46583,-6.38647 -1.03518,-7.45031 -1.09571,-2.04738 -4.42512,-2.61657 -5.46482,-0.9343 -0.33992,0.55 -1.09658,1 -1.68146,1 -0.67059,0 -0.60356,-0.55411 0.18146,-1.5 1.49055,-1.796 8.10162,-1.99838 9.8,-0.3 0.71193,0.71193 1.2,4.13926 1.2,8.42668 0,6.04166 0.28696,7.30166 1.75,7.68399 0.9625,0.25153 -0.5,0.49584 -3.25,0.54292 -3.84744,0.0659 -4.5966,-0.14936 -3.25,-0.93369 z M 89.992467,312.49092 c -0.94408,-1.13754 -1.004504,-1.87888 -0.217303,-2.66608 1.517038,-1.51704 4.441964,-0.1883 4.048743,1.83927 -0.449061,2.31549 -2.269852,2.70841 -3.83144,0.82681 z M 217.01531,253.25 C 217.00689,251.4625 217.45,250 218,250 c 1.2702,0 1.2702,3.03451 0,5 -0.7356,1.13826 -0.97307,0.71622 -0.98469,-1.75 z M 223,253 c 0,-1.65 0.45,-3 1,-3 0.55,0 1,1.35 1,3 0,1.65 -0.45,3 -1,3 -0.55,0 -1,-1.35 -1,-3 z m 8,0 c 0,-1.65 0.45,-3 1,-3 0.55,0 1,1.35 1,3 0,1.65 -0.45,3 -1,3 -0.55,0 -1,-1.35 -1,-3 z m -21,-0.94098 C 210,250.37656 210.45,249 211,249 c 0.55,0 1,1.09844 1,2.44098 0,1.34254 -0.45,2.7191 -1,3.05902 -0.58342,0.36058 -1,-0.65628 -1,-2.44098 z M 238.01531,250.75 c 0.0116,-2.46622 0.24909,-2.88826 0.98469,-1.75 1.2702,1.96549 1.2702,5 0,5 -0.55,0 -0.99311,-1.4625 -0.98469,-3.25 z m -35,0.55902 C 203.02373,250.31406 203.46684,248.825 204,248 c 0.7582,-1.17323 0.97271,-0.91378 0.98469,1.19098 0.008,1.48004 -0.43469,2.9691 -0.98469,3.30902 -0.55,0.33992 -0.99311,-0.19602 -0.98469,-1.19098 z m 41.54443,-1.92702 c -0.8992,-3.5827 0.14487,-4.28914 1.41228,-0.95559 1.25364,3.29732 1.26418,3.57359 0.13639,3.57359 -0.49038,0 -1.18728,-1.1781 -1.54867,-2.618 z M 196.41213,249 c 0.30831,-1.375 0.56671,-2.8375 0.57422,-3.25 0.008,-0.4125 0.46365,-0.75 1.01365,-0.75 1.50189,0 1.20382,2.36642 -0.57422,4.55887 -1.51937,1.8735 -1.55469,1.85402 -1.01365,-0.55887 z m 54.7341,-0.57841 C 249.7775,245.41756 249.74007,245 250.83948,245 c 1.21671,0 3.23612,4.83524 2.26904,5.43293 -0.44884,0.2774 -1.33187,-0.62771 -1.96229,-2.01134 z m 6.48929,-3.17159 c -0.92779,-1.7875 -1.24116,-3.25 -0.69638,-3.25 1.3097,0 3.29961,3.78818 2.78691,5.30544 -0.22201,0.65701 -1.16275,-0.26794 -2.09053,-2.05544 z m -73.87059,-0.81841 C 182.97472,243.64139 185.0218,239 186.16052,239 c 1.14503,0 1.00314,1.07754 -0.49792,3.78136 -0.6966,1.25475 -1.55055,1.99736 -1.89767,1.65023 z m 80.27025,-2.36585 C 262.27596,238.77861 262.9372,237.36286 265,240 c 1.07554,1.375 1.96553,2.8375 1.97776,3.25 0.0444,1.49785 -1.93309,0.70199 -2.94258,-1.18426 z m -86.36305,-1.78723 c -0.62014,-1.0034 3.17668,-5.76303 3.96688,-4.97283 0.32395,0.32395 -0.32643,1.75277 -1.44528,3.17516 -1.11886,1.4224 -2.25358,2.23134 -2.5216,1.79767 z m 91.86298,-1.86527 c -0.9322,-1.42272 -1.40318,-2.8785 -1.04662,-3.23506 0.64638,-0.64639 4.44705,3.64747 4.48927,5.07182 0.0481,1.622 -1.83451,0.61757 -3.44265,-1.83676 z M 172,235.15499 c 0,-0.46476 0.9,-1.6595 2,-2.65499 2.24954,-2.03581 2.63642,-0.92217 0.60795,1.75 C 173.18674,236.12221 172,236.53402 172,235.15499 Z m 103.03518,-1.08925 C 273.44163,231.08816 273.79903,230.50815 276,232.5 c 2.14273,1.93914 2.60438,3.5 1.03518,3.5 -0.53065,0 -1.43065,-0.87042 -2,-1.93426 z m 5.68924,-3.81775 c -2.58772,-2.8594 -2.23012,-5.19813 0.39364,-2.57438 1.16493,1.16493 1.94092,2.64946 1.72442,3.29895 -0.25713,0.77138 -0.99163,0.52011 -2.11806,-0.72457 z m -112.66856,-1.80745 c 1.35865,-1.44621 2.56729,-2.07108 2.77878,-1.43663 0.20585,0.61756 -0.46023,1.75501 -1.48018,2.52766 -3.06534,2.32211 -3.86998,1.64608 -1.2986,-1.09103 z M 162.5,224 c 0.99549,-1.1 2.48498,-2 3.30998,-2 1.23,0 1.17421,0.35999 -0.30998,2 -0.99549,1.1 -2.48498,2 -3.30998,2 -1.23,0 -1.17421,-0.35999 0.30998,-2 z M 157,220.01374 C 157,219.13915 160.14742,217 161.43426,217 c 1.5209,0 0.27873,1.80974 -1.93426,2.81805 -1.42833,0.65079 -2.5,0.73468 -2.5,0.19569 z M 151.44113,206.4682 C 153.60192,204.83385 156,204.52622 156,205.88337 c 0,0.48585 -1.0125,1.15471 -2.25,1.48634 -3.62068,0.97031 -4.38768,0.67082 -2.30887,-0.90151 z M 147,201.21924 c 0,-1.15308 5.90652,-3.17951 6.49449,-2.22816 0.27673,0.44776 -0.91348,1.30793 -2.6449,1.91151 C 147.09736,202.21062 147,202.21863 147,201.21924 Z m -2,-7.00242 c 0,-1.11853 4.92769,-2.62246 5.78467,-1.76549 0.79641,0.79642 0.0628,1.29785 -3.03672,2.07579 C 146.12286,194.935 145,194.8082 145,194.21682 Z M 144,187 c 0,-0.55 1.4625,-0.99311 3.25,-0.98469 2.46622,0.0116 2.88826,0.24909 1.75,0.98469 -1.96549,1.2702 -5,1.2702 -5,0 z m -1.5,-7 c 0.33992,-0.55 2.05398,-0.99311 3.80902,-0.98469 2.42807,0.0117 2.83235,0.24708 1.69098,0.98469 -1.98326,1.28168 -6.29212,1.28168 -5.5,0 z m 1.75,-7.68933 c 0.9625,-0.25152 2.5375,-0.25152 3.5,0 0.9625,0.25153 0.175,0.45733 -1.75,0.45733 -1.925,0 -2.7125,-0.2058 -1.75,-0.45733 z M 143,166 c 0,-0.55 1.09844,-1 2.44098,-1 1.34254,0 2.7191,0.45 3.05902,1 0.36058,0.58342 -0.65628,1 -2.44098,1 C 144.37656,167 143,166.55 143,166 Z m 1,-7 c 0,-0.55 1.09844,-1 2.44098,-1 1.34254,0 2.7191,0.45 3.05902,1 0.36058,0.58342 -0.65628,1 -2.44098,1 C 145.37656,160 144,159.55 144,159 Z m 3.75,-5.68933 c -2.94537,-0.7697 -1.94239,-1.99252 1.25,-1.52398 1.65,0.24217 3,0.83923 3,1.32681 0,0.9206 -1.25835,0.97898 -4.25,0.19717 z m 1.5,-6.97295 c -2.22949,-0.89962 -1.33739,-2.4989 1,-1.79271 3.18489,0.96223 4.58329,2.47253 2.2,2.37604 -1.0725,-0.0434 -2.5125,-0.30592 -3.2,-0.58333 z m 5.96864,-12.67512 c -1.25475,-0.6966 -1.99736,-1.55055 -1.65023,-1.89767 0.7902,-0.79021 5.43159,1.25687 5.43159,2.39559 0,1.14503 -1.07754,1.00314 -3.78136,-0.49792 z m 3.47152,-6.0984 c -0.99541,-0.75471 -1.43283,-1.6052 -0.97204,-1.88999 0.46079,-0.28478 1.95022,0.33701 3.30984,1.38177 1.62683,1.25007 1.95918,1.89628 0.97204,1.88998 -0.825,-0.005 -2.31443,-0.62705 -3.30984,-1.38176 z m 4.88284,-5.08567 c -1.05985,-0.80183 -1.66617,-1.71869 -1.34738,-2.03749 0.68933,-0.68932 4.77438,1.70599 4.77438,2.79951 0,1.14659 -1.28057,0.86185 -3.427,-0.76202 z m 4.40694,-5.0027 c -2.06068,-2.48297 -0.11665,-3.05699 2.27006,-0.67027 1.76363,1.76363 1.88038,2.19444 0.59467,2.19444 -0.87988,0 -2.16901,-0.68587 -2.86473,-1.52417 z m 5.51451,-4.48196 c -0.99854,-1.10337 -1.52104,-2.30061 -1.16112,-2.66054 0.72923,-0.72923 4.66667,2.49524 4.66667,3.82166 0,1.45986 -1.61884,0.92367 -3.50555,-1.16112 z m 6.22997,-3.74588 c -2.58772,-2.8594 -2.23012,-5.19813 0.39364,-2.57438 1.16493,1.16493 1.94092,2.64946 1.72442,3.29895 -0.25713,0.77138 -0.99163,0.52011 -2.11806,-0.72457 z m 5.24591,-4.30343 c -0.60502,-1.13049 -0.91839,-2.59299 -0.69638,-3.25 0.22201,-0.65701 1.16275,0.26794 2.09053,2.05544 0.92779,1.7875 1.24116,3.25 0.69638,3.25 -0.54477,0 -1.48551,-0.92495 -2.09053,-2.05544 z m 6.13237,-2.75266 c -0.67782,-1.26653 -1.05362,-2.839132 -0.83511,-3.494676 0.22522,-0.675669 0.93108,-0.194531 1.62971,1.110878 0.67782,1.266528 1.05362,2.839128 0.83511,3.494678 -0.22522,0.67566 -0.93108,0.19453 -1.62971,-1.11088 z m 5.87255,-3.757 C 195.7759,95.280376 195.76994,95 196.90217,95 c 0.4962,0 1.37279,1.35 1.94799,3 1.30013,3.72956 -0.46649,4.13934 -1.87491,0.4349 z m 6.58449,-2.052899 c -0.59265,-2.361297 -0.10982,-4.353198 0.79958,-3.298668 C 205.30305,94.17766 205.92911,99 205.12746,99 c -0.50085,0 -1.20633,-1.178099 -1.56772,-2.617999 z m 7.01443,-1.678571 c -0.4479,-1.538114 -0.53532,-3.075614 -0.19427,-3.416667 1.11934,-1.119339 1.77762,0.477939 1.38961,3.371815 L 211.38854,97.5 Z m 7,-1 c -0.4479,-1.538114 -0.53532,-3.075614 -0.19427,-3.416667 1.11934,-1.119339 1.77762,0.477939 1.38961,3.371815 L 218.38854,96.5 Z m 6.17652,-0.227297 c -0.26536,-1.388127 -0.0928,-2.764685 0.38342,-3.059017 0.47624,-0.294333 0.86589,0.841408 0.86589,2.523867 0,3.71243 -0.59335,3.966595 -1.24931,0.53515 z"
       id="path819"
       inkscape:connector-curvature="0" />
  </g>
</svg>
