<svg xmlns="http://www.w3.org/2000/svg" version="1.1" id="svg2" width="309.347" height="250.073"><g id="g817" transform="translate(-45.552 -89.927)" fill="#fff"><path d="M164.887 268.198c-4.553-.381-8.745-4.55-9.548-9.496-.502-3.096-.152-4.042 2.46-6.656 3.957-3.956 7.266-3.946 10.612.03 2.915 3.465 3.288 6.618 1.12 9.483-2.056 2.72-1.885 3.441.819 3.441 3.14 0 10.196-5.221 12.141-8.983 1.143-2.21 11.509-40.673 11.509-42.705 0-.154-1.849.684-4.108 1.861-8.957 4.669-17.993 3.16-22.028-3.679l-1.995-3.38-4.477 3.416c-5.625 4.295-12.841 6.47-21.46 6.47-13.7 0-22.712-8.272-21.583-19.812.68-6.956 3.354-11.942 8.533-15.912 5.55-4.255 12.147-6.15 26.248-7.537l11.63-1.145.441-6.547c.748-11.097-.414-19.706-3.009-22.291-2.003-1.997-3.218-2.246-10.567-2.165-6.02.066-9.36.615-12.145 2-5.98 2.972-6.53 4.731-2.706 8.676 4.242 4.377 4.486 9.597.591 12.66-6.579 5.175-13.365.5-13.365-9.208 0-9.582 13.56-17.719 29.529-17.719 11.614 0 21.125 4.353 25.19 11.53 2.17 3.834 2.249 4.867 2.265 30.07.016 26.221.62 31.65 3.65 32.813 2.043.784 7.003-1.929 8.945-4.893.879-1.341 3.327-10.562 5.442-20.492 2.114-9.929 4.55-20.479 5.412-23.444.862-2.966 1.567-5.66 1.567-5.988 0-.328-3.408-.596-7.573-.596-6.68 0-7.532-.207-7.225-1.75.297-1.49 1.491-1.743 8.015-1.703l7.665.048 3.15-9.502c7.627-23 19.902-40.003 33.968-47.05 10.615-5.32 20.811-2.107 22.509 7.091.572 3.105.251 4.103-2.203 6.85-7.35 8.225-19.984-.86-13.69-9.846 2.328-3.324.485-4.759-3.48-2.708-5.922 3.062-13.083 14.636-18.295 29.57-1.799 5.154-6.841 24.005-6.841 25.576 0 .393 3.104.454 6.897.136 8.056-.676 11.192-.108 10.427 1.887-.405 1.055-2.721 1.401-9.392 1.401h-8.855l-1.12 4.25c-14.835 56.265-25.835 85.944-36.594 98.73-4.38 5.205-11.11 7.834-18.476 7.218zm-7.968-57.157c2.152-1.097 4.942-3.442 6.201-5.21 2.128-2.988 2.272-4.09 2.054-15.719-.129-6.878-.386-12.658-.572-12.843-.925-.925-13.635-.367-17.36.762-5.619 1.703-11.805 7.113-13.295 11.629-1.59 4.817-.613 13.526 1.989 17.736 4.151 6.717 12.216 8.118 20.983 3.645z" id="path821"/><path d="M101.17 339.126c-.756-.479-1.188-2.092-1-3.735.272-2.38 1.256-3.333 5.57-5.391 4.436-2.117 5.203-2.883 5-5-.193-2.013-.857-2.56-3.405-2.807-2.468-.24-3.308.145-3.817 1.75-.642 2.022-3.518 2.945-3.518 1.128 0-2.205 3.366-4.07 7.321-4.056 6.41.024 7.084.87 7.516 9.435.39 7.716.768 8.488 3.088 6.3 1.067-1.007 1.24-.972.89.179-.801 2.635-3.483 3.586-6.125 2.173-1.83-.98-2.954-1.031-4.5-.204-2.44 1.307-5.179 1.396-7.02.228zm7.896-2.161c1.34-.718 1.934-2.098 1.934-4.5 0-3.947-.085-3.99-3.928-2.002-3.112 1.609-4.319 3.73-3.434 6.037.672 1.75 2.7 1.924 5.428.465zm55.898.968c-1.602-2.993.888-6.266 6.512-8.56 3.908-1.595 4.548-2.245 4.307-4.373-.226-2.001-.915-2.561-3.448-2.807-2.468-.24-3.308.145-3.817 1.75-.714 2.248-3.518 2.852-3.518.757 0-2.435 2.393-3.7 7-3.7 2.53 0 5.14.54 5.8 1.2.665.665 1.207 3.898 1.215 7.25.015 5.934 1.557 10.48 2.644 7.8.28-.688.936-1.25 1.46-1.25.562 0 .514.817-.119 2-1.26 2.356-4.245 2.614-5.985.518-1.086-1.308-1.476-1.308-3.345 0-3.099 2.171-7.385 1.883-8.706-.585zm9.102-.968c1.34-.718 1.934-2.098 1.934-4.5 0-1.906-.247-3.465-.55-3.465-1.818 0-6.408 3.292-6.944 4.98-1.18 3.72 1.5 5.158 5.56 2.985zM237.2 338.8c-2.936-2.936-.875-5.97 6.613-9.736 3.381-1.7 4.245-2.643 4-4.366-.45-3.16-6.712-3.799-7.505-.767-.589 2.25-3.308 2.883-3.308.769 0-2.435 2.393-3.7 7-3.7 2.53 0 5.14.54 5.8 1.2.696.696 1.2 4.031 1.2 7.941 0 6.694 1.302 9.464 3.166 6.737.715-1.046.866-.896.628.622-.4 2.549-4.752 3.327-6.012 1.075-.808-1.444-1.118-1.453-3.063-.09-2.595 1.817-6.86 1.975-8.519.315zm8.866-1.835c1.34-.718 1.934-2.098 1.934-4.5 0-4.022-.38-4.14-4.75-1.476-5.922 3.611-3.273 9.234 2.816 5.976zm38.389.58c-3.496-3.495-3.469-10.622.054-14.145 2.096-2.096 3.29-2.459 7.25-2.204 4.044.26 4.788.635 5.06 2.554.397 2.789-1.376 2.946-2.819.25-1.302-2.433-5.237-2.624-7.128-.346-2.086 2.514-1.757 10.711.533 13.241 2.4 2.652 6.004 2.696 8.595.105 1.1-1.1 2-1.62 2-1.155 0 1.95-3.913 4.155-7.374 4.155-2.613 0-4.446-.729-6.171-2.455zm20.458 1.173c-2.277-1.749-3.913-5.177-3.913-8.202 0-3.319 2.436-8.085 4.545-8.895 3.193-1.225 8.151-.614 9.8 1.208 2.276 2.515 2.073 4.171-.512 4.171-1.191 0-1.882-.284-1.535-.631C314.566 325.1 311.87 322 309.5 322c-2.978 0-4.099 2.08-4.406 8.179-.382 7.56 5.273 11.454 9.906 6.821 1.513-1.513 2-1.643 2-.535 0 3.201-8.732 4.83-12.087 2.253zm16.119-2.218l.031-3 2.052 2.75c2.311 3.098 4.99 3.534 6.98 1.135 1.409-1.697.479-2.791-6.523-7.682-2.811-1.964-3.422-5.753-1.221-7.58.743-.616 3.218-1.047 5.5-.958 3.935.154 4.149.322 4.144 3.249l-.005 3.086-2.29-2.863c-2.287-2.856-5.626-3.364-6.42-.976-.433 1.298.624 2.34 5.72 5.64 3.777 2.447 4.785 5.364 3.003 8.694-.948 1.77-1.898 2.052-6.063 1.802-4.764-.286-4.939-.404-4.908-3.297zm16.168 2.3c-2.936-2.936-.875-5.97 6.613-9.736 3.381-1.7 4.245-2.643 4-4.366-.45-3.16-6.712-3.799-7.505-.767-.589 2.25-3.308 2.883-3.308.769 0-2.435 2.393-3.7 7-3.7 2.53 0 5.14.54 5.8 1.2.696.696 1.2 4.031 1.2 7.941 0 6.694 1.302 9.464 3.166 6.737.715-1.046.866-.897.63.622-.388 2.477-5.51 3.411-6.372 1.163-.489-1.274-.924-1.284-3.244-.073-3.295 1.719-6.39 1.8-7.98.21zm8.866-1.835c1.34-.718 1.934-2.098 1.934-4.5 0-4.022-.38-4.14-4.75-1.476-5.922 3.611-3.273 9.234 2.816 5.976zm-299.547.644c1.046-.764 4.395-7.342 7.442-14.616 3.046-7.275 5.912-13.286 6.368-13.36.456-.073 3.535 6.28 6.843 14.117 5.776 13.686 6.13 14.25 8.921 14.25H79v-13.031c0-11.272-.226-13.119-1.677-13.675-1.5-.576-1.474-.723.25-1.399 4.352-1.704 4.426-1.497 4.442 12.355.016 13.441.307 15.002 2.985 16.021.825.314-3.675.554-10 .534-6.325-.02-10.713-.243-9.75-.494 2.13-.557 2.205-2.285.301-6.843-1.4-3.35-1.634-3.468-6.84-3.468-4.805 0-5.516.276-6.55 2.547-1.712 3.756-1.448 7.231.589 7.764.963.251-.474.51-3.191.573-4.451.104-4.753-.022-3.04-1.275zM63 326.083c0-.505-.957-3.092-2.127-5.75l-2.127-4.833-2.311 5c-1.272 2.75-2.34 5.338-2.374 5.75-.033.413 1.964.75 4.439.75s4.5-.413 4.5-.917zm25 12.188c2.297-.874 2.97-2.406 2.971-6.771.002-5.658-.944-8.498-2.838-8.515-1.42-.014-1.437-.142-.133-.985.825-.533 2.513-.976 3.75-.985 2.157-.014 2.25.335 2.25 8.412 0 7.184.258 8.494 1.75 8.884.963.251-.725.474-3.75.494-3.025.02-4.825-.22-4-.534zm33.25.04c1.469-.384 1.75-1.652 1.75-7.884 0-6.06-.287-7.427-1.559-7.427-.857 0-1.28-.45-.941-1 .85-1.374 5.245-1.264 5.714.143.286.858.915.858 2.518 0 2.788-1.492 7.55-1.462 9.068.057.696.696 1.2 4.033 1.2 7.95 0 5.374.357 6.958 1.75 7.77 1.347.784.597 1-3.25.934-2.75-.048-4.194-.295-3.208-.551 1.547-.402 1.752-1.434 1.5-7.53-.345-8.346-1.916-10.232-6.191-7.431-2.353 1.542-2.601 2.314-2.601 8.108 0 5.258.313 6.485 1.75 6.86.963.252-.725.458-3.75.458s-4.713-.206-3.75-.457zm28.243-6.758c3.029-4.095 5.507-7.92 5.507-8.5 0-1.956-5.86-1.12-7.961 1.136L145 326.377v-2.688c0-2.68.026-2.689 7.5-2.689 4.381 0 7.5.42 7.5 1.01 0 .555-2.493 4.38-5.54 8.5l-5.539 7.49h4.472c3.594 0 4.597-.393 5.107-2 .636-2.003 2.5-2.81 2.5-1.082 0 3.517-1.262 4.082-9.114 4.082h-7.9l5.507-7.447zm49.257 6.416c2.17-.872 2.25-1.362 2.25-13.784 0-12.368-.09-12.922-2.25-13.964-1.762-.85.3-1.1 9.5-1.153L220 309l-.015 4.25c-.014 4.063-.07 4.14-1.27 1.77-1.55-3.065-5.183-4.986-9.465-5.005L206 310v6.5c0 6.478.01 6.5 2.847 6.5 1.965 0 3.184-.698 3.933-2.25.925-1.919 1.092-1.44 1.138 3.25.048 5.062-.048 5.3-1.206 3a5.114 5.114 0 00-4.032-2.821l-2.775-.321.298 6.78c.275 6.267.486 6.831 2.797 7.47 1.525.423-.424.707-5 .729-5.435.026-6.88-.213-5.25-.868zm21.5.342c1.469-.384 1.75-1.652 1.75-7.884 0-6.4-.242-7.43-1.75-7.442-1.496-.013-1.532-.157-.25-.985 2.347-1.517 5-1.17 5 .655 0 1.54.127 1.54 1.829 0 2.668-2.414 7.171-2.198 7.171.345 0 2.382-1.272 2.582-3.02.475-1.13-1.362-1.466-1.345-3.123.155-2.634 2.383-2.718 13.998-.107 14.68.963.252-.725.458-3.75.458s-4.713-.206-3.75-.457zm38 0c1.469-.384 1.75-1.652 1.75-7.884 0-5.935-.301-7.427-1.5-7.427-.825 0-1.5-.45-1.5-1s1.35-1 3-1c3.348 0 3.345-.009 3.029 9.652-.165 5.048.129 6.344 1.635 7.22 1.468.853.835 1.05-3.164.982-2.75-.048-4.213-.292-3.25-.543zm13-.391c1.332-.776 1.75-2.337 1.75-6.535 0-3.034-.466-6.387-1.035-7.45-1.096-2.048-4.425-2.617-5.465-.935-.34.55-1.097 1-1.681 1-.671 0-.604-.554.181-1.5 1.49-1.796 8.102-1.998 9.8-.3.712.712 1.2 4.14 1.2 8.427 0 6.041.287 7.301 1.75 7.684.963.251-.5.496-3.25.543-3.847.065-4.597-.15-3.25-.934zM89.992 312.49c-.944-1.137-1.004-1.878-.217-2.665 1.517-1.517 4.442-.188 4.049 1.84-.45 2.315-2.27 2.708-3.832.826zm127.023-59.24c-.008-1.787.435-3.25.985-3.25 1.27 0 1.27 3.035 0 5-.736 1.138-.973.716-.985-1.75zM223 253c0-1.65.45-3 1-3s1 1.35 1 3-.45 3-1 3-1-1.35-1-3zm8 0c0-1.65.45-3 1-3s1 1.35 1 3-.45 3-1 3-1-1.35-1-3zm-21-.941c0-1.682.45-3.059 1-3.059s1 1.098 1 2.441c0 1.343-.45 2.72-1 3.059-.583.36-1-.656-1-2.441zm28.015-1.309c.012-2.466.25-2.888.985-1.75 1.27 1.965 1.27 5 0 5-.55 0-.993-1.462-.985-3.25zm-35 .559c.009-.995.452-2.484.985-3.309.758-1.173.973-.914.985 1.191.008 1.48-.435 2.97-.985 3.309-.55.34-.993-.196-.985-1.191zm41.545-1.927c-.9-3.583.145-4.29 1.412-.956 1.254 3.298 1.264 3.574.136 3.574-.49 0-1.187-1.178-1.548-2.618zM196.412 249c.308-1.375.567-2.837.574-3.25.008-.412.464-.75 1.014-.75 1.502 0 1.204 2.366-.574 4.559-1.52 1.873-1.555 1.854-1.014-.559zm54.734-.578c-1.368-3.004-1.406-3.422-.307-3.422 1.217 0 3.237 4.835 2.27 5.433-.45.277-1.332-.628-1.963-2.011zm6.49-3.172c-.928-1.788-1.242-3.25-.697-3.25 1.31 0 3.3 3.788 2.787 5.305-.222.657-1.163-.268-2.09-2.055zm-73.871-.818c-.79-.79 1.257-5.432 2.396-5.432 1.145 0 1.003 1.078-.498 3.781-.697 1.255-1.551 1.998-1.898 1.65zm80.27-2.366c-1.759-3.287-1.098-4.703.965-2.066 1.076 1.375 1.966 2.837 1.978 3.25.044 1.498-1.933.702-2.943-1.184zm-86.363-1.787c-.62-1.004 3.177-5.764 3.967-4.973.324.324-.326 1.752-1.445 3.175-1.12 1.422-2.254 2.231-2.522 1.798zm91.863-1.866c-.932-1.422-1.403-2.878-1.047-3.235.647-.646 4.448 3.648 4.49 5.072.048 1.622-1.835.618-3.443-1.837zM172 235.155c0-.465.9-1.66 2-2.655 2.25-2.036 2.636-.922.608 1.75-1.421 1.872-2.608 2.284-2.608.905zm103.035-1.09c-1.593-2.977-1.236-3.557.965-1.565 2.143 1.94 2.604 3.5 1.035 3.5-.53 0-1.43-.87-2-1.934zm5.69-3.817c-2.588-2.86-2.23-5.198.393-2.574 1.165 1.165 1.941 2.65 1.724 3.299-.257.77-.991.52-2.118-.725zm-112.67-1.807c1.36-1.447 2.568-2.072 2.78-1.437.205.617-.46 1.755-1.48 2.528-3.066 2.322-3.87 1.646-1.3-1.091zM162.5 224c.995-1.1 2.485-2 3.31-2 1.23 0 1.174.36-.31 2-.995 1.1-2.485 2-3.31 2-1.23 0-1.174-.36.31-2zm-5.5-3.986c0-.875 3.147-3.014 4.434-3.014 1.521 0 .279 1.81-1.934 2.818-1.428.65-2.5.735-2.5.196zm-5.559-13.546c2.16-1.634 4.559-1.942 4.559-.585 0 .486-1.012 1.155-2.25 1.487-3.62.97-4.388.67-2.309-.902zM147 201.22c0-1.153 5.907-3.18 6.494-2.228.277.448-.913 1.308-2.644 1.912-3.753 1.308-3.85 1.316-3.85.316zm-2-7.002c0-1.119 4.928-2.623 5.785-1.766.796.797.062 1.298-3.037 2.076-1.625.408-2.748.281-2.748-.31zM144 187c0-.55 1.462-.993 3.25-.985 2.466.012 2.888.25 1.75.985-1.965 1.27-5 1.27-5 0zm-1.5-7c.34-.55 2.054-.993 3.809-.985 2.428.012 2.832.247 1.691.985-1.983 1.282-6.292 1.282-5.5 0zm1.75-7.69c.963-.25 2.538-.25 3.5 0 .963.252.175.458-1.75.458s-2.712-.206-1.75-.457zM143 166c0-.55 1.098-1 2.441-1 1.343 0 2.72.45 3.059 1 .36.583-.656 1-2.441 1-1.682 0-3.059-.45-3.059-1zm1-7c0-.55 1.098-1 2.441-1 1.343 0 2.72.45 3.059 1 .36.583-.656 1-2.441 1-1.682 0-3.059-.45-3.059-1zm3.75-5.69c-2.945-.769-1.942-1.992 1.25-1.523 1.65.242 3 .839 3 1.326 0 .921-1.258.98-4.25.198zm1.5-6.972c-2.23-.9-1.337-2.5 1-1.793 3.185.962 4.583 2.473 2.2 2.376-1.073-.043-2.513-.306-3.2-.583zm5.969-12.675c-1.255-.697-1.998-1.551-1.65-1.898.79-.79 5.431 1.257 5.431 2.396 0 1.145-1.078 1.003-3.781-.498zm3.471-6.099c-.995-.755-1.433-1.605-.972-1.89.46-.285 1.95.337 3.31 1.382 1.627 1.25 1.96 1.896.972 1.89-.825-.005-2.314-.627-3.31-1.382zm4.883-5.085c-1.06-.802-1.666-1.72-1.347-2.038.689-.69 4.774 1.706 4.774 2.8 0 1.146-1.28.861-3.427-.762zm4.407-5.003c-2.06-2.483-.117-3.057 2.27-.67 1.764 1.763 1.88 2.194.595 2.194-.88 0-2.17-.686-2.865-1.524zm5.514-4.482c-.998-1.103-1.52-2.3-1.16-2.66.729-.73 4.666 2.495 4.666 3.821 0 1.46-1.619.924-3.506-1.161zm6.23-3.746c-2.587-2.86-2.23-5.198.394-2.574 1.165 1.165 1.941 2.65 1.724 3.299-.257.77-.991.52-2.118-.725zm5.246-4.303c-.605-1.13-.918-2.593-.696-3.25.222-.657 1.163.268 2.09 2.055.928 1.788 1.242 3.25.697 3.25s-1.486-.925-2.09-2.055zm6.133-2.753c-.678-1.267-1.054-2.84-.835-3.495.225-.675.93-.194 1.63 1.111.677 1.267 1.053 2.84.834 3.495-.225.675-.93.194-1.63-1.111zm5.872-3.757c-1.2-3.155-1.205-3.435-.073-3.435.496 0 1.373 1.35 1.948 3 1.3 3.73-.466 4.14-1.875.435zm6.585-2.053c-.593-2.361-.11-4.353.8-3.299.943 1.095 1.57 5.917.767 5.917-.5 0-1.206-1.178-1.567-2.618zm7.014-1.679c-.448-1.538-.535-3.075-.194-3.416 1.12-1.12 1.778.478 1.39 3.372l-.381 2.841zm7-1c-.448-1.538-.535-3.075-.194-3.416 1.12-1.12 1.778.478 1.39 3.372l-.381 2.841zm6.177-.227c-.266-1.388-.093-2.765.383-3.059.476-.294.866.842.866 2.524 0 3.712-.593 3.967-1.25.535z" id="path819"/></g></svg>