<?xml version="1.0" encoding="UTF-8" standalone="no"?>
<!-- Generator: Adobe Illustrator 13.0.2, SVG Export Plug-In  -->

<svg
   xmlns:dc="http://purl.org/dc/elements/1.1/"
   xmlns:cc="http://creativecommons.org/ns#"
   xmlns:rdf="http://www.w3.org/1999/02/22-rdf-syntax-ns#"
   xmlns:svg="http://www.w3.org/2000/svg"
   xmlns="http://www.w3.org/2000/svg"
   xmlns:sodipodi="http://sodipodi.sourceforge.net/DTD/sodipodi-0.dtd"
   xmlns:inkscape="http://www.inkscape.org/namespaces/inkscape"
   version="1.1"
   x="0px"
   y="0px"
   width="98"
   height="98"
   viewBox="-0.982 -0.869 98 98"
   enable-background="new -0.982 -0.869 98 31"
   xml:space="preserve"
   id="svg12"
   sodipodi:docname="Logotipo_de_BBVA.svg"
   inkscape:version="0.92.4 5da689c313, 2019-01-14"><metadata
   id="metadata16"><rdf:RDF><cc:Work
       rdf:about=""><dc:format>image/svg+xml</dc:format><dc:type
         rdf:resource="http://purl.org/dc/dcmitype/StillImage" /><dc:title></dc:title></cc:Work></rdf:RDF></metadata><sodipodi:namedview
   pagecolor="#ffffff"
   bordercolor="#666666"
   borderopacity="1"
   objecttolerance="10"
   gridtolerance="10"
   guidetolerance="10"
   inkscape:pageopacity="0"
   inkscape:pageshadow="2"
   inkscape:window-width="1364"
   inkscape:window-height="734"
   id="namedview14"
   showgrid="false"
   inkscape:zoom="4.689994"
   inkscape:cx="68.038951"
   inkscape:cy="46.378578"
   inkscape:window-x="0"
   inkscape:window-y="33"
   inkscape:window-maximized="0"
   inkscape:current-layer="svg12" />
<defs
   id="defs2">
</defs>
<path
   d="m 85.279385,52.349693 h -8.243 l 4.091,-13.675 4.152,13.675 m -1.297,-19.116 c 2.217,0 2.787,0.554 3.63,3.057 l 9.096,26.915 h -8.103 l -1.976,-6.47 h -10.907 l -1.966,6.47 h -4.676 l 9.173,-29.974 z"
   id="path4"
   inkscape:connector-curvature="0"
   style="clip-rule:evenodd;fill:#ffffff;fill-rule:evenodd" />
<path
   d="m 36.571385,46.421693 2.502,-3.731 c 0.633,-0.937 0.765,-1.524 0.765,-2.181 0,-1.831 -1.608,-3.369 -3.466,-3.369 h -3.845 v 22.051 h 2.131 c 3.565,0 6.27,-1.925 6.27,-6.434 0,-3.717 -1.744,-5.703 -4.357,-6.336 m 1.497,16.796 h -12.591 v -29.99 h 13.05 c 6.12,0 8.251,4.987 5.154,9.586 l -1.466,2.174 c 10.267,5.329 6.927,18.23 -4.147,18.23 z"
   id="path6"
   inkscape:connector-curvature="0"
   style="clip-rule:evenodd;fill:#ffffff;fill-rule:evenodd" />
<path
   d="m 11.213385,46.421693 2.5,-3.731 c 0.632,-0.937 0.765,-1.524 0.765,-2.181 0,-1.831 -1.611,-3.369 -3.463,-3.369 H 7.1673846 v 22.051 H 9.297385 c 3.565,0 6.27,-1.925 6.27,-6.434 0,-3.717 -1.746,-5.703 -4.354,-6.336 m 1.495,16.796 H 0.1153846 v -29.99 H 13.169385 c 6.118,0 8.251,4.987 5.152,9.586 l -1.466,2.174 c 10.265,5.329 6.927,18.23 -4.147,18.23 z"
   id="path8"
   inkscape:connector-curvature="0"
   style="clip-rule:evenodd;fill:#ffffff;fill-rule:evenodd" />
<path
   d="m 67.855385,33.227693 h 4.734 l -9.137,29.975 -7.195,-0.004 -9.803,-29.967 5.299,-0.004 c 2.043,0 2.582,0.527 3.652,3.923 l 5.673,18.846 6.777,-22.769"
   id="path10"
   inkscape:connector-curvature="0"
   style="fill:#ffffff" />
</svg>