<svg xmlns="http://www.w3.org/2000/svg" version="1.1" x="0" y="0" width="98" height="98" viewBox="-0.982 -0.869 98 98" xml:space="preserve" id="svg12"><path d="M85.28 52.35h-8.244l4.091-13.675L85.28 52.35m-1.297-19.116c2.217 0 2.787.554 3.63 3.057l9.096 26.915h-8.103l-1.976-6.47H75.722l-1.966 6.47H69.08l9.173-29.974z" id="path4" clip-rule="evenodd" fill="#fff" fill-rule="evenodd"/><path d="M36.571 46.422l2.502-3.731c.633-.937.765-1.524.765-2.181 0-1.831-1.608-3.37-3.466-3.37h-3.845v22.052h2.131c3.565 0 6.27-1.925 6.27-6.434 0-3.717-1.744-5.703-4.357-6.336m1.497 16.796h-12.59v-29.99h13.05c6.12 0 8.25 4.987 5.153 9.586l-1.466 2.174c10.267 5.329 6.927 18.23-4.147 18.23z" id="path6" clip-rule="evenodd" fill="#fff" fill-rule="evenodd"/><path d="M11.213 46.422l2.5-3.731c.632-.937.765-1.524.765-2.181 0-1.831-1.61-3.37-3.463-3.37H7.167v22.052h2.13c3.565 0 6.27-1.925 6.27-6.434 0-3.717-1.746-5.703-4.354-6.336m1.495 16.796H.115v-29.99H13.17c6.118 0 8.251 4.987 5.152 9.586l-1.466 2.174c10.265 5.329 6.927 18.23-4.147 18.23z" id="path8" clip-rule="evenodd" fill="#fff" fill-rule="evenodd"/><path d="M67.855 33.228h4.734l-9.137 29.975-7.195-.004-9.803-29.967 5.3-.004c2.042 0 2.581.527 3.651 3.923l5.673 18.846 6.777-22.77" id="path10" fill="#fff"/></svg>