<svg xmlns="http://www.w3.org/2000/svg" version="1.1" id="svg2" width="200" height="200"><path id="path66" d="M33.347 81.074c1.475-.47 2.34-1.862 2.34-3.77 0-2.003-.885-3.22-2.62-3.602-.544-.12-2.06-.193-3.37-.163l-2.381.055-.05 3.857-.05 3.857h2.697c1.566 0 3.006-.098 3.434-.234zm2.25 10.742c-1.822-3.458-3.548-6.576-3.836-6.93-.657-.809-1.517-1.082-3.157-1.003l-1.288.061-.05 4.834-.048 4.833h-2.386V70.928l4.554.064c4.456.062 4.576.074 5.567.57 1.423.71 2.11 1.39 2.704 2.676.45.973.515 1.336.511 2.871-.003 1.506-.078 1.93-.52 2.954-.596 1.38-1.561 2.462-2.736 3.067l-.823.424 3.152 5.956c1.734 3.276 3.464 6.55 3.845 7.275l.693 1.318h-2.871z" fill="#fff" stroke-width=".19"/><path id="path62" d="M59.734 90.884c1.675-.785 2.77-2.29 3.491-4.8.472-1.64.472-5.958 0-7.6-.667-2.32-1.721-3.861-3.19-4.661-1.499-.817-3.93-.857-5.616-.092-1.046.474-2.417 1.975-2.902 3.177-1.193 2.952-1.194 7.798-.004 10.745.685 1.696 2.302 3.155 4 3.61 1.073.287 3.207.096 4.22-.38zm-5 2.847c-3.103-.802-5.398-3.464-6.293-7.298-.425-1.817-.425-6.48 0-8.297 1.127-4.83 4.294-7.569 8.748-7.569 4.28 0 7.33 2.634 8.52 7.36.547 2.175.547 6.54 0 8.715-1.218 4.837-4.264 7.4-8.73 7.343-.728-.01-1.739-.123-2.245-.254z" fill="#fff" stroke-width=".19"/><path d="M135.351 137.362c-.974-.212-3.569-1.337-3.718-1.613-.032-.06.087-.433.265-.832l.323-.725.817.5c1.04.635 2.7 1.185 3.983 1.32 2.324.242 4.446-1.093 4.837-3.046.425-2.117-.368-3.305-3.002-4.495-4.775-2.158-5.648-2.79-6.217-4.503-.39-1.174-.28-3.236.223-4.205 1.108-2.132 4.031-3.255 7.019-2.695 1.09.204 3.38 1.176 3.38 1.434 0 .086-.12.391-.27.68-.197.38-.35.49-.56.405-2.322-.942-2.571-1.006-4.002-1.018-2.465-.021-3.745.713-4.245 2.435-.314 1.079-.225 1.88.316 2.847.502.898 1.531 1.575 4.03 2.653 3.069 1.323 3.983 1.998 4.666 3.442.288.61.408 1.17.41 1.914.005 4.135-3.57 6.519-8.255 5.502z" id="path60" fill="#fff" stroke-width=".173"/><path id="path54" d="M9.209 80.305c.957-.34 1.618-1.113 1.933-2.263.256-.931.255-1.133-.01-2.097C10.6 74 9.365 73.444 5.787 73.537l-2.208.057-.05 3.215c-.029 1.768-.01 3.328.04 3.466.117.327 4.736.351 5.64.03zm.72 10.455c2.156-.679 3.167-3.067 2.228-5.261-.81-1.891-2.27-2.47-6.022-2.39l-2.557.054-.05 3.955-.05 3.954h2.73c1.966 0 3.009-.087 3.721-.312zM1.094 82.3V70.958h4.015c4.5 0 5.26.141 6.658 1.237 1.284 1.007 1.896 2.377 1.99 4.456.068 1.488.023 1.814-.379 2.734-.25.574-.66 1.274-.91 1.555l-.454.51 1.006.942c1.45 1.356 1.964 2.616 1.95 4.775-.014 2.13-.49 3.368-1.765 4.584-1.654 1.578-2.32 1.738-7.557 1.82l-4.554.07z" fill="#fff" stroke-width=".19"/><path d="M75.988 82.276V70.941l1.33.057 1.329.057 4.927 8.583c2.71 4.72 5.01 8.67 5.111 8.778.123.13.184-2.74.184-8.631v-8.827h2.393v22.67l-1.319-.057-1.318-.058-4.984-8.648-4.984-8.649-.048 8.698-.048 8.697h-2.573z" id="path52" fill="#fff" stroke-width=".19"/><path d="M106.72 83.554V73.497h-5.89v-2.54h14.353v2.54h-5.888V93.61h-2.576z" id="path50" fill="#fff" stroke-width=".19"/><path d="M124.753 82.285V70.958h2.392V93.61h-2.392z" id="path48" fill="#fff" stroke-width=".19"/><path id="path42" d="M146.684 80.298c1.9-.604 2.737-3.43 1.561-5.266-.764-1.194-1.533-1.438-4.539-1.438h-2.668l-.05 3.215c-.029 1.768-.011 3.328.04 3.466.12.33 4.632.349 5.656.023zm.644 10.482c.51-.161 1.157-.484 1.437-.717 1.052-.879 1.515-3.08.95-4.517-.362-.917-1.449-1.84-2.579-2.188-.73-.225-1.646-.29-3.541-.25l-2.557.055-.05 3.955-.05 3.954h2.731c1.89 0 3.017-.09 3.659-.292zm-8.774-8.495V70.958h4.015c4.511 0 5.364.157 6.695 1.234.5.406 1.007 1.088 1.388 1.868.534 1.096.599 1.4.595 2.822-.004 1.722-.317 2.738-1.235 4.015l-.484.674.447.305c.737.503 1.46 1.4 1.975 2.448.418.853.485 1.227.485 2.745.001 1.412-.081 1.95-.416 2.734-.79 1.845-2.367 3.128-4.411 3.589-.553.124-2.725.22-5.015.22h-4.039z" fill="#fff" stroke-width=".19"/><path id="path38" d="M171.677 84.994c0-.329-3.378-10.13-3.49-10.129-.102.003-3.521 9.944-3.51 10.202.012.251 7 .178 7-.073zm-12.51 8.47c0-.08 1.724-5.155 3.829-11.277l3.828-11.131 1.386-.057 1.387-.057 3.364 9.821c1.85 5.402 3.6 10.502 3.887 11.335l.524 1.513h-2.67l-1.006-2.929-1.007-2.93h-9.02l-.99 2.93-.99 2.93h-1.263c-.694 0-1.261-.067-1.26-.147z" fill="#fff" stroke-width=".19"/><path d="M188.053 89.657l-.002-3.955-3.587-7.3c-1.972-4.016-3.586-7.337-3.586-7.38 0-.044.666-.054 1.48-.023l1.481.057 2.668 5.858c1.468 3.221 2.727 5.916 2.798 5.988.071.072 1.346-2.564 2.832-5.858l2.703-5.988 1.502-.057c.825-.032 1.472.014 1.437.101-.035.088-1.658 3.416-3.606 7.396l-3.543 7.236v7.88h-2.576l-.002-3.955z" id="path36" fill="#fff" stroke-width=".19"/><path id="path32" d="M61.106 126.863c1.631-.867 2.348-2.243 2.205-4.232-.214-2.982-1.591-3.818-6.292-3.818h-2.644v8.486l3.063-.058c2.583-.048 3.159-.107 3.668-.378zm-8.285.392v-10.027l4.013.062c4.003.061 4.016.063 5.102.562 2.063.948 3.04 2.614 3.04 5.19 0 1.936-.405 3.03-1.54 4.165-1.344 1.344-2.381 1.617-6.145 1.617h-2.916v8.457H52.82z" fill="#fff" stroke-width=".173"/><path id="path28" d="M83.057 130.289c.049-.05-.81-2.571-1.91-5.605-1.099-3.033-2.044-5.459-2.102-5.39-.14.167-3.959 10.694-3.959 10.911 0 .177 7.797.258 7.971.084zm-11.88 5.914c.221-.594 1.866-5.098 3.656-10.011l3.253-8.932 1.046.001h1.046l3.585 9.881c1.971 5.434 3.583 9.939 3.581 10.01-.002.07-.372.128-.823.127l-.82-.002-.953-2.63-.952-2.63h-9.438l-.952 2.632-.952 2.632h-1.68l.403-1.078z" fill="#fff" stroke-width=".173"/><path id="path24" d="M104.51 126.554c.379-.126 1.012-.54 1.408-.921.88-.846 1.17-1.784 1.055-3.41-.106-1.486-.632-2.339-1.8-2.914-.765-.377-1.083-.414-3.982-.469l-3.15-.06v3.958c0 2.177.059 4.018.13 4.091.206.214 5.572-.019 6.34-.275zm-8.022.7v-10.026l4.1.061c4.072.061 4.105.065 5.158.549 2.068.951 2.904 2.354 2.897 4.859-.003 1.35-.067 1.678-.483 2.503-.263.522-.648 1.13-.854 1.354-.488.525-1.663 1.213-2.441 1.427l-.614.17.413.552c.338.452 4.008 6.78 4.75 8.19.2.38.183.388-.714.388h-.917l-2.232-3.897c-1.278-2.231-2.471-4.108-2.792-4.39-.652-.572-1.471-.733-3.337-.655l-1.294.054-.046 4.444-.046 4.444h-1.548z" fill="#fff" stroke-width=".173"/><path d="M119.789 127.27v-10.01h1.553v20.021h-1.553z" id="path22" fill="#fff" stroke-width=".173"/><path id="path12" d="M153.214 119.233c.144-.374-.22-.727-.482-.466-.221.221-.084.737.195.737.101 0 .23-.122.287-.27zm-1.15.348v-1.304l.82.052.82.053.015.95c.009.521.075 1.084.148 1.25.232.528-.374.35-.703-.206-.34-.574-.582-.538-.582.087 0 .26-.1.422-.259.422-.207 0-.259-.26-.259-1.304zm2.071 1.658c.895-.625 1.11-1.76.517-2.732-.843-1.383-3.12-1.131-3.626.402-.644 1.949 1.431 3.504 3.11 2.33zm-1.984.909c-1.065-.294-1.813-1.316-1.813-2.48 0-1.603.99-2.58 2.61-2.58 1.135.001 1.879.41 2.28 1.257.584 1.23.273 2.676-.73 3.39-.518.37-1.731.582-2.347.413z" fill="#fff" stroke-width=".173"/></svg>