<?xml version="1.0" encoding="UTF-8" standalone="no"?>
<!-- Created with Inkscape (http://www.inkscape.org/) -->

<svg
   xmlns:dc="http://purl.org/dc/elements/1.1/"
   xmlns:cc="http://creativecommons.org/ns#"
   xmlns:rdf="http://www.w3.org/1999/02/22-rdf-syntax-ns#"
   xmlns:svg="http://www.w3.org/2000/svg"
   xmlns="http://www.w3.org/2000/svg"
   xmlns:sodipodi="http://sodipodi.sourceforge.net/DTD/sodipodi-0.dtd"
   xmlns:inkscape="http://www.inkscape.org/namespaces/inkscape"
   version="1.1"
   id="svg2"
   width="200"
   height="200"
   viewBox="0 0 200 200"
   sodipodi:docname="brontibay.svg"
   inkscape:version="0.92.4 5da689c313, 2019-01-14">
  <metadata
     id="metadata8">
    <rdf:RDF>
      <cc:Work
         rdf:about="">
        <dc:format>image/svg+xml</dc:format>
        <dc:type
           rdf:resource="http://purl.org/dc/dcmitype/StillImage" />
        <dc:title />
      </cc:Work>
    </rdf:RDF>
  </metadata>
  <defs
     id="defs6" />
  <sodipodi:namedview
     pagecolor="#ffffff"
     bordercolor="#666666"
     borderopacity="1"
     objecttolerance="10"
     gridtolerance="10"
     guidetolerance="10"
     inkscape:pageopacity="0"
     inkscape:pageshadow="2"
     inkscape:window-width="1364"
     inkscape:window-height="734"
     id="namedview4"
     showgrid="false"
     inkscape:zoom="3.0285381"
     inkscape:cx="134.13886"
     inkscape:cy="130.21326"
     inkscape:window-x="0"
     inkscape:window-y="33"
     inkscape:window-maximized="0"
     inkscape:current-layer="svg2" />
  <path
     id="path66"
     style="fill:#ffffff;stroke-width:0.18956803"
     d="m 33.347205,81.073582 c 1.474745,-0.468897 2.339449,-1.86196 2.339449,-3.768892 0,-2.004169 -0.884397,-3.220264 -2.620011,-3.602649 -0.543442,-0.119786 -2.059658,-0.192958 -3.369381,-0.162746 l -2.38131,0.05494 -0.04989,3.85691 -0.04988,3.856923 h 2.696782 c 1.566258,0 3.005943,-0.09833 3.434258,-0.234485 z m 2.249076,10.74243 C 33.774746,88.358296 32.049002,85.239679 31.761289,84.885735 31.103883,84.076993 30.244201,83.80385 28.60407,83.88259 l -1.288118,0.06183 -0.04921,4.833351 -0.04921,4.83335 H 26.024624 24.831733 V 82.269443 70.927775 l 4.554409,0.06387 c 4.456319,0.06241 4.576206,0.07472 5.5665,0.569665 1.423027,0.711204 2.109963,1.390966 2.704842,2.676558 0.450318,0.973175 0.514876,1.336025 0.510898,2.871517 -0.0037,1.505326 -0.07868,1.929285 -0.520943,2.95393 -0.595934,1.380624 -1.560458,2.461921 -2.735643,3.066859 l -0.82309,0.423682 3.152378,5.956259 c 1.73381,3.27594 3.464188,6.549431 3.84528,7.274431 l 0.692902,1.31819 h -1.435553 -1.435552 z"
     inkscape:connector-curvature="0" />
  <path
     id="path62"
     style="fill:#ffffff;stroke-width:0.18956803"
     d="m 59.733659,90.883774 c 1.675634,-0.784774 2.770038,-2.289245 3.491311,-4.799513 0.471531,-1.64108 0.471531,-5.95844 0,-7.599518 -0.66695,-2.321204 -1.721014,-3.862068 -3.189081,-4.661894 -1.499683,-0.817044 -3.930879,-0.856835 -5.61683,-0.09196 -1.04598,0.474561 -2.417087,1.975406 -2.902475,3.177124 -1.192341,2.95198 -1.193737,7.79749 -0.0031,10.745275 0.684739,1.695261 2.30195,3.154589 4.000142,3.609616 1.072814,0.287448 3.205903,0.0958 4.220024,-0.379154 z m -4.999241,2.846966 c -3.102973,-0.801849 -5.398836,-3.463908 -6.293828,-7.297693 -0.424189,-1.817045 -0.424189,-6.480033 0,-8.297091 1.127362,-4.829146 4.29391,-7.568669 8.748451,-7.568669 4.280268,0 7.329706,2.634211 8.519631,7.3596 0.547806,2.1754 0.547806,6.53983 0,8.715243 -1.217894,4.836435 -4.264127,7.398942 -8.729107,7.342989 -0.728784,-0.0097 -1.739098,-0.123605 -2.245147,-0.254379 z"
     inkscape:connector-curvature="0" />
  <path
     style="fill:#ffffff;stroke-width:0.17259644"
     d="m 135.35133,137.36184 c -0.97474,-0.21157 -3.56936,-1.33708 -3.71865,-1.6131 -0.0318,-0.0589 0.0874,-0.43321 0.26521,-0.83181 l 0.32315,-0.72474 0.81714,0.49946 c 1.03992,0.63562 2.69924,1.18541 3.98243,1.31953 2.32484,0.243 4.44618,-1.09216 4.83761,-3.04476 0.42456,-2.11785 -0.36865,-3.30567 -3.00203,-4.4955 -4.77564,-2.15777 -5.6477,-2.78945 -6.21692,-4.5032 -0.38994,-1.17404 -0.2806,-3.23546 0.22304,-4.20494 1.10771,-2.13223 4.03096,-3.25477 7.01857,-2.69518 1.09021,0.20421 3.38094,1.17636 3.38094,1.43483 0,0.0856 -0.12175,0.39106 -0.27056,0.67883 -0.19709,0.38113 -0.3494,0.4912 -0.56094,0.40534 -2.32083,-0.942 -2.57061,-1.00553 -4.00119,-1.01781 -2.46513,-0.0212 -3.74495,0.71288 -4.24561,2.43505 -0.31361,1.07884 -0.22452,1.88093 0.31633,2.84732 0.50239,0.8977 1.5316,1.57504 4.03108,2.65291 3.06765,1.3229 3.98188,1.99746 4.66474,3.44191 0.28875,0.61078 0.40846,1.17021 0.40966,1.91427 0.006,4.13503 -3.56922,6.51847 -8.254,5.50159 z"
     id="path60"
     inkscape:connector-curvature="0" />
  <path
     id="path54"
     style="fill:#ffffff;stroke-width:0.18956803"
     d="m 9.2088636,80.305066 c 0.9576044,-0.339652 1.6185524,-1.113133 1.9334384,-2.262636 0.255232,-0.931757 0.254289,-1.133053 -0.0098,-2.097336 -0.532803,-1.944928 -1.7684781,-2.501556 -5.3464553,-2.408378 l -2.2081975,0.05749 -0.050758,3.214734 c -0.027888,1.768107 -0.00977,3.327964 0.040254,3.466344 0.1180602,0.326504 4.7362185,0.35086 5.6415662,0.02977 z M 9.9293041,90.760483 C 12.084709,90.08119 13.095818,87.692671 12.15673,85.498663 11.34749,83.608012 9.8878099,83.028754 6.1345065,83.108782 l -2.5566881,0.05446 -0.049816,3.954569 -0.049816,3.95456 h 2.7306597 c 1.9654347,0 3.0080336,-0.08738 3.7204575,-0.311936 z M 1.0935932,82.299522 V 70.957854 H 5.108558 c 4.4998476,0 5.26012,0.14126 6.657994,1.237099 1.284669,1.007088 1.896715,2.376975 1.990927,4.456113 0.06743,1.488299 0.02219,1.814372 -0.379215,2.734029 -0.250679,0.574294 -0.660182,1.274023 -0.910007,1.554939 l -0.454227,0.510774 1.00627,0.941519 c 1.449202,1.355958 1.963391,2.615338 1.949312,4.774349 -0.01388,2.130451 -0.490544,3.368649 -1.764819,4.584503 -1.653577,1.577761 -2.318882,1.737928 -7.556791,1.819285 l -4.5544088,0.07074 z"
     inkscape:connector-curvature="0" />
  <path
     style="fill:#ffffff;stroke-width:0.18956803"
     d="m 75.988335,82.275951 v -11.33521 l 1.32921,0.05737 1.329212,0.05737 4.927185,8.582672 c 2.709938,4.720471 5.01005,8.670643 5.111363,8.778147 0.12291,0.130451 0.184184,-2.741246 0.184184,-8.63149 v -8.82698 h 1.196113 1.196114 V 82.293036 93.62823 l -1.318399,-0.05737 -1.3184,-0.05736 -4.984173,-8.648709 -4.984172,-8.648698 -0.04789,8.697516 -0.04789,8.697526 h -1.286227 -1.286217 z"
     id="path52"
     inkscape:connector-curvature="0" />
  <path
     style="fill:#ffffff;stroke-width:0.18956803"
     d="M 106.7191,83.553868 V 73.496587 h -2.94427 -2.94426 v -1.269362 -1.269371 h 7.17664 7.17664 v 1.269371 1.269362 h -2.94425 -2.94428 v 10.057281 10.057279 h -1.28811 -1.28811 z"
     id="path50"
     inkscape:connector-curvature="0" />
  <path
     style="fill:#ffffff;stroke-width:0.18956803"
     d="M 124.75272,82.284508 V 70.957854 h 1.19611 1.19611 v 11.326654 11.326639 h -1.19611 -1.19611 z"
     id="path48"
     inkscape:connector-curvature="0" />
  <path
     id="path42"
     style="fill:#ffffff;stroke-width:0.18956803"
     d="m 146.68417,80.297908 c 1.89932,-0.603891 2.73724,-3.430396 1.56123,-5.266313 -0.76473,-1.193826 -1.53378,-1.437361 -4.53898,-1.437361 h -2.66823 l -0.0508,3.214735 c -0.0279,1.768107 -0.0106,3.327964 0.0403,3.466342 0.11946,0.330374 4.63182,0.348402 5.65651,0.02253 z m 0.64389,10.481988 c 0.51049,-0.160879 1.15698,-0.483527 1.43664,-0.716976 1.05262,-0.878709 1.51541,-3.07974 0.94967,-4.51668 -0.36101,-0.916994 -1.4479,-1.839495 -2.578,-2.188148 -0.73004,-0.225232 -1.64618,-0.289727 -3.54149,-0.24931 l -2.55669,0.05446 -0.0499,3.954569 -0.0498,3.95456 h 2.73064 c 1.88979,0 3.01649,-0.09002 3.65884,-0.292522 z m -8.7741,-8.495388 V 70.957854 h 4.01496 c 4.51128,0 5.36374,0.157192 6.69458,1.234423 0.5007,0.405293 1.00782,1.087394 1.38825,1.867287 0.53465,1.096093 0.59893,1.400799 0.59531,2.822782 -0.004,1.721193 -0.3169,2.737185 -1.23492,4.014512 l -0.4844,0.673965 0.44765,0.305548 c 0.73638,0.502616 1.45979,1.399364 1.97421,2.447267 0.4187,0.852955 0.48503,1.22776 0.48578,2.745391 9.1e-4,1.411499 -0.0814,1.949857 -0.41677,2.734029 -0.7892,1.845147 -2.36615,3.128086 -4.41089,3.588511 -0.5528,0.124485 -2.72455,0.219578 -5.01445,0.219578 h -4.03931 z"
     inkscape:connector-curvature="0" />
  <path
     id="path38"
     style="fill:#ffffff;stroke-width:0.18956803"
     d="m 171.67696,84.994374 c 0,-0.329397 -3.37806,-10.13107 -3.49084,-10.128935 -0.10113,0.0023 -3.52011,9.943448 -3.50844,10.201903 0.0114,0.250836 6.99928,0.177977 6.99928,-0.07302 z m -12.51085,8.470308 c 9.9e-4,-0.0805 1.72473,-5.155576 3.82991,-11.277822 l 3.82764,-11.131357 1.38681,-0.05653 1.38682,-0.05652 3.3635,9.820855 c 1.84993,5.401465 3.59928,10.501922 3.88747,11.334331 l 0.52393,1.513472 h -1.33507 -1.33506 l -1.00652,-2.929142 -1.0065,-2.929129 -4.51023,-1.68e-4 -4.51022,-1.69e-4 -0.99016,2.92931 -0.99015,2.929298 h -1.26222 c -0.69423,0 -1.26121,-0.06592 -1.25995,-0.146466 z"
     inkscape:connector-curvature="0" />
  <path
     style="fill:#ffffff;stroke-width:0.18956803"
     d="m 188.05279,89.656591 -0.002,-3.954569 -3.58669,-7.300852 c -1.97247,-4.015462 -3.58649,-7.336462 -3.58649,-7.379977 0,-0.04351 0.66632,-0.05362 1.48071,-0.02241 l 1.4807,0.05676 2.66828,5.857973 c 1.46754,3.22188 2.72648,5.916743 2.79766,5.988577 0.0712,0.07183 1.34579,-2.564243 2.83246,-5.857971 l 2.70303,-5.988579 1.50127,-0.057 c 0.82569,-0.03132 1.47247,0.01458 1.43731,0.101955 -0.035,0.08749 -1.65795,3.415345 -3.60623,7.395307 l -3.54232,7.236281 v 3.939556 3.939553 h -1.2881 -1.28812 l -0.002,-3.954568 z"
     id="path36"
     inkscape:connector-curvature="0" />
  <path
     id="path32"
     style="fill:#ffffff;stroke-width:0.17259644"
     d="m 61.105932,126.86289 c 1.631068,-0.86723 2.347673,-2.24272 2.204849,-4.2322 -0.214057,-2.98186 -1.59099,-3.81719 -6.292193,-3.81719 h -2.64392 v 4.24259 4.24259 l 3.063586,-0.0573 c 2.582391,-0.0484 3.158462,-0.10776 3.667678,-0.37849 z m -8.284635,0.39169 v -10.02674 l 4.012875,0.0618 c 4.002715,0.0616 4.015624,0.0631 5.101635,0.56203 2.063685,0.94823 3.039377,2.61449 3.039377,5.19052 0,1.93573 -0.404446,3.03007 -1.539248,4.16487 -1.344321,1.34433 -2.380935,1.61711 -6.145299,1.61711 h -2.915969 v 4.22861 4.22861 h -0.776685 -0.776686 z"
     inkscape:connector-curvature="0" />
  <path
     id="path28"
     style="fill:#ffffff;stroke-width:0.17259644"
     d="m 83.057024,130.28859 c 0.04889,-0.0489 -0.810374,-2.57079 -1.909475,-5.60423 -1.09909,-3.03344 -2.045035,-5.45941 -2.102112,-5.39106 -0.139874,0.16755 -3.959196,10.69422 -3.959196,10.91218 0,0.17632 7.796283,0.25761 7.970783,0.0831 z m -11.880103,5.91401 c 0.221437,-0.59331 1.866468,-5.09807 3.655622,-10.01059 l 3.252997,-8.93188 1.046135,8.7e-4 1.046168,8.6e-4 3.584827,9.88025 c 1.971631,5.43414 3.583251,9.9385 3.581376,10.0097 -0.0021,0.0711 -0.372377,0.12845 -0.823292,0.12723 l -0.819832,-0.002 -0.952431,-2.62988 -0.952421,-2.62988 h -4.718979 -4.71898 l -0.951888,2.63209 -0.951888,2.63209 H 71.61431 70.774296 l 0.402625,-1.07872 z"
     inkscape:connector-curvature="0" />
  <path
     id="path24"
     style="fill:#ffffff;stroke-width:0.17259644"
     d="m 104.51079,126.55442 c 0.37799,-0.12603 1.01116,-0.54068 1.40704,-0.92144 0.87982,-0.84619 1.16986,-1.78408 1.05472,-3.41051 -0.10512,-1.48592 -0.63177,-2.33824 -1.79999,-2.91341 -0.76492,-0.37662 -1.08242,-0.41401 -3.98111,-0.46887 l -3.149892,-0.0596 v 3.95741 c 0,2.17658 0.05826,4.01772 0.129447,4.09143 0.206399,0.21366 5.572235,-0.0191 6.339785,-0.27501 z m -8.022593,0.7004 v -10.02651 l 4.099163,0.0611 c 4.07301,0.0608 4.10594,0.0642 5.15841,0.54853 2.06794,0.95147 2.90443,2.35416 2.8976,4.85892 -0.003,1.34999 -0.067,1.67766 -0.48323,2.50265 -0.26346,0.5221 -0.64795,1.13143 -0.85443,1.35404 -0.48736,0.52544 -1.66277,1.21311 -2.44069,1.4279 l -0.61427,0.16961 0.41304,0.55223 c 0.33788,0.45173 4.00813,6.78031 4.74957,8.18963 0.19974,0.37964 0.18377,0.38834 -0.71312,0.38834 h -0.91745 l -2.23181,-3.89753 c -1.27748,-2.23094 -2.47141,-4.10792 -2.79217,-4.38954 -0.65181,-0.5723 -1.47088,-0.73324 -3.336474,-0.65555 l -1.294476,0.0539 -0.04612,4.44437 -0.04612,4.44435 h -0.773767 -0.773767 z"
     inkscape:connector-curvature="0" />
  <path
     style="fill:#ffffff;stroke-width:0.17259644"
     d="m 119.78871,127.27073 v -10.0106 h 0.77669 0.77669 v 10.0106 10.01059 h -0.77669 -0.77669 z"
     id="path22"
     inkscape:connector-curvature="0" />
  <path
     id="path12"
     style="fill:#ffffff;stroke-width:0.17259644"
     d="m 153.21446,119.23339 c 0.14384,-0.37487 -0.22135,-0.7274 -0.48275,-0.466 -0.22092,0.22092 -0.084,0.7365 0.19551,0.7365 0.10087,0 0.23014,-0.12172 0.28724,-0.2705 z m -1.15021,0.34734 v -1.30393 l 0.81983,0.0526 0.81983,0.0526 0.015,0.94928 c 0.009,0.5221 0.0749,1.0852 0.14791,1.25132 0.23211,0.52773 -0.37422,0.34967 -0.70267,-0.20636 -0.33934,-0.57453 -0.58213,-0.53821 -0.58213,0.0871 0,0.25944 -0.0995,0.42131 -0.2589,0.42131 -0.20729,0 -0.25889,-0.25994 -0.25889,-1.30393 z m 2.07115,1.65868 c 0.89478,-0.62569 1.10954,-1.76052 0.51706,-2.73225 -0.84343,-1.38334 -3.12087,-1.13127 -3.6267,0.40141 -0.64336,1.94947 1.43123,3.5045 3.10964,2.33084 z m -1.98486,0.90822 c -1.06472,-0.29331 -1.81227,-1.31612 -1.81227,-2.47964 0,-1.60335 0.98878,-2.58093 2.60932,-2.57981 1.13529,8.6e-4 1.87897,0.41054 2.28035,1.25639 0.5841,1.23089 0.27281,2.67665 -0.73005,3.39075 -0.51811,0.36893 -1.73127,0.58201 -2.34735,0.41231 z"
     inkscape:connector-curvature="0" />
</svg>
