<?xml version="1.0" encoding="UTF-8" standalone="no"?>
<svg
   xmlns:dc="http://purl.org/dc/elements/1.1/"
   xmlns:cc="http://creativecommons.org/ns#"
   xmlns:rdf="http://www.w3.org/1999/02/22-rdf-syntax-ns#"
   xmlns:svg="http://www.w3.org/2000/svg"
   xmlns="http://www.w3.org/2000/svg"
   xmlns:xlink="http://www.w3.org/1999/xlink"
   xmlns:sodipodi="http://sodipodi.sourceforge.net/DTD/sodipodi-0.dtd"
   xmlns:inkscape="http://www.inkscape.org/namespaces/inkscape"
   width="348.11911"
   height="381.52399"
   version="1.1"
   id="svg16"
   sodipodi:docname="eathwith2.svg"
   inkscape:version="0.92.4 5da689c313, 2019-01-14">
  <metadata
     id="metadata20">
    <rdf:RDF>
      <cc:Work
         rdf:about="">
        <dc:format>image/svg+xml</dc:format>
        <dc:type
           rdf:resource="http://purl.org/dc/dcmitype/StillImage" />
        <dc:title></dc:title>
      </cc:Work>
    </rdf:RDF>
  </metadata>
  <sodipodi:namedview
     pagecolor="#ffffff"
     bordercolor="#666666"
     borderopacity="1"
     objecttolerance="10"
     gridtolerance="10"
     guidetolerance="10"
     inkscape:pageopacity="0"
     inkscape:pageshadow="2"
     inkscape:window-width="1364"
     inkscape:window-height="734"
     id="namedview18"
     showgrid="false"
     inkscape:zoom="0.65"
     inkscape:cx="298.413"
     inkscape:cy="46.177676"
     inkscape:window-x="0"
     inkscape:window-y="33"
     inkscape:window-maximized="0"
     inkscape:current-layer="svg16"
     fit-margin-top="0"
     fit-margin-left="0"
     fit-margin-right="0"
     fit-margin-bottom="0" />
  <defs
     id="defs3">
    <path
       d="m 87.012,98.526 c 0,-2.073 -3.197,-6.908 -5.894,-10.559 -1.998,-2.763 -4.595,-6.611 -4.894,-7.5 -0.9,-2.565 -1.499,-5.426 -1.499,-8.387 0,-0.888 0,-1.776 0.1,-2.664 l 3.996,-27.334 c 0.1,-0.888 0.699,-1.578 1.398,-1.578 0.8,0 1.399,0.789 1.399,1.776 v 24.965 c 0,2.072 1.398,3.75 2.996,3.75 1.399,0 2.597,-1.283 2.897,-3.06 l 1.498,-24.767 c 0,-1.184 0.7,-2.072 1.599,-2.072 0.899,0 1.698,0.888 1.698,2.072 l 1.998,24.768 c 0.3,1.776 1.498,3.059 2.996,3.059 1.598,0 2.897,-1.678 2.897,-3.75 l -0.5,-24.965 c 0,-0.987 0.6,-1.776 1.399,-1.776 0.7,0 1.299,0.69 1.398,1.578 l 4.496,27.235 c 0.1,0.888 0.2,1.776 0.2,2.665 0,2.763 -0.4,5.328 -1.1,7.696 -0.399,1.184 -2.896,5.23 -4.694,7.895 -2.697,3.75 -5.994,8.782 -5.894,11.051 l 0.6,14.605 C 106.49,106.617 114.981,96.947 119.975,84.809 132.961,53.332 117.678,17.413 85.913,4.585 54.048,-8.243 17.688,6.755 4.703,38.234 c -1.798,4.44 -3.097,8.88 -3.796,13.42 l 9.19,0.197 c 2.197,0 6.992,-3.157 10.688,-5.822 2.797,-1.973 6.693,-4.539 7.592,-4.835 2.597,-0.888 5.493,-1.48 8.49,-1.48 0.9,0 1.798,0 2.697,0.099 l 27.67,3.947 c 0.899,0.099 1.598,0.69 1.598,1.381 0,0.79 -0.8,1.382 -1.798,1.382 H 41.762 c -2.098,0 -3.796,1.381 -3.796,2.96 0,1.382 1.398,2.566 3.097,2.862 l 25.072,1.48 c 1.198,0 2.097,0.69 2.097,1.579 0,0.888 -0.899,1.677 -2.097,1.677 l -25.072,1.974 c -1.699,0.296 -3.097,1.48 -3.097,2.96 0,1.579 1.698,2.862 3.796,2.862 l 25.272,-0.494 c 0.999,0 1.798,0.592 1.798,1.382 0,0.69 -0.7,1.283 -1.598,1.381 l -27.57,4.44 c -0.899,0.1 -1.798,0.1 -2.697,0.198 a 28.02,28.02 0 0 1 -7.791,-1.085 c -1.199,-0.395 -5.294,-2.862 -7.991,-4.638 -3.796,-2.664 -8.89,-5.92 -11.188,-5.822 l -9.989,0.395 c -0.4,24.57 14.284,47.957 38.657,57.824 a 63.188,63.188 0 0 0 47.847,-0.296 z"
       id="a"
       inkscape:connector-curvature="0" />
  </defs>
  <g
     id="g14"
     style="fill:#ffffff;fill-rule:evenodd"
     transform="translate(-151.587,286.15397)">
    <path
       d="m 178.143,36.097 c -13.977,0 -26.556,11.854 -26.556,29.143 0,18.67 12.979,29.538 27.854,29.538 12.878,0 21.763,-7.706 24.858,-17.486 l -9.384,-3.26 c -1.897,6.224 -6.39,11.163 -15.374,11.163 -9.385,0 -16.473,-6.915 -16.673,-16.794 h 41.63 c 0.1,-0.692 0.2,-2.075 0.2,-3.458 0.1,-17.19 -9.484,-28.846 -26.555,-28.846 z m -14.975,23.61 c 0.5,-7.112 5.99,-14.127 15.075,-14.127 9.783,0 14.975,6.224 15.174,14.127 h -30.25 z M 283.966,21.18 h -9.983 v 8.99 c 0,4.84 -2.596,8.495 -8.586,8.495 h -2.995 v 9.78 h 10.682 v 30.23 c 0,1.185 0.1,2.371 0.3,3.359 -1.498,2.47 -4.493,3.359 -7.588,3.359 -6.788,0 -7.986,-4.742 -8.186,-6.817 V 57.04 c 0,-10.768 -6.49,-20.153 -23.161,-20.153 -12.08,0 -21.664,7.31 -22.862,17.88 l 10.482,2.372 c 0.7,-6.422 4.992,-11.163 12.68,-11.163 8.485,0 12.079,4.445 12.079,9.879 0,1.975 -0.899,3.655 -4.293,4.149 l -15.075,2.173 c -9.584,1.383 -16.971,6.915 -16.971,16.696 0,8.693 7.288,16.497 18.669,16.497 9.983,0 16.372,-5.73 18.768,-9.582 2.995,4.94 8.785,8.496 16.473,8.496 5.79,0 9.683,-2.272 12.678,-4.545 2.696,2.865 6.69,4.446 11.68,4.446 3.695,0 6.49,-0.692 7.388,-0.988 V 84.01 c -0.898,0.197 -2.895,0.494 -4.292,0.494 -5.69,0 -7.787,-2.569 -7.787,-7.607 v -28.65 h 12.08 v -9.78 h -12.08 V 21.18 Z m -37.338,49 c 0,12.051 -7.188,16.3 -16.073,16.3 -5.59,0 -9.085,-3.853 -9.085,-8.003 0,-4.94 3.495,-7.606 8.087,-8.298 l 17.071,-2.568 v 2.568 z M 362.634,79.663 348.158,38.27 h -11.18 L 322.6,79.663 310.122,38.27 h -11.88 l 18.27,55.026 h 11.38 l 14.376,-41.887 14.776,41.887 h 11.18 l 17.97,-55.026 h -11.38 z M 397.176,9.62 a 7.777,7.777 0 0 0 -7.787,7.805 c 0,4.248 3.495,7.706 7.787,7.706 4.393,0 7.887,-3.458 7.887,-7.706 0,-4.346 -3.494,-7.804 -7.887,-7.804 z m -4.891,28.65 h 11.28 v 55.026 h -11.28 z m 87.653,-1.877 c -5.89,0 -11.78,1.877 -15.873,6.816 -0.3,0.396 -0.999,0.198 -0.999,-0.296 V 10.016 h -10.782 v 20.45 c -0.3,4.346 -2.895,7.508 -8.486,7.508 H 430.92 V 20.488 h -9.883 v 8.99 c 0,4.84 -2.496,8.496 -8.486,8.496 h -2.995 v 9.78 h 10.582 V 78.18 c 0,9.978 5.99,15.806 15.474,15.806 3.694,0 6.49,-0.691 7.388,-0.987 v -9.188 c -0.899,0.198 -2.895,0.494 -4.293,0.494 -5.69,0 -7.687,-2.569 -7.687,-7.607 V 47.853 h 21.264 v 45.64 h 10.782 v -32.6 c 0.2,-8.2 4.593,-14.621 12.879,-14.621 9.683,0 12.878,6.224 12.878,13.93 v 33.291 h 10.882 V 58.324 c 0.1,-12.348 -6.49,-21.931 -19.767,-21.931 z"
       id="path5"
       style="fill:#ffffff;fill-opacity:1"
       inkscape:connector-curvature="0" />
    <mask
       id="b"
       fill="#fff">
      <use
         xlink:href="#a"
         id="use7"
         x="0"
         y="0"
         width="100%"
         height="100%" />
    </mask>
    <use
       xlink:href="#a"
       id="use10"
       transform="matrix(2.213107,0,0,2.213107,173.84612,-286.15369)"
       style="fill:#ffffff"
       x="0"
       y="0"
       width="100%"
       height="100%" />
  </g>
</svg>
