<svg xmlns="http://www.w3.org/2000/svg" xmlns:xlink="http://www.w3.org/1999/xlink" width="348.119" height="381.524" version="1.1" id="svg16"><defs id="defs3"><path d="M87.012 98.526c0-2.073-3.197-6.908-5.894-10.559-1.998-2.763-4.595-6.611-4.894-7.5-.9-2.565-1.499-5.426-1.499-8.387 0-.888 0-1.776.1-2.664l3.996-27.334c.1-.888.699-1.578 1.398-1.578.8 0 1.399.789 1.399 1.776v24.965c0 2.072 1.398 3.75 2.996 3.75 1.399 0 2.597-1.283 2.897-3.06l1.498-24.767c0-1.184.7-2.072 1.599-2.072s1.698.888 1.698 2.072l1.998 24.768c.3 1.776 1.498 3.059 2.996 3.059 1.598 0 2.897-1.678 2.897-3.75l-.5-24.965c0-.987.6-1.776 1.399-1.776.7 0 1.299.69 1.398 1.578l4.496 27.235c.1.888.2 1.776.2 2.665 0 2.763-.4 5.328-1.1 7.696-.399 1.184-2.896 5.23-4.694 7.895-2.697 3.75-5.994 8.782-5.894 11.051l.6 14.605c10.388-6.612 18.879-16.282 23.873-28.42 12.986-31.477-2.297-67.396-34.062-80.224-31.865-12.828-68.225 2.17-81.21 33.649-1.798 4.44-3.097 8.88-3.796 13.42l9.19.197c2.197 0 6.992-3.157 10.688-5.822 2.797-1.973 6.693-4.539 7.592-4.835 2.597-.888 5.493-1.48 8.49-1.48.9 0 1.798 0 2.697.099l27.67 3.947c.899.099 1.598.69 1.598 1.381 0 .79-.8 1.382-1.798 1.382H41.762c-2.098 0-3.796 1.381-3.796 2.96 0 1.382 1.398 2.566 3.097 2.862l25.072 1.48c1.198 0 2.097.69 2.097 1.579 0 .888-.899 1.677-2.097 1.677l-25.072 1.974c-1.699.296-3.097 1.48-3.097 2.96 0 1.579 1.698 2.862 3.796 2.862l25.272-.494c.999 0 1.798.592 1.798 1.382 0 .69-.7 1.283-1.598 1.381l-27.57 4.44c-.899.1-1.798.1-2.697.198a28.02 28.02 0 01-7.791-1.085c-1.199-.395-5.294-2.862-7.991-4.638-3.796-2.664-8.89-5.92-11.188-5.822l-9.989.395c-.4 24.57 14.284 47.957 38.657 57.824a63.188 63.188 0 0047.847-.296z" id="a"/></defs><g id="g14" transform="translate(-151.587 286.154)" fill="#fff" fill-rule="evenodd"><path d="M178.143 36.097c-13.977 0-26.556 11.854-26.556 29.143 0 18.67 12.979 29.538 27.854 29.538 12.878 0 21.763-7.706 24.858-17.486l-9.384-3.26c-1.897 6.224-6.39 11.163-15.374 11.163-9.385 0-16.473-6.915-16.673-16.794h41.63c.1-.692.2-2.075.2-3.458.1-17.19-9.484-28.846-26.555-28.846zm-14.975 23.61c.5-7.112 5.99-14.127 15.075-14.127 9.783 0 14.975 6.224 15.174 14.127h-30.25zM283.966 21.18h-9.983v8.99c0 4.84-2.596 8.495-8.586 8.495h-2.995v9.78h10.682v30.23c0 1.185.1 2.371.3 3.359-1.498 2.47-4.493 3.359-7.588 3.359-6.788 0-7.986-4.742-8.186-6.817V57.04c0-10.768-6.49-20.153-23.161-20.153-12.08 0-21.664 7.31-22.862 17.88l10.482 2.372c.7-6.422 4.992-11.163 12.68-11.163 8.485 0 12.079 4.445 12.079 9.879 0 1.975-.899 3.655-4.293 4.149l-15.075 2.173c-9.584 1.383-16.971 6.915-16.971 16.696 0 8.693 7.288 16.497 18.669 16.497 9.983 0 16.372-5.73 18.768-9.582 2.995 4.94 8.785 8.496 16.473 8.496 5.79 0 9.683-2.272 12.678-4.545 2.696 2.865 6.69 4.446 11.68 4.446 3.695 0 6.49-.692 7.388-.988V84.01c-.898.197-2.895.494-4.292.494-5.69 0-7.787-2.569-7.787-7.607v-28.65h12.08v-9.78h-12.08V21.18zm-37.338 49c0 12.051-7.188 16.3-16.073 16.3-5.59 0-9.085-3.853-9.085-8.003 0-4.94 3.495-7.606 8.087-8.298l17.071-2.568v2.568zm116.006 9.483L348.158 38.27h-11.18L322.6 79.663 310.122 38.27h-11.88l18.27 55.026h11.38l14.376-41.887 14.776 41.887h11.18l17.97-55.026h-11.38zM397.176 9.62a7.777 7.777 0 00-7.787 7.805c0 4.248 3.495 7.706 7.787 7.706 4.393 0 7.887-3.458 7.887-7.706 0-4.346-3.494-7.804-7.887-7.804zm-4.891 28.65h11.28v55.026h-11.28zm87.653-1.877c-5.89 0-11.78 1.877-15.873 6.816-.3.396-.999.198-.999-.296V10.016h-10.782v20.45c-.3 4.346-2.895 7.508-8.486 7.508H430.92V20.488h-9.883v8.99c0 4.84-2.496 8.496-8.486 8.496h-2.995v9.78h10.582V78.18c0 9.978 5.99 15.806 15.474 15.806 3.694 0 6.49-.691 7.388-.987v-9.188c-.899.198-2.895.494-4.293.494-5.69 0-7.687-2.569-7.687-7.607V47.853h21.264v45.64h10.782v-32.6c.2-8.2 4.593-14.621 12.879-14.621 9.683 0 12.878 6.224 12.878 13.93v33.291h10.882V58.324c.1-12.348-6.49-21.931-19.767-21.931z" id="path5" fill-opacity="1"/><mask id="b"><use xlink:href="#a" id="use7" x="0" y="0" width="100%" height="100%"/></mask><use xlink:href="#a" id="use10" transform="translate(173.846 -286.154) scale(2.2131)" x="0" y="0" width="100%" height="100%"/></g></svg>