<?xml version="1.0" encoding="UTF-8" standalone="no"?>
<!-- Created with Inkscape (http://www.inkscape.org/) -->

<svg
   xmlns:dc="http://purl.org/dc/elements/1.1/"
   xmlns:cc="http://creativecommons.org/ns#"
   xmlns:rdf="http://www.w3.org/1999/02/22-rdf-syntax-ns#"
   xmlns:svg="http://www.w3.org/2000/svg"
   xmlns="http://www.w3.org/2000/svg"
   xmlns:sodipodi="http://sodipodi.sourceforge.net/DTD/sodipodi-0.dtd"
   xmlns:inkscape="http://www.inkscape.org/namespaces/inkscape"
   version="1.1"
   id="svg2"
   width="400"
   height="400"
   viewBox="0 0 400.00002 400"
   sodipodi:docname="enedis.svg"
   inkscape:version="0.92.4 5da689c313, 2019-01-14">
  <metadata
     id="metadata8">
    <rdf:RDF>
      <cc:Work
         rdf:about="">
        <dc:format>image/svg+xml</dc:format>
        <dc:type
           rdf:resource="http://purl.org/dc/dcmitype/StillImage" />
        <dc:title />
      </cc:Work>
    </rdf:RDF>
  </metadata>
  <defs
     id="defs6" />
  <sodipodi:namedview
     pagecolor="#ffffff"
     bordercolor="#666666"
     borderopacity="1"
     objecttolerance="10"
     gridtolerance="10"
     guidetolerance="10"
     inkscape:pageopacity="0"
     inkscape:pageshadow="2"
     inkscape:window-width="1364"
     inkscape:window-height="734"
     id="namedview4"
     showgrid="false"
     inkscape:zoom="1.2066833"
     inkscape:cx="98.913577"
     inkscape:cy="226.24544"
     inkscape:window-x="0"
     inkscape:window-y="33"
     inkscape:window-maximized="0"
     inkscape:current-layer="svg2" />
  <g
     id="g12"
     transform="matrix(0.38817295,0,0,0.38817295,-12.407116,120.78197)"
     style="fill:#ffffff">
    <path
       style="fill:#ececec;stroke-width:1.33333325"
       d="m 153.69648,330.66667 c 0,-3.3 0.26002,-4.65 0.57782,-3 0.31782,1.65 0.31782,4.35 0,6 -0.3178,1.65 -0.57782,0.3 -0.57782,-3 z m -0.0539,-17.33334 c 0,-2.56666 0.2744,-3.61666 0.60977,-2.33333 0.33536,1.28333 0.33536,3.38333 0,4.66667 -0.33537,1.28333 -0.60977,0.23333 -0.60977,-2.33334 z M 94.33333,248.45029 c 0.916667,-0.36988 2.416667,-0.36988 3.333334,0 0.916666,0.36988 0.166666,0.67252 -1.666667,0.67252 -1.833333,0 -2.583333,-0.30264 -1.666667,-0.67252 z m 8,0 c 0.91667,-0.36988 2.41667,-0.36988 3.33333,0 0.91667,0.36988 0.16667,0.67252 -1.66666,0.67252 -1.83334,0 -2.58334,-0.30264 -1.66667,-0.67252 z m 101.41666,-0.0277 c 0.9625,-0.38516 2.1125,-0.3378 2.55556,0.1052 0.44306,0.44305 -0.34445,0.75819 -1.75,0.70029 -1.55326,-0.064 -1.8692,-0.37992 -0.80556,-0.80554 z m 294.91666,0.034 c -25.61393,-2.72588 -48.3144,-16.54391 -60.98646,-37.12318 -5.06386,-8.22361 -9.6802,-22.95689 -9.6802,-30.89477 0,-10.13691 -1.1667,-11.10523 -13.38024,-11.10523 h -10.61976 v -18 c 0,-16.19584 0.23386,-18.01529 2.33333,-18.1526 1.28333,-0.0839 33.23333,-0.25075 71,-0.37072 77.5766,-0.24642 76.12184,-0.0647 80.6342,-10.07134 3.37261,-7.47913 2.50226,-27.679941 -1.42078,-32.976485 -5.3509,-7.224289 -7.88464,-7.726969 -41.16661,-8.16724 -42.52892,-0.562594 -45.86876,0.946403 -47.44606,21.436955 -0.43883,5.70088 -1.53192,11.10088 -2.42908,12 -1.04032,1.0426 -7.19844,1.79795 -17.00031,2.08527 -21.19041,0.62114 -20.91748,0.90556 -20.25067,-21.104203 0.45746,-15.099551 0.85602,-17.353804 4.20723,-23.796304 5.11016,-9.823927 13.46719,-17.739095 24.34133,-23.054336 l 9.19742,-4.49566 40.33154,-0.436302 c 25.27188,-0.273389 43.90647,0.11836 49.9056,1.049163 17.78133,2.758868 32.13607,13.340488 39.54897,29.153611 3.45076,7.361109 3.54721,8.255706 3.54721,32.900191 0,24.65605 -0.0951,25.53602 -3.55372,32.91443 -4.57929,9.76891 -14.33649,19.54753 -24.44627,24.49997 l -8,3.91894 -47.33334,0.66666 -47.33333,0.66667 -0.4301,5.27325 c -1.04963,12.86852 7.15749,25.61388 20.81085,32.31855 l 7.61925,3.74153 63.59696,0.38219 63.59697,0.38219 0.40303,18.52033 0.40304,18.52033 -60.66667,-0.0927 c -33.36666,-0.0509 -62.76666,-0.3161 -65.33333,-0.58926 z m 169.66666,-0.11947 c 9.35,-0.2292 24.65,-0.2292 34,0 9.35,0.2292 1.7,0.41673 -17,0.41673 -18.7,0 -26.35,-0.18753 -17,-0.41673 z m 160.04868,0.009 c 4.24344,-0.2654 10.84344,-0.26293 14.66666,0.005 3.82323,0.26841 0.35132,0.48556 -7.71534,0.48254 -8.06667,-0.003 -11.19476,-0.22261 -6.95132,-0.48801 z m 145.95131,-0.003 c 5.31667,-0.25308 14.01667,-0.25308 19.33334,0 5.31666,0.25309 0.96666,0.46016 -9.66667,0.46016 -10.63333,0 -14.98333,-0.20707 -9.66667,-0.46016 z M 751.24619,150.66667 c 0,-18.7 0.18753,-26.35 0.41673,-17 0.2292,9.35 0.2292,24.65 0,34 -0.2292,9.35 -0.41673,1.7 -0.41673,-17 z m 184.42045,-18.27431 c 1.65,-0.31781 4.35,-0.31781 6,0 1.65,0.3178 0.3,0.57782 -3,0.57782 -3.3,0 -4.65,-0.26002 -3,-0.57782 z m 26.66666,-0.0462 c 4.58334,-0.26036 12.08334,-0.26036 16.66667,0 4.58333,0.26036 0.83333,0.47339 -8.33333,0.47339 -9.16667,0 -12.91667,-0.21303 -8.33334,-0.47339 z M 622.87717,53.333333 c 0,-1.833333 0.30264,-2.583333 0.67252,-1.666666 0.36988,0.916666 0.36988,2.416666 0,3.333333 -0.36988,0.916667 -0.67252,0.166667 -0.67252,-1.666667 z M 97.666664,44.414232 c 1.283333,-0.335369 3.383336,-0.335369 4.666666,0 1.28333,0.335371 0.23333,0.609764 -2.333333,0.609764 -2.566667,0 -3.616667,-0.274393 -2.333333,-0.609764 z m 35.419956,-0.07931 c 13.43098,-0.217661 35.03097,-0.217306 48,7.94e-4 12.96901,0.218098 1.98004,0.396189 -24.41996,0.395754 -26.4,-4.34e-4 -37.01102,-0.178878 -23.58004,-0.396544 z m 129.82801,0.0011 c 12.23639,-0.219828 32.63639,-0.22022 45.33333,-8.74e-4 12.69695,0.219348 2.68536,0.399206 -22.24797,0.399687 -24.93333,4.8e-4 -35.32174,-0.178987 -23.08536,-0.398813 z m 367.41868,0.114313 c 0.91667,-0.369883 2.41667,-0.369883 3.33334,0 0.91666,0.369884 0.16666,0.672515 -1.66667,0.672515 -1.83333,0 -2.58333,-0.302631 -1.66667,-0.672515 z m 82.01833,-0.07373 c 2.02675,-0.306474 5.02675,-0.298283 6.66667,0.0182 1.63992,0.316482 -0.0183,0.567232 -3.685,0.557222 -3.66667,-0.01 -5.00841,-0.26895 -2.98167,-0.575422 z m 117.315,0.0017 c 2.01667,-0.3055 5.31667,-0.3055 7.33333,0 2.01667,0.305499 0.36667,0.555453 -3.66666,0.555453 -4.03334,0 -5.68334,-0.249954 -3.66667,-0.555453 z m 16.75,0.04419 c 0.96249,-0.385162 2.11251,-0.337792 2.55556,0.105266 0.44305,0.443056 -0.34445,0.758188 -1.75,0.700294 -1.55327,-0.06397 -1.8692,-0.379922 -0.80556,-0.805556 z m 101.33662,-0.08759 c 13.43098,-0.217665 35.03098,-0.217311 48,7.89e-4 12.96904,0.218099 1.98004,0.39619 -24.41996,0.395755 -26.4,-4.35e-4 -37.01102,-0.178879 -23.58004,-0.396544 z"
       id="path16"
       inkscape:connector-curvature="0" />
    <path
       style="fill:#ffffff;stroke-width:1.33333325"
       d="m 261.25546,361.40236 c -11.45625,-3.47629 -13.26132,-7.24977 -13.23581,-27.66948 0.0212,-16.91951 0.98522,-20.41421 6.82802,-24.75096 7.59638,-5.63831 24.86168,-3.65485 29.82121,3.42588 2.57964,3.68293 2.55888,9.46667 -0.0417,11.62497 -2.84073,2.35759 -8.28788,-0.27332 -8.85791,-4.27828 -0.61222,-4.30137 -6.40105,-6.87536 -11.28575,-5.01818 -2.06943,0.78678 -4.2156,2.14298 -4.76931,3.01377 -0.55369,0.87079 -1.01591,8.24027 -1.02713,16.3766 -0.0224,16.27299 1.24665,19.20665 8.30885,19.20665 5.55128,0 7.4472,-1.28266 9.04297,-6.1179 1.31935,-3.99764 2.05412,-4.54876 6.06449,-4.54876 4.30679,0 4.56327,0.25653 4.56327,4.56436 0,6.82958 -5.18044,12.22926 -13.43015,13.9985 -7.48959,1.60623 -7.26775,1.60303 -11.98105,0.17283 z m 179.99999,0.0295 c -11.49745,-3.58787 -13.26132,-7.27915 -13.23581,-27.69888 0.0212,-16.91951 0.98523,-20.41422 6.82803,-24.75096 7.78562,-5.77878 24.89422,-3.64426 29.71082,3.70681 4.57451,6.98156 1.1601,14.4632 -5.26465,11.53588 -1.81969,-0.82917 -3.29385,-2.63403 -3.29385,-4.03284 0,-3.65673 -3.54706,-6.05851 -8.9475,-6.05851 -7.2727,0 -8.38584,2.64348 -8.38584,19.91486 0,16.57074 1.2446,19.30418 8.77166,19.26473 5.19554,-0.0272 7.1358,-1.43789 8.38082,-6.09323 0.89192,-3.335 1.68784,-3.88636 5.61012,-3.88636 4.02091,0 4.62248,0.45144 5.00095,3.75286 0.52509,4.58053 -2.54432,9.55482 -7.44277,12.06173 -4.86231,2.48841 -13.508,3.60196 -17.73198,2.28384 z m 423.96262,0.0383 c -6.3774,-2.07636 -10.55143,-5.63608 -10.55143,-8.99861 0,-4.62284 3.64172,-5.40367 9.49387,-2.03561 8.61233,4.95664 18.50613,3.00109 18.50613,-3.65779 0,-3.16112 -3.18823,-5.82751 -12,-10.03589 -11.54543,-5.51396 -14.66667,-8.93046 -14.66667,-16.05408 0,-10.4183 8.62168,-16.0502 22.99618,-15.02172 10.36882,0.74189 13.84841,2.90541 12.33609,7.67032 -0.82795,2.6086 -1.52965,2.85322 -5.80371,2.02325 -2.67404,-0.51927 -6.51302,-1.25596 -8.53106,-1.63708 -4.46411,-0.84308 -10.33083,2.65199 -10.33083,6.15451 0,2.85574 3.73341,5.59072 11.27211,8.25757 2.89965,1.02577 7.54965,4.02213 10.33333,6.65859 5.36297,5.07934 6.53531,10.48906 3.82048,17.6296 -2.80052,7.3659 -17.17484,12.2048 -26.87449,9.04688 z m 158.11523,0.27204 c -5.9316,-1.49454 -11.0468,-4.71934 -12.4819,-7.86912 -0.9385,-2.05972 -1.5181,-11.69784 -1.5181,-25.24368 v -21.91186 l 3.431,-0.86111 c 1.887,-0.47361 3.9392,-0.33505 4.5604,0.30793 0.6213,0.64298 1.3273,10.66819 1.5691,22.27826 0.4895,23.51062 1.0402,24.89078 9.9324,24.89078 7.8028,0 8.5071,-1.94705 8.5071,-23.51622 0,-10.77194 0.6109,-20.46726 1.3802,-21.90476 1.7288,-3.23018 7.4345,-3.38439 9.0901,-0.24568 0.6769,1.28333 1.148,11.36022 1.0469,22.3931 -0.2014,21.97148 -1.1862,25.32991 -8.5298,29.08815 -4.2857,2.19333 -13.1847,3.55233 -16.9874,2.59421 z M 44.888888,360.44444 c -0.488889,-0.48888 -0.888889,-12.74845 -0.888889,-27.24348 0,-25.18359 0.118493,-26.3922 2.666666,-27.20096 1.466667,-0.46551 3.866667,-0.46551 5.333333,0 2.53232,0.80373 2.666667,2.01737 2.666667,24.08985 v 23.24348 h 11.190681 c 11.574677,0 13.826924,1.13007 11.958153,6 -0.621821,1.62044 -3.734695,2 -16.402597,2 -8.59932,0 -16.035126,-0.4 -16.524014,-0.88889 z m 60.000002,0 C 104.4,359.95556 104,348.02903 104,333.94104 c 0,-20.24632 0.38858,-25.93701 1.85414,-27.15332 1.2389,-1.0282 7.3223,-1.41419 18.33333,-1.16327 L 140.66666,306 l 0.41714,3.61737 0.41714,3.61738 -13.0838,0.38262 -13.08381,0.38263 -0.39987,7.66667 -0.39987,7.66666 6.39987,0.0204 c 7.53076,0.024 10.17464,1.35902 9.5181,4.80603 -0.39062,2.05085 -1.88154,2.57999 -8.19568,2.90869 l -7.71821,0.40179 0.39783,7.59821 0.39783,7.59822 12.21025,0.38173 c 12.65063,0.39551 15.98592,1.81832 14.33676,6.11593 -0.71061,1.85183 -3.41108,2.169 -18.46744,2.169 -9.69932,0 -18.03513,-0.4 -18.52401,-0.88889 z M 154.97282,333.70792 155.33333,306 h 4 4 l 0.66666,23.33333 0.66667,23.33334 11.33333,0.66666 c 11.02223,0.64836 11.33334,0.75818 11.33334,4 v 3.33334 l -16.36051,0.37458 -16.36052,0.37459 z m 45.63709,25.95833 c -0.36825,-0.95966 -0.50614,-13.42716 -0.3064,-27.70554 L 200.66666,306 h 18 18 v 3.33333 c 0,3.27486 -0.22223,3.34503 -12.66667,4 L 211.33333,314 l -0.39987,7.66667 -0.39988,7.66666 h 6.56995 c 4.21334,0 7.16532,0.71739 8.2298,2 2.82861,3.40827 -0.69755,6 -8.16326,6 h -6.50341 v 7.95172 7.95172 l 13,0.38162 c 12.87601,0.37797 13,0.4134 13,3.71494 v 3.33334 l -17.69359,0.37222 c -13.61786,0.28648 -17.84782,-0.0297 -18.36316,-1.37264 z m 112.02653,4.2e-4 C 312.29919,358.75 311.86803,348.1 311.6783,336 l -0.34498,-22 -7.33333,-0.66667 c -6.75556,-0.61414 -7.33333,-0.92929 -7.33333,-4 V 306 h 20 20 l 0.41489,3.59416 c 0.39967,3.46211 0.15475,3.60907 -6.66667,4 L 323.33332,314 l -0.74676,23.33333 c -0.41072,12.83334 -0.86072,23.48334 -1,23.66667 -0.87984,1.15812 -8.4483,0.0307 -8.95012,-1.33333 z m 37.32456,0.0459 c -0.37802,-0.98512 -0.5239,-13.47344 -0.32416,-27.75182 L 349.99999,306 l 12.36045,-0.38373 c 9.95526,-0.30906 13.50691,0.12346 18.25208,2.22242 5.07685,2.24574 6.1048,3.39784 7.43317,8.33104 2.01576,7.48599 -0.0929,14.96812 -5.10084,18.09878 -1.98634,1.24176 -3.831,2.4088 -4.09924,2.59344 -0.26824,0.18462 2.03604,4.71309 5.12064,10.06325 6.04912,10.49204 5.9937,13.39237 -0.27033,14.14756 -2.97513,0.35868 -4.11593,-0.92563 -9.77074,-11 -5.64091,-10.0496 -6.84324,-11.40609 -10.10983,-11.40609 h -3.70752 l -0.38725,11 -0.38726,11 -4.3425,0.41849 c -2.72594,0.26271 -4.59836,-0.24828 -5.02982,-1.37263 z M 375.99999,328 c 5.80817,-5.80817 1.956,-12.84247 -7.33333,-13.39109 -8.7711,-0.51802 -8.66667,-0.61511 -8.66667,8.05776 v 8 h 6.66667 c 4.88889,0 7.37777,-0.71111 9.33333,-2.66667 z m 27.55556,32.44444 c -0.4889,-0.48888 -0.8889,-12.77745 -0.8889,-27.30792 v -26.41905 l 3.35066,-0.84096 c 6.78072,-1.70186 7.31601,0.26228 7.31601,26.84437 0,13.41689 -0.36419,25.34343 -0.80932,26.5034 -0.804,2.09519 -7.22048,2.96815 -8.96845,1.22016 z m 77.39652,0.0632 c -0.52364,-0.52365 -0.95208,-12.84065 -0.95208,-27.37112 v -26.41905 l 3.33034,-0.83586 c 7.36869,-1.84942 7.42321,-1.63424 7.03069,27.75384 l -0.36104,27.03122 -4.04792,0.39652 c -2.22635,0.21809 -4.47635,-0.0319 -4.99999,-0.55555 z m 37.98125,-0.77431 c -1.11707,-1.11706 -1.6,-8.34006 -1.6,-23.93032 v -22.33032 l -7,-0.40301 c -6.47031,-0.37252 -7,-0.65525 -7,-3.73635 V 306 h 20 20 v 3.33333 c 0,3.06548 -0.58299,3.38691 -7.25515,4 L 528.82302,314 l 0.0917,20.66667 c 0.0505,11.36666 -0.41986,22.01666 -1.04519,23.66666 -1.25493,3.31131 -6.24347,4.09283 -8.93629,1.4 z m 37.67658,-0.0671 c -0.36825,-0.95967 -0.50614,-13.42716 -0.3064,-27.70555 L 556.66665,306 h 18 18 v 3.33333 c 0,3.30155 -0.124,3.33698 -13,3.71495 l -13,0.38161 v 7.95172 7.95172 h 6.50341 c 6.88191,0 10.4171,2.34467 9.02094,5.98303 -0.5618,1.46403 -2.79584,2.01697 -8.14918,2.01697 h -7.37517 v 7.95172 7.95172 l 13,0.38162 c 12.87601,0.37797 13,0.4134 13,3.71494 v 3.33334 l -17.69359,0.37222 c -13.61786,0.28648 -17.84782,-0.0297 -18.36316,-1.37264 z m 70.86607,-0.44198 c -1.60042,-4.17062 -0.89834,-50.60194 0.79068,-52.29096 1.06925,-1.06925 6.98594,-1.6 17.83674,-1.6 16.88451,0 20.2737,1.06187 18.46156,5.78423 -0.65117,1.69692 -3.37341,2.19839 -13.58381,2.50233 L 638.2117,314 l -0.33363,7.60328 -0.33362,7.60328 7.56109,0.39672 c 7.07049,0.37097 7.56111,0.613 7.56111,3.73005 0,3.07114 -0.53852,3.36462 -6.8462,3.73102 -6.26698,0.36402 -6.89963,0.70245 -7.47768,4 -0.34732,1.98128 -0.51534,5.40232 -0.37339,7.60232 l 0.25809,4 12.76156,0.3801 c 13.13759,0.39132 15.3583,1.42598 13.49312,6.28656 -1.17125,3.05222 -35.83229,2.95008 -37.00618,-0.10906 z m 50.74624,1.22016 c -0.4889,-0.48889 -0.8889,-12.74846 -0.8889,-27.24349 0,-25.18359 0.11854,-26.3922 2.66667,-27.20096 4.94084,-1.56816 7.56224,0.66896 14.12803,12.05691 3.59625,6.23746 7.73863,13.27636 9.2053,15.64197 l 2.66667,4.30112 0.37498,-15.59004 c 0.34056,-14.15899 0.61594,-15.66651 3,-16.42317 1.44376,-0.45824 3.8373,-0.44839 5.31898,0.0219 2.60192,0.82582 2.68164,1.77414 2.33333,27.75651 l -0.36063,26.90151 h -4.66666 c -4.54168,0 -4.91664,-0.42102 -14,-15.71959 l -9.33333,-15.71957 -0.38103,14.30708 c -0.20956,7.8689 -1.03303,15.09272 -1.82992,16.05292 -1.52216,1.83409 -6.7158,2.37464 -8.23349,0.85693 z m 77.07211,-0.7319 c -0.37802,-0.98512 -0.5239,-13.47344 -0.32416,-27.75183 L 755.33331,306 l 14.66667,0.0133 c 12.04982,0.0107 15.31918,0.45354 18.3239,2.48051 7.89652,5.32696 7.86904,20.82679 -0.0457,25.77465 -1.98635,1.24176 -3.80436,2.38216 -4.04004,2.53423 -0.23568,0.15208 2.06783,4.6818 5.11888,10.06605 5.98413,10.56027 5.91743,13.45107 -0.32777,14.20398 -2.97514,0.35868 -4.11594,-0.92563 -9.77075,-11 -5.64088,-10.04959 -6.84321,-11.40608 -10.1098,-11.40608 h -3.70752 l -0.38725,11 -0.38726,11 -4.3425,0.41849 c -2.72594,0.26271 -4.59836,-0.24828 -5.02982,-1.37263 z M 781.33331,328 c 3.20348,-3.20348 3.38463,-6.38161 0.59107,-10.36999 -1.71262,-2.44509 -3.3449,-2.96334 -9.33334,-2.96334 h -7.25773 v 8 8 h 6.66667 c 4.88889,0 7.37777,-0.71111 9.33333,-2.66667 z m 27.59245,32.48135 c -0.50919,-0.50919 -0.92578,-12.81436 -0.92578,-27.34483 0,-31.06824 -2.28555,-28.11952 21.33333,-27.52347 L 844.66664,306 v 3.33333 c 0,3.27486 -0.22223,3.34503 -12.66667,4 L 819.33331,314 l -0.39987,7.66667 -0.39988,7.66666 h 6.56995 c 6.94869,0 10.48896,2.33084 9.08748,5.98303 -0.5618,1.46403 -2.79584,2.01697 -8.14918,2.01697 h -7.37517 v 7.95172 7.95172 l 13,0.38162 c 12.87601,0.37797 13,0.4134 13,3.71494 v 3.33334 l -17.40755,0.37022 c -9.57416,0.20363 -17.82416,-0.0464 -18.33333,-0.55554 z m 98.5502,-1.25707 c -1.60041,-4.17061 -0.89833,-50.60193 0.79068,-52.29095 1.07051,-1.0705 7.0118,-1.6 17.95309,-1.6 14.39584,0 16.50715,0.28787 17.64029,2.40518 2.34028,4.37284 -0.13782,5.47242 -13.2388,5.87432 L 917.99997,314 l -0.39783,7.5982 -0.39782,7.59821 7.73116,0.40179 c 7.25053,0.37683 7.73116,0.60903 7.73116,3.73513 0,3.12611 -0.48063,3.35831 -7.73116,3.73514 l -7.73116,0.40178 0.39782,7.59822 0.39783,7.5982 12.87529,0.3801 c 13.25687,0.39139 15.4757,1.41651 13.60688,6.28656 -1.17125,3.05222 -35.83229,2.95008 -37.00618,-0.10906 z m 46.19068,1.22601 c -0.91667,-0.36988 -1.66667,-1.81928 -1.66667,-3.22086 0,-4.09923 14.83965,-47.8786 16.94164,-49.98059 1.05352,-1.05353 4.25881,-1.91551 7.12287,-1.91551 6.79622,0 7.23338,0.76607 16.57468,29.04515 8.19314,24.80323 8.27654,27.55707 0.80828,26.68893 -2.72147,-0.31636 -3.85999,-1.59409 -5.40636,-6.06741 l -1.95888,-5.66667 h -10.4163 c -8.74574,0 -10.53654,0.37422 -11.16609,2.33334 -3.13117,9.74402 -4.8996,11.17788 -10.83317,8.78362 z m 29.91642,-20.94688 c -0.38621,-1.00645 -1.94926,-5.95645 -3.47346,-11 -4.09426,-13.54784 -4.63263,-13.84248 -7.74906,-4.24093 -1.50029,4.62231 -3.14284,10.35419 -3.65012,12.73752 l -0.92233,4.33333 h 8.24859 c 6.44356,0 8.09493,-0.40044 7.54638,-1.82992 z M 80.462874,320.61639 c -1.046846,-2.72803 3.312427,-13.94719 5.788451,-14.89734 1.075498,-0.4127 2.858874,0.15306 3.963058,1.25724 1.787922,1.78792 1.628249,2.75624 -1.459183,8.84899 -3.442105,6.79267 -6.783437,8.72321 -8.292326,4.79111 z M 91.333331,247.97308 C 73.29971,245.8482 56.983889,235.05387 49.499345,220.29627 44.234212,209.91477 43.779559,203.15617 44.232328,142 l 0.434337,-58.666667 3.468151,-7.394174 c 6.27993,-13.388951 16.250015,-22.301003 31.123543,-27.820688 7.751544,-2.87666 9.25121,-2.939755 68.506931,-2.882278 43.21094,0.04191 61.10558,0.493391 62.4083,1.574546 2.41767,2.006482 2.61386,30.535146 0.2264,32.922594 -1.19353,1.193528 -15.79225,1.6 -57.46515,1.6 -48.94378,0 -56.434284,0.270064 -60.458739,2.179794 -7.615936,3.613998 -8.597502,7.153313 -8.1784,29.489563 l 0.368963,19.66398 33.225376,0.35712 c 21.78076,0.2341 33.83665,0.86442 35,1.82992 2.7506,2.2828 2.4803,29.58346 -0.32062,32.38438 -1.79269,1.7927 -6.89465,2.09524 -35.33333,2.09524 H 83.999997 v 14.7095 c 0,9.89809 0.638494,16.23762 1.952015,19.38132 3.530017,8.44852 4.525899,8.57585 67.071828,8.57585 41.60367,0 56.1827,0.40655 57.37615,1.6 1.05359,1.05359 1.6,6.68964 1.6,16.50341 0,12.23432 -0.39476,15.23112 -2.20422,16.73334 -1.78279,1.48005 -12.55322,1.85373 -56.33333,1.95444 -29.77101,0.0685 -57.72911,-0.29967 -62.129109,-0.81811 z m 147.666659,-0.64129 -3,-2.14967 v -98.4278 c 0,-83.310883 0.29023,-98.668665 1.88968,-99.996096 1.39887,-1.160957 15.51098,-1.450367 54.33333,-1.11426 59.86867,0.518317 59.82815,0.511675 78.81103,12.920584 15.35278,10.035948 24.13673,21.629076 29.67928,39.170948 l 3.28668,10.402164 v 68.43458 c 0,62.00891 -0.20687,68.6064 -2.20322,70.26451 -3.11421,2.58657 -32.46745,2.58657 -35.58863,0 -2.00059,-1.65792 -2.20815,-7.99572 -2.20815,-67.42467 0,-73.03107 -0.14337,-74.42649 -8.67096,-84.389055 -2.60208,-3.039938 -8.1656,-7.21373 -12.36337,-9.275093 L 335.33332,82 h -29.33333 -29.33333 l -0.66667,81.60063 c -0.526,64.38266 -1.03165,81.96624 -2.39643,83.33333 -1.1578,1.15976 -6.66886,1.86741 -16.66666,2.14011 -12.07689,0.32938 -15.51132,-0.004 -17.93691,-1.74228 z m 385.78812,1.0119 c -0.43348,-0.43348 -0.78813,-8.74405 -0.78813,-18.46796 v -17.67982 l 51.03184,-0.4313 51.03182,-0.43128 8.63484,-4.25976 c 10.93952,-5.3967 15.39496,-11.7031 16.66824,-23.59281 0.48723,-4.54959 0.62952,-22.64395 0.31624,-40.20969 -0.6769,-37.95268 -1.42261,-41.05238 -12.25872,-50.955967 -10.2061,-9.327811 -13.03864,-9.978916 -46.26274,-10.634304 l -28.83847,-0.568875 -0.5371,46.623346 c -0.4193,36.3973 -0.9292,47.0958 -2.32479,48.77737 -2.66884,3.21577 -33.62099,3.1738 -36.29791,-0.0492 -1.46976,-1.7696 -1.9129,-12.98828 -2.25153,-57 -0.41648,-54.129084 0.0843,-69.017201 2.44956,-72.839417 1.03293,-1.669116 8.82636,-1.943474 52.92501,-1.863154 l 51.71371,0.09419 10.45057,3.602408 c 23.09533,7.961176 39.67515,24.486928 47.69808,47.542545 2.79207,8.023598 3.05469,11.436798 3.53952,45.999998 0.28803,20.53333 -0.0653,41.97875 -0.78512,47.65645 -2.68927,21.21134 -15.14012,38.63531 -34.81755,48.72434 -16.68412,8.5543 -23.15894,9.3691 -80.29737,10.10465 -27.61653,0.35551 -50.56653,0.29172 -51,-0.14175 z m 257.87853,-0.73329 c -3.22261,-1.62769 -3.34589,-2.18535 -3.71167,-16.78951 -0.25034,-9.99545 0.1432,-15.73429 1.16326,-16.96338 1.27126,-1.53179 11.04068,-1.85882 55.71166,-1.86495 32.66311,-0.004 56.11167,-0.54671 59.06039,-1.36572 2.74332,-0.76195 6.69462,-3.41324 9.00002,-6.03896 3.6164,-4.11885 4.1097,-5.64329 4.1097,-12.70049 0,-8.76263 -1.8438,-13.44144 -7.3115,-18.55406 L 997.1236,170 954.89512,169.29919 c -35.34327,-0.58655 -42.98936,-1.05766 -46.89515,-2.88943 -13.3873,-6.27849 -23.73913,-18.55244 -27.28946,-32.35656 -2.87816,-11.19061 -2.84151,-47.284393 0.0571,-56.23342 4.29726,-13.267168 15.40926,-24.474641 29.55122,-29.805147 6.52347,-2.458884 10.5735,-2.638244 61.23118,-2.711702 42.62499,-0.06181 54.61169,0.290057 55.95469,1.642537 2.4688,2.486356 2.9646,29.412421 0.5942,32.268613 -1.5436,1.859936 -7.3267,2.122835 -47.26218,2.148535 -41.9869,0.02701 -45.93922,0.227109 -51.14254,2.589144 -8.49802,3.857652 -11.0165,9.001628 -11.02256,22.5134 -0.005,12.84126 2.13327,18.69152 8.49274,23.22777 4.03824,2.88047 5.44437,2.99464 44.83565,3.6404 L 1012.6666,134 l 8.8684,4.20167 c 10.8747,5.15228 18.9375,12.98725 23.601,22.93438 3.3586,7.16371 3.5304,8.57003 3.5256,28.86395 -0.01,20.33701 -0.1716,21.6894 -3.5734,28.95743 -5.0061,10.69574 -14.0558,19.89766 -24.1092,24.51458 -8.0093,3.67824 -9.3089,3.84968 -35.6457,4.7023 -48.91402,1.58352 -98.95927,1.30864 -102.66666,-0.56391 z m -66.69967,-3.03053 c -0.78406,-2.06226 -1.30033,-30.81151 -1.30033,-72.41183 0,-57.43723 0.31655,-69.42515 1.89012,-71.57987 1.63541,-2.23941 3.88825,-2.649169 16.71855,-3.040849 11.94706,-0.364716 15.46608,-0.03488 18.10989,1.697404 l 3.28144,2.150085 v 71.70259 c 0,53.99091 -0.39523,72.09783 -1.6,73.3026 -1.07809,1.07809 -7.17771,1.6 -18.69967,1.6 h -17.09966 z m 1.36634,-164.549433 c -1.52906,-0.964877 -2.09938,-4.649165 -2.42204,-15.646249 -0.57855,-19.718337 -1.01208,-19.284703 19.41272,-19.417047 11.4334,-0.07408 16.77982,0.402498 18.25564,1.627307 1.66601,1.382673 2.08701,4.738429 2.08701,16.635479 0,9.81376 -0.54641,15.449821 -1.6,16.503406 -1.94699,1.946982 -32.71337,2.202788 -35.73333,0.297104 z"
       id="path14"
       inkscape:connector-curvature="0" />
  </g>
</svg>
