<svg xmlns="http://www.w3.org/2000/svg" version="1.1" id="svg2" width="400" height="400"><g id="g12" transform="translate(-12.407 120.782) scale(.38817)" fill="#fff" stroke-width="1.333"><path d="M153.696 330.667c0-3.3.26-4.65.578-3 .318 1.65.318 4.35 0 6-.317 1.65-.578.3-.578-3zm-.053-17.334c0-2.566.274-3.616.61-2.333.335 1.283.335 3.383 0 4.667-.336 1.283-.61.233-.61-2.334zm-59.31-64.883c.917-.37 2.417-.37 3.334 0 .916.37.166.673-1.667.673s-2.583-.303-1.667-.673zm8 0c.917-.37 2.417-.37 3.334 0 .916.37.166.673-1.667.673s-2.583-.303-1.667-.673zm101.417-.027c.962-.386 2.112-.338 2.556.105.443.443-.345.758-1.75.7-1.554-.064-1.87-.38-.806-.805zm294.917.034c-25.614-2.726-48.315-16.544-60.987-37.124-5.064-8.223-9.68-22.956-9.68-30.894 0-10.137-1.167-11.106-13.38-11.106H404v-18c0-16.195.234-18.015 2.333-18.152 1.284-.084 33.234-.25 71-.37 77.577-.247 76.122-.066 80.635-10.072 3.372-7.48 2.502-27.68-1.421-32.977-5.351-7.224-7.885-7.727-41.167-8.167-42.529-.563-45.869.946-47.446 21.437-.439 5.7-1.532 11.1-2.429 12-1.04 1.043-7.198 1.798-17 2.085-21.19.621-20.918.906-20.251-21.104.457-15.1.856-17.354 4.207-23.796 5.11-9.824 13.467-17.74 24.342-23.055L466 44.667l40.332-.437c25.271-.273 43.906.119 49.905 1.05 17.781 2.758 32.136 13.34 39.55 29.153 3.45 7.361 3.546 8.256 3.546 32.9 0 24.656-.095 25.536-3.553 32.915-4.58 9.769-14.337 19.547-24.447 24.5l-8 3.919-47.333.666-47.333.667-.43 5.273c-1.05 12.869 7.157 25.614 20.81 32.319l7.62 3.741 63.597.383 63.597.382.403 18.52.403 18.52-60.667-.092c-33.367-.051-62.767-.316-65.333-.59zm169.666-.12c9.35-.23 24.65-.23 34 0 9.35.23 1.7.417-17 .417s-26.35-.188-17-.417zm160.049.01c4.243-.266 10.843-.264 14.667.004 3.823.269.351.486-7.716.483-8.066-.003-11.194-.223-6.951-.488zm145.951-.004c5.317-.253 14.017-.253 19.334 0 5.316.253.966.46-9.667.46s-14.983-.207-9.667-.46zm-223.087-97.676c0-18.7.188-26.35.417-17 .23 9.35.23 24.65 0 34-.23 9.35-.417 1.7-.417-17zm184.42-18.275c1.65-.317 4.35-.317 6 0 1.65.318.3.578-3 .578s-4.65-.26-3-.578zm26.667-.046c4.584-.26 12.084-.26 16.667 0 4.583.26.833.474-8.333.474-9.167 0-12.917-.213-8.334-.474zM622.877 53.333c0-1.833.303-2.583.673-1.666.37.916.37 2.416 0 3.333-.37.917-.673.167-.673-1.667zm-525.21-8.919c1.283-.335 3.383-.335 4.666 0 1.284.336.234.61-2.333.61s-3.617-.274-2.333-.61zm35.42-.08c13.43-.217 35.03-.216 48 .002 12.969.218 1.98.396-24.42.395-26.4 0-37.011-.178-23.58-.396zm129.828.002c12.236-.22 32.636-.22 45.333 0 12.697.218 2.685.398-22.248.399-24.933 0-35.322-.18-23.085-.399zm367.418.114c.917-.37 2.417-.37 3.334 0 .916.37.166.673-1.667.673s-2.583-.303-1.667-.673zm82.019-.073c2.026-.307 5.026-.299 6.666.018 1.64.316-.018.567-3.685.557-3.666-.01-5.008-.269-2.981-.575zm117.315.001c2.016-.305 5.316-.305 7.333 0 2.017.306.367.556-3.667.556-4.033 0-5.683-.25-3.666-.556zm16.75.044c.962-.385 2.112-.337 2.555.106.443.443-.344.758-1.75.7-1.553-.064-1.869-.38-.805-.806zm101.336-.087c13.431-.218 35.031-.217 48 0 12.97.219 1.98.397-24.42.396-26.4 0-37.01-.178-23.58-.396z" id="path16" fill="#ececec"/><path d="M261.255 361.402c-11.456-3.476-13.26-7.25-13.235-27.67.02-16.919.985-20.413 6.828-24.75 7.596-5.638 24.861-3.655 29.82 3.426 2.58 3.683 2.56 9.466-.04 11.625-2.842 2.357-8.289-.274-8.859-4.279-.612-4.3-6.4-6.875-11.285-5.018-2.07.787-4.216 2.143-4.77 3.014-.553.87-1.016 8.24-1.027 16.377-.022 16.273 1.247 19.206 8.309 19.206 5.551 0 7.447-1.282 9.043-6.118 1.32-3.997 2.054-4.548 6.064-4.548 4.307 0 4.564.256 4.564 4.564 0 6.83-5.18 12.23-13.43 13.999-7.49 1.606-7.268 1.603-11.982.172zm180 .03c-11.497-3.588-13.26-7.28-13.235-27.699.02-16.92.985-20.414 6.828-24.751 7.785-5.779 24.894-3.644 29.71 3.707 4.575 6.981 1.16 14.463-5.264 11.536-1.82-.83-3.294-2.634-3.294-4.033 0-3.657-3.547-6.059-8.948-6.059-7.272 0-8.385 2.644-8.385 19.915 0 16.571 1.244 19.304 8.771 19.265 5.196-.027 7.136-1.438 8.381-6.093.892-3.335 1.688-3.887 5.61-3.887 4.021 0 4.623.452 5.001 3.753.525 4.58-2.544 9.555-7.443 12.062-4.862 2.488-13.508 3.602-17.732 2.284zm423.963.038c-6.377-2.076-10.551-5.636-10.551-8.998 0-4.623 3.641-5.404 9.494-2.036 8.612 4.957 18.506 3.001 18.506-3.658 0-3.161-3.189-5.827-12-10.036-11.546-5.514-14.667-8.93-14.667-16.054 0-10.418 8.622-16.05 22.996-15.022 10.369.742 13.849 2.906 12.336 7.67-.828 2.61-1.53 2.854-5.803 2.024-2.675-.52-6.513-1.256-8.532-1.637-4.464-.843-10.33 2.652-10.33 6.154 0 2.856 3.733 5.591 11.272 8.258 2.9 1.026 7.55 4.022 10.333 6.659 5.363 5.079 6.535 10.489 3.82 17.63-2.8 7.365-17.174 12.204-26.874 9.046zm158.115.272c-5.931-1.494-11.046-4.72-12.482-7.869-.938-2.06-1.518-11.698-1.518-25.244v-21.911l3.431-.862c1.887-.473 3.94-.335 4.56.308.622.643 1.328 10.669 1.57 22.279.49 23.51 1.04 24.89 9.932 24.89 7.803 0 8.507-1.947 8.507-23.516 0-10.772.611-20.467 1.38-21.905 1.73-3.23 7.435-3.384 9.09-.245.677 1.283 1.149 11.36 1.047 22.393-.2 21.971-1.186 25.33-8.53 29.088-4.285 2.193-13.184 3.552-16.987 2.594zM44.89 360.444c-.489-.488-.889-12.748-.889-27.243 0-25.184.118-26.392 2.667-27.201 1.466-.466 3.866-.466 5.333 0 2.532.804 2.667 2.017 2.667 24.09v23.243h11.19c11.575 0 13.827 1.13 11.958 6-.621 1.62-3.734 2-16.402 2-8.6 0-16.035-.4-16.524-.889zm60 0c-.489-.488-.889-12.415-.889-26.503 0-20.246.389-25.937 1.854-27.153 1.239-1.028 7.322-1.414 18.333-1.164l16.48.376.417 3.617.417 3.618-13.084.382-13.084.383-.4 7.667-.4 7.666 6.4.02c7.531.025 10.175 1.36 9.519 4.807-.391 2.05-1.882 2.58-8.196 2.908l-7.718.402.397 7.598.398 7.599 12.21.381c12.651.396 15.986 1.819 14.337 6.116-.71 1.852-3.41 2.17-18.467 2.17-9.7 0-18.035-.4-18.524-.89zm50.084-26.736l.36-27.708h8l.667 23.333.667 23.334 11.333.666c11.022.649 11.333.759 11.333 4v3.334l-16.36.374-16.36.375zm45.637 25.958c-.368-.96-.506-13.427-.306-27.705l.363-25.961h36v3.333c0 3.275-.223 3.345-12.667 4l-12.667.667-.4 7.667-.4 7.666h6.57c4.214 0 7.166.718 8.23 2 2.829 3.409-.697 6-8.163 6h-6.503v15.904l13 .381c12.876.378 13 .414 13 3.715v3.334l-17.694.372c-13.618.286-17.848-.03-18.363-1.373zm112.026 0c-.337-.916-.768-11.566-.958-23.666l-.345-22-7.333-.667c-6.756-.614-7.333-.929-7.333-4V306h40l.415 3.594c.4 3.462.154 3.61-6.667 4l-7.082.406-.746 23.333c-.411 12.834-.861 23.484-1 23.667-.88 1.158-8.449.03-8.95-1.333zm37.325.047c-.378-.986-.524-13.474-.324-27.752L350 306l12.36-.384c9.956-.309 13.507.124 18.253 2.223 5.076 2.245 6.104 3.398 7.433 8.33 2.015 7.487-.093 14.969-5.101 18.1-1.986 1.241-3.831 2.408-4.1 2.593-.268.185 2.037 4.713 5.121 10.063 6.05 10.492 5.994 13.393-.27 14.148-2.975.358-4.116-.926-9.77-11-5.642-10.05-6.844-11.406-10.11-11.406h-3.708l-.387 11-.388 11-4.342.418c-2.726.263-4.599-.248-5.03-1.372zM376 328c5.808-5.808 1.956-12.842-7.333-13.391-8.771-.518-8.667-.615-8.667 8.058v8h6.667c4.889 0 7.377-.711 9.333-2.667zm27.556 32.444c-.49-.488-.89-12.777-.89-27.307v-26.42l3.351-.84c6.781-1.702 7.316.262 7.316 26.844 0 13.417-.364 25.343-.809 26.503-.804 2.095-7.22 2.968-8.968 1.22zm77.396.064c-.524-.524-.952-12.841-.952-27.371v-26.42l3.33-.835c7.369-1.85 7.424-1.635 7.031 27.753L490 360.667l-4.048.396c-2.226.218-4.476-.032-5-.555zm37.981-.775c-1.117-1.117-1.6-8.34-1.6-23.93v-22.33l-7-.403c-6.47-.373-7-.656-7-3.737V306h40v3.333c0 3.066-.583 3.387-7.255 4l-7.255.667.092 20.667c.05 11.366-.42 22.016-1.045 23.666-1.255 3.312-6.244 4.093-8.937 1.4zm37.677-.067c-.368-.96-.506-13.427-.306-27.705l.363-25.961h36v3.333c0 3.302-.124 3.337-13 3.715l-13 .382v15.903h6.503c6.882 0 10.417 2.345 9.021 5.983-.562 1.464-2.796 2.017-8.15 2.017h-7.374v15.904l13 .381c12.876.378 13 .414 13 3.715v3.334l-17.694.372c-13.618.286-17.848-.03-18.363-1.373zm70.866-.442c-1.6-4.17-.898-50.602.79-52.29 1.07-1.07 6.987-1.6 17.837-1.6 16.885 0 20.274 1.061 18.462 5.784-.651 1.696-3.373 2.198-13.584 2.502l-12.77.38-.333 7.603-.334 7.604 7.562.396c7.07.371 7.56.613 7.56 3.73 0 3.071-.538 3.365-6.846 3.731-6.267.364-6.9.703-7.477 4-.348 1.982-.516 5.403-.374 7.603l.258 4 12.762.38c13.138.391 15.358 1.426 13.493 6.286-1.171 3.053-35.832 2.95-37.006-.109zm50.746 1.22c-.489-.488-.889-12.748-.889-27.243 0-25.184.119-26.392 2.667-27.201 4.94-1.568 7.562.669 14.128 12.057 3.596 6.237 7.739 13.276 9.205 15.642L706 338l.375-15.59c.34-14.16.616-15.667 3-16.423 1.444-.458 3.837-.449 5.319.022 2.602.825 2.682 1.774 2.333 27.756l-.36 26.902H712c-4.542 0-4.917-.421-14-15.72l-9.333-15.72-.381 14.308c-.21 7.868-1.033 15.092-1.83 16.053-1.522 1.834-6.716 2.374-8.234.856zm77.072-.731c-.378-.986-.524-13.474-.324-27.752l.363-25.961 14.667.013c12.05.011 15.32.454 18.324 2.48 7.896 5.328 7.869 20.828-.046 25.775a945.773 945.773 0 00-4.04 2.535c-.236.152 2.068 4.681 5.119 10.066 5.984 10.56 5.917 13.45-.328 14.204-2.975.358-4.116-.926-9.77-11-5.641-10.05-6.844-11.406-10.11-11.406h-3.708l-.387 11-.387 11-4.343.418c-2.726.263-4.598-.248-5.03-1.372zM781.334 328c3.203-3.203 3.384-6.382.59-10.37-1.712-2.445-3.345-2.963-9.333-2.963h-7.258v16H772c4.889 0 7.378-.711 9.333-2.667zm27.592 32.481c-.51-.509-.926-12.814-.926-27.344 0-31.069-2.286-28.12 21.333-27.524l15.334.387v3.333c0 3.275-.223 3.345-12.667 4l-12.667.667-.4 7.667-.4 7.666h6.57c6.95 0 10.49 2.331 9.088 5.983-.562 1.464-2.796 2.017-8.15 2.017h-7.374v15.904l13 .381c12.876.378 13 .414 13 3.715v3.334l-17.408.37c-9.574.204-17.824-.047-18.333-.556zm98.55-1.257c-1.6-4.17-.898-50.602.79-52.29 1.071-1.071 7.012-1.6 17.954-1.6 14.396 0 16.507.287 17.64 2.405 2.34 4.372-.138 5.472-13.239 5.874L918 314l-.398 7.598-.398 7.598 7.731.402c7.251.377 7.732.61 7.732 3.735 0 3.126-.481 3.359-7.732 3.735l-7.73.402.397 7.598.398 7.599 12.875.38c13.257.391 15.476 1.416 13.607 6.286-1.171 3.053-35.832 2.95-37.006-.109zm46.19 1.226c-.916-.37-1.666-1.819-1.666-3.22 0-4.1 14.84-47.88 16.942-49.981 1.053-1.054 4.258-1.916 7.122-1.916 6.797 0 7.234.766 16.575 29.045 8.193 24.804 8.277 27.558.808 26.69-2.721-.317-3.86-1.595-5.406-6.068l-1.959-5.667h-10.416c-8.746 0-10.537.375-11.166 2.334-3.131 9.744-4.9 11.178-10.833 8.783zm29.917-20.947c-.386-1.006-1.95-5.956-3.473-11-4.095-13.547-4.633-13.842-7.75-4.24-1.5 4.622-3.142 10.354-3.65 12.737l-.922 4.333h8.249c6.443 0 8.095-.4 7.546-1.83zm-903.12-18.887c-1.047-2.728 3.312-13.947 5.788-14.897 1.076-.413 2.86.153 3.963 1.257 1.788 1.788 1.629 2.757-1.459 8.85-3.442 6.792-6.783 8.722-8.292 4.79zm10.87-72.643c-18.033-2.125-34.35-12.92-41.834-27.677-5.265-10.381-5.72-17.14-5.267-78.296l.435-58.667 3.468-7.394c6.28-13.389 16.25-22.3 31.123-27.82 7.752-2.877 9.252-2.94 68.507-2.883 43.211.042 61.106.494 62.409 1.575 2.417 2.006 2.613 30.535.226 32.922-1.194 1.194-15.792 1.6-57.465 1.6-48.944 0-56.434.27-60.459 2.18-7.616 3.614-8.597 7.153-8.178 29.49l.369 19.664 33.225.357c21.78.234 33.837.864 35 1.83 2.75 2.283 2.48 29.583-.32 32.384-1.793 1.793-6.895 2.095-35.334 2.095H84v14.71c0 9.898.638 16.237 1.952 19.381 3.53 8.449 4.526 8.576 67.072 8.576 41.604 0 56.183.407 57.376 1.6 1.054 1.054 1.6 6.69 1.6 16.503 0 12.235-.395 15.232-2.204 16.734-1.783 1.48-12.553 1.853-56.334 1.954-29.77.069-57.729-.3-62.129-.818zM239 247.332l-3-2.15v-98.428c0-83.31.29-98.668 1.89-99.996 1.399-1.16 15.51-1.45 54.333-1.114 59.869.518 59.828.512 78.811 12.92 15.353 10.036 24.137 21.63 29.68 39.171L404 108.138v68.434c0 62.01-.207 68.607-2.203 70.265-3.114 2.586-32.468 2.586-35.589 0-2-1.658-2.208-7.996-2.208-67.425 0-73.031-.143-74.426-8.671-84.389-2.602-3.04-8.166-7.214-12.363-9.275L335.333 82h-58.666L276 163.6c-.526 64.383-1.032 81.967-2.396 83.334-1.158 1.16-6.67 1.867-16.667 2.14-12.077.33-15.511-.004-17.937-1.742zm385.788 1.012c-.433-.434-.788-8.744-.788-18.468v-17.68l51.032-.431 51.032-.432 8.634-4.26c10.94-5.396 15.395-11.703 16.669-23.592.487-4.55.63-22.644.316-40.21-.677-37.953-1.423-41.052-12.259-50.956-10.206-9.328-13.038-9.979-46.263-10.634l-28.838-.57-.537 46.624c-.42 36.398-.93 47.096-2.325 48.778-2.669 3.215-33.62 3.173-36.298-.05-1.47-1.77-1.913-12.988-2.251-57-.417-54.129.084-69.017 2.45-72.839 1.032-1.67 8.826-1.943 52.924-1.863l51.714.094 10.45 3.602c23.097 7.963 39.677 24.487 47.7 47.543 2.792 8.024 3.054 11.437 3.54 46 .287 20.533-.066 41.979-.786 47.656-2.69 21.212-15.14 38.636-34.818 48.725-16.684 8.554-23.158 9.369-80.297 10.104-27.616.356-50.566.292-51-.141zm257.879-.734c-3.223-1.627-3.346-2.185-3.712-16.79-.25-9.995.143-15.733 1.163-16.962 1.271-1.532 11.04-1.86 55.712-1.865 32.663-.004 56.112-.547 59.06-1.366 2.744-.762 6.695-3.413 9-6.04 3.617-4.118 4.11-5.642 4.11-12.7 0-8.762-1.844-13.441-7.312-18.554L997.124 170l-42.229-.7c-35.343-.587-42.99-1.058-46.895-2.89-13.387-6.279-23.74-18.553-27.29-32.357-2.878-11.19-2.841-47.284.058-56.233 4.297-13.267 15.409-24.475 29.55-29.805 6.524-2.46 10.574-2.639 61.232-2.712 42.625-.062 54.612.29 55.955 1.642 2.469 2.487 2.964 29.413.594 32.27-1.544 1.859-7.327 2.122-47.262 2.148-41.987.027-45.94.227-51.143 2.589-8.498 3.857-11.016 9.001-11.022 22.513-.005 12.841 2.133 18.692 8.492 23.228 4.039 2.88 5.445 2.995 44.836 3.64l40.667.667 8.868 4.202c10.875 5.152 18.938 12.987 23.601 22.934 3.359 7.164 3.53 8.57 3.526 28.864-.01 20.337-.172 21.69-3.574 28.957-5.006 10.696-14.056 19.898-24.109 24.515-8.01 3.678-9.309 3.85-35.646 4.702-48.914 1.584-98.959 1.309-102.666-.564zm-66.7-3.03c-.784-2.062-1.3-30.812-1.3-72.412 0-57.437.316-69.425 1.89-71.58 1.635-2.24 3.888-2.649 16.718-3.04 11.947-.365 15.466-.036 18.11 1.697l3.282 2.15v71.702c0 53.991-.396 72.098-1.6 73.303-1.078 1.078-7.178 1.6-18.7 1.6h-17.1zm1.366-164.55c-1.529-.964-2.1-4.649-2.422-15.646-.578-19.718-1.012-19.285 19.413-19.417 11.433-.074 16.78.403 18.256 1.627 1.666 1.383 2.087 4.739 2.087 16.636 0 9.814-.547 15.45-1.6 16.503-1.947 1.947-32.714 2.203-35.734.297z" id="path14" fill="#fff"/></g></svg>