<?xml version="1.0" encoding="UTF-8" standalone="no"?>
<!-- Created with Inkscape (http://www.inkscape.org/) -->

<svg
   xmlns:dc="http://purl.org/dc/elements/1.1/"
   xmlns:cc="http://creativecommons.org/ns#"
   xmlns:rdf="http://www.w3.org/1999/02/22-rdf-syntax-ns#"
   xmlns:svg="http://www.w3.org/2000/svg"
   xmlns="http://www.w3.org/2000/svg"
   xmlns:sodipodi="http://sodipodi.sourceforge.net/DTD/sodipodi-0.dtd"
   xmlns:inkscape="http://www.inkscape.org/namespaces/inkscape"
   version="1.1"
   id="svg2"
   width="140.42404"
   height="141.50211"
   viewBox="0 0 140.42404 141.50211"
   sodipodi:docname="fabrikcycles.svg"
   inkscape:version="0.92.4 5da689c313, 2019-01-14">
  <metadata
     id="metadata8">
    <rdf:RDF>
      <cc:Work
         rdf:about="">
        <dc:format>image/svg+xml</dc:format>
        <dc:type
           rdf:resource="http://purl.org/dc/dcmitype/StillImage" />
        <dc:title></dc:title>
      </cc:Work>
    </rdf:RDF>
  </metadata>
  <defs
     id="defs6" />
  <sodipodi:namedview
     pagecolor="#ffffff"
     bordercolor="#666666"
     borderopacity="1"
     objecttolerance="10"
     gridtolerance="10"
     guidetolerance="10"
     inkscape:pageopacity="0"
     inkscape:pageshadow="2"
     inkscape:window-width="1364"
     inkscape:window-height="734"
     id="namedview4"
     showgrid="false"
     fit-margin-left="-0.4"
     fit-margin-top="0"
     fit-margin-right="0"
     fit-margin-bottom="0"
     inkscape:zoom="2.6222222"
     inkscape:cx="42.495832"
     inkscape:cy="62.915857"
     inkscape:window-x="0"
     inkscape:window-y="33"
     inkscape:window-maximized="0"
     inkscape:current-layer="svg2" />
  <path
     style="fill:#ffffff"
     d="M 59.891101,140.8654 C 44.32787,138.41739 31.76052,131.83581 19.92123,119.93299 5.7842901,105.72019 -0.35245995,90.754998 -0.39970995,70.377963 -0.42810995,58.150109 1.6256501,49.572181 7.2532401,38.413206 26.82484,-0.39535986 77.541611,-12.149494 112.38588,14.047634 c 8.58972,6.458044 16.11441,15.503804 20.83002,25.040668 5.4111,10.943425 7.15346,18.508139 7.20686,31.289661 0.0548,13.125305 -1.63333,20.369165 -7.57399,32.500007 -5.39931,11.02541 -18.61397,24.63185 -29.34353,30.2135 -12.955891,6.73981 -30.409919,9.85087 -43.614139,7.77393 z m 24.630468,-2.48277 C 106.03232,133.89422 126.12383,116.73975 134.30352,95.877968 141.62141,77.214152 140.35954,55.682562 130.90197,37.836564 113.40525,4.8210311 71.437131,-7.8560309 37.53791,9.6346361 27.52287,14.802004 13.80854,28.732345 8.7480501,38.877963 -5.0851799,66.611781 -0.16314995,97.694078 21.51036,119.47113 c 13.16305,13.22594 29.57059,20.16675 48.011211,20.30998 4.4,0.0342 11.149998,-0.59514 14.999998,-1.39848 z M 53.53379,136.26384 C 30.16051,130.6135 10.12606,110.39621 4.5795301,86.862798 c -1.97051,-8.360682 -1.99484,-24.840159 -0.048,-32.524736 2.5891,-10.219797 8.9950999,-21.897926 16.2038599,-29.53959 27.18636,-28.8189709 71.386039,-28.8189709 98.5724,0 C 130.995,37.187525 137.3092,53.406045 137.2699,70.935551 137.2,102.1308 115.92267,129.26913 86.006419,136.32001 c -8.094028,1.90767 -24.466118,1.87934 -32.472609,-0.0562 z m -4.69886,-16.13587 c 0.26205,-2.71784 -0.0245,-3.25 -1.75,-3.25 -1.13485,0 -2.06336,0.45 -2.06336,1 0,0.55 0.45,1 1,1 0.55,0 1,0.675 1,1.5 0,1.79439 -3.11116,1.98884 -4.8,0.3 -2.97985,-2.97985 0.75481,-8.58389 4.85357,-7.283 1.48904,0.47261 1.97643,0.34054 1.51265,-0.40987 -0.94336,-1.52637 -4.79879,-1.38877 -7.04175,0.25132 -2.51469,1.83878 -2.47968,7.46991 0.058,9.32548 1.05367,0.77046 3.04117,1.26927 4.41666,1.10846 2.01575,-0.23567 2.5617,-0.92287 2.81427,-3.54239 z m 9.18664,2.75 c 0,-0.55 -0.9,-1 -2,-1 -1.36718,0 -2,-0.66667 -2,-2.10699 0,-1.44161 0.46359,-1.92909 1.46798,-1.54367 0.80738,0.30982 1.73394,0.13297 2.05902,-0.39301 0.32507,-0.52598 -0.33552,-0.95633 -1.46798,-0.95633 -1.35864,0 -2.05902,-0.64845 -2.05902,-1.90638 0,-1.41405 0.51651,-1.77131 2,-1.38337 1.11819,0.29241 2,0.0307 2,-0.59362 0,-0.61415 -1.35,-1.11663 -3,-1.11663 h -3 v 6 6 h 3 c 1.65,0 3,-0.45 3,-1 z m 5.009461,-3.25 0.01,-4.25 2.54722,4.25 c 1.40097,2.3375 2.97172,4.25 3.49054,4.25 0.51879,0 0.94328,-2.7 0.94328,-6 0,-3.33333 -0.44444,-6 -1,-6 -0.55,0 -1.0074,1.9125 -1.01645,4.25 l -0.0164,4.25 -2.23355,-3.92226 c -3.47633,-6.10467 -4.73355,-5.74905 -4.73355,1.33893 0,3.38889 0.44293,6.08333 1,6.08333 0.55,0 1.00426,-1.9125 1.00946,-4.25 z m 15.990538,3.25 c 0,-0.55 -0.899998,-1 -1.999998,-1 -1.36718,0 -2,-0.66667 -2,-2.10699 0,-1.44161 0.46359,-1.92909 1.46798,-1.54367 0.80738,0.30982 1.73394,0.13297 2.059018,-0.39301 0.32507,-0.52598 -0.335518,-0.95633 -1.467978,-0.95633 -1.35864,0 -2.05902,-0.64845 -2.05902,-1.90638 0,-1.41405 0.51651,-1.77131 2,-1.38337 1.11819,0.29241 1.999998,0.0307 1.999998,-0.59362 0,-0.61415 -1.349998,-1.11663 -2.999998,-1.11663 h -3 v 6 6 h 3 c 1.65,0 2.999998,-0.45 2.999998,-1 z m 9.30022,-3.25 c 0.81853,-2.3375 1.80897,-5.0375 2.20099,-6 0.40524,-0.99495 0.26861,-1.75 -0.31667,-1.75 -0.56619,0 -1.5687,1.6875 -2.22779,3.75 -1.80545,5.64979 -2.54275,5.80032 -3.94143,0.80472 -1.3461,-4.80779 -3.73135,-6.54374 -2.55583,-1.86009 1.14228,4.55119 3.38796,9.30537 4.39548,9.30537 0.52636,0 1.62673,-1.9125 2.44525,-4.25 z m 5.06141,2.75 c 0.78428,-2.04382 4.59659,-1.89364 6.34626,0.25 1.292751,1.58385 1.367981,1.47043 0.792341,-1.19463 -0.966711,-4.47559 -3.282001,-9.55537 -4.355201,-9.55537 -0.52636,0 -1.62673,1.9125 -2.44525,4.25 -0.81853,2.3375 -1.80897,5.0375 -2.20099,6 -0.39719,0.97518 -0.27001,1.75 0.28723,1.75 0.55,0 1.25902,-0.675 1.57561,-1.5 z m 1.63837,-4.94098 c 0,-2.11561 1.69272,-2.80217 2.39522,-0.97149 0.85526,2.22879 0.7871,2.41247 -0.89522,2.41247 -0.825,0 -1.5,-0.64844 -1.5,-1.44098 z m 14.000001,-9.55902 c 0,-0.64932 -13.480331,-1 -38.440979,-1 -24.548631,0 -38.664341,0.36139 -39.059021,1 -0.40799,0.66015 12.65629,1 38.440991,1 25.372668,0 39.059009,-0.3504 39.059009,-1 z m -67.19037,-6.75 c -0.18536,-0.9625 -0.89335,-1.806252 -1.57332,-1.875002 -0.67997,-0.0687 -1.69901,-0.18125 -2.26453,-0.25 -0.6636,-0.0807 -0.92956,-5.00081 -0.75,-13.875 0.27117,-13.401307 0.33528,-13.758109 2.52822,-14.069556 1.44596,-0.205359 2.25,-1.009401 2.25,-2.25 0,-2.474956 -4.54781,-2.649646 -7.17126,-0.275461 -1.61444,1.461056 -1.82874,3.386155 -1.82874,16.428577 0,16.363432 0.53264,17.916442 6.14476,17.916442 2.32067,0 2.92541,-0.39713 2.66487,-1.75 z M 52.02157,90.858098 c 0,-10.45624 0.31948,-12.806112 2.45586,-18.063771 l 2.45585,-6.043896 -2.17248,0.313766 c -1.47081,0.212425 -2.47222,1.363461 -3.10051,3.563766 -1.19333,4.179062 -2.19982,4.109911 -3.63872,-0.25 -0.78327,-2.373356 -1.76924,-3.5 -3.06296,-3.5 -1.83633,0 -1.82428,0.196815 0.32137,5.25 1.83262,4.315976 2.28469,7.518345 2.541,18.000005 0.28989,11.854922 0.44828,12.750002 2.25619,12.750002 1.81803,0 1.9444,-0.78122 1.9444,-12.019872 z m 15.000001,10.089422 c 0,-1.240602 -0.80404,-2.044642 -2.25,-2.250002 -2.20644,-0.31336 -2.25,-0.5809 -2.25,-13.81955 0,-13.238657 0.0436,-13.506191 2.25,-13.819556 1.44596,-0.205359 2.25,-1.009401 2.25,-2.25 0,-2.474956 -4.54781,-2.649646 -7.17126,-0.275461 -1.611661,1.458534 -1.828741,3.378123 -1.828741,16.171267 0,16.084782 0.707481,18.173752 6.154991,18.173752 2.14418,0 2.84501,-0.47554 2.84501,-1.93045 z m 11,-0.0696 c 0,-1.100002 -0.45,-2.000002 -1,-2.000002 -0.625,0 -1,-6 -1,-16 0,-15.333338 -0.0833,-16.000005 -2,-16.000005 -1.92592,0 -2,0.666667 -2,18.000005 v 18.000002 h 3 c 2.33334,0 3,-0.44444 3,-2 z m 13.999998,-0.11663 c 0,-1.624302 -0.4652,-1.994982 -2,-1.593622 -1.89532,0.49564 -2,0.0307 -2,-8.88337 0,-8.73971 0.14175,-9.40638 2,-9.40638 1.33333,0 2,-0.66667 2,-2 0,-1.333338 -0.66667,-2.000005 -2,-2.000005 -1.55556,0 -2,-0.666667 -2,-3 0,-2.333333 0.44444,-3 2,-3 1.33333,0 2,-0.666667 2,-2 0,-1.666667 -0.66667,-2 -4,-2 h -4 v 18.000005 18.000002 h 4 c 3.4068,0 4,-0.31389 4,-2.11663 z m 12.800001,0.91663 c 0.75146,-0.75146 1.2,-4.488252 1.2,-9.997122 0,-8.64926 -0.0588,-8.86223 -3.5,-12.6712 -3.798431,-4.204413 -4.748201,-8.516232 -1.75,-7.944793 0.9625,0.183446 1.8938,1.341442 2.06955,2.573324 0.17575,1.231881 0.96325,2.239784 1.75,2.239784 1.78665,0 1.96583,-6.064618 0.23045,-7.8 -1.98905,-1.989045 -6.528301,-1.425992 -8.243301,1.022506 -2.31961,3.311706 -1.90007,6.316821 1.40784,10.084329 1.63049,1.85703 3.430491,4.60198 4.000001,6.09989 1.56385,4.11325 1.29662,12.13165 -0.45271,13.58346 -1.962061,1.628372 -2.384831,0.39464 -2.738031,-7.99018 -0.21017,-4.98942 -0.6224,-6.5 -1.7738,-6.5 -2.24575,0 -2.66427,12.83725 -0.52497,16.102242 1.72,2.62505 6.246441,3.27629 8.324971,1.19776 z m -67.8,-50.300007 c 0,-8.945324 0.12106,-9.5 2.07333,-9.5 1.44491,0 1.96434,-0.530417 1.71375,-1.75 -0.20692,-1.007049 -1.08714,-1.625254 -2.07333,-1.456163 -1.35122,0.231677 -1.71375,-0.455837 -1.71375,-3.25 0,-2.87717 0.37624,-3.543837 2,-3.543837 1.1455,0 2,-0.666667 2,-1.560365 0,-1.191598 -0.88625,-1.487016 -3.75,-1.25 l -3.75,0.310365 -0.27539,15.75 c -0.26647,15.239801 -0.20978,15.75 1.75,15.75 1.89172,0 2.02539,-0.626965 2.02539,-9.5 z m 9.5,7.5 c 0.34913,-1.1 1.47413,-2 2.5,-2 1.02588,0 2.15088,0.9 2.5,2 0.87168,2.746418 3.50569,2.55703 3.47702,-0.25 -0.0126,-1.2375 -0.9023,-8.1 -1.97702,-15.25 -1.07472,-7.15 -1.96437,-13.3375 -1.97701,-13.75 -0.0386,-1.259295 -3.05502,-0.833776 -3.54441,0.5 -0.45714,1.245872 -4.47858,28.008478 -4.47858,29.804849 0,1.800566 2.86808,0.93617 3.5,-1.054849 z m 1.41114,-5.75 c -0.0489,-0.4125 -0.0152,-3 0.0749,-5.75 0.20951,-6.39621 2.00882,-8.570362 2.0276,-2.45 0.007,2.4475 0.285,5.4625 0.61663,6.7 0.44329,1.654134 0.17485,2.25 -1.01365,2.25 -0.88915,0 -1.65662,-0.3375 -1.70549,-0.75 z m 19.053681,5.815741 c 1.36906,-2.55812 1.32877,-14.648659 -0.0575,-17.238842 -0.79019,-1.476479 -0.79019,-2.344071 0,-3.134258 1.62121,-1.621214 1.32384,-5.779686 -0.56235,-7.8639 -0.97493,-1.077292 -3.02935,-1.828691 -4.99995,-1.828691 H 58.02157 v 16 16 h 3.964821 c 2.89644,0 4.24376,-0.521213 5,-1.934259 z m -5.96482,-9.149074 c 0,-6.019401 0.31917,-7.978296 1.25,-7.671957 1.84107,0.605896 3.13998,9.687164 1.86018,13.00529 -1.94236,5.035931 -3.11018,3.033359 -3.11018,-5.333333 z m 0.44821,-12.191036 c -0.79578,-2.073772 -0.23065,-4.775582 1.05179,-5.028452 1.39406,-0.274879 1.9001,4.30272 0.61745,5.585374 -0.73584,0.735843 -1.23737,0.568515 -1.66924,-0.556922 z m 14.63074,13.024419 c 0.0896,-11.63658 0.64156,-11.378607 2.28065,1.065976 0.908728,6.899453 1.495918,8.726709 2.890398,8.994549 2.12965,0.409043 2.17518,-1.343541 0.30644,-11.797173 -1.13428,-6.345164 -1.12626,-7.78943 0.0526,-9.472506 3.34688,-4.778327 0.46911,-10.540846 -5.264018,-10.540846 h -3.34502 v 16 c 0,13.555556 0.22917,16 1.5,16 1.23064,0 1.51418,-1.840643 1.57895,-10.25 z m 0.36926,-13.024369 c -0.79578,-2.073772 -0.23065,-4.775582 1.05179,-5.028452 1.394058,-0.274879 1.900098,4.30272 0.61745,5.585374 -0.73584,0.735843 -1.23737,0.568515 -1.66924,-0.556922 z m 14.551788,7.201045 c 0,-14.769257 -0.14198,-16.046065 -1.75,-15.737335 -1.56405,0.300289 -1.77926,2.008204 -2.02539,16.073325 -0.26647,15.227082 -0.20973,15.737334 1.75,15.737334 1.94985,0 2.02539,-0.599495 2.02539,-16.073324 z m 8.06339,7.823324 c 0.0706,-9.18548 1.223601,-8.228124 2.408771,2 0.60508,5.221908 1.03705,6.25 2.62603,6.25 2.29361,0 2.27802,0.721281 0.23204,-10.733235 -1.57545,-8.820221 -1.57099,-9.661661 0.0788,-14.895404 0.96171,-3.050904 1.50751,-5.78815 1.2129,-6.082768 -1.38688,-1.386874 -3.4684,0.989117 -4.70995,5.376237 l -1.368341,4.83517 -0.32408,-5.25 c -0.23251,-3.766538 -0.73316,-5.25 -1.77182,-5.25 -1.20333,0 -1.44774,2.701137 -1.44774,16 0,13.555556 0.22917,16 1.5,16 1.207,0 1.51238,-1.611505 1.56339,-8.25 z"
     id="path12"
     inkscape:connector-curvature="0" />
</svg>
