<svg xmlns="http://www.w3.org/2000/svg" version="1.1" id="svg2" width="140.424" height="141.502"><path d="M59.891 140.865c-15.563-2.448-28.13-9.03-39.97-20.932C5.784 105.72-.352 90.755-.399 70.378-.43 58.15 1.625 49.572 7.252 38.413 26.825-.395 77.542-12.149 112.386 14.048c8.59 6.458 16.114 15.503 20.83 25.04 5.411 10.944 7.153 18.508 7.207 31.29.055 13.125-1.634 20.37-7.574 32.5-5.4 11.025-18.614 24.632-29.344 30.213-12.956 6.74-30.41 9.851-43.614 7.774zm24.63-2.482c21.511-4.489 41.603-21.643 49.783-42.505 7.317-18.664 6.056-40.195-3.402-58.041C113.405 4.82 71.437-7.856 37.538 9.635c-10.015 5.167-23.73 19.097-28.79 29.243C-5.085 66.612-.163 97.694 21.51 119.471c13.163 13.226 29.57 20.167 48.012 20.31 4.4.034 11.15-.595 15-1.398zm-30.987-2.12c-23.373-5.65-43.408-25.867-48.954-49.4-1.971-8.36-1.995-24.84-.048-32.525 2.589-10.22 8.995-21.898 16.203-29.54 27.187-28.818 71.386-28.818 98.573 0 11.687 12.39 18.001 28.608 17.962 46.138-.07 31.195-21.347 58.333-51.264 65.384-8.094 1.908-24.466 1.88-32.472-.056zm-4.7-16.135c.263-2.718-.024-3.25-1.75-3.25-1.134 0-2.062.45-2.062 1s.45 1 1 1 1 .675 1 1.5c0 1.794-3.112 1.989-4.8.3-2.98-2.98.754-8.584 4.853-7.283 1.49.473 1.977.34 1.513-.41-.944-1.526-4.799-1.389-7.042.251-2.515 1.84-2.48 7.47.058 9.326 1.054.77 3.041 1.27 4.417 1.108 2.015-.235 2.561-.923 2.814-3.542zm9.188 2.75c0-.55-.9-1-2-1-1.368 0-2-.667-2-2.107 0-1.442.463-1.93 1.468-1.544.807.31 1.733.133 2.059-.393.325-.526-.336-.956-1.468-.956-1.36 0-2.06-.648-2.06-1.906 0-1.414.517-1.772 2-1.384 1.119.293 2 .03 2-.593 0-.615-1.35-1.117-3-1.117h-3v12h3c1.65 0 3-.45 3-1zm5.009-3.25l.01-4.25 2.547 4.25c1.401 2.337 2.972 4.25 3.49 4.25.52 0 .944-2.7.944-6 0-3.333-.444-6-1-6-.55 0-1.007 1.912-1.016 4.25l-.017 4.25-2.233-3.922c-3.477-6.105-4.734-5.75-4.734 1.339 0 3.389.443 6.083 1 6.083.55 0 1.004-1.913 1.01-4.25zm15.99 3.25c0-.55-.9-1-2-1-1.367 0-2-.667-2-2.107 0-1.442.464-1.93 1.469-1.544.807.31 1.733.133 2.059-.393.325-.526-.336-.956-1.468-.956-1.359 0-2.06-.648-2.06-1.906 0-1.414.517-1.772 2-1.384 1.119.293 2 .03 2-.593 0-.615-1.35-1.117-3-1.117h-3v12h3c1.65 0 3-.45 3-1zm9.3-3.25c.82-2.338 1.81-5.038 2.202-6 .405-.995.268-1.75-.317-1.75-.566 0-1.569 1.687-2.228 3.75-1.805 5.65-2.542 5.8-3.941.805-1.346-4.808-3.731-6.544-2.556-1.86 1.142 4.55 3.388 9.305 4.396 9.305.526 0 1.626-1.913 2.445-4.25zm5.062 2.75c.784-2.044 4.597-1.894 6.346.25 1.293 1.584 1.368 1.47.793-1.195-.967-4.475-3.282-9.555-4.355-9.555-.527 0-1.627 1.912-2.446 4.25-.818 2.337-1.809 5.037-2.2 6-.398.975-.27 1.75.287 1.75.55 0 1.259-.675 1.575-1.5zm1.639-4.941c0-2.116 1.692-2.802 2.395-.972.855 2.23.787 2.413-.895 2.413-.825 0-1.5-.648-1.5-1.441zm14-9.559c0-.65-13.48-1-38.441-1-24.549 0-38.665.361-39.06 1-.407.66 12.657 1 38.442 1 25.372 0 39.059-.35 39.059-1zm-67.19-6.75c-.186-.963-.894-1.806-1.574-1.875-.68-.069-1.7-.181-2.265-.25-.663-.08-.93-5-.75-13.875.272-13.401.336-13.758 2.529-14.07 1.446-.205 2.25-1.009 2.25-2.25 0-2.475-4.548-2.65-7.172-.275-1.614 1.461-1.828 3.386-1.828 16.429 0 16.363.532 17.916 6.144 17.916 2.321 0 2.926-.397 2.665-1.75zm10.19-10.27c0-10.456.319-12.806 2.455-18.064l2.456-6.044-2.172.314c-1.471.213-2.472 1.364-3.1 3.564-1.194 4.179-2.2 4.11-3.64-.25-.783-2.373-1.769-3.5-3.062-3.5-1.837 0-1.825.197.321 5.25 1.833 4.316 2.285 7.518 2.541 18 .29 11.855.448 12.75 2.256 12.75 1.818 0 1.945-.781 1.945-12.02zm15 10.09c0-1.241-.804-2.045-2.25-2.25-2.207-.314-2.25-.581-2.25-13.82s.043-13.506 2.25-13.82c1.446-.205 2.25-1.009 2.25-2.25 0-2.475-4.548-2.65-7.172-.275-1.611 1.458-1.828 3.378-1.828 16.171 0 16.085.707 18.174 6.155 18.174 2.144 0 2.845-.476 2.845-1.93zm11-.07c0-1.1-.45-2-1-2-.625 0-1-6-1-16 0-15.333-.084-16-2-16-1.926 0-2 .667-2 18v18h3c2.333 0 3-.445 3-2zm14-.117c0-1.624-.466-1.995-2-1.593-1.896.495-2 .03-2-8.884 0-8.74.141-9.406 2-9.406 1.333 0 2-.667 2-2s-.667-2-2-2c-1.556 0-2-.667-2-3s.444-3 2-3c1.333 0 2-.667 2-2 0-1.667-.667-2-4-2h-4v36h4c3.406 0 4-.314 4-2.117zm12.8.917c.751-.752 1.2-4.488 1.2-9.997 0-8.65-.06-8.862-3.5-12.671-3.799-4.205-4.749-8.517-1.75-7.945.962.183 1.893 1.341 2.07 2.573.175 1.232.962 2.24 1.75 2.24 1.786 0 1.965-6.065.23-7.8-1.99-1.99-6.529-1.426-8.244 1.022-2.32 3.312-1.9 6.317 1.408 10.085 1.63 1.857 3.43 4.602 4 6.1 1.564 4.113 1.297 12.131-.453 13.583-1.962 1.628-2.384.395-2.738-7.99-.21-4.99-.622-6.5-1.773-6.5-2.246 0-2.665 12.837-.525 16.102 1.72 2.625 6.246 3.276 8.325 1.198zm-67.8-50.3c0-8.945.12-9.5 2.073-9.5 1.445 0 1.964-.53 1.714-1.75-.207-1.007-1.087-1.625-2.074-1.456-1.35.231-1.713-.456-1.713-3.25 0-2.877.376-3.544 2-3.544 1.145 0 2-.667 2-1.56 0-1.192-.887-1.487-3.75-1.25l-3.75.31-.276 15.75c-.266 15.24-.21 15.75 1.75 15.75 1.892 0 2.026-.627 2.026-9.5zm9.5 7.5c.349-1.1 1.474-2 2.5-2 1.025 0 2.15.9 2.5 2 .871 2.746 3.505 2.557 3.477-.25-.013-1.238-.903-8.1-1.977-15.25-1.075-7.15-1.965-13.338-1.977-13.75-.039-1.26-3.055-.834-3.545.5-.457 1.246-4.478 28.008-4.478 29.805 0 1.8 2.868.936 3.5-1.055zm1.41-5.75c-.048-.413-.014-3 .076-5.75.21-6.396 2.008-8.57 2.027-2.45.007 2.447.285 5.462.617 6.7.443 1.654.175 2.25-1.014 2.25-.889 0-1.656-.338-1.705-.75zm19.054 5.816c1.37-2.558 1.33-14.649-.057-17.24-.79-1.476-.79-2.343 0-3.133 1.621-1.622 1.324-5.78-.562-7.864-.975-1.078-3.03-1.829-5-1.829h-3.345v32h3.964c2.897 0 4.244-.521 5-1.934zm-5.964-9.15c0-6.019.319-7.978 1.25-7.671 1.84.606 3.14 9.687 1.86 13.005-1.943 5.036-3.11 3.033-3.11-5.333zm.448-12.19c-.796-2.074-.23-4.776 1.052-5.029 1.394-.275 1.9 4.303.617 5.585-.736.736-1.237.569-1.67-.556zM76.1 50.628c.09-11.637.642-11.379 2.281 1.066.909 6.9 1.496 8.727 2.89 8.994 2.13.41 2.176-1.343.307-11.797-1.134-6.345-1.126-7.79.053-9.472 3.346-4.779.469-10.541-5.264-10.541h-3.345v16c0 13.556.229 16 1.5 16 1.23 0 1.514-1.84 1.579-10.25zm.37-13.024c-.796-2.074-.23-4.776 1.052-5.029 1.394-.275 1.9 4.303.617 5.586-.736.735-1.237.568-1.67-.557zm14.552 7.2c0-14.769-.142-16.045-1.75-15.737-1.564.3-1.78 2.009-2.026 16.074-.266 15.227-.21 15.737 1.75 15.737 1.95 0 2.026-.6 2.026-16.073zm8.063 7.824c.07-9.186 1.224-8.228 2.409 2 .605 5.222 1.037 6.25 2.626 6.25 2.293 0 2.278.721.232-10.733-1.576-8.82-1.571-9.662.079-14.896.961-3.05 1.507-5.788 1.213-6.082-1.387-1.387-3.469.989-4.71 5.376l-1.369 4.835-.324-5.25c-.232-3.767-.733-5.25-1.772-5.25-1.203 0-1.447 2.701-1.447 16 0 13.556.229 16 1.5 16 1.207 0 1.512-1.612 1.563-8.25z" id="path12" fill="#fff"/></svg>