<svg xmlns="http://www.w3.org/2000/svg" version="1.1" id="svg8" width="134" height="134"><path id="path2" d="M36.238 111.559v18.833h3.029v-20.693zm9.677-6.044l-3.029 1.937v15.887c0 3.798 3.029 6.976 6.648 6.976h2.438v-3.178h-1.847c-2.437 0-4.284-1.938-4.284-4.495v-8.215h6.057v-3.178h-6.057l.074-5.735zm24.006 24.877h-3.028v-11.47c-.295-2.557-2.142-4.495-4.58-4.495-2.437 0-4.58 2.248-4.58 4.805v10.85h-3.028v-18.523h3.029v1.628c1.181-.93 3.028-1.627 4.58-1.627 4.21 0 7.607 3.487 7.607 7.982zm18.763-8.292v-1.24c0-5.116-3.62-9.533-8.2-9.533-4.58 0-8.199 4.107-8.199 9.532s3.62 9.533 8.2 9.533c2.732 0 5.465-1.628 6.943-4.108l-2.733-1.627c-.887 1.628-2.438 2.558-4.21 2.558-2.438 0-4.58-2.248-5.171-5.116h13.37zm-8.126-7.673c2.438 0 4.21 1.938 4.875 4.495H75.388c.886-2.557 2.733-4.495 5.17-4.495z" fill="#fff" fill-rule="nonzero"/><path d="M106.929 111.559h-3.915l-5.467 6.743-5.466-6.743h-3.988l7.312 9.223-7.608 9.61h3.989l5.761-7.363 5.762 7.363h3.915l-7.904-9.61z" id="path833" fill="#fff" fill-rule="nonzero"/><path d="M117.86 111.559h-6.056v-5.734l-3.029 1.937v15.888c0 3.797 3.029 6.974 6.648 6.974h2.438v-3.177h-1.847c-2.438 0-4.284-1.938-4.284-4.495v-8.215h6.057v-3.178h.074z" id="path831" fill="#fff" fill-rule="nonzero"/><path d="M24.715 110.009v20.383h3.324v-15.965h6.057v-3.178H28.04v-.62c0-2.557 1.847-4.494 4.285-4.494h7.312v-3.178h-8.273c-3.915 0-6.648 3.255-6.648 7.052" id="path829" fill="#fff" fill-rule="nonzero"/><path d="M114.867 15.29L77.7 31.185V94.77c4.41-.86 8.609-1.718 13.018-2.578V39.133l29.4-12.46z" id="path827" fill="#fff" fill-rule="nonzero" stroke-width="2.849"/><path d="M26.964 15.29l-4.41 11.6 29.399 12.457v52.844c4.41 1.718 8.609 2.578 13.019 2.578V31.185L26.967 15.29z" id="path825" fill="#fff" fill-rule="nonzero" stroke-width="2.849"/><path d="M77.7 15.29c0-4.524-3.313-8.832-8.484-8.832-5.173 0-8.49 3.447-8.49 8.832 0 4.523 3.314 8.83 8.487 8.83 5.17 0 8.484-4.523 8.484-8.83" id="path4" fill="#fff" fill-rule="nonzero" stroke-width="2.849"/></svg>