<?xml version="1.0" encoding="UTF-8" standalone="no"?>
<!-- Generator: Adobe Illustrator 16.0.0, SVG Export Plug-In . SVG Version: 6.00 Build 0)  -->

<svg
   xmlns:dc="http://purl.org/dc/elements/1.1/"
   xmlns:cc="http://creativecommons.org/ns#"
   xmlns:rdf="http://www.w3.org/1999/02/22-rdf-syntax-ns#"
   xmlns:svg="http://www.w3.org/2000/svg"
   xmlns="http://www.w3.org/2000/svg"
   xmlns:sodipodi="http://sodipodi.sourceforge.net/DTD/sodipodi-0.dtd"
   xmlns:inkscape="http://www.inkscape.org/namespaces/inkscape"
   version="1.1"
   id="Layer_2"
   x="0px"
   y="0px"
   width="60"
   height="60"
   viewBox="0 0 60 60.000001"
   enable-background="new 0 0 60 9.252"
   xml:space="preserve"
   sodipodi:docname="gemperles.svg"
   inkscape:version="0.92.4 5da689c313, 2019-01-14"><metadata
   id="metadata9"><rdf:RDF><cc:Work
       rdf:about=""><dc:format>image/svg+xml</dc:format><dc:type
         rdf:resource="http://purl.org/dc/dcmitype/StillImage" /><dc:title></dc:title></cc:Work></rdf:RDF></metadata><defs
   id="defs7" /><sodipodi:namedview
   pagecolor="#ffffff"
   bordercolor="#666666"
   borderopacity="1"
   objecttolerance="10"
   gridtolerance="10"
   guidetolerance="10"
   inkscape:pageopacity="0"
   inkscape:pageshadow="2"
   inkscape:window-width="1364"
   inkscape:window-height="734"
   id="namedview5"
   showgrid="false"
   inkscape:zoom="5.4166667"
   inkscape:cx="30"
   inkscape:cy="34.164461"
   inkscape:window-x="0"
   inkscape:window-y="33"
   inkscape:window-maximized="0"
   inkscape:current-layer="Layer_2" />
<path
   d="m 57.568,27.185 c -0.557,0 -1.025,0.205 -1.348,0.557 -0.264,0.293 -0.41,0.645 -0.41,1.055 0,0.41 0.146,0.732 0.41,1.025 0.264,0.293 0.762,0.615 1.494,0.967 0.498,0.264 0.85,0.469 1.084,0.615 0.205,0.146 0.41,0.293 0.557,0.469 0.411,0.468 0.645,0.995 0.645,1.61 0,0.469 -0.146,0.879 -0.381,1.289 -0.498,0.82 -1.318,1.23 -2.432,1.23 -0.762,0 -1.494,-0.234 -2.227,-0.674 l 0.234,-0.732 c 0.205,0.176 0.381,0.322 0.527,0.439 0.439,0.322 0.967,0.469 1.523,0.469 0.615,0 1.113,-0.205 1.494,-0.615 0.293,-0.322 0.439,-0.732 0.439,-1.201 0,-0.586 -0.234,-1.084 -0.674,-1.436 -0.176,-0.176 -0.645,-0.439 -1.377,-0.791 -0.703,-0.381 -1.23,-0.732 -1.523,-1.025 -0.381,-0.41 -0.586,-0.879 -0.586,-1.436 0,-0.439 0.117,-0.85 0.381,-1.201 0.498,-0.703 1.26,-1.055 2.285,-1.055 0.615,0 1.23,0.146 1.875,0.469 l -0.234,0.615 c -0.613,-0.409 -1.199,-0.643 -1.756,-0.643 z m -7.822,8.261 v -8.144 c 0,-0.176 0,-0.322 -0.029,-0.439 h 4.131 v 0.469 c -0.146,-0.029 -0.264,-0.059 -0.41,-0.059 h -2.871 v 3.809 h 2.783 c 0.176,0 0.352,-0.029 0.498,-0.088 v 0.469 c -0.117,0 -0.293,-0.029 -0.498,-0.029 h -2.783 v 4.014 h 2.813 c 0.059,-0.029 0.205,-0.029 0.469,-0.088 v 0.527 h -4.131 c 0.028,-0.148 0.028,-0.294 0.028,-0.441 z m -5.273,0.03 v -8.174 c 0,-0.146 0,-0.293 -0.029,-0.439 h 0.908 c -0.029,0.146 -0.059,0.293 -0.059,0.439 v 8.145 h 2.813 c 0.146,0 0.264,-0.029 0.381,-0.059 v 0.498 h -4.043 c 0.029,-0.147 0.029,-0.293 0.029,-0.41 z m -2.461,0.029 -3.398,-3.926 v 3.867 c 0,0.146 0.029,0.293 0.059,0.439 h -0.938 c 0.059,-0.146 0.059,-0.293 0.059,-0.439 v -8.144 c 0,-0.146 0,-0.293 -0.059,-0.439 h 1.963 c 0.557,0 1.025,0.088 1.465,0.293 0.41,0.176 0.732,0.41 0.967,0.762 0.264,0.381 0.381,0.82 0.381,1.289 0,0.732 -0.234,1.289 -0.703,1.699 -0.498,0.381 -1.201,0.615 -2.109,0.674 l 3.457,3.984 c 0.117,0.117 0.234,0.205 0.381,0.322 h -1.26 c -0.06,-0.117 -0.148,-0.235 -0.265,-0.381 z m -1.26,-4.57 c 0.615,-0.381 0.908,-0.908 0.908,-1.67 0,-0.322 -0.059,-0.645 -0.205,-0.938 -0.146,-0.264 -0.322,-0.498 -0.586,-0.674 -0.352,-0.264 -0.85,-0.381 -1.494,-0.381 h -0.762 v 3.984 h 0.908 c 0.44,0.001 0.85,-0.116 1.231,-0.321 z m -8.848,4.511 v -8.144 c 0,-0.176 0,-0.322 -0.029,-0.439 h 4.131 v 0.469 c -0.117,-0.029 -0.264,-0.059 -0.381,-0.059 h -2.871 v 3.809 h 2.754 c 0.205,0 0.352,-0.029 0.498,-0.088 v 0.469 c -0.117,0 -0.264,-0.029 -0.469,-0.029 h -2.783 v 4.014 h 2.783 c 0.059,-0.029 0.234,-0.029 0.469,-0.088 v 0.527 h -4.131 c 0.029,-0.148 0.029,-0.294 0.029,-0.441 z m -4.453,-3.72 h -1.084 v 3.721 c 0,0.146 0,0.293 0.029,0.439 h -0.908 c 0.029,-0.146 0.059,-0.293 0.059,-0.439 v -8.145 c 0,-0.146 -0.029,-0.293 -0.059,-0.439 h 2.344 c 0.586,0 1.113,0.146 1.611,0.381 0.762,0.41 1.143,1.055 1.143,1.963 0,0.732 -0.234,1.318 -0.732,1.758 -0.557,0.497 -1.377,0.761 -2.403,0.761 z M 29.15,27.8 c -0.38,-0.352 -0.908,-0.528 -1.582,-0.528 h -1.201 v 4.072 h 1.025 c 0.527,0 0.938,-0.088 1.26,-0.234 0.322,-0.146 0.586,-0.381 0.762,-0.703 0.234,-0.322 0.322,-0.732 0.322,-1.143 0,-0.615 -0.205,-1.113 -0.586,-1.464 z m -6.035,7.881 c 0,-0.059 0,-0.088 0,-0.146 l -1.172,-7.677 -2.578,7.646 c -0.059,0.146 -0.088,0.264 -0.088,0.381 h -0.732 c 0,-0.029 0,-0.059 0,-0.088 0,-0.059 -0.029,-0.117 -0.059,-0.205 l -2.578,-7.5 -1.26,7.412 c 0,0.029 0,0.088 0,0.146 v 0.029 c 0,0.059 0,0.117 0,0.205 h -0.439 c 0.029,-0.117 0.059,-0.264 0.117,-0.41 l 1.318,-8.232 c 0,-0.029 0,-0.029 0,-0.059 v -0.321 h 0.762 c 0.029,0.146 0.059,0.264 0.059,0.293 l 2.666,7.822 2.695,-7.852 c 0.029,-0.059 0.029,-0.146 0.029,-0.264 h 0.82 c 0,0.029 0,0.088 0,0.117 0,0.088 0,0.117 0,0.146 l 1.23,8.379 c 0.029,0.146 0.059,0.264 0.088,0.381 h -0.908 c 0.03,-0.086 0.03,-0.145 0.03,-0.203 z M 8.965,35.446 v -8.144 c 0,-0.176 -0.029,-0.322 -0.059,-0.439 h 4.131 v 0.469 C 12.92,27.303 12.803,27.273 12.656,27.273 H 9.785 v 3.809 h 2.783 c 0.176,0 0.352,-0.029 0.498,-0.088 v 0.469 c -0.117,0 -0.293,-0.029 -0.498,-0.029 H 9.785 v 4.014 h 2.783 c 0.088,-0.029 0.234,-0.029 0.498,-0.088 v 0.527 h -4.13 c 0,-0.148 0.029,-0.294 0.029,-0.441 z M 7.031,35.358 c -0.674,0.264 -1.23,0.44 -1.611,0.528 -0.41,0.058 -0.85,0.117 -1.318,0.117 -1.26,0 -2.227,-0.41 -2.959,-1.201 C 0.381,33.923 0,32.78 0,31.345 c 0,-1.553 0.439,-2.754 1.377,-3.574 0.762,-0.674 1.729,-1.025 2.959,-1.025 0.41,0 0.791,0.029 1.113,0.117 0.352,0.059 0.762,0.205 1.26,0.381 v 0.791 c -0.85,-0.527 -1.699,-0.791 -2.52,-0.791 -0.908,0 -1.67,0.322 -2.285,0.967 -0.352,0.381 -0.586,0.791 -0.732,1.26 -0.176,0.555 -0.264,1.2 -0.264,1.903 0,0.469 0.059,0.938 0.146,1.406 0.087,0.468 0.234,0.879 0.41,1.172 0.322,0.586 0.82,1.025 1.494,1.289 0.41,0.176 0.85,0.264 1.348,0.264 0.645,0 1.26,-0.146 1.816,-0.469 v -3.662 c 0,-0.117 0,-0.264 -0.029,-0.41 h 0.908 c -0.029,0.146 -0.059,0.293 -0.059,0.41 v 3.516 c 0.031,0.175 0.06,0.322 0.089,0.468 z"
   id="path2"
   style="clip-rule:evenodd;fill:#ffffff;fill-rule:evenodd"
   inkscape:connector-curvature="0" />
</svg>