<svg xmlns="http://www.w3.org/2000/svg" version="1.1" id="Layer_2" x="0" y="0" width="60" height="60" xml:space="preserve"><path d="M57.568 27.185c-.557 0-1.025.205-1.348.557-.264.293-.41.645-.41 1.055 0 .41.146.732.41 1.025.264.293.762.615 1.494.967.498.264.85.469 1.084.615.205.146.41.293.557.469.411.468.645.995.645 1.61 0 .469-.146.879-.381 1.289-.498.82-1.318 1.23-2.432 1.23-.762 0-1.494-.234-2.227-.674l.234-.732c.205.176.381.322.527.439.439.322.967.469 1.523.469.615 0 1.113-.205 1.494-.615.293-.322.439-.732.439-1.201 0-.586-.234-1.084-.674-1.436-.176-.176-.645-.439-1.377-.791-.703-.381-1.23-.732-1.523-1.025-.381-.41-.586-.879-.586-1.436 0-.439.117-.85.381-1.201.498-.703 1.26-1.055 2.285-1.055.615 0 1.23.146 1.875.469l-.234.615c-.613-.409-1.199-.643-1.756-.643zm-7.822 8.261v-8.144c0-.176 0-.322-.029-.439h4.131v.469c-.146-.029-.264-.059-.41-.059h-2.871v3.809h2.783c.176 0 .352-.029.498-.088v.469c-.117 0-.293-.029-.498-.029h-2.783v4.014h2.813c.059-.029.205-.029.469-.088v.527h-4.131c.028-.148.028-.294.028-.441zm-5.273.03v-8.174c0-.146 0-.293-.029-.439h.908c-.029.146-.059.293-.059.439v8.145h2.813c.146 0 .264-.029.381-.059v.498h-4.043c.029-.147.029-.293.029-.41zm-2.461.029l-3.398-3.926v3.867c0 .146.029.293.059.439h-.938c.059-.146.059-.293.059-.439v-8.144c0-.146 0-.293-.059-.439h1.963c.557 0 1.025.088 1.465.293.41.176.732.41.967.762.264.381.381.82.381 1.289 0 .732-.234 1.289-.703 1.699-.498.381-1.201.615-2.109.674l3.457 3.984c.117.117.234.205.381.322h-1.26a2.36 2.36 0 00-.265-.381zm-1.26-4.57c.615-.381.908-.908.908-1.67 0-.322-.059-.645-.205-.938-.146-.264-.322-.498-.586-.674-.352-.264-.85-.381-1.494-.381h-.762v3.984h.908c.44.001.85-.116 1.231-.321zm-8.848 4.511v-8.144c0-.176 0-.322-.029-.439h4.131v.469a1.734 1.734 0 00-.381-.059h-2.871v3.809h2.754c.205 0 .352-.029.498-.088v.469c-.117 0-.264-.029-.469-.029h-2.783v4.014h2.783c.059-.029.234-.029.469-.088v.527h-4.131c.029-.148.029-.294.029-.441zm-4.453-3.72h-1.084v3.721c0 .146 0 .293.029.439h-.908c.029-.146.059-.293.059-.439v-8.145c0-.146-.029-.293-.059-.439h2.344c.586 0 1.113.146 1.611.381.762.41 1.143 1.055 1.143 1.963 0 .732-.234 1.318-.732 1.758-.557.497-1.377.761-2.403.761zM29.15 27.8c-.38-.352-.908-.528-1.582-.528h-1.201v4.072h1.025c.527 0 .938-.088 1.26-.234.322-.146.586-.381.762-.703.234-.322.322-.732.322-1.143 0-.615-.205-1.113-.586-1.464zm-6.035 7.881v-.146l-1.172-7.677-2.578 7.646a1.003 1.003 0 00-.088.381h-.732v-.088c0-.059-.029-.117-.059-.205l-2.578-7.5-1.26 7.412v.38h-.439c.029-.117.059-.264.117-.41l1.318-8.232v-.38h.762c.029.146.059.264.059.293l2.666 7.822 2.695-7.852c.029-.059.029-.146.029-.264h.82v.263l1.23 8.379c.029.146.059.264.088.381h-.908c.03-.086.03-.145.03-.203zm-14.15-.235v-8.144c0-.176-.029-.322-.059-.439h4.131v.469c-.117-.029-.234-.059-.381-.059H9.785v3.809h2.783c.176 0 .352-.029.498-.088v.469c-.117 0-.293-.029-.498-.029H9.785v4.014h2.783c.088-.029.234-.029.498-.088v.527h-4.13c0-.148.029-.294.029-.441zm-1.934-.088c-.674.264-1.23.44-1.611.528-.41.058-.85.117-1.318.117-1.26 0-2.227-.41-2.959-1.201C.381 33.923 0 32.78 0 31.345c0-1.553.439-2.754 1.377-3.574.762-.674 1.729-1.025 2.959-1.025.41 0 .791.029 1.113.117.352.059.762.205 1.26.381v.791c-.85-.527-1.699-.791-2.52-.791-.908 0-1.67.322-2.285.967a3.225 3.225 0 00-.732 1.26c-.176.555-.264 1.2-.264 1.903 0 .469.059.938.146 1.406.087.468.234.879.41 1.172.322.586.82 1.025 1.494 1.289.41.176.85.264 1.348.264.645 0 1.26-.146 1.816-.469v-3.662c0-.117 0-.264-.029-.41h.908c-.029.146-.059.293-.059.41v3.516c.031.175.06.322.089.468z" id="path2" clip-rule="evenodd" fill="#fff" fill-rule="evenodd"/></svg>