<svg xmlns="http://www.w3.org/2000/svg" version="1.1" id="svg2" width="225" height="225"><g id="g28" transform="translate(-.211 -1.791)" fill="#fff"><path d="M31.646 118.548C25.881 113.205 29.606 103 37.32 103c7.007 0 11.369 6.833 8.233 12.897-2.914 5.636-9.36 6.864-13.907 2.65z" id="path32"/><path d="M31.344 140.995C9.894 136.561.506 111.745 13.505 93.84c4.856-6.687 14.265-11.22 23.363-11.256 8.256-.033 15.672 2.428 20.762 6.887l3.87 3.39-3.41 6.497-3.409 6.497-4.24-4.361C39.044 89.764 21.77 96.094 21.77 112c0 11.416 10.647 19.404 20.73 15.554 5.673-2.167 7.33-4.145 15.59-18.609 3.91-6.845 8.248-13.955 9.64-15.8 5.95-7.885 19.017-12.438 29.335-10.225 7.742 1.66 11.474 3.772 16.453 9.31L118 97.216V83h13.879l.31 18.93c.286 17.382.482 19.16 2.407 21.75 4.685 6.306 15.121 6.33 19.604.045 2.172-3.045 2.317-4.27 2.61-21.975l.311-18.75H171l.032 5.75c.03 5.297.147 5.593 1.497 3.75 5.605-7.65 10.09-9.741 21.095-9.833 6.79-.056 8.923.344 12.99 2.438 5.082 2.614 9.72 8.255 10.81 13.145l.614 2.75h-6.993c-6.694 0-7.057-.123-8.482-2.879-1.748-3.38-3.314-4.121-8.71-4.121-5.512 0-7.853 1.465-7.853 4.913 0 3.986 1.626 4.97 12.73 7.705 5.374 1.323 10.867 3.216 12.208 4.206 6.85 5.056 8.705 12.732 4.877 20.176-7.446 14.476-38.722 13.71-44.856-1.099-1.2-2.896-2.959-3.934-2.959-1.745 0 .635-1.19 2.715-2.643 4.62-3.697 4.848-11.93 8.428-19.701 8.568-12.109.217-20.454-4.163-24.72-12.975l-2.242-4.633-1.464 2.882c-5.378 10.59-18.724 16.754-31.168 14.394-6.5-1.233-13.15-4.438-16.44-7.923l-2.446-2.589 3.58-6.168 3.581-6.169 4.23 4.353c5.212 5.362 10.482 7.087 16.613 5.435 4.237-1.14 9.82-6.006 9.82-8.557 0-1.05 1.608-1.394 6.5-1.394h6.5v-12l-6.25-.023c-6.012-.022-6.31-.143-7.808-3.185-2.476-5.025-6.203-7.22-12.258-7.22-8.653 0-10.867 1.973-20.111 17.931-10.659 18.399-11.185 19.138-15.975 22.41-6.893 4.707-16.416 6.703-24.254 5.083zm170.345-13.585c3.257-4.453.695-6.682-10.694-9.304-10.662-2.455-13.84-3.945-17.376-8.147L171 106.847V122h5.763c5.017 0 5.89.291 6.75 2.25 2.35 5.359 14.965 7.552 18.176 3.16z" id="path30"/></g></svg>