<?xml version="1.0" encoding="UTF-8" standalone="no"?>
<!-- Created with Inkscape (http://www.inkscape.org/) -->

<svg
   xmlns:dc="http://purl.org/dc/elements/1.1/"
   xmlns:cc="http://creativecommons.org/ns#"
   xmlns:rdf="http://www.w3.org/1999/02/22-rdf-syntax-ns#"
   xmlns:svg="http://www.w3.org/2000/svg"
   xmlns="http://www.w3.org/2000/svg"
   xmlns:sodipodi="http://sodipodi.sourceforge.net/DTD/sodipodi-0.dtd"
   xmlns:inkscape="http://www.inkscape.org/namespaces/inkscape"
   version="1.1"
   id="svg2"
   width="225"
   height="225"
   viewBox="0 0 225 225"
   sodipodi:docname="ocus.svg"
   inkscape:version="0.92.4 5da689c313, 2019-01-14">
  <metadata
     id="metadata8">
    <rdf:RDF>
      <cc:Work
         rdf:about="">
        <dc:format>image/svg+xml</dc:format>
        <dc:type
           rdf:resource="http://purl.org/dc/dcmitype/StillImage" />
        <dc:title></dc:title>
      </cc:Work>
    </rdf:RDF>
  </metadata>
  <defs
     id="defs6" />
  <sodipodi:namedview
     pagecolor="#ffffff"
     bordercolor="#666666"
     borderopacity="1"
     objecttolerance="10"
     gridtolerance="10"
     guidetolerance="10"
     inkscape:pageopacity="0"
     inkscape:pageshadow="2"
     inkscape:window-width="1364"
     inkscape:window-height="734"
     id="namedview4"
     showgrid="false"
     inkscape:zoom="2.0977778"
     inkscape:cx="93.440674"
     inkscape:cy="100.60596"
     inkscape:window-x="0"
     inkscape:window-y="33"
     inkscape:window-maximized="0"
     inkscape:current-layer="svg2" />
  <g
     id="g28"
     transform="translate(-0.21148934,-1.7911142)"
     style="fill:#ffffff">
    <path
       style="fill:#ffffff"
       d="M 31.646023,118.54775 C 25.881215,113.20511 29.605249,103 37.319687,103 c 7.007009,0 11.369236,6.8333 8.233387,12.89737 -2.914075,5.6352 -9.360711,6.86378 -13.907051,2.65038 z"
       id="path32"
       inkscape:connector-curvature="0"
       sodipodi:nodetypes="ssss" />
    <path
       style="fill:#ffffff"
       d="M 31.343746,140.9955 C 9.8931758,136.56114 0.50562769,111.74522 13.505438,93.840051 18.360559,87.152895 27.770315,82.619096 36.867774,82.583634 c 8.255911,-0.03218 15.671996,2.42796 20.762636,6.8876 L 61.5,92.861177 58.090538,99.35829 54.681076,105.8554 50.441805,101.49351 C 39.042724,89.764722 21.769231,96.094245 21.769231,112 c 0,11.41552 10.647081,19.40415 20.72954,15.55362 5.673339,-2.16667 7.33013,-4.14413 15.591031,-18.60865 3.909129,-6.84473 8.247112,-13.954797 9.639962,-15.800141 C 73.68016,85.261331 86.7457,80.707426 97.064489,82.92041 c 7.741941,1.660349 11.473521,3.771885 16.452561,9.309774 L 118,97.216307 V 90.108154 83 h 6.93939 6.93939 l 0.31061,18.93004 c 0.2852,17.38149 0.48203,19.16072 2.40612,21.75 4.68569,6.3056 15.12161,6.32953 19.6042,0.045 2.1721,-3.04528 2.3176,-4.26987 2.6109,-21.975 l 0.31061,-18.75 H 164.06061 171 l 0.0318,5.75 c 0.0293,5.29727 0.14718,5.592529 1.4971,3.75 5.60503,-7.650419 10.09083,-9.7413 21.09495,-9.832598 6.79043,-0.05634 8.92271,0.343702 12.99085,2.437241 5.08092,2.61473 9.71943,8.255297 10.81007,13.145357 l 0.61333,2.75 h -6.99337 c -6.69358,0 -7.05719,-0.12341 -8.48206,-2.878819 C 200.81467,94.74094 199.24868,94 193.85247,94 188.34137,94 186,95.464833 186,98.912739 c 0,3.986251 1.6262,4.970541 12.73005,7.705101 5.37347,1.32334 10.86715,3.21599 12.20816,4.2059 6.85006,5.05657 8.70517,12.73224 4.87636,20.17626 -7.44546,14.47552 -38.72174,13.70938 -44.85548,-1.09878 C 169.75963,127.00549 168,125.96745 168,128.15561 c 0,0.63558 -1.18937,2.71495 -2.64304,4.62081 -3.69724,4.84734 -11.93067,8.42767 -19.70141,8.56722 -12.10835,0.21745 -20.45307,-4.16248 -24.71876,-12.97422 l -2.2428,-4.633 -1.46361,2.88179 c -5.37864,10.59033 -18.724755,16.75343 -31.168839,14.39346 -6.498675,-1.23245 -13.149623,-4.43748 -16.440222,-7.92239 l -2.44491,-2.58928 3.580438,-6.16826 3.580437,-6.16825 4.230091,4.35244 c 5.211746,5.36249 10.481197,7.08662 16.612722,5.43557 C 99.416609,126.81073 105,121.94525 105,119.39424 105,118.34492 106.60801,118 111.5,118 h 6.5 v -6 -6 l -6.25,-0.0227 c -6.0119,-0.0218 -6.30936,-0.1432 -7.80822,-3.18554 -2.47538,-5.024481 -6.203272,-7.220321 -12.257981,-7.220321 -8.653295,0 -10.866445,1.973323 -20.111104,17.931771 -10.658299,18.39873 -11.184846,19.13735 -15.974795,22.40885 -6.893142,4.70796 -16.41581,6.70383 -24.254154,5.08345 z M 201.68919,127.41038 c 3.25664,-4.45372 0.6953,-6.68219 -10.6945,-9.30462 -10.66218,-2.45491 -13.84008,-3.94487 -17.37557,-8.14657 L 171,106.84655 V 114.42327 122 h 5.76287 c 5.01716,0 5.89061,0.29115 6.75,2.25 2.35108,5.35889 14.965,7.55212 18.17632,3.16038 z"
       id="path30"
       inkscape:connector-curvature="0" />
  </g>
</svg>
