<svg xmlns="http://www.w3.org/2000/svg" version="1.1" id="svg2" width="200" height="200"><path d="M3.868 165.032c-.41-.41-.745-23.79-.745-51.955v-51.21h19.072v10.668l3.443-3.922c4.739-5.396 11.182-8.052 19.424-8.004 16.523.095 28.33 11.957 29.95 30.09 2.07 23.168-5.209 39.918-19.703 45.341-10.727 4.014-22.624 2.067-28.876-4.724l-2.649-2.877-.53 18.366-.53 18.365-9.056.303c-4.98.167-9.39-.032-9.8-.441zm43.612-45.625c9.853-7.147 10.648-30.646 1.317-38.934-3.215-2.857-13.436-3.55-17.946-1.218-9.16 4.737-11.767 27.594-4.24 37.163 4.682 5.951 14.79 7.399 20.869 2.99zm3.542 38.082c.29-7.71.462-8.233 2.802-8.564 6.303-.893 10.915 2.975 8.633 7.24-.841 1.571-2.219 2.118-5.335 2.118-4.095 0-4.2.094-4.2 3.709 0 2.04-.498 3.708-1.105 3.708-.697 0-.99-3.024-.795-8.211zm9.846-3.444c0-2.296-.53-2.692-3.974-2.977-3.812-.316-3.973-.196-3.973 2.977s.16 3.294 3.973 2.978c3.444-.285 3.974-.682 3.974-2.978zm22.045 10.596c1.875-5.984 6.397-15.793 7.086-15.367 1.039.642 6.378 13.856 6.32 15.643-.023.722-.753.002-1.623-1.6-1.255-2.315-2.336-2.914-5.255-2.914-2.02 0-3.674.385-3.674.857 0 .47-.755 1.782-1.676 2.913-1.047 1.284-1.489 1.46-1.178.468zm9.21-6.289c0-.544-.51-2.332-1.133-3.973-1.202-3.16-1.997-2.586-3.577 2.58-.625 2.043-.34 2.384 1.99 2.384 1.497 0 2.72-.446 2.72-.99zm27.187 6.177c-.444-.935-.663-4.75-.488-8.476.316-6.7.356-6.78 3.558-7.092 4.99-.488 8.946 1.42 8.946 4.316 0 1.355-.518 2.982-1.151 3.615-.83.83-.83 1.352 0 1.864.633.392 1.151 2.21 1.151 4.04 0 3.823-1.739 2.812-2.294-1.334-.295-2.209-1.003-2.703-4.26-2.974-3.82-.317-3.914-.235-4.28 3.709-.262 2.805-.622 3.515-1.182 2.332zm8.221-7.948c.922-.354 1.676-1.784 1.676-3.179 0-2.251-.474-2.535-4.238-2.535-4.002 0-4.238.176-4.238 3.178 0 2.656.422 3.179 2.562 3.179 1.41 0 3.317-.29 4.238-.643zm27.105 1.235c0-4.633.447-8.009 1.06-8.009.604 0 1.06 3.158 1.06 7.354 0 4.045-.478 7.65-1.06 8.01-.671.414-1.06-2.285-1.06-7.355zm25.953 5.759c-1.058-1.17-1.598-2.452-1.2-2.85.399-.398 1.456.32 2.35 1.596 1.872 2.672 5.936 3.05 7.862.73 1.821-2.194.056-4.098-5.285-5.698-3.443-1.031-4.251-1.762-4.251-3.843 0-2.55 2.62-4.762 5.64-4.762 2.226 0 6.704 3.895 5.67 4.932-.48.483-1.338.047-1.906-.968-1.239-2.213-6.81-2.494-7.619-.385-.635 1.656 1.153 3.837 3.145 3.837.73 0 2.542.554 4.026 1.23 2.904 1.323 3.618 4.844 1.427 7.035-2.018 2.017-7.706 1.525-9.86-.854zm-25.13-27.046c-2.892-.926-6.583-3.228-8.742-5.45l-3.736-3.847v8.801H123.91V36.437h19.07v35.128l2.539-3.018c6.372-7.572 19.178-9.892 30.733-5.57 24.727 9.252 25.694 60.122 1.366 71.898-6.136 2.971-15.796 3.692-22.16 1.654zm11.891-17.25c10.35-7.412 10.224-33.018-.192-39.369-7.857-4.79-18.345-1.651-22.096 6.612-4.285 9.44-2.117 26.375 4.083 31.89 4.569 4.062 13.171 4.472 18.205.866zm-78.758 16.048c-.388-.389-.706-16.838-.706-36.554V62.926h21.19v73.107h-9.889c-5.439 0-10.206-.318-10.595-.706zm.037-81.547c-.409-.409-.743-4.478-.743-9.043v-8.3h21.276l-.308 8.742-.307 8.74-9.588.302c-5.272.166-9.921-.032-10.33-.441z" id="path28" fill="#fff" stroke-width="1.06"/></svg>