<?xml version="1.0" encoding="UTF-8" standalone="no"?>
<!-- Created with Inkscape (http://www.inkscape.org/) -->

<svg
   xmlns:dc="http://purl.org/dc/elements/1.1/"
   xmlns:cc="http://creativecommons.org/ns#"
   xmlns:rdf="http://www.w3.org/1999/02/22-rdf-syntax-ns#"
   xmlns:svg="http://www.w3.org/2000/svg"
   xmlns="http://www.w3.org/2000/svg"
   xmlns:sodipodi="http://sodipodi.sourceforge.net/DTD/sodipodi-0.dtd"
   xmlns:inkscape="http://www.inkscape.org/namespaces/inkscape"
   version="1.1"
   id="svg2"
   width="200"
   height="200"
   viewBox="0 0 200 200"
   sodipodi:docname="pib.svg"
   inkscape:version="0.92.4 5da689c313, 2019-01-14">
  <metadata
     id="metadata8">
    <rdf:RDF>
      <cc:Work
         rdf:about="">
        <dc:format>image/svg+xml</dc:format>
        <dc:type
           rdf:resource="http://purl.org/dc/dcmitype/StillImage" />
        <dc:title />
      </cc:Work>
    </rdf:RDF>
  </metadata>
  <defs
     id="defs6" />
  <sodipodi:namedview
     pagecolor="#ffffff"
     bordercolor="#666666"
     borderopacity="1"
     objecttolerance="10"
     gridtolerance="10"
     guidetolerance="10"
     inkscape:pageopacity="0"
     inkscape:pageshadow="2"
     inkscape:window-width="1364"
     inkscape:window-height="734"
     id="namedview4"
     showgrid="false"
     inkscape:zoom="1.6666667"
     inkscape:cx="109.7418"
     inkscape:cy="76.012143"
     inkscape:window-x="0"
     inkscape:window-y="33"
     inkscape:window-maximized="0"
     inkscape:current-layer="svg2" />
  <path
     style="fill:#ffffff;stroke-width:1.05953085"
     d="M 3.8676717,165.03193 C 3.458216,164.62248 3.123203,141.24267 3.123203,113.0768 V 61.866153 h 9.535777 9.535778 v 5.334523 5.334515 l 3.443475,-3.921949 c 4.738328,-5.39671 11.181472,-8.051944 19.423351,-8.004402 16.52369,0.09536 28.33,11.956781 29.950435,30.090322 C 77.0823,113.86669 69.80327,130.61695 55.30855,136.04012 44.581659,140.05357 32.684558,138.10738 26.432881,131.3165 l -2.648827,-2.87728 -0.529765,18.36558 -0.529766,18.3656 -9.056191,0.30301 c -4.980897,0.16664 -9.391194,-0.032 -9.8006603,-0.44148 z M 47.479655,119.40714 C 57.332836,112.25982 58.127993,88.761481 48.79715,80.472676 45.581623,77.616245 35.361441,76.922888 30.851283,79.25518 c -9.159749,4.736696 -11.767371,27.59345 -4.239786,37.16322 4.681039,5.95099 14.788761,7.39861 20.868158,2.98874 z m 3.542754,38.08167 c 0.290534,-7.70938 0.461775,-8.23293 2.801155,-8.56406 6.303584,-0.89227 10.915615,2.97523 8.633365,7.23964 -0.841342,1.57206 -2.218467,2.11906 -5.334929,2.11906 -4.09462,0 -4.200849,0.0938 -4.200849,3.70836 0,2.0396 -0.496845,3.70836 -1.104094,3.70836 -0.697426,0 -0.990121,-3.02453 -0.794648,-8.21136 z m 9.845224,-3.44348 c 0,-2.29606 -0.529162,-2.69262 -3.973241,-2.97767 -3.812764,-0.31556 -3.973241,-0.1953 -3.973241,2.97767 0,3.17297 0.160477,3.29323 3.973241,2.97767 3.444079,-0.28505 3.973241,-0.68161 3.973241,-2.97767 z m 22.045318,10.59531 c 1.874766,-5.98389 6.397447,-15.79232 7.085719,-15.36694 1.039134,0.64222 6.378534,13.85633 6.320821,15.64297 -0.02331,0.72229 -0.753739,0.002 -1.623127,-1.60044 -1.255713,-2.31463 -2.336223,-2.91371 -5.255241,-2.91371 -2.020981,0 -3.674516,0.38565 -3.674516,0.85702 0,0.47136 -0.754111,1.78253 -1.675786,2.91371 -1.04635,1.28417 -1.488768,1.45974 -1.17787,0.46739 z m 9.210841,-6.28821 c 0,-0.54481 -0.510313,-2.33277 -1.134037,-3.97324 -1.201371,-3.15979 -1.996601,-2.58625 -3.577082,2.57985 -0.624901,2.04259 -0.339824,2.38395 1.99089,2.38395 1.496132,0 2.720229,-0.44576 2.720229,-0.99056 z m 27.185758,6.17661 c -0.44362,-0.93549 -0.66282,-4.7498 -0.48714,-8.47625 0.31586,-6.7 0.35542,-6.77887 3.55762,-7.09205 4.99067,-0.4881 8.9464,1.42056 8.9464,4.3167 0,1.35472 -0.51833,2.98147 -1.15185,3.61499 -0.82945,0.82945 -0.82945,1.35111 0,1.86373 0.63352,0.39154 1.15185,2.20948 1.15185,4.03986 0,3.82325 -1.73921,2.812 -2.29422,-1.33397 -0.2957,-2.20878 -1.00348,-2.70279 -4.26031,-2.97365 -3.81918,-0.31762 -3.91403,-0.23545 -4.28075,3.70836 -0.26082,2.80477 -0.6207,3.51513 -1.1816,2.33228 z m 8.22186,-7.94824 c 0.92178,-0.35371 1.67596,-1.78408 1.67596,-3.17859 0,-2.2517 -0.47434,-2.53547 -4.23813,-2.53547 -4.00267,0 -4.23812,0.17659 -4.23812,3.17859 0,2.65548 0.42167,3.17859 2.56217,3.17859 1.4092,0 3.31635,-0.2894 4.23812,-0.64312 z m 27.1047,1.23542 c 0,-4.63299 0.44662,-8.00901 1.05953,-8.00901 0.60459,0 1.05953,3.15775 1.05953,7.35418 0,4.0448 -0.47679,7.64886 -1.05953,8.00901 -0.67066,0.41449 -1.05953,-2.28464 -1.05953,-7.35418 z m 25.95262,5.75839 c -1.05798,-1.16905 -1.5977,-2.45145 -1.19937,-2.84978 0.39832,-0.39832 1.45548,0.31978 2.34923,1.59579 1.87209,2.67279 5.93673,3.05057 7.86203,0.73072 1.82154,-2.19482 0.0563,-4.09817 -5.28506,-5.69847 -3.44237,-1.03135 -4.25071,-1.76209 -4.25071,-3.84256 0,-2.55036 2.61998,-4.76263 5.64038,-4.76263 2.22564,0 6.70369,3.89571 5.67011,4.93274 -0.48076,0.48236 -1.33884,0.0466 -1.90683,-0.96833 -1.23833,-2.21276 -6.80882,-2.4944 -7.61822,-0.38517 -0.63531,1.65561 1.15255,3.83747 3.1445,3.83747 0.73014,0 2.54194,0.55332 4.02622,1.22961 2.90414,1.32322 3.61837,4.8436 1.42724,7.03473 -2.01776,2.01776 -7.70648,1.52495 -9.85952,-0.85412 z m -25.13026,-27.04593 c -2.89147,-0.92599 -6.58277,-3.22738 -8.74113,-5.44977 l -3.73607,-3.84691 v 4.40065 4.40066 h -9.53578 -9.53578 V 86.235359 36.437413 h 9.53578 9.53578 V 54.00097 71.564512 l 2.53871,-3.017077 c 6.37154,-7.572157 19.17757,-9.892921 30.73284,-5.569541 24.72695,9.251537 25.69384,60.120806 1.36658,71.897426 -6.1367,2.97073 -15.79688,3.69144 -22.16093,1.65336 z m 11.89201,-17.25028 c 10.34867,-7.41141 10.22326,-33.017538 -0.19281,-39.368006 -7.85652,-4.789959 -18.34455,-1.651607 -22.09567,6.611737 -4.2855,9.440505 -2.11708,26.374439 4.08342,31.888979 4.56832,4.06293 13.1707,4.47275 18.20506,0.86729 z m -78.758454,16.04855 c -0.388498,-0.38849 -0.706358,-16.8377 -0.706358,-36.553814 V 62.925681 h 10.595309 10.595303 v 36.553813 36.553816 h -9.888949 c -5.438929,0 -10.206818,-0.31786 -10.595305,-0.70636 z m 0.03698,-81.546935 c -0.408809,-0.408809 -0.743292,-4.478128 -0.743292,-9.042947 v -8.299655 h 10.638155 10.638151 l -0.30773,8.74113 -0.30773,8.741129 -9.587131,0.301818 c -5.272922,0.165997 -9.921613,-0.03263 -10.330423,-0.441475 z"
     id="path28"
     inkscape:connector-curvature="0" />
</svg>
