<?xml version="1.0" encoding="UTF-8" standalone="no"?>
<!-- Created with Inkscape (http://www.inkscape.org/) -->

<svg
   xmlns:dc="http://purl.org/dc/elements/1.1/"
   xmlns:cc="http://creativecommons.org/ns#"
   xmlns:rdf="http://www.w3.org/1999/02/22-rdf-syntax-ns#"
   xmlns:svg="http://www.w3.org/2000/svg"
   xmlns="http://www.w3.org/2000/svg"
   xmlns:sodipodi="http://sodipodi.sourceforge.net/DTD/sodipodi-0.dtd"
   xmlns:inkscape="http://www.inkscape.org/namespaces/inkscape"
   version="1.1"
   id="svg2"
   width="400"
   height="400"
   viewBox="0 0 400 400"
   sodipodi:docname="rocket-school.svg"
   inkscape:version="0.92.4 5da689c313, 2019-01-14">
  <metadata
     id="metadata8">
    <rdf:RDF>
      <cc:Work
         rdf:about="">
        <dc:format>image/svg+xml</dc:format>
        <dc:type
           rdf:resource="http://purl.org/dc/dcmitype/StillImage" />
        <dc:title></dc:title>
      </cc:Work>
    </rdf:RDF>
  </metadata>
  <defs
     id="defs6" />
  <sodipodi:namedview
     pagecolor="#ffffff"
     bordercolor="#666666"
     borderopacity="1"
     objecttolerance="10"
     gridtolerance="10"
     guidetolerance="10"
     inkscape:pageopacity="0"
     inkscape:pageshadow="2"
     inkscape:window-width="1364"
     inkscape:window-height="734"
     id="namedview4"
     showgrid="false"
     inkscape:zoom="1.1490485"
     inkscape:cx="256.13669"
     inkscape:cy="157.67552"
     inkscape:window-x="0"
     inkscape:window-y="33"
     inkscape:window-maximized="0"
     inkscape:current-layer="svg2" />
  <path
     id="path94"
     style="fill:#ffffff;stroke-width:1.49463069"
     d="m 164.71112,117.6465 c 9.39799,-1.50497 10.09321,-1.93034 21.29849,-13.03165 6.37086,-6.31177 11.58339,-12.094824 11.58339,-12.851272 0,-1.816589 -21.57062,0.02436 -25.85677,2.206778 -3.79615,1.932901 -24.96068,22.364334 -24.96068,24.096104 0,1.58409 6.34948,1.43542 17.93557,-0.41996 z m 61.623,-11.49969 C 250.63464,81.778429 252.60703,78.893957 255.1133,64.059493 l 1.10667,-6.550353 -5.77305,0.952125 c -15.73848,2.595695 -16.74558,3.278367 -42.38589,28.731464 l -24.65579,24.475741 8.91539,9.0094 c 4.90345,4.95516 9.28059,9.00938 9.72699,9.00938 0.44639,0 11.37531,-10.5932 24.2865,-23.54044 z m -30.52216,30.57113 3.22395,-3.43173 -9.39356,-9.31005 -9.39354,-9.31006 -3.5778,3.8084 -3.57779,3.80838 8.84019,8.93339 c 4.86209,4.91337 9.24843,8.93339 9.74739,8.93339 0.49899,0 2.35801,-1.54427 4.13116,-3.43172 z m -19.46741,17.04849 c 10.49178,-5.35251 11.99864,-11.924 4.65268,-20.29059 -6.33223,-7.212 -13.08757,-7.36955 -18.25232,-0.42568 -4.27653,5.74968 -13.3106,27.77502 -12.1576,29.64062 0.85563,1.38443 15.48807,-3.68538 25.75724,-8.92435 z m 31.29519,2.45052 c 5.89557,-5.95985 11.42673,-12.72728 12.29145,-15.03876 2.19055,-5.85556 3.81983,-24.94262 2.12912,-24.94262 -0.75386,0 -6.53483,5.21252 -12.84658,11.58339 -11.10131,11.20529 -11.52669,11.90052 -13.03167,21.29848 -1.85536,11.58611 -2.00403,17.93558 -0.41994,17.93558 0.6371,0 5.98203,-4.87623 11.87762,-10.83607 z m -24.68673,56.9975 c -11.00224,-1.83131 -28.03595,-8.69479 -38.01148,-15.31616 -11.27447,-7.48358 -26.59496,-23.98902 -33.02673,-35.58118 -9.21151,-16.60222 -12.231102,-29.17486 -12.144352,-50.56543 0.0665,-16.409164 0.578752,-20.138058 4.208792,-30.639931 11.29631,-32.680876 38.5431,-58.481952 71.1943,-67.416779 15.45905,-4.230283 40.82438,-3.604451 56.08015,1.383654 52.48618,17.16117 82.05255,70.169486 68.65471,123.088156 -7.03889,27.8021 -27.09568,52.50319 -53.02507,65.30341 -20.85671,10.29607 -41.61053,13.45936 -63.93032,9.74426 z" />
  <path
     style="fill:#ffffff;stroke-width:1.27484262"
     d="M 63.378971,385.79953 C 51.655494,381.49687 47.564422,374.76835 54.077197,370.501 c 2.88734,-1.89187 3.484438,-1.79734 9.88003,1.56417 8.456439,4.44468 18.11731,4.95377 20.932991,1.10308 0.995231,-1.36105 1.809499,-2.89769 1.809499,-3.41477 0,-2.38483 -4.687048,-5.09363 -13.11994,-7.58245 -15.948854,-4.70703 -20.03076,-8.66542 -20.021199,-19.41533 0.01301,-14.58229 14.81478,-22.15593 32.839715,-16.80309 10.528759,3.12671 14.661777,11.51577 7.321191,14.86036 -2.179317,0.99296 -4.021529,0.67686 -8.058776,-1.38279 -6.9887,-3.56538 -16.207061,-3.62671 -18.08363,-0.12035 -2.261965,4.22654 0.463941,7.24164 8.600968,9.51345 17.700526,4.94187 23.270096,9.66108 23.270096,19.71723 0,7.41645 -3.821812,13.76375 -10.224148,16.9804 -5.400794,2.71344 -18.81674,2.85808 -25.845023,0.27859 z"
     id="path92"
     inkscape:connector-curvature="0" />
  <path
     style="fill:#ffffff;stroke-width:1.27484262"
     d="m 121.76073,385.74548 c -16.30846,-8.50347 -18.26495,-31.04805 -3.66112,-42.18694 9.10465,-6.94443 28.98782,-5.10832 32.6908,3.01885 1.15578,2.53667 0.92569,3.49838 -1.39139,5.81546 -2.54814,2.54814 -3.11675,2.63429 -6.92218,1.04882 -7.88773,-3.28625 -12.94004,-3.19594 -17.009,0.30404 -3.20736,2.75888 -3.70995,4.08461 -3.70995,9.78616 0,5.64534 0.51505,7.03801 3.5769,9.67171 4.19828,3.6112 10.92702,4.07353 15.51688,1.06613 3.72091,-2.43803 8.1946,-1.97054 10.09088,1.05446 1.78107,2.84126 0.12914,5.66702 -5.58951,9.56132 -5.16374,3.51642 -17.62642,3.97072 -23.59231,0.86001 z"
     id="path90"
     inkscape:connector-curvature="0" />
  <path
     style="fill:#ffffff;stroke-width:1.27484262"
     d="m 162.62513,384.92051 c -1.64868,-2.35378 -1.98454,-7.5319 -1.98454,-30.59619 0,-26.06308 0.1561,-27.91899 2.54968,-30.31257 3.22631,-3.22631 5.69759,-3.22631 8.92389,0 2.10173,2.10172 2.5497,4.24949 2.5497,12.22434 v 9.67464 l 3.92234,-3.30043 c 3.08054,-2.59211 5.29671,-3.30044 10.32622,-3.30044 5.59301,0 6.95711,0.55323 10.77296,4.36908 l 4.36908,4.36907 -0.35333,18.86769 -0.35332,18.86768 -3.46721,1.21778 c -2.74615,0.96452 -4.0055,0.73064 -6.05551,-1.1246 -2.26948,-2.05385 -2.58829,-3.89858 -2.58829,-14.97701 0,-12.00208 -1.13229,-17.00255 -4.33408,-19.14044 -2.59271,-1.7312 -7.11932,-0.99585 -9.68918,1.57402 -2.23622,2.23622 -2.54968,4.24948 -2.54968,16.37538 0,11.77506 -0.3458,14.13861 -2.33137,15.93553 -3.24642,2.93798 -7.35737,2.6316 -9.70736,-0.7235 z"
     id="path88"
     inkscape:connector-curvature="0" />
  <path
     id="path84"
     style="fill:#ffffff;stroke-width:1.27484262"
     d="m 247.97341,373.20299 c 8.39504,-8.39506 3.42133,-22.41955 -7.95098,-22.41955 -6.20317,0 -9.95136,2.639 -11.82906,8.32852 -2.92203,8.85384 2.77671,17.08676 11.86411,17.14 3.44082,0.0201 5.72758,-0.86063 7.91593,-3.04897 z m -20.8265,11.81543 c -15.92782,-7.88405 -17.3232,-31.76323 -2.43193,-41.61781 9.92107,-6.56546 27.13561,-5.00552 34.25346,3.10394 7.33559,8.35755 8.22212,21.49511 2.07711,30.78087 -6.60639,9.98291 -22.17723,13.53495 -33.89864,7.733 z" />
  <path
     id="path80"
     style="fill:#ffffff;stroke-width:1.27484262"
     d="m 306.0707,372.55384 c 8.12106,-8.12107 2.59711,-21.7704 -8.81057,-21.7704 -4.11215,0 -5.71508,0.74986 -8.38455,3.92235 -10.50276,12.48183 5.72127,29.32192 17.19512,17.84805 z m -20.19031,13.093 c -12.71183,-6.26611 -17.72496,-22.68298 -10.53626,-34.50384 4.38822,-7.21585 10.91492,-11.03724 19.81928,-11.60423 4.40403,-0.28042 10.03412,0.15903 12.51129,0.97657 7.9383,2.61986 16.13151,14.31 16.13151,23.01653 0,8.27688 -6.07357,17.62396 -14.11862,21.72824 -6.06768,3.09549 -17.92141,3.28804 -23.8072,0.38673 z" />
  <path
     style="fill:#ffffff;stroke-width:1.27484262"
     d="m 334.85418,385.42253 c -1.83251,-2.02489 -2.10986,-6.12673 -2.10986,-31.20425 v -28.87291 l 3.23933,-2.12248 c 4.5468,-2.97918 9.09711,-0.79596 10.15738,4.87344 0.43219,2.31105 0.60656,15.86615 0.38748,30.12245 -0.36778,23.93184 -0.5882,26.05922 -2.87297,27.72784 -3.34956,2.44625 -6.27067,2.2723 -8.80136,-0.52409 z"
     id="path78"
     inkscape:connector-curvature="0" />
  <path
     id="path74"
     style="fill:#ffffff;stroke-width:1.27484262"
     d="m 90.431716,274.75839 c 3.277302,-4.16642 3.337258,-6.97373 0.230887,-10.80995 -2.062657,-2.54728 -3.813883,-3.0487 -12.111004,-3.46767 l -9.699678,-0.48983 v 9.06324 9.06324 h 9.468791 c 8.710859,0 9.680288,-0.26886 12.111004,-3.35903 z m -32.769713,34.52039 c -2.776772,-1.94493 -2.83335,-2.52559 -2.83335,-29.07772 0,-21.46101 0.378182,-27.60759 1.819226,-29.5678 1.646077,-2.23911 3.384681,-2.46372 18.267321,-2.35996 14.579405,0.10161 17.029041,0.44119 21.561475,2.98855 5.926255,3.33076 8.916435,7.78676 10.071205,15.00823 1.07269,6.7082 -2.8905,15.97496 -8.21766,19.2146 l -3.841075,2.33588 5.617985,6.94073 c 6.4245,7.93713 7.09208,11.71659 2.59054,14.66611 -4.661085,3.05406 -7.399115,1.44852 -15.445794,-9.05711 -7.090368,-9.2571 -7.424504,-9.50445 -12.839882,-9.50445 h -5.560073 v 7.64906 c 0,5.94927 -0.566591,8.21566 -2.549685,10.19874 -3.068444,3.06846 -4.895625,3.18796 -8.640233,0.56514 z" />
  <path
     id="path70"
     style="fill:#ffffff;stroke-width:1.27484262"
     d="m 145.85847,298.33827 c 1.75211,-0.79832 4.13991,-3.46241 5.30619,-5.9202 1.76497,-3.71935 1.87331,-5.29396 0.64615,-9.38983 -4.28535,-14.30323 -23.67871,-11.42913 -23.67871,3.50921 0,4.95405 0.61482,6.36173 4.16335,9.53234 4.43074,3.95887 8.39705,4.62225 13.56302,2.26848 z m -17.79478,9.75971 c -8.3728,-4.20292 -12.3805,-10.24125 -13.06341,-19.68241 -1.95587,-27.03959 35.92978,-36.87983 48.33917,-12.55541 3.91885,7.68159 2.96846,18.34968 -2.21528,24.86614 -8.2234,10.33767 -21.32993,13.2601 -33.06048,7.37168 z" />
  <path
     style="fill:#ffffff;stroke-width:1.27484262"
     d="m 186.72211,308.86705 c -14.11107,-6.40977 -18.74232,-24.17471 -9.59439,-36.80306 4.79786,-6.62324 11.62261,-9.89112 20.4833,-9.80792 11.84634,0.11129 19.34244,5.31929 17.23107,11.97161 -1.20045,3.78227 -4.73536,4.1985 -11.23583,1.32304 -3.74162,-1.6551 -7.08281,-2.30829 -9.1515,-1.78907 -8.67237,2.17662 -11.41117,15.48132 -4.59086,22.30163 4.4297,4.42971 8.43968,4.72572 15.46508,1.14163 6.63345,-3.38414 10.47397,-1.76428 9.88557,4.16955 -0.82321,8.30196 -17.21882,12.61348 -28.49244,7.49259 z"
     id="path68"
     inkscape:connector-curvature="0" />
  <path
     style="fill:#ffffff;stroke-width:1.27484262"
     d="m 227.21606,309.27878 c -2.78747,-1.95243 -2.83335,-2.45669 -2.83335,-31.14258 0,-24.80751 0.2989,-29.45694 2.00333,-31.16137 2.32891,-2.32891 4.82053,-2.53465 8.27922,-0.68362 2.24328,1.20056 2.46588,2.8117 2.46588,17.8478 0,9.09046 0.43025,16.50944 0.95613,16.48662 0.52587,-0.0228 4.97189,-4.03358 9.88003,-8.91286 9.26168,-9.20719 13.82264,-11.06317 17.19663,-6.99775 2.54039,3.06099 0.43011,7.79116 -5.72666,12.83617 -3.15325,2.58385 -5.73318,5.24605 -5.73318,5.916 0,0.66996 2.49361,4.4732 5.54134,8.45163 7.69523,10.04513 8.84232,12.46451 7.28735,15.36999 -1.57071,2.93492 -4.76328,4.27847 -7.84351,3.30086 -1.26756,-0.40231 -4.92429,-4.40256 -8.12606,-8.88942 -3.20177,-4.48688 -6.29956,-8.45349 -6.88399,-8.81468 -2.40679,-1.48747 -6.54808,4.46538 -6.54808,9.41246 0,4.90847 -2.50877,8.96529 -5.54419,8.96529 -0.84566,0 -2.81256,-0.89303 -4.37089,-1.98454 z"
     id="path66"
     inkscape:connector-curvature="0" />
  <path
     id="path62"
     style="fill:#ffffff;stroke-width:1.27484262"
     d="m 305.97263,282.51606 c 0,-2.0045 -4.00241,-8.01863 -5.7939,-8.7061 -4.14427,-1.59031 -8.41724,-0.71993 -11.47441,2.33726 -5.71614,5.71612 -4.36269,7.06957 7.06958,7.06957 5.6093,0 10.19873,-0.31532 10.19873,-0.70073 z m -19.76005,26.33776 c -7.00805,-3.23441 -10.89152,-7.83759 -12.79144,-15.16202 -5.00729,-19.30358 10.4122,-35.80414 28.82509,-30.84606 10.28564,2.76963 18.66381,15.53763 15.71227,23.94491 l -1.2069,3.43777 -15.58822,0.35796 c -8.57353,0.19686 -15.58823,0.83659 -15.58823,1.42162 0,0.58503 1.12983,2.50003 2.51074,4.25557 3.64098,4.62876 9.19374,5.32098 16.71801,2.08413 5.18394,-2.23007 6.60835,-2.41231 8.24411,-1.05474 3.7104,3.07938 1.73927,7.96725 -4.47711,11.10197 -6.96194,3.5107 -15.37194,3.68331 -22.35832,0.45889 z" />
  <path
     style="fill:#ffffff;stroke-width:1.27484262"
     d="m 337.02397,309.99921 c -5.61738,-2.26688 -6.82933,-5.99837 -6.82933,-21.02698 0,-13.37325 -0.14295,-14.13745 -2.8684,-15.33317 -2.05755,-0.9027 -2.86839,-2.33954 -2.86839,-5.08296 0,-2.74341 0.81084,-4.18026 2.86839,-5.08295 2.11258,-0.92683 2.8684,-2.33051 2.8684,-5.32703 0,-10.43847 12.08298,-10.84835 12.99578,-0.44083 0.35786,4.08001 0.79584,4.51268 5.30352,5.23898 9.9295,1.59992 9.098,10.42767 -1.08892,11.56068 l -3.82453,0.42537 v 11.2033 c 0,11.92239 0.81605,13.59628 6.64807,13.6366 3.24401,0.0224 5.83382,3.94386 4.64707,7.03648 -1.52276,3.96824 -11.5055,5.75351 -17.85166,3.19251 z"
     id="path12"
     inkscape:connector-curvature="0" />
</svg>
