<svg xmlns="http://www.w3.org/2000/svg" version="1.1" id="svg2" width="400" height="400"><path id="path94" d="M164.711 117.647c9.398-1.505 10.093-1.93 21.299-13.032 6.37-6.312 11.583-12.095 11.583-12.851 0-1.817-21.57.024-25.857 2.206-3.796 1.933-24.96 22.365-24.96 24.096 0 1.585 6.349 1.436 17.935-.42zm61.623-11.5c24.3-24.369 26.273-27.253 28.78-42.088l1.106-6.55-5.773.952c-15.739 2.596-16.746 3.279-42.386 28.732l-24.656 24.475 8.916 9.01c4.903 4.955 9.28 9.01 9.727 9.01.446 0 11.375-10.594 24.286-23.541zm-30.522 30.57l3.224-3.43-9.394-9.31-9.393-9.31-3.578 3.807-3.578 3.809 8.84 8.933c4.863 4.914 9.249 8.934 9.748 8.934.499 0 2.358-1.545 4.131-3.432zm-19.467 17.05c10.491-5.353 11.998-11.925 4.652-20.291-6.332-7.212-13.087-7.37-18.252-.426-4.277 5.75-13.31 27.775-12.158 29.64.856 1.385 15.488-3.685 25.758-8.924zm31.295 2.45c5.895-5.96 11.426-12.727 12.291-15.039 2.19-5.855 3.82-24.942 2.13-24.942-.755 0-6.536 5.212-12.847 11.583-11.102 11.205-11.527 11.9-13.032 21.298-1.855 11.587-2.004 17.936-.42 17.936.637 0 5.982-4.876 11.878-10.836zm-24.687 56.997c-11.002-1.83-28.036-8.694-38.011-15.316-11.275-7.483-26.595-23.989-33.027-35.58-9.212-16.603-12.231-29.176-12.145-50.566.067-16.41.58-20.138 4.21-30.64 11.296-32.681 38.542-58.482 71.194-67.417 15.459-4.23 40.824-3.604 56.08 1.384 52.486 17.16 82.052 70.17 68.654 123.088-7.038 27.802-27.095 52.503-53.025 65.303-20.856 10.296-41.61 13.46-63.93 9.744z" fill="#fff" stroke-width="1.495"/><path d="M63.379 385.8c-11.724-4.303-15.815-11.032-9.302-15.299 2.888-1.892 3.485-1.797 9.88 1.564 8.457 4.445 18.118 4.954 20.933 1.103.995-1.36 1.81-2.897 1.81-3.415 0-2.384-4.687-5.093-13.12-7.582-15.95-4.707-20.031-8.665-20.021-19.415.013-14.583 14.814-22.156 32.84-16.803 10.528 3.126 14.661 11.515 7.32 14.86-2.179.993-4.021.677-8.058-1.383-6.989-3.565-16.207-3.627-18.084-.12-2.262 4.226.464 7.241 8.601 9.513 17.7 4.942 23.27 9.661 23.27 19.718 0 7.416-3.822 13.763-10.224 16.98-5.4 2.713-18.817 2.858-25.845.278z" id="path92" fill="#fff" stroke-width="1.275"/><path d="M121.76 385.745c-16.308-8.503-18.264-31.048-3.66-42.186 9.104-6.945 28.987-5.109 32.69 3.018 1.156 2.537.926 3.499-1.391 5.816-2.548 2.548-3.117 2.634-6.922 1.049-7.888-3.287-12.94-3.196-17.01.304-3.207 2.759-3.71 4.084-3.71 9.786 0 5.645.516 7.038 3.578 9.672 4.198 3.61 10.927 4.073 15.517 1.066 3.72-2.438 8.194-1.97 10.09 1.054 1.782 2.841.13 5.667-5.589 9.561-5.164 3.517-17.626 3.971-23.592.86z" id="path90" fill="#fff" stroke-width="1.275"/><path d="M162.625 384.92c-1.649-2.353-1.984-7.531-1.984-30.596 0-26.063.156-27.919 2.55-30.312 3.226-3.227 5.697-3.227 8.923 0 2.102 2.101 2.55 4.25 2.55 12.224v9.675l3.922-3.3c3.08-2.593 5.297-3.301 10.326-3.301 5.593 0 6.958.553 10.773 4.369l4.37 4.369-.354 18.868-.353 18.867-3.467 1.218c-2.747.965-4.006.73-6.056-1.124-2.27-2.054-2.588-3.899-2.588-14.977 0-12.003-1.132-17.003-4.334-19.14-2.593-1.732-7.12-.997-9.69 1.573-2.236 2.236-2.55 4.25-2.55 16.376 0 11.775-.345 14.138-2.33 15.935-3.247 2.938-7.358 2.632-9.708-.723z" id="path88" fill="#fff" stroke-width="1.275"/><path id="path84" d="M247.973 373.203c8.395-8.395 3.422-22.42-7.95-22.42-6.204 0-9.952 2.64-11.83 8.329-2.922 8.854 2.777 17.087 11.864 17.14 3.441.02 5.728-.86 7.916-3.049zm-20.826 11.815c-15.928-7.884-17.323-31.763-2.432-41.617 9.921-6.566 27.136-5.006 34.253 3.104 7.336 8.357 8.223 21.495 2.078 30.78-6.607 9.983-22.178 13.535-33.9 7.733z" fill="#fff" stroke-width="1.275"/><path id="path80" d="M306.07 372.554c8.122-8.121 2.598-21.77-8.81-21.77-4.112 0-5.715.75-8.384 3.922-10.503 12.482 5.72 29.322 17.195 17.848zm-20.19 13.093c-12.711-6.266-17.725-22.683-10.536-34.504 4.388-7.216 10.915-11.037 19.82-11.604 4.403-.28 10.034.159 12.51.976 7.939 2.62 16.132 14.31 16.132 23.017 0 8.277-6.073 17.624-14.118 21.728-6.068 3.096-17.922 3.288-23.808.387z" fill="#fff" stroke-width="1.275"/><path d="M334.854 385.423c-1.832-2.025-2.11-6.127-2.11-31.205v-28.873l3.24-2.122c4.546-2.98 9.097-.796 10.157 4.873.432 2.311.607 15.866.388 30.123-.368 23.932-.589 26.059-2.873 27.728-3.35 2.446-6.271 2.272-8.802-.524z" id="path78" fill="#fff" stroke-width="1.275"/><path id="path74" d="M90.432 274.758c3.277-4.166 3.337-6.973.23-10.81-2.062-2.547-3.813-3.048-12.11-3.467l-9.7-.49v18.126h9.469c8.71 0 9.68-.268 12.11-3.359zm-32.77 34.52c-2.777-1.944-2.833-2.525-2.833-29.077 0-21.46.378-27.608 1.819-29.568 1.646-2.239 3.385-2.463 18.267-2.36 14.58.102 17.03.441 21.562 2.989 5.926 3.33 8.916 7.787 10.07 15.008 1.074 6.708-2.89 15.975-8.217 19.215l-3.84 2.336 5.617 6.94c6.425 7.937 7.092 11.717 2.59 14.666-4.66 3.054-7.398 1.449-15.445-9.057-7.09-9.257-7.425-9.504-12.84-9.504h-5.56v7.649c0 5.95-.567 8.216-2.55 10.199-3.068 3.068-4.895 3.188-8.64.565z" fill="#fff" stroke-width="1.275"/><path id="path70" d="M145.858 298.338c1.753-.798 4.14-3.462 5.307-5.92 1.765-3.72 1.873-5.294.646-9.39-4.286-14.303-23.679-11.429-23.679 3.51 0 4.953.615 6.361 4.163 9.532 4.431 3.959 8.398 4.622 13.563 2.268zm-17.794 9.76c-8.373-4.203-12.38-10.241-13.064-19.682-1.956-27.04 35.93-36.88 48.34-12.556 3.918 7.682 2.968 18.35-2.216 24.866-8.223 10.338-21.33 13.26-33.06 7.372z" fill="#fff" stroke-width="1.275"/><path d="M186.722 308.867c-14.111-6.41-18.742-24.175-9.594-36.803 4.798-6.623 11.622-9.891 20.483-9.808 11.846.111 19.342 5.32 17.231 11.972-1.2 3.782-4.735 4.198-11.236 1.323-3.741-1.655-7.083-2.309-9.151-1.79-8.673 2.177-11.411 15.482-4.591 22.302 4.43 4.43 8.44 4.726 15.465 1.142 6.633-3.384 10.474-1.764 9.886 4.17-.824 8.301-17.22 12.613-28.493 7.492z" id="path68" fill="#fff" stroke-width="1.275"/><path d="M227.216 309.279c-2.787-1.953-2.833-2.457-2.833-31.143 0-24.807.299-29.457 2.003-31.161 2.329-2.33 4.82-2.535 8.28-.684 2.243 1.2 2.465 2.812 2.465 17.848 0 9.09.43 16.51.956 16.487.526-.023 4.972-4.034 9.88-8.913 9.262-9.207 13.823-11.063 17.197-6.998 2.54 3.061.43 7.791-5.727 12.836-3.153 2.584-5.733 5.246-5.733 5.916 0 .67 2.494 4.473 5.541 8.452 7.696 10.045 8.843 12.464 7.288 15.37-1.57 2.935-4.763 4.278-7.844 3.3-1.267-.402-4.924-4.402-8.126-8.889-3.202-4.487-6.3-8.453-6.884-8.814-2.407-1.488-6.548 4.465-6.548 9.412 0 4.908-2.509 8.965-5.544 8.965-.846 0-2.813-.893-4.37-1.984z" id="path66" fill="#fff" stroke-width="1.275"/><path id="path62" d="M305.973 282.516c0-2.004-4.003-8.019-5.794-8.706-4.145-1.59-8.418-.72-11.475 2.337-5.716 5.716-4.362 7.07 7.07 7.07 5.61 0 10.199-.316 10.199-.7zm-19.76 26.338c-7.008-3.235-10.892-7.838-12.792-15.162-5.007-19.304 10.412-35.804 28.825-30.846 10.286 2.77 18.664 15.537 15.712 23.945l-1.206 3.437-15.589.358c-8.573.197-15.588.837-15.588 1.422s1.13 2.5 2.51 4.256c3.642 4.628 9.195 5.32 16.719 2.084 5.184-2.23 6.608-2.413 8.244-1.055 3.71 3.08 1.74 7.967-4.477 11.102-6.962 3.51-15.372 3.683-22.358.459z" fill="#fff" stroke-width="1.275"/><path d="M337.024 310c-5.617-2.268-6.83-6-6.83-21.028 0-13.373-.142-14.137-2.868-15.333-2.057-.903-2.868-2.34-2.868-5.083 0-2.743.81-4.18 2.868-5.083 2.113-.927 2.869-2.33 2.869-5.327 0-10.438 12.083-10.848 12.995-.44.358 4.08.796 4.512 5.304 5.238 9.93 1.6 9.098 10.428-1.089 11.561l-3.825.425v11.204c0 11.922.817 13.596 6.649 13.636 3.244.023 5.833 3.944 4.647 7.037-1.523 3.968-11.506 5.753-17.852 3.192z" id="path12" fill="#fff" stroke-width="1.275"/></svg>