<svg xmlns="http://www.w3.org/2000/svg" version="1.0" width="115" height="115" id="svg2" xml:space="preserve"><defs id="defs5"><clipPath id="clipPath21"><path d="M246.18 711.38h101.46v81.42H246.18z" id="path23"/></clipPath></defs><g transform="matrix(1.25 0 0 -1.25 -312.6 995.237)" id="g11" fill="#fff"><path d="M339.946 714.817h2.58v17.82h-2.58z" id="path27" fill-opacity="1" fill-rule="nonzero" stroke="none"/><path d="M311.626 730.297l-1.26-.12-1.32-.42c-5.72-2.566-4.842-11.265 1.32-12.6l1.26-.12 1.32.12c6.432 1.259 6.829 10.529 1.26 12.6l-1.26.42zm0 2.46h1.08l.9-.12c10.052-2.59 9.234-16.671-1.08-17.94h-1.8c-10.306 1.517-11.105 15.336-.9 17.94l.9.12h.9" id="path31" fill-opacity="1" fill-rule="evenodd" stroke="none"/><path d="M256.846 730.537h-.66l-.48-.12-.54-.24-.54-.42-.24-.36-.24-.54-.12-.48v-.66l.12-.36.12-.54.36-.42.42-.24 1.14-.48 3.6-1.32.78-.36.54-.42.66-.78.48-.78c2.484-7.057-7.76-10.35-10.98-4.26l-.36 1.08-.12 1.14h2.46l.12-.78.24-.66.42-.48.36-.54.54-.24.48-.24.66-.18h1.32l.48.18.66.24.54.24c1.332 1.555 1.52 3.352-.42 4.5l-1.02.54-1.44.36-1.56.54-1.14.66-.9.66-.66.72-.36 1.08-.18 1.14.18 1.02.24 1.02.54.9.6.66.78.66c2.275 1.538 5.544 1.067 7.38-1.14l.66-.78.36-1.02.12-1.08h-2.58l-.12.66c-.228 1.02-1.165 1.733-2.16 1.92h-.54" id="path35" fill-opacity="1" fill-rule="evenodd" stroke="none"/><path d="M326.866 732.637h8.4v-2.46h-7.62v-5.7h7.62v-2.46h-7.62v-7.2h-2.58v16.02l.12.78.42.48.54.42.72.12" id="path39" fill-opacity="1" fill-rule="evenodd" stroke="none"/><path d="M287.086 728.497v-13.68h-2.58v16.14l.12.78.42.48.48.42.78.12h.42l.48-.24.24-.3.42-.36 7.74-12.9.12 13.68h2.58v-16.14l-.12-.78-.36-.54-.66-.36-.66-.12h-.48l-.42.12-.36.24-.3.42-7.86 13.02" id="path43" fill-opacity="1" fill-rule="evenodd" stroke="none"/><path d="M272.746 729.277l-2.58-7.08h5.28zm-3.48-9.42l-1.8-5.04h-2.76l6.36 16.8.24.48.42.42.48.12.54.12.54-.12.48-.12.42-.42.24-.48 6.3-16.8h-2.7l-1.8 5.04h-6.96" id="path47" fill-opacity="1" fill-rule="evenodd" stroke="none"/><path d="M318.766 771.577l-1.44 1.8-.66.78-.78.66c-3.354 2.895-7.878 2.159-11.76.9l-3.06-.9-1.56-.42c-4.223-.86-8.655-.392-10.38 4.14l-.24 1.2-.12 1.14.24 1.14.42 1.2c1.606 4.003 7.69 5.015 11.46 3.96l1.86-.36 1.68-.54c5.147-1.697 9.237-5.231 12.12-9.78l.9-1.56 1.32-3.36" id="path51" fill-opacity="1" fill-rule="nonzero" stroke="none"/><path d="M319.006 770.917l.24-1.38.42-1.56c.974-7.735-1.974-15.884-8.16-20.76l-1.8-1.44-1.8-1.02c-6.823-3.844-15.641-3.741-22.38.24l-1.56 1.02-1.56 1.2 1.2-.42 1.26-.24c6.14-.961 11.357.795 15 5.94l1.44 2.34 1.14 2.28c2.86 6.406 4.954 13.472 13.08 14.1h1.68l1.8-.3" id="path55" fill-opacity="1" fill-rule="evenodd" stroke="none"/><path d="M288.646 749.017l-1.2-.54c-9.417-2.363-13.98 10.458-13.26 17.7l.12 1.26.9-1.14 1.02-1.02c4.237-4.433 8.106-4.101 13.08-6.84l.48-.54.42-.48c1.798-2.275 1.406-5.397-.42-7.5l-.66-.42-.48-.48" id="path59" fill-opacity="1" fill-rule="evenodd" stroke="none"/><text transform="matrix(1 0 0 -1 134.88 636.14)" id="text69"><tspan x="0" y="0" id="tspan71" style="-inkscape-font-specification:SymbolMT" font-variant="normal" font-weight="400" font-stretch="normal" font-size="12" font-family="Symbol" writing-mode="lr-tb" fill="#fff" fill-opacity="1" fill-rule="nonzero" stroke="none"></tspan></text><text transform="matrix(1 0 0 -1 134.88 621.56)" id="text77"><tspan x="0" y="0" id="tspan79" style="-inkscape-font-specification:SymbolMT" font-variant="normal" font-weight="400" font-stretch="normal" font-size="12" font-family="Symbol" writing-mode="lr-tb" fill="#fff" fill-opacity="1" fill-rule="nonzero" stroke="none"></tspan></text><text transform="matrix(1 0 0 -1 134.88 606.98)" id="text85"><tspan x="0" y="0" id="tspan87" style="-inkscape-font-specification:SymbolMT" font-variant="normal" font-weight="400" font-stretch="normal" font-size="12" font-family="Symbol" writing-mode="lr-tb" fill="#fff" fill-opacity="1" fill-rule="nonzero" stroke="none"></tspan></text><text transform="matrix(1 0 0 -1 134.88 592.34)" id="text93"><tspan x="0" y="0" id="tspan95" style="-inkscape-font-specification:SymbolMT" font-variant="normal" font-weight="400" font-stretch="normal" font-size="12" font-family="Symbol" writing-mode="lr-tb" fill="#fff" fill-opacity="1" fill-rule="nonzero" stroke="none"></tspan></text><text transform="matrix(1 0 0 -1 134.88 273.98)" id="text165"><tspan x="0" y="0" id="tspan167" style="-inkscape-font-specification:SymbolMT" font-variant="normal" font-weight="400" font-stretch="normal" font-size="10.98" font-family="Symbol" writing-mode="lr-tb" fill="#fff" fill-opacity="1" fill-rule="nonzero" stroke="none"></tspan></text><text transform="matrix(1 0 0 -1 134.88 260.6)" id="text173"><tspan x="0" y="0" id="tspan175" style="-inkscape-font-specification:SymbolMT" font-variant="normal" font-weight="400" font-stretch="normal" font-size="10.98" font-family="Symbol" writing-mode="lr-tb" fill="#fff" fill-opacity="1" fill-rule="nonzero" stroke="none"></tspan></text><text transform="matrix(1 0 0 -1 134.88 247.22)" id="text181"><tspan x="0" y="0" id="tspan183" style="-inkscape-font-specification:SymbolMT" font-variant="normal" font-weight="400" font-stretch="normal" font-size="10.98" font-family="Symbol" writing-mode="lr-tb" fill="#fff" fill-opacity="1" fill-rule="nonzero" stroke="none"></tspan></text><text transform="matrix(1 0 0 -1 134.88 233.781)" id="text189"><tspan x="0" y="0" id="tspan191" style="-inkscape-font-specification:SymbolMT" font-variant="normal" font-weight="400" font-stretch="normal" font-size="10.98" font-family="Symbol" writing-mode="lr-tb" fill="#fff" fill-opacity="1" fill-rule="nonzero" stroke="none"></tspan></text><text transform="matrix(1 0 0 -1 134.88 220.4)" id="text197"><tspan x="0" y="0" id="tspan199" style="-inkscape-font-specification:SymbolMT" font-variant="normal" font-weight="400" font-stretch="normal" font-size="10.98" font-family="Symbol" writing-mode="lr-tb" fill="#fff" fill-opacity="1" fill-rule="nonzero" stroke="none"></tspan></text><text transform="matrix(1 0 0 -1 134.88 207.02)" id="text205"><tspan x="0" y="0" id="tspan207" style="-inkscape-font-specification:SymbolMT" font-variant="normal" font-weight="400" font-stretch="normal" font-size="10.98" font-family="Symbol" writing-mode="lr-tb" fill="#fff" fill-opacity="1" fill-rule="nonzero" stroke="none"></tspan></text><text transform="matrix(1 0 0 -1 134.88 193.64)" id="text213"><tspan x="0" y="0" id="tspan215" style="-inkscape-font-specification:SymbolMT" font-variant="normal" font-weight="400" font-stretch="normal" font-size="10.98" font-family="Symbol" writing-mode="lr-tb" fill="#fff" fill-opacity="1" fill-rule="nonzero" stroke="none"></tspan></text><text transform="matrix(1 0 0 -1 134.88 180.26)" id="text221"><tspan x="0" y="0" id="tspan223" style="-inkscape-font-specification:SymbolMT" font-variant="normal" font-weight="400" font-stretch="normal" font-size="10.98" font-family="Symbol" writing-mode="lr-tb" fill="#fff" fill-opacity="1" fill-rule="nonzero" stroke="none"></tspan></text><text transform="matrix(1 0 0 -1 134.88 166.88)" id="text229"><tspan x="0" y="0" id="tspan231" style="-inkscape-font-specification:SymbolMT" font-variant="normal" font-weight="400" font-stretch="normal" font-size="10.98" font-family="Symbol" writing-mode="lr-tb" fill="#fff" fill-opacity="1" fill-rule="nonzero" stroke="none"></tspan></text><text transform="matrix(1 0 0 -1 134.88 153.44)" id="text237"><tspan x="0" y="0" id="tspan239" style="-inkscape-font-specification:SymbolMT" font-variant="normal" font-weight="400" font-stretch="normal" font-size="10.98" font-family="Symbol" writing-mode="lr-tb" fill="#fff" fill-opacity="1" fill-rule="nonzero" stroke="none"></tspan></text><text transform="matrix(1 0 0 -1 134.88 140.06)" id="text245"><tspan x="0" y="0" id="tspan247" style="-inkscape-font-specification:SymbolMT" font-variant="normal" font-weight="400" font-stretch="normal" font-size="10.98" font-family="Symbol" writing-mode="lr-tb" fill="#fff" fill-opacity="1" fill-rule="nonzero" stroke="none"></tspan></text><text transform="matrix(1 0 0 -1 134.88 126.68)" id="text253"><tspan x="0" y="0" id="tspan255" style="-inkscape-font-specification:SymbolMT" font-variant="normal" font-weight="400" font-stretch="normal" font-size="10.98" font-family="Symbol" writing-mode="lr-tb" fill="#fff" fill-opacity="1" fill-rule="nonzero" stroke="none"></tspan></text><text transform="matrix(1 0 0 -1 134.88 113.3)" id="text261"><tspan x="0" y="0" id="tspan263" style="-inkscape-font-specification:SymbolMT" font-variant="normal" font-weight="400" font-stretch="normal" font-size="10.98" font-family="Symbol" writing-mode="lr-tb" fill="#fff" fill-opacity="1" fill-rule="nonzero" stroke="none"></tspan></text><text transform="matrix(1 0 0 -1 134.88 99.92)" id="text269"><tspan x="0" y="0" id="tspan271" style="-inkscape-font-specification:SymbolMT" font-variant="normal" font-weight="400" font-stretch="normal" font-size="10.98" font-family="Symbol" writing-mode="lr-tb" fill="#fff" fill-opacity="1" fill-rule="nonzero" stroke="none"></tspan></text><text transform="matrix(1 0 0 -1 134.88 86.54)" id="text277"><tspan x="0" y="0" id="tspan279" style="-inkscape-font-specification:SymbolMT" font-variant="normal" font-weight="400" font-stretch="normal" font-size="10.98" font-family="Symbol" writing-mode="lr-tb" fill="#fff" fill-opacity="1" fill-rule="nonzero" stroke="none"></tspan></text></g></svg>