<?xml version="1.0" encoding="UTF-8" standalone="no"?>
<!-- Created with Inkscape (http://www.inkscape.org/) -->

<svg
   xmlns:dc="http://purl.org/dc/elements/1.1/"
   xmlns:cc="http://creativecommons.org/ns#"
   xmlns:rdf="http://www.w3.org/1999/02/22-rdf-syntax-ns#"
   xmlns:svg="http://www.w3.org/2000/svg"
   xmlns="http://www.w3.org/2000/svg"
   xmlns:sodipodi="http://sodipodi.sourceforge.net/DTD/sodipodi-0.dtd"
   xmlns:inkscape="http://www.inkscape.org/namespaces/inkscape"
   version="1.0"
   width="115"
   height="115"
   id="svg2"
   xml:space="preserve"
   sodipodi:docname="Sanofi.svg"
   inkscape:version="0.92.4 5da689c313, 2019-01-14"><metadata
     id="metadata56"><rdf:RDF><cc:Work
         rdf:about=""><dc:format>image/svg+xml</dc:format><dc:type
           rdf:resource="http://purl.org/dc/dcmitype/StillImage" /><dc:title></dc:title></cc:Work></rdf:RDF></metadata><sodipodi:namedview
     pagecolor="#ffffff"
     bordercolor="#666666"
     borderopacity="1"
     objecttolerance="10"
     gridtolerance="10"
     guidetolerance="10"
     inkscape:pageopacity="0"
     inkscape:pageshadow="2"
     inkscape:window-width="1364"
     inkscape:window-height="734"
     id="namedview54"
     showgrid="false"
     inkscape:zoom="3.5791357"
     inkscape:cx="45.187361"
     inkscape:cy="50.818294"
     inkscape:window-x="0"
     inkscape:window-y="33"
     inkscape:window-maximized="0"
     inkscape:current-layer="svg2" /><defs
     id="defs5"><clipPath
       id="clipPath21"><path
         d="M 246.18,711.38 H 347.64 V 792.8 H 246.18 Z"
         id="path23"
         inkscape:connector-curvature="0" /></clipPath></defs><g
     transform="matrix(1.25,0,0,-1.25,-312.6,995.2371)"
     id="g11"
     style="fill:#ffffff"><path
   d="m 339.94569,714.81669 h 2.58 v 17.82 h -2.58 z"
   id="path27"
   style="fill:#ffffff;fill-opacity:1;fill-rule:nonzero;stroke:none"
   inkscape:connector-curvature="0" /><path
   d="m 311.62569,730.29669 -1.26,-0.12 -1.32,-0.42 c -5.719,-2.566 -4.842,-11.265 1.32,-12.6 l 1.26,-0.12 1.32,0.12 c 6.432,1.259 6.829,10.529 1.26,12.6 l -1.26,0.42 z m 0,2.46 h 1.08 l 0.9,-0.12 c 10.052,-2.589 9.234,-16.671 -1.08,-17.94 h -1.8 c -10.306,1.517 -11.105,15.336 -0.9,17.94 l 0.9,0.12 h 0.9"
   id="path31"
   style="fill:#ffffff;fill-opacity:1;fill-rule:evenodd;stroke:none"
   inkscape:connector-curvature="0" /><path
   d="m 256.84569,730.53669 h -0.66 l -0.48,-0.12 -0.54,-0.24 -0.54,-0.42 -0.24,-0.36 -0.24,-0.54 -0.12,-0.48 v -0.66 l 0.12,-0.36 0.12,-0.54 0.36,-0.42 0.42,-0.24 1.14,-0.48 3.6,-1.32 0.78,-0.36 0.54,-0.42 0.66,-0.78 0.48,-0.78 c 2.484,-7.057 -7.759,-10.35 -10.98,-4.26 l -0.36,1.08 -0.12,1.14 h 2.46 l 0.12,-0.78 0.24,-0.66 0.42,-0.48 0.36,-0.54 0.54,-0.24 0.48,-0.24 0.66,-0.18 h 1.32 l 0.48,0.18 0.66,0.24 0.54,0.24 c 1.332,1.555 1.52,3.352 -0.42,4.5 l -1.02,0.54 -1.44,0.36 -1.56,0.54 -1.14,0.66 -0.9,0.66 -0.66,0.72 -0.36,1.08 -0.18,1.14 0.18,1.02 0.24,1.02 0.54,0.9 0.6,0.66 0.78,0.66 c 2.275,1.538 5.544,1.067 7.38,-1.14 l 0.66,-0.78 0.36,-1.02 0.12,-1.08 h -2.58 l -0.12,0.66 c -0.228,1.02 -1.165,1.733 -2.16,1.92 h -0.54"
   id="path35"
   style="fill:#ffffff;fill-opacity:1;fill-rule:evenodd;stroke:none"
   inkscape:connector-curvature="0" /><path
   d="m 326.86569,732.63669 h 8.4 v -2.46 h -7.62 v -5.7 h 7.62 v -2.46 h -7.62 v -7.2 h -2.58 v 16.02 l 0.12,0.78 0.42,0.48 0.54,0.42 0.72,0.12"
   id="path39"
   style="fill:#ffffff;fill-opacity:1;fill-rule:evenodd;stroke:none"
   inkscape:connector-curvature="0" /><path
   d="m 287.08569,728.49669 v -13.68 h -2.58 v 16.14 l 0.12,0.78 0.42,0.48 0.48,0.42 0.78,0.12 h 0.42 l 0.48,-0.24 0.24,-0.3 0.42,-0.36 7.74,-12.9 0.12,13.68 h 2.58 v -16.14 l -0.12,-0.78 -0.36,-0.54 -0.66,-0.36 -0.66,-0.12 h -0.48 l -0.42,0.12 -0.36,0.24 -0.3,0.42 -7.86,13.02"
   id="path43"
   style="fill:#ffffff;fill-opacity:1;fill-rule:evenodd;stroke:none"
   inkscape:connector-curvature="0" /><path
   d="m 272.74569,729.27669 -2.58,-7.08 h 5.28 z m -3.48,-9.42 -1.8,-5.04 h -2.76 l 6.36,16.8 0.24,0.48 0.42,0.42 0.48,0.12 0.54,0.12 0.54,-0.12 0.48,-0.12 0.42,-0.42 0.24,-0.48 6.3,-16.8 h -2.7 l -1.8,5.04 h -6.96"
   id="path47"
   style="fill:#ffffff;fill-opacity:1;fill-rule:evenodd;stroke:none"
   inkscape:connector-curvature="0" /><path
   d="m 318.76569,771.57669 -1.44,1.8 -0.66,0.78 -0.78,0.66 c -3.354,2.895 -7.878,2.159 -11.76,0.9 l -3.06,-0.9 -1.56,-0.42 c -4.223,-0.86 -8.655,-0.392 -10.38,4.14 l -0.24,1.2 -0.12,1.14 0.24,1.14 0.42,1.2 c 1.606,4.003 7.69,5.015 11.46,3.96 l 1.86,-0.36 1.68,-0.54 c 5.147,-1.697 9.237,-5.231 12.12,-9.78 l 0.9,-1.56 1.32,-3.36"
   id="path51"
   style="fill:#ffffff;fill-opacity:1;fill-rule:nonzero;stroke:none"
   inkscape:connector-curvature="0" /><path
   d="m 319.00569,770.91669 0.24,-1.38 0.42,-1.56 c 0.974,-7.735 -1.974,-15.884 -8.16,-20.76 l -1.8,-1.44 -1.8,-1.02 c -6.823,-3.844 -15.641,-3.741 -22.38,0.24 l -1.56,1.02 -1.56,1.2 1.2,-0.42 1.26,-0.24 c 6.141,-0.961 11.357,0.795 15,5.94 l 1.44,2.34 1.14,2.28 c 2.86,6.406 4.954,13.472 13.08,14.1 h 1.68 l 1.8,-0.3"
   id="path55"
   style="fill:#ffffff;fill-opacity:1;fill-rule:evenodd;stroke:none"
   inkscape:connector-curvature="0" /><path
   d="m 288.64569,749.01669 -1.2,-0.54 c -9.417,-2.363 -13.979,10.458 -13.26,17.7 l 0.12,1.26 0.9,-1.14 1.02,-1.02 c 4.237,-4.433 8.106,-4.101 13.08,-6.84 l 0.48,-0.54 0.42,-0.48 c 1.798,-2.275 1.406,-5.397 -0.42,-7.5 l -0.66,-0.42 -0.48,-0.48"
   id="path59"
   style="fill:#ffffff;fill-opacity:1;fill-rule:evenodd;stroke:none"
   inkscape:connector-curvature="0" /><text
   transform="matrix(1,0,0,-1,134.88,636.1403)"
   id="text69"
   style="fill:#ffffff"><tspan
     x="0"
     y="0"
     id="tspan71"
     style="font-variant:normal;font-weight:normal;font-stretch:normal;font-size:12px;font-family:Symbol;-inkscape-font-specification:SymbolMT;writing-mode:lr-tb;fill:#ffffff;fill-opacity:1;fill-rule:nonzero;stroke:none"></tspan></text>

<text
   transform="matrix(1,0,0,-1,134.88,621.5603)"
   id="text77"
   style="fill:#ffffff"><tspan
     x="0"
     y="0"
     id="tspan79"
     style="font-variant:normal;font-weight:normal;font-stretch:normal;font-size:12px;font-family:Symbol;-inkscape-font-specification:SymbolMT;writing-mode:lr-tb;fill:#ffffff;fill-opacity:1;fill-rule:nonzero;stroke:none"></tspan></text>

<text
   transform="matrix(1,0,0,-1,134.88,606.9803)"
   id="text85"
   style="fill:#ffffff"><tspan
     x="0"
     y="0"
     id="tspan87"
     style="font-variant:normal;font-weight:normal;font-stretch:normal;font-size:12px;font-family:Symbol;-inkscape-font-specification:SymbolMT;writing-mode:lr-tb;fill:#ffffff;fill-opacity:1;fill-rule:nonzero;stroke:none"></tspan></text>

<text
   transform="matrix(1,0,0,-1,134.88,592.3403)"
   id="text93"
   style="fill:#ffffff"><tspan
     x="0"
     y="0"
     id="tspan95"
     style="font-variant:normal;font-weight:normal;font-stretch:normal;font-size:12px;font-family:Symbol;-inkscape-font-specification:SymbolMT;writing-mode:lr-tb;fill:#ffffff;fill-opacity:1;fill-rule:nonzero;stroke:none"></tspan></text>

<text
   transform="matrix(1,0,0,-1,134.87946,273.98094)"
   id="text165"
   style="fill:#ffffff"><tspan
     x="0"
     y="0"
     id="tspan167"
     style="font-variant:normal;font-weight:normal;font-stretch:normal;font-size:10.97999954px;font-family:Symbol;-inkscape-font-specification:SymbolMT;writing-mode:lr-tb;fill:#ffffff;fill-opacity:1;fill-rule:nonzero;stroke:none"></tspan></text>

<text
   transform="matrix(1,0,0,-1,134.87946,260.60071)"
   id="text173"
   style="fill:#ffffff"><tspan
     x="0"
     y="0"
     id="tspan175"
     style="font-variant:normal;font-weight:normal;font-stretch:normal;font-size:10.97999954px;font-family:Symbol;-inkscape-font-specification:SymbolMT;writing-mode:lr-tb;fill:#ffffff;fill-opacity:1;fill-rule:nonzero;stroke:none"></tspan></text>

<text
   transform="matrix(1,0,0,-1,134.87946,247.22048)"
   id="text181"
   style="fill:#ffffff"><tspan
     x="0"
     y="0"
     id="tspan183"
     style="font-variant:normal;font-weight:normal;font-stretch:normal;font-size:10.97999954px;font-family:Symbol;-inkscape-font-specification:SymbolMT;writing-mode:lr-tb;fill:#ffffff;fill-opacity:1;fill-rule:nonzero;stroke:none"></tspan></text>

<text
   transform="matrix(1,0,0,-1,134.87946,233.78096)"
   id="text189"
   style="fill:#ffffff"><tspan
     x="0"
     y="0"
     id="tspan191"
     style="font-variant:normal;font-weight:normal;font-stretch:normal;font-size:10.97999954px;font-family:Symbol;-inkscape-font-specification:SymbolMT;writing-mode:lr-tb;fill:#ffffff;fill-opacity:1;fill-rule:nonzero;stroke:none"></tspan></text>

<text
   transform="matrix(1,0,0,-1,134.87946,220.40074)"
   id="text197"
   style="fill:#ffffff"><tspan
     x="0"
     y="0"
     id="tspan199"
     style="font-variant:normal;font-weight:normal;font-stretch:normal;font-size:10.97999954px;font-family:Symbol;-inkscape-font-specification:SymbolMT;writing-mode:lr-tb;fill:#ffffff;fill-opacity:1;fill-rule:nonzero;stroke:none"></tspan></text>

<text
   transform="matrix(1,0,0,-1,134.87946,207.02051)"
   id="text205"
   style="fill:#ffffff"><tspan
     x="0"
     y="0"
     id="tspan207"
     style="font-variant:normal;font-weight:normal;font-stretch:normal;font-size:10.97999954px;font-family:Symbol;-inkscape-font-specification:SymbolMT;writing-mode:lr-tb;fill:#ffffff;fill-opacity:1;fill-rule:nonzero;stroke:none"></tspan></text>

<text
   transform="matrix(1,0,0,-1,134.87946,193.64028)"
   id="text213"
   style="fill:#ffffff"><tspan
     x="0"
     y="0"
     id="tspan215"
     style="font-variant:normal;font-weight:normal;font-stretch:normal;font-size:10.97999954px;font-family:Symbol;-inkscape-font-specification:SymbolMT;writing-mode:lr-tb;fill:#ffffff;fill-opacity:1;fill-rule:nonzero;stroke:none"></tspan></text>

<text
   transform="matrix(1,0,0,-1,134.87946,180.26005)"
   id="text221"
   style="fill:#ffffff"><tspan
     x="0"
     y="0"
     id="tspan223"
     style="font-variant:normal;font-weight:normal;font-stretch:normal;font-size:10.97999954px;font-family:Symbol;-inkscape-font-specification:SymbolMT;writing-mode:lr-tb;fill:#ffffff;fill-opacity:1;fill-rule:nonzero;stroke:none"></tspan></text>

<text
   transform="matrix(1,0,0,-1,134.87946,166.87982)"
   id="text229"
   style="fill:#ffffff"><tspan
     x="0"
     y="0"
     id="tspan231"
     style="font-variant:normal;font-weight:normal;font-stretch:normal;font-size:10.97999954px;font-family:Symbol;-inkscape-font-specification:SymbolMT;writing-mode:lr-tb;fill:#ffffff;fill-opacity:1;fill-rule:nonzero;stroke:none"></tspan></text>

<text
   transform="matrix(1,0,0,-1,134.87946,153.4403)"
   id="text237"
   style="fill:#ffffff"><tspan
     x="0"
     y="0"
     id="tspan239"
     style="font-variant:normal;font-weight:normal;font-stretch:normal;font-size:10.97999954px;font-family:Symbol;-inkscape-font-specification:SymbolMT;writing-mode:lr-tb;fill:#ffffff;fill-opacity:1;fill-rule:nonzero;stroke:none"></tspan></text>

<text
   transform="matrix(1,0,0,-1,134.87946,140.06008)"
   id="text245"
   style="fill:#ffffff"><tspan
     x="0"
     y="0"
     id="tspan247"
     style="font-variant:normal;font-weight:normal;font-stretch:normal;font-size:10.97999954px;font-family:Symbol;-inkscape-font-specification:SymbolMT;writing-mode:lr-tb;fill:#ffffff;fill-opacity:1;fill-rule:nonzero;stroke:none"></tspan></text>

<text
   transform="matrix(1,0,0,-1,134.87946,126.67985)"
   id="text253"
   style="fill:#ffffff"><tspan
     x="0"
     y="0"
     id="tspan255"
     style="font-variant:normal;font-weight:normal;font-stretch:normal;font-size:10.97999954px;font-family:Symbol;-inkscape-font-specification:SymbolMT;writing-mode:lr-tb;fill:#ffffff;fill-opacity:1;fill-rule:nonzero;stroke:none"></tspan></text>

<text
   transform="matrix(1,0,0,-1,134.87946,113.29962)"
   id="text261"
   style="fill:#ffffff"><tspan
     x="0"
     y="0"
     id="tspan263"
     style="font-variant:normal;font-weight:normal;font-stretch:normal;font-size:10.97999954px;font-family:Symbol;-inkscape-font-specification:SymbolMT;writing-mode:lr-tb;fill:#ffffff;fill-opacity:1;fill-rule:nonzero;stroke:none"></tspan></text>

<text
   transform="matrix(1,0,0,-1,134.87946,99.919392)"
   id="text269"
   style="fill:#ffffff"><tspan
     x="0"
     y="0"
     id="tspan271"
     style="font-variant:normal;font-weight:normal;font-stretch:normal;font-size:10.97999954px;font-family:Symbol;-inkscape-font-specification:SymbolMT;writing-mode:lr-tb;fill:#ffffff;fill-opacity:1;fill-rule:nonzero;stroke:none"></tspan></text>

<text
   transform="matrix(1,0,0,-1,134.87946,86.539164)"
   id="text277"
   style="fill:#ffffff"><tspan
     x="0"
     y="0"
     id="tspan279"
     style="font-variant:normal;font-weight:normal;font-stretch:normal;font-size:10.97999954px;font-family:Symbol;-inkscape-font-specification:SymbolMT;writing-mode:lr-tb;fill:#ffffff;fill-opacity:1;fill-rule:nonzero;stroke:none"></tspan></text>

</g></svg>