<?xml version="1.0" encoding="UTF-8" standalone="no"?>
<!-- Created with Inkscape (http://www.inkscape.org/) -->

<svg
   xmlns:dc="http://purl.org/dc/elements/1.1/"
   xmlns:cc="http://creativecommons.org/ns#"
   xmlns:rdf="http://www.w3.org/1999/02/22-rdf-syntax-ns#"
   xmlns:svg="http://www.w3.org/2000/svg"
   xmlns="http://www.w3.org/2000/svg"
   xmlns:sodipodi="http://sodipodi.sourceforge.net/DTD/sodipodi-0.dtd"
   xmlns:inkscape="http://www.inkscape.org/namespaces/inkscape"
   version="1.1"
   id="svg2"
   width="200"
   height="200"
   viewBox="0 0 200 200"
   sodipodi:docname="timebyme.svg"
   inkscape:version="0.92.4 5da689c313, 2019-01-14">
  <metadata
     id="metadata8">
    <rdf:RDF>
      <cc:Work
         rdf:about="">
        <dc:format>image/svg+xml</dc:format>
        <dc:type
           rdf:resource="http://purl.org/dc/dcmitype/StillImage" />
        <dc:title />
      </cc:Work>
    </rdf:RDF>
  </metadata>
  <defs
     id="defs6" />
  <sodipodi:namedview
     pagecolor="#ffffff"
     bordercolor="#666666"
     borderopacity="1"
     objecttolerance="10"
     gridtolerance="10"
     guidetolerance="10"
     inkscape:pageopacity="0"
     inkscape:pageshadow="2"
     inkscape:window-width="1364"
     inkscape:window-height="734"
     id="namedview4"
     showgrid="false"
     fit-margin-top="0"
     fit-margin-left="0"
     fit-margin-right="0"
     fit-margin-bottom="0"
     inkscape:zoom="1.625"
     inkscape:cx="183.36626"
     inkscape:cy="145.91461"
     inkscape:window-x="0"
     inkscape:window-y="33"
     inkscape:window-maximized="0"
     inkscape:current-layer="svg2" />
  <g
     id="g857"
     transform="translate(-39.220805,5.0800866)"
     style="fill:#ffffff">
    <path
       inkscape:connector-curvature="0"
       id="path843"
       d="m 107.72624,124.51923 c 0.11176,-1.55959 0.90431,-2.35611 2.58288,-2.59582 7.38098,-1.05402 7.30277,-5.13999 -0.51661,-26.989634 -3.60896,-10.0845 -6.56174,-18.522 -6.56174,-18.75 0,-0.228 1.30105,-0.414546 2.89121,-0.414546 2.77473,0 3.04342,0.433136 6.66872,10.75 2.07762,5.9125 4.52372,12.711389 5.43578,15.10864 l 1.65828,4.35864 5.27517,-15.108638 c 5.16348,-14.788756 5.33652,-15.108642 8.173,-15.108642 1.59381,0 2.89784,0.201092 2.89784,0.446871 0,1.36133 -17.26028,48.161829 -18.1639,49.250619 -0.60807,0.73268 -3.14175,1.30251 -5.79143,1.30251 -4.266,0 -4.69522,-0.21229 -4.5492,-2.25 z"
       style="fill:#ffffff" />
    <path
       inkscape:connector-curvature="0"
       d="m 74.682403,84.353888 c 3.94152,-1.646872 5.54837,-4.163615 5.54837,-8.690176 0,-5.443588 -2.23825,-6.894482 -10.63594,-6.894482 -7.17593,0 -7.33857,0.05632 -7.94206,2.75 -0.33886,1.5125 -1.01992,4.325 -1.51347,6.25 -1.92189,7.495889 -1.59903,8 5.12359,8 3.31766,0 7.55644,-0.636904 9.41951,-1.415342 z m -2.89632,22.151582 c 5.56535,-2.8894 7.00183,-9.270006 2.99014,-13.281695 -2.1675,-2.167509 -3.32722,-2.454545 -9.91713,-2.454545 h -7.46259 l -1.06735,4.976876 c -0.58704,2.737282 -1.367,6.850804 -1.73325,9.141154 l -0.66589,4.16429 7.40038,-0.47991 c 4.07021,-0.26395 8.77527,-1.19373 10.45569,-2.06617 z m -24.56527,6.01376 c -0.005,-0.6875 2.32333,-12.1625 5.17512,-25.5 l 5.18508,-24.25 h 9.42375 c 10.7713,0 15.4522,1.602929 17.77006,6.085185 2.89384,5.596072 0.90793,15.083976 -3.8556,18.420476 -1.96646,1.377364 -1.97818,1.516715 -0.28489,3.387778 5.0408,5.570013 1.60146,16.839081 -6.36545,20.856561 -3.84106,1.93693 -6.03252,2.25 -15.75,2.25 -8.35851,0 -11.29069,-0.32441 -11.29807,-1.25 z"
       style="fill:#ffffff"
       id="path823" />
  </g>
  <g
     id="g861"
     transform="translate(-35.066956,5.9904298)"
     style="fill:#ffffff">
    <path
       inkscape:connector-curvature="0"
       d="m 126.07692,169.55076 c 0,-1.9306 -3.21306,-7.44057 -4.8496,-8.31642 -3.12534,-1.67263 -7.62479,-1.28178 -10.40316,0.90369 -2.39724,1.88566 -4.30476,6.29898 -3.37641,7.8118 0.46493,0.75766 18.62917,0.36854 18.62917,-0.39907 z m -16.68368,22.65971 c -5.98771,-2.71851 -7.31632,-5.91564 -7.31632,-17.60584 0,-10.8535 1.38188,-15.0784 5.76616,-17.62926 6.7431,-3.92326 14.73987,-3.03411 19.75067,2.19605 2.53974,2.65091 2.97303,3.95997 3.31522,10.01595 l 0.39364,6.96648 h -12.24369 -12.24368 l 0.59124,3.6434 c 0.87619,5.39932 4.12148,8.3566 9.17044,8.3566 4.16176,0 8.5,-2.96759 8.5,-5.81445 0,-0.65205 1.35,-1.18555 3,-1.18555 3.40571,0 3.58755,0.65802 1.53764,5.56416 -1.05225,2.51838 -2.66481,4.04567 -5.75,5.44592 -5.39144,2.44697 -9.15753,2.45908 -14.47132,0.0465 z"
       style="fill:#ffffff"
       id="path835" />
    <path
       inkscape:connector-curvature="0"
       id="path821"
       d="m 43.066964,191.90385 c -0.005,-0.6875 2.32333,-12.1625 5.17512,-25.5 l 5.18508,-24.25 h 2.80583 c 3.27762,0 3.31728,0.11816 4.86637,14.5 2.02277,18.77952 1.05753,18.6862 10.75602,1.03997 8.04594,-14.63943 8.71273,-15.53997 11.50621,-15.53997 2.70699,0 2.91547,0.23958 2.39299,2.75 -0.31479,1.5125 -2.42626,11.525 -4.69214,22.25 -2.26589,10.725 -4.37347,20.9625 -4.6835,22.75 -0.48642,2.80441 -0.96798,3.25 -3.51232,3.25 -2.68764,0 -2.89836,-0.24339 -2.38084,-2.75 0.31227,-1.5125 1.92076,-9.01477 3.5744,-16.67172 1.65365,-7.65695 2.8371,-14.09126 2.62988,-14.29848 -0.20722,-0.20721 -2.83568,4.03256 -5.84104,9.42172 -4.86986,8.73258 -5.79409,9.83157 -8.49616,10.10273 -3.57577,0.35884 -3.79453,-0.20892 -4.83733,-12.55425 -0.38327,-4.5375 -0.9848,-8.25 -1.33672,-8.25 -0.35192,0 -1.90217,6.1875 -3.44499,13.75 -4.31906,21.17091 -4.34583,21.25 -7.19544,21.25 -1.3538,0 -2.46594,-0.5625 -2.47142,-1.25 z"
       style="fill:#ffffff" />
  </g>
  <g
     id="g853"
     transform="translate(16.978999,5.9904259)"
     style="fill:#ffffff">
    <path
       d="m 170.70622,19.022867 c -0.92733,-3.954655 -5.03693,-7.176714 -9.15359,-7.176714 -4.36033,0 -8.39779,3.702711 -8.40108,7.704545 l -0.002,2.795455 9.09231,-0.323286 9.09231,-0.323286 -0.62766,-2.676714 z M 155.65385,44.49313 c -1.65,-0.76559 -4.125,-2.610609 -5.5,-4.100043 -2.36065,-2.55712 -2.5,-3.340472 -2.5,-14.054168 0,-9.941576 0.25871,-11.695604 2.08993,-14.169436 5.85739,-7.9128449 20.66636,-7.5297669 24.89314,0.643937 0.86548,1.673653 1.51693,5.531453 1.51693,8.983073 v 6.04966 h -11.5 -11.5 v 3.545455 c 0,5.014932 3.62569,8.454545 8.91191,8.454545 3.37605,0 4.44011,-0.548037 6.79546,-3.499971 2.9286,-3.670384 7.29263,-4.837516 7.29263,-1.950369 0,2.614639 -2.76012,7.063143 -5.49371,8.854264 -3.56177,2.333757 -11.27804,2.972938 -15.00629,1.243053 z"
       style="fill:#ffffff"
       id="path839"
       inkscape:connector-curvature="0" />
    <path
       id="path833"
       d="m -4.846154,43.461824 c 0,-1.478369 7.5993801,-38.3805839 8.6215191,-41.8656709 0.452364,-1.54237902 -0.27378,-1.75000002 -6.120554,-1.75000002 h -6.6338098 l 0.3164227,-2.74999998 0.3164223,-2.75 16.3188448,-0.275101 16.3188439,-0.275101 -0.318844,2.775101 c -0.307777,2.67877198 -0.559066,2.79245798 -7.239231,3.27510098 l -6.9203859,0.5 -4.63582,21.99999992 C 0.58141698,44.156402 0.51819898,44.348882 -2.1523599,44.662575 -4.032769,44.883455 -4.846154,44.520891 -4.846154,43.461824 Z"
       style="fill:#ffffff"
       inkscape:connector-curvature="0" />
    <path
       id="path831"
       d="m 39.153846,42.346153 c 0,-2.410256 0.233333,-2.5 6.5,-2.5 h 6.5 v -13.5 -13.5 h -4.5 c -4.347726,0 -4.5,-0.102998 -4.5,-3.0438099 v -3.043809 l 7.25,0.293809 7.25,0.29381 0.274771,16.2499999 0.274772,16.25 h 6.475228 c 6.240244,0 6.475229,0.09072 6.475229,2.5 v 2.5 h -16 -16 z"
       style="fill:#ffffff"
       inkscape:connector-curvature="0" />
    <path
       id="path829"
       d="m 87.15385,44.366661 c 0,-0.875848 7.03589,-33.987651 7.62187,-35.8695049 0.445583,-1.430968 1.288183,-1.744315 3.726943,-1.385972 1.733147,0.254664 4.174057,-0.0027 5.424237,-0.57202 1.81659,-0.827194 2.84266,-0.61391 5.10959,1.062098 2.64199,1.953313 2.9503,1.983382 4.49525,0.438429 2.70255,-2.702548 9.51704,-2.017013 12.31789,1.239175 1.26732,1.4733479 2.3099,3.4412209 2.31684,4.3730509 0.007,0.93183 -1.40842,8.331736 -3.14525,16.444236 l -3.15788,14.75 h -2.92213 c -2.30805,0 -2.81637,-0.36776 -2.41883,-1.75 1.96001,-6.815035 5.8165,-28.325425 5.31339,-29.636521 -0.82182,-2.141624 -4.98681,-2.059033 -6.88465,0.136521 -0.83198,0.9625 -2.51423,6.7 -3.73833,12.75 -3.66887,18.133018 -3.79974,18.5 -6.59748,18.5 -3.11057,0 -3.10358,-0.236409 0.5021,-16.978052 3.07604,-14.282457 2.91715,-16.021948 -1.46356,-16.021948 -1.24031,0 -2.78638,0.640143 -3.43571,1.42254 -0.649337,0.782396 -2.603367,8.207396 -4.342297,16.5 -3.158653,15.062954 -3.164363,15.07746 -5.941843,15.07746 -1.52909,0 -2.78015,-0.215771 -2.78015,-0.479492 z"
       style="fill:#ffffff"
       inkscape:connector-curvature="0" />
    <path
       id="path817"
       d="m 53.847281,2.0414401 c -3.726911,-0.316008 -3.800151,-0.399899 -3.5,-4.009024 0.297967,-3.582879 0.418748,-3.686263 4.306565,-3.686263 3.813317,0 4.015067,0.157615 4.322842,3.377158 0.396692,4.14968 -0.290757,4.728401 -5.129407,4.318129 z"
       style="fill:#ffffff"
       inkscape:connector-curvature="0" />
  </g>
</svg>
