<svg xmlns="http://www.w3.org/2000/svg" version="1.1" id="svg2" width="200" height="200"><g id="g857" transform="translate(-39.22 5.08)" fill="#fff"><path id="path843" d="M107.726 124.52c.112-1.56.905-2.357 2.583-2.597 7.381-1.054 7.303-5.14-.516-26.99-3.61-10.084-6.562-18.521-6.562-18.75 0-.227 1.3-.414 2.891-.414 2.775 0 3.043.433 6.669 10.75 2.077 5.913 4.523 12.712 5.435 15.109l1.659 4.359 5.275-15.11c5.163-14.788 5.336-15.108 8.173-15.108 1.594 0 2.898.201 2.898.447 0 1.361-17.26 48.162-18.164 49.25-.608.733-3.142 1.303-5.792 1.303-4.266 0-4.695-.212-4.549-2.25z"/><path d="M74.682 84.354c3.942-1.647 5.549-4.164 5.549-8.69 0-5.444-2.238-6.895-10.636-6.895-7.176 0-7.339.057-7.942 2.75a258.142 258.142 0 01-1.514 6.25c-1.922 7.496-1.599 8 5.124 8 3.318 0 7.556-.637 9.42-1.415zm-2.896 22.151c5.565-2.889 7.002-9.27 2.99-13.281-2.167-2.168-3.327-2.455-9.917-2.455h-7.462l-1.068 4.977c-.587 2.737-1.367 6.85-1.733 9.141l-.666 4.165 7.4-.48c4.07-.264 8.776-1.194 10.456-2.067zm-24.565 6.014c-.005-.687 2.323-12.162 5.175-25.5l5.185-24.25h9.424c10.771 0 15.452 1.603 17.77 6.085 2.894 5.596.908 15.084-3.856 18.42-1.966 1.378-1.978 1.518-.285 3.389 5.041 5.57 1.602 16.839-6.365 20.856-3.841 1.937-6.033 2.25-15.75 2.25-8.359 0-11.29-.324-11.298-1.25z" id="path823"/></g><g id="g861" transform="translate(-35.067 5.99)" fill="#fff"><path d="M126.077 169.55c0-1.93-3.213-7.44-4.85-8.316-3.125-1.672-7.624-1.281-10.403.904-2.397 1.886-4.305 6.299-3.376 7.812.465.757 18.629.368 18.629-.4zm-16.684 22.66c-5.987-2.718-7.316-5.915-7.316-17.605 0-10.854 1.382-15.079 5.766-17.63 6.743-3.923 14.74-3.034 19.75 2.196 2.54 2.651 2.974 3.96 3.316 10.016l.394 6.967h-24.488l.591 3.643c.877 5.4 4.122 8.357 9.17 8.357 4.163 0 8.5-2.968 8.5-5.815 0-.652 1.35-1.185 3-1.185 3.407 0 3.588.658 1.539 5.564-1.053 2.518-2.665 4.046-5.75 5.446-5.392 2.447-9.158 2.459-14.472.046z" id="path835"/><path id="path821" d="M43.067 191.904c-.005-.688 2.323-12.163 5.175-25.5l5.185-24.25h2.806c3.278 0 3.317.118 4.866 14.5 2.023 18.78 1.058 18.686 10.756 1.04 8.046-14.64 8.713-15.54 11.507-15.54 2.707 0 2.915.24 2.393 2.75-.315 1.512-2.427 11.525-4.693 22.25-2.265 10.725-4.373 20.962-4.683 22.75-.486 2.804-.968 3.25-3.512 3.25-2.688 0-2.899-.244-2.381-2.75.312-1.513 1.92-9.015 3.574-16.672s2.837-14.091 2.63-14.298c-.207-.208-2.836 4.032-5.841 9.421-4.87 8.733-5.794 9.832-8.496 10.103-3.576.359-3.795-.209-4.837-12.554-.384-4.538-.985-8.25-1.337-8.25s-1.902 6.187-3.445 13.75c-4.32 21.17-4.346 21.25-7.196 21.25-1.353 0-2.466-.563-2.471-1.25z"/></g><g id="g853" transform="translate(16.979 5.99)" fill="#fff"><path d="M170.706 19.023c-.927-3.955-5.037-7.177-9.153-7.177-4.36 0-8.398 3.703-8.401 7.705l-.002 2.795 9.092-.323 9.092-.323-.627-2.677zm-15.052 25.47c-1.65-.765-4.125-2.61-5.5-4.1-2.36-2.557-2.5-3.34-2.5-14.054 0-9.942.259-11.696 2.09-14.17 5.857-7.912 20.666-7.53 24.893.644.865 1.674 1.517 5.532 1.517 8.983v6.05h-23v3.546c0 5.015 3.626 8.454 8.912 8.454 3.376 0 4.44-.548 6.795-3.5 2.929-3.67 7.293-4.837 7.293-1.95 0 2.614-2.76 7.063-5.494 8.854-3.562 2.334-11.278 2.973-15.006 1.243z" id="path839"/><path id="path833" d="M-4.846 43.462c0-1.479 7.6-38.38 8.621-41.866.453-1.542-.273-1.75-6.12-1.75H-8.98l.316-2.75.317-2.75 16.319-.275 16.319-.275-.32 2.775c-.307 2.679-.558 2.793-7.239 3.275l-6.92.5-4.636 22C.581 44.156.518 44.35-2.153 44.663c-1.88.22-2.693-.142-2.693-1.201z"/><path id="path831" d="M39.154 42.346c0-2.41.233-2.5 6.5-2.5h6.5v-27h-4.5c-4.348 0-4.5-.103-4.5-3.044V6.76l7.25.293 7.25.294.275 16.25.274 16.25h6.476c6.24 0 6.475.09 6.475 2.5v2.5h-32z"/><path id="path829" d="M87.154 44.367c0-.876 7.036-33.988 7.622-35.87.445-1.43 1.288-1.744 3.727-1.386 1.733.255 4.174-.003 5.424-.572 1.816-.827 2.843-.614 5.11 1.062 2.641 1.954 2.95 1.984 4.495.439 2.702-2.703 9.517-2.017 12.318 1.239 1.267 1.473 2.31 3.441 2.316 4.373.007.932-1.408 8.332-3.145 16.444l-3.158 14.75h-2.922c-2.308 0-2.816-.368-2.419-1.75 1.96-6.815 5.817-28.325 5.314-29.636-.822-2.142-4.987-2.06-6.885.136-.832.963-2.514 6.7-3.738 12.75-3.67 18.133-3.8 18.5-6.598 18.5-3.11 0-3.103-.236.502-16.978 3.076-14.282 2.918-16.022-1.463-16.022-1.24 0-2.787.64-3.436 1.423-.65.782-2.603 8.207-4.342 16.5-3.159 15.063-3.165 15.077-5.942 15.077-1.53 0-2.78-.216-2.78-.48z"/><path id="path817" d="M53.847 2.041c-3.727-.316-3.8-.4-3.5-4.009.298-3.582.419-3.686 4.307-3.686 3.813 0 4.015.158 4.323 3.377.396 4.15-.291 4.729-5.13 4.318z"/></g></svg>