<?xml version="1.0" encoding="UTF-8" standalone="no"?>
<!-- Created with Inkscape (http://www.inkscape.org/) -->

<svg
   xmlns:dc="http://purl.org/dc/elements/1.1/"
   xmlns:cc="http://creativecommons.org/ns#"
   xmlns:rdf="http://www.w3.org/1999/02/22-rdf-syntax-ns#"
   xmlns:svg="http://www.w3.org/2000/svg"
   xmlns="http://www.w3.org/2000/svg"
   xmlns:sodipodi="http://sodipodi.sourceforge.net/DTD/sodipodi-0.dtd"
   xmlns:inkscape="http://www.inkscape.org/namespaces/inkscape"
   version="1.1"
   id="svg2"
   width="224"
   height="224"
   viewBox="0 0 224 224"
   sodipodi:docname="youshould.svg"
   inkscape:version="0.92.4 5da689c313, 2019-01-14">
  <metadata
     id="metadata8">
    <rdf:RDF>
      <cc:Work
         rdf:about="">
        <dc:format>image/svg+xml</dc:format>
        <dc:type
           rdf:resource="http://purl.org/dc/dcmitype/StillImage" />
        <dc:title></dc:title>
      </cc:Work>
    </rdf:RDF>
  </metadata>
  <defs
     id="defs6" />
  <sodipodi:namedview
     pagecolor="#ffffff"
     bordercolor="#666666"
     borderopacity="1"
     objecttolerance="10"
     gridtolerance="10"
     guidetolerance="10"
     inkscape:pageopacity="0"
     inkscape:pageshadow="2"
     inkscape:window-width="1364"
     inkscape:window-height="734"
     id="namedview4"
     showgrid="false"
     inkscape:zoom="0.7449875"
     inkscape:cx="225.3558"
     inkscape:cy="47.484228"
     inkscape:window-x="0"
     inkscape:window-y="33"
     inkscape:window-maximized="0"
     inkscape:current-layer="svg2" />
  <path
     id="path12"
     style="fill:#ffffff;fill-opacity:1"
     d="m 112.08291,153.43803 c -1.2455,-0.50038 -2.708,-2.07615 -3.25,-3.50172 -0.5425,-1.42687 -0.98546,-12.82338 -0.98546,-25.35396 V 101.82034 L 101.03393,90.897449 C 97.286495,84.889869 87.156046,68.818372 78.521826,55.183012 c -8.63422,-13.63536 -16.89794,-27.08528 -18.36381,-29.88871 -2.45325,-4.691755 -2.54921,-5.304831 -1.20647,-7.708436 1.86235,-3.333779 7.69149,-4.152767 10.03422,-1.409798 0.84484,0.989179 10.67461,16.198508 21.843929,33.798504 20.308465,32.000967 22.680795,35.499997 24.068935,35.499997 0.75533,0 8.93019,-12.573287 30.23323,-46.499993 13.46968,-21.451505 15.92686,-24.5 19.74769,-24.5 3.13216,0 5.9679,2.76861 5.9679,5.826628 0,2.471378 -6.94431,14.032559 -31.93897,53.173368 l -17.56103,27.499998 -0.5,25.33262 c -0.4659,23.60474 -0.6324,25.42929 -2.44113,26.75 -2.20335,1.60885 -3.12809,1.66455 -6.32341,0.38084 z m 10.92932,8.28654 c 1.63535,-0.9625 3.95478,-3.325 5.15429,-5.25 2.04426,-3.28068 2.21264,-5.03527 2.68692,-28 l 0.50599,-24.5 17.88519,-28.499998 c 9.83685,-15.675 20.10999,-31.798995 22.82921,-35.831105 9.36658,-13.888954 10.77564,-20.076981 6.30772,-27.700908 -4.04825,-6.9078165 -12.89205,-9.4343945 -21.0671,-6.0186407 -3.81888,1.59563 -11.44951,12.5846687 -31.467,45.3163037 -5.775,9.443 -10.76734,17.18378 -11.09409,17.20173 -0.32674,0.0179 -8.15922,-12.00488 -17.405495,-26.717376 C 88.101576,27.012076 79.429296,13.473764 78.076116,11.639437 72.291906,3.7985265 62.535246,2.0205295 55.049476,7.4431963 c -4.83531,3.5026787 -6.02852,5.4718447 -6.81148,11.2410567 -0.76377,5.627782 1.47567,9.810828 25.58502,47.790319 10.29961,16.224997 19.918589,31.564535 21.375509,34.087858 2.64787,4.58601 2.64893,4.59678 2.64893,26.78212 0,17.77019 0.30852,22.93264 1.54773,25.89849 1.778025,4.25542 5.055815,8.07945 7.952265,9.2775 3.6427,1.50672 12.51865,1.05571 15.66478,-0.79597 z"
     inkscape:connector-curvature="0" />
  <g
     id="g12"
     transform="matrix(0.41945039,0,0,0.41945039,8.5129514,177.10611)"
     style="fill:#ffffff">
    <path
       style="fill:#ffffff"
       d="M 14.255129,101.75 C 12.747665,99.846176 10.864047,96 11.439136,96 11.719363,96 12.646752,97.35 13.5,99 l 1.55136,3 h 13.040062 c 7.99844,0 13.884551,-0.44992 15.224319,-1.16372 1.974513,-1.051972 2.052468,-1.003959 0.811814,0.5 C 42.96897,102.74075 40.611741,103 29,103 19.19045,103 14.960983,102.64145 14.255129,101.75 Z M 45,98.622445 c 0,-0.207656 0.7875,-0.995156 1.75,-1.75 C 48.336056,95.628574 48.371426,95.663944 47.127555,97.25 45.821186,98.915748 45,99.445479 45,98.622445 Z M 8.5,92 C 7.6467518,90.35 7.1736397,89 7.4486397,89 c 0.275,0 1.1981121,1.35 2.0513603,3 0.853248,1.65 1.32636,3 1.05136,3 C 10.27636,95 9.3532482,93.65 8.5,92 Z M 48,94.622445 c 0,-0.207656 0.7875,-0.995156 1.75,-1.75 C 51.336056,91.628574 51.371426,91.663944 50.127555,93.25 48.821186,94.915748 48,95.445479 48,94.622445 Z M 37.992686,82.993657 c -1.272333,-1.103489 -2.128687,-2.190207 -1.903009,-2.414929 0.225677,-0.224722 1.672917,0.678133 3.216087,2.006344 C 40.848934,83.913282 41.705288,85 41.208773,85 40.712259,85 39.265019,84.097146 37.992686,82.993657 Z m 10.371621,0.500182 c 3.61752,-1.886667 4.169885,-1.885174 2.27855,0.0062 -0.825,0.825 -2.319643,1.497228 -3.321428,1.493839 -1.301055,-0.0044 -1.00311,-0.432944 1.042878,-1.5 z M 52,80.59106 C 52,80.400666 52.675,79.684689 53.5,79 54.364593,78.282451 55,78.185262 55,78.770566 c 0,0.558501 -0.675,1.274478 -1.5,1.59106 C 52.675,80.678209 52,80.781454 52,80.59106 Z M 0.6235386,78.461341 C 0.28059237,77.567637 0.04606267,75.860729 0.10236148,74.668213 c 0.0647106,-1.370695 0.4043745,-0.883327 0.92344482,1.325009 0.8735225,3.716319 0.6359818,5.173753 -0.4022677,2.468119 z M 41.02896,79.03906 c -0.809071,-0.511673 -1.210697,-1.190657 -0.8925,-1.508853 0.318196,-0.318196 1.147764,0.107336 1.843484,0.945627 1.442593,1.738218 1.165987,1.90204 -0.950984,0.563226 z M 46,79.622445 c 0,-0.207656 0.7875,-0.995156 1.75,-1.75 C 49.336056,76.628574 49.371426,76.663944 48.127555,78.25 46.821186,79.915748 46,80.445479 46,79.622445 Z m 42.25,-3.338699 c 1.5125,-0.229125 3.9875,-0.229125 5.5,0 1.5125,0.229124 0.275,0.41659 -2.75,0.41659 -3.025,0 -4.2625,-0.187466 -2.75,-0.41659 z m 55.01375,-0.0013 c 1.52006,-0.229855 3.77006,-0.223712 5,0.01365 1.22994,0.237362 -0.0137,0.425424 -2.76375,0.417917 -2.75,-0.0075 -3.75631,-0.201713 -2.23625,-0.431567 z m 54.48625,0.01185 c 1.2375,-0.238353 3.2625,-0.238353 4.5,0 1.2375,0.238353 0.225,0.433369 -2.25,0.433369 -2.475,0 -3.4875,-0.195016 -2.25,-0.433369 z m 109.01791,-0.019 c 1.79735,-0.222562 4.49735,-0.217969 6,0.0102 1.50265,0.228174 0.0321,0.41027 -3.26791,0.404657 -3.3,-0.0056 -4.52944,-0.192301 -2.73209,-0.414862 z m 54.49584,0.0072 c 1.52006,-0.229855 3.77006,-0.223712 5,0.01365 1.22994,0.237362 -0.0138,0.425424 -2.76375,0.417917 -2.75,-0.0075 -3.75631,-0.201713 -2.23625,-0.431567 z M 192.8125,75.316886 c 0.72187,-0.288871 1.58437,-0.253344 1.91667,0.07895 0.33229,0.332292 -0.25834,0.568641 -1.3125,0.52522 -1.16495,-0.04798 -1.4019,-0.284941 -0.60417,-0.604167 z m 13,0 c 0.72187,-0.288871 1.58437,-0.253344 1.91667,0.07895 0.33229,0.332292 -0.25834,0.568641 -1.3125,0.52522 -1.16495,-0.04798 -1.4019,-0.284941 -0.60417,-0.604167 z M 233.23713,39.25 233.47426,2.5 l 0.27528,36.187567 0.27528,36.187567 3.23759,0.402396 c 3.17234,0.394286 3.16201,0.405621 -0.51241,0.562433 L 233,76 Z M 261,60.5 V 45 h -6.5 -6.5 v 15.059017 c 0,8.282459 -0.3375,14.85132 -0.75,14.597468 -0.4125,-0.253853 -0.61769,-7.36791 -0.45597,-15.809017 L 247.08806,43.5 l 7.45597,0.329004 7.45597,0.329004 0.125,13.920996 c 0.0688,7.656548 0.18125,14.479077 0.25,15.161175 0.0688,0.682099 1.475,1.528857 3.125,1.881686 2.90616,0.621439 2.8827,0.645206 -0.75,0.75982 L 261,76 Z M 372,75 c 0.825,-0.533156 1.95,-0.969374 2.5,-0.969374 0.55,0 0.325,0.436218 -0.5,0.969374 -0.825,0.533156 -1.95,0.969374 -2.5,0.969374 -0.55,0 -0.325,-0.436218 0.5,-0.969374 z m 74.66667,0.333333 c -0.36667,-0.366666 -0.56511,-17.129166 -0.44098,-37.25 L 446.45137,1.5 l 0.52432,37 c 0.28837,20.35 0.48681,37.1125 0.44098,37.25 -0.0458,0.1375 -0.38334,-0.05 -0.75,-0.416667 z M 31.542705,74.069098 c -0.316431,-0.511996 -0.04846,-1.256524 0.595492,-1.654508 0.78484,-0.485058 0.900971,-0.286981 0.352267,0.60084 -0.599316,0.969713 -0.358952,1.148082 0.897429,0.665963 1.019278,-0.391134 1.467929,-0.257126 1.105028,0.330061 -0.769621,1.245273 -2.198961,1.273201 -2.950216,0.05764 z M 100,74.606989 c 0,-0.216156 0.69837,-0.661002 1.55194,-0.988546 0.88992,-0.341496 1.29132,-0.173849 0.94098,0.393011 C 101.90566,74.961658 100,75.416902 100,74.606989 Z M 133.87244,73.25 C 132.62857,71.663944 132.66394,71.628574 134.25,72.872445 135.91575,74.178814 136.44548,75 135.62244,75 c -0.20765,0 -0.99515,-0.7875 -1.75,-1.75 z M 155,74.606989 c 0,-0.216156 0.69837,-0.661002 1.55194,-0.988546 0.88992,-0.341496 1.29132,-0.173849 0.94098,0.393011 C 156.90566,74.961658 155,75.416902 155,74.606989 Z m 57.61045,-2.221241 C 214.7497,70.94791 217.0625,69.31781 217.75,68.763304 218.4375,68.208797 219,68.032388 219,68.371283 219,69.232692 210.91761,75 209.71041,75 c -0.54422,0 0.76079,-1.176413 2.90004,-2.614252 z m 62.14411,-21.13493 c 0.14,-13.06295 0.37923,-29.600818 0.53162,-36.750818 0.15239,-7.15 0.37534,3.5375 0.49545,23.75 0.1201,20.2125 -0.11913,36.750368 -0.53163,36.750818 -0.4125,4.5e-4 -0.63545,-10.68705 -0.49544,-23.75 z m 22.80431,22.217379 c -1.06762,-0.807509 -1.51762,-1.453885 -1,-1.436394 0.51762,0.01749 1.81464,0.692492 2.88226,1.5 1.06762,0.807509 1.51762,1.453885 1,1.436394 -0.51762,-0.01749 -1.81464,-0.692492 -2.88226,-1.5 z M 321.30152,72.63928 C 322.84236,71.187676 324.35996,70 324.67397,70 c 1.04125,0 -1.97437,3.090901 -4.09173,4.193876 -1.49155,0.776981 -1.2875,0.335973 0.71928,-1.554596 z m 31.13961,0.805554 c -1.86402,-1.493392 -1.85176,-1.511856 0.30887,-0.464816 1.2375,0.599692 2.25,1.299517 2.25,1.555166 0,0.76522 -0.51861,0.544238 -2.55887,-1.09035 z M 399.45199,39 c 0,-20.075 0.13345,-28.2875 0.29656,-18.25 0.16311,10.0375 0.16311,26.4625 0,36.5 -0.16311,10.0375 -0.29656,1.825 -0.29656,-18.25 z m 36.1123,34.706872 c 0.37553,-0.986221 0.93469,-1.541221 1.24258,-1.233333 0.30789,0.307887 6.4e-4,1.114794 -0.68278,1.793128 -0.98762,0.980267 -1.10248,0.865403 -0.5598,-0.559795 z m 38.26733,-1.310253 c 2.89808,-1.444178 6.41178,-4.227107 7.89117,-6.25 3.64544,-4.984699 5.0246,-6.275255 2.82831,-2.646619 -3.63465,6.005054 -10.66226,11.5 -14.70761,11.5 -0.6799,0 1.11476,-1.171522 3.98813,-2.603381 z M 12,73.031385 c 0,-0.532739 0.740073,-0.684623 1.644608,-0.33752 1.007751,0.38671 2.221565,-0.109492 3.134532,-1.281385 1.373121,-1.762549 1.44018,-1.768875 0.855393,-0.08069 C 17.28554,72.339271 17,73.351771 17,73.581787 17,73.811804 15.875,74 14.5,74 13.125,74 12,73.564123 12,73.031385 Z M 77.5,72 c -0.995486,-1.1 -1.398477,-2 -0.895534,-2 0.502942,0 1.4765,0.9 2.163461,2 0.686961,1.1 1.089952,2 0.895534,2 C 79.469044,74 78.495486,73.1 77.5,72 Z m -25,-2 c 0.853248,-1.65 1.77636,-3 2.05136,-3 0.275,0 -0.198112,1.35 -1.05136,3 -0.853248,1.65 -1.77636,3 -2.05136,3 -0.275,0 0.198112,-1.35 1.05136,-3 z m 130.81616,-0.25 c -1.69189,-1.7875 -3.58936,-4.375 -4.21659,-5.75 -0.97344,-2.133983 -0.95441,-2.218782 0.13001,-0.579202 0.69873,1.056438 2.78528,3.643938 4.63678,5.75 4.10146,4.66536 3.70873,5.07879 -0.5502,0.579202 z M 35,71.122445 c 0,-0.482656 0.748674,-1.495156 1.66372,-2.25 C 38.172323,67.627959 38.21566,67.709778 37.128536,69.75 35.888626,72.076958 35,72.649929 35,71.122445 Z m 70,0.166666 c 0,-0.574322 0.7875,-1.661822 1.75,-2.416666 1.61876,-1.269516 1.63998,-1.222451 0.28297,0.627555 -0.80687,1.1 -1.59437,2.1875 -1.75,2.416667 C 105.12734,72.145833 105,71.863433 105,71.289111 Z m 25.2982,-0.514945 c -2.22153,-2.868455 -2.44167,-4.118908 -0.34472,-1.95805 1.23619,1.273863 2.0415,2.522238 1.78957,2.774166 -0.25193,0.251927 -0.90211,-0.115325 -1.44485,-0.816116 z m 248.35972,-0.223238 c -0.37092,-0.966605 -0.0755,-1.264666 0.88726,-0.895216 0.79383,0.304622 1.19436,0.956704 0.89006,1.449073 -0.76643,1.240103 -1.13272,1.125958 -1.77732,-0.553857 z M 42,69 c 0.588702,-1.1 1.295368,-2 1.570368,-2 0.275,0 0.01833,0.9 -0.570368,2 -0.588702,1.1 -1.295368,2 -1.570368,2 -0.275,0 -0.01833,-0.9 0.570368,-2 z m 118.39869,0.75 c -0.39564,-0.6875 -0.3511,-0.916404 0.099,-0.508676 0.45007,0.407728 1.53472,0.182728 2.41032,-0.5 1.40859,-1.098305 1.43388,-1.039699 0.21957,0.508676 -1.63578,2.085769 -1.79908,2.11569 -2.72887,0.5 z m 133.47375,-0.5 C 292.62857,67.663944 292.66394,67.628574 294.25,68.872445 295.91575,70.178814 296.44548,71 295.62244,71 c -0.20765,0 -0.99515,-0.7875 -1.75,-1.75 z M 12.140571,69 c 0,-0.825 0.386743,-2.4 0.859429,-3.5 0.541715,-1.260639 0.859429,-1.445479 0.859429,-0.5 0,0.825 -0.386743,2.4 -0.859429,3.5 -0.541715,1.260639 -0.859429,1.445479 -0.859429,0.5 z M 26,69.357796 C 26,68.821251 26.699825,67.508751 27.555166,66.44113 29.021544,64.610824 29.042357,64.642732 27.919712,67 26.4619,70.061032 26,70.628339 26,69.357796 Z m 411.07895,-1.941129 c 0.048,-1.164943 0.28494,-1.4019 0.60416,-0.604167 0.28887,0.721875 0.25335,1.584375 -0.0789,1.916667 -0.33229,0.332291 -0.56864,-0.258334 -0.52522,-1.3125 z M 39.5,64 c 0.853248,-1.65 1.77636,-3 2.05136,-3 0.275,0 -0.198112,1.35 -1.05136,3 -0.853248,1.65 -1.77636,3 -2.05136,3 -0.275,0 0.198112,-1.35 1.05136,-3 z m 69.06429,1.706872 c 0.37553,-0.986221 0.93469,-1.541221 1.24258,-1.233333 0.30789,0.307887 6.4e-4,1.114794 -0.68278,1.793128 -0.98762,0.980267 -1.10248,0.865403 -0.5598,-0.559795 z m 236.40604,-0.762311 c -0.60502,-1.130491 -0.92488,-2.580909 -0.7108,-3.223151 0.21408,-0.642242 0.89486,0.282705 1.51283,2.055439 1.26971,3.642285 0.84964,4.253885 -0.80203,1.167712 z M 307.5,65 c -0.35191,-0.569401 0.50929,-1 2,-1 1.49071,0 2.35191,0.430599 2,1 -0.33992,0.55 -1.23992,1 -2,1 -0.76008,0 -1.66008,-0.45 -2,-1 z M 89.25,64.310674 c 0.9625,-0.251527 2.5375,-0.251527 3.5,0 0.9625,0.251528 0.175,0.457323 -1.75,0.457323 -1.925,0 -2.7125,-0.205795 -1.75,-0.457323 z m 60.95301,0.009 c 0.93666,-0.24655 1.99025,-1.353262 2.34131,-2.459359 0.35106,-1.106097 0.85866,-1.790714 1.12801,-1.521371 0.99129,0.991293 -1.79754,4.657297 -3.45751,4.545006 -1.60485,-0.108563 -1.60561,-0.14475 -0.0118,-0.564276 z m 50.54699,0.018 c 0.6875,-0.277412 1.8125,-0.277412 2.5,0 0.6875,0.277413 0.125,0.504386 -1.25,0.504386 -1.375,0 -1.9375,-0.226973 -1.25,-0.504386 z m 158.74445,-1.34385 c -2.5563,-2.824678 -1.4683,-3.087285 1.21982,-0.294422 C 361.93211,63.964751 362.56436,65 362.11925,65 c -0.4451,0 -1.62626,-0.902759 -2.6248,-2.006131 z M 140.21215,61.96809 c -1.79091,-2.867702 -1.47308,-3.785633 0.38985,-1.125929 0.8811,1.257946 1.42656,2.462609 1.21214,2.677028 -0.21442,0.21442 -0.93532,-0.483575 -1.60199,-1.551099 z M 205,63.622445 c 0,-0.207656 0.7875,-0.995156 1.75,-1.75 1.58606,-1.243871 1.62143,-1.208501 0.37756,0.377555 C 205.82119,63.915748 205,64.445479 205,63.622445 Z m 98.97994,-1.146611 c -0.69572,-0.838291 -1.07128,-1.717826 -0.83459,-1.954522 0.2367,-0.236695 0.97964,0.44918 1.65098,1.524166 1.45181,2.324723 0.96763,2.57996 -0.81639,0.430356 z m 10.12045,-0.180356 c 0.72815,-1.212486 1.53915,-1.989272 1.80223,-1.72619 0.26308,0.263082 -0.33267,1.255117 -1.3239,2.204522 -1.72194,1.649287 -1.74325,1.627977 -0.47833,-0.478332 z m 69.97856,0.121189 c 0.048,-1.164943 0.28494,-1.4019 0.60416,-0.604167 0.28887,0.721875 0.25335,1.584375 -0.0789,1.916667 -0.33229,0.332291 -0.56864,-0.258334 -0.52522,-1.3125 z M 413.44541,33 c 0,-17.325 0.13621,-24.4125 0.30269,-15.75 0.16648,8.6625 0.16648,22.8375 0,31.5 -0.16648,8.6625 -0.30269,1.575 -0.30269,-15.75 z M 193.40499,60.75 191.5,58.5 l 2.25,1.904988 C 195.86444,62.195206 196.45524,63 195.65499,63 c -0.18976,0 -1.20226,-1.0125 -2.25,-2.25 z M 470.11343,60.548173 C 471.00082,59.421678 472.22463,57.6 472.83302,56.5 c 0.60839,-1.1 1.11985,-1.444599 1.13657,-0.765777 0.0167,0.678823 -1.20709,2.500501 -2.71959,4.048173 -1.5125,1.547672 -2.02396,1.892272 -1.13657,0.765777 z M 125.07895,60.416667 c 0.048,-1.164943 0.28494,-1.4019 0.60416,-0.604167 0.28887,0.721875 0.25335,1.584375 -0.0789,1.916667 -0.3323,0.332291 -0.56864,-0.258334 -0.52522,-1.3125 z M 24.333333,59.456011 C 24.333333,58.655205 24.708333,58 25.166667,58 25.625,58 26,58.423442 26,58.940983 c 0,0.517541 -0.375,1.172746 -0.833333,1.456011 -0.458334,0.283266 -0.833334,-0.140176 -0.833334,-0.940983 z M 20.8125,59.316886 c 0.721875,-0.288871 1.584375,-0.253344 1.916667,0.07895 0.332291,0.332292 -0.258334,0.568641 -1.3125,0.52522 -1.164943,-0.04798 -1.4019,-0.284941 -0.604167,-0.604167 z M 56,59.25 c 0,-0.595833 -1.2375,-1.535307 -2.75,-2.087719 -1.5125,-0.552413 -2.048508,-1.039913 -1.19113,-1.083334 2.074957,-0.105084 5.637333,2.558183 4.689558,3.505959 C 56.336792,59.996541 56,59.845833 56,59.25 Z M 97.6103,57.5 c 0.822471,-3.676928 1.394827,-4.475114 1.374387,-1.916667 C 98.976265,56.6375 98.512596,58.175 97.95431,59 97.213004,60.095458 97.120226,59.690916 97.6103,57.5 Z m 110.58465,0 c 0.0204,-1.65 0.2445,-2.203936 0.49804,-1.230968 0.25354,0.972967 0.23687,2.322967 -0.0371,3 C 208.38201,59.946064 208.17457,59.15 208.19495,57.5 Z M 5.0789474,57.416667 c 0.047984,-1.164943 0.2849403,-1.4019 0.6041666,-0.604167 0.2888706,0.721875 0.2533443,1.584375 -0.078947,1.916667 -0.3322917,0.332291 -0.5686404,-0.258334 -0.5252196,-1.3125 z m 27.4853456,0.290205 c 0.375531,-0.986221 0.934692,-1.541221 1.242579,-1.233333 0.307887,0.307887 6.34e-4,1.114794 -0.682784,1.793128 -0.987616,0.980267 -1.10248,0.865403 -0.559795,-0.559795 z M 154.44052,31 c 0,-15.675 0.13824,-22.0875 0.3072,-14.25 0.16896,7.8375 0.16896,20.6625 0,28.5 -0.16896,7.8375 -0.3072,1.425 -0.3072,-14.25 z m 24.00061,26.555166 C 179.50875,56.699825 180.82125,56 181.3578,56 c 1.27054,0 0.70323,0.4619 -2.3578,1.919712 -2.35727,1.122645 -2.38918,1.101832 -0.55887,-0.364546 z m 151.63782,-0.138499 c 0.048,-1.164943 0.28494,-1.4019 0.60416,-0.604167 0.28887,0.721875 0.25335,1.584375 -0.0789,1.916667 -0.33229,0.332291 -0.56864,-0.258334 -0.52522,-1.3125 z m 55,0 c 0.048,-1.164943 0.28494,-1.4019 0.60416,-0.604167 0.28887,0.721875 0.25335,1.584375 -0.0789,1.916667 -0.33229,0.332291 -0.56864,-0.258334 -0.52522,-1.3125 z m -302.000003,-2 c 0.04798,-1.164943 0.284941,-1.4019 0.604167,-0.604167 0.288871,0.721875 0.253344,1.584375 -0.07895,1.916667 -0.332292,0.332291 -0.568641,-0.258334 -0.52522,-1.3125 z M 138.43961,29.5 c 5e-4,-15.4 0.13932,-21.5602742 0.30848,-13.689498 0.16916,7.870776 0.16875,20.470776 -9.2e-4,28 C 138.57751,51.339726 138.4391,44.9 138.43961,29.5 Z m -26.36066,24.916667 c 0.048,-1.164943 0.28494,-1.4019 0.60416,-0.604167 0.28887,0.721875 0.25335,1.584375 -0.0789,1.916667 -0.3323,0.332291 -0.56864,-0.258334 -0.52522,-1.3125 z M 124.23296,29.25 124,2 l 2.75,0.1361821 c 2.33345,0.1155542 2.41164,0.2015038 0.51621,0.5674272 L 125.03241,3.1348544 124.74917,29.817427 124.46592,56.5 Z m 43.2017,1.75 c 0,-14.025 0.14065,-19.7625 0.31255,-12.75 0.1719,7.0125 0.1719,18.4875 0,25.5 -0.1719,7.0125 -0.31255,1.275 -0.31255,-12.75 z M 223.232,53 c 0,-1.925 0.2058,-2.7125 0.45733,-1.75 0.25152,0.9625 0.25152,2.5375 0,3.5 C 223.4378,55.7125 223.232,54.925 223.232,53 Z M 288,54.5 c 0,-0.825 0.17686,-1.5 0.39301,-1.5 0.21616,0 0.65203,0.675 0.96862,1.5 0.31658,0.825 0.13972,1.5 -0.39301,1.5 C 288.43588,56 288,55.325 288,54.5 Z M 301.232,53 c 0,-1.925 0.2058,-2.7125 0.45733,-1.75 0.25152,0.9625 0.25152,2.5375 0,3.5 C 301.4378,55.7125 301.232,54.925 301.232,53 Z m 16,0 c 0,-1.925 0.2058,-2.7125 0.45733,-1.75 0.25152,0.9625 0.25152,2.5375 0,3.5 C 317.4378,55.7125 317.232,54.925 317.232,53 Z M 45,54.059017 c 0,-0.517541 0.444846,-1.215913 0.988546,-1.551938 0.56686,-0.350339 0.734507,0.05106 0.393011,0.940983 C 45.716766,55.180479 45,55.497449 45,54.059017 Z M 188,54 c -0.90129,-0.58246 -1.02463,-0.975486 -0.30902,-0.984687 0.65504,-0.0084 1.4691,0.434687 1.80902,0.984687 0.7673,1.241525 0.42112,1.241525 -1.5,0 z M 25.812999,52.751395 c 1.790327,-0.861684 2.17672,-1.656223 1.709918,-3.516109 -0.385764,-1.537008 -0.228294,-2.171233 0.437001,-1.760058 2.624209,1.62185 -0.262971,6.737623 -3.644177,6.457092 -0.448657,-0.03722 0.225108,-0.568641 1.497258,-1.180925 z M 331.07895,52.416667 c 0.048,-1.164943 0.28494,-1.4019 0.60416,-0.604167 0.28887,0.721875 0.25335,1.584375 -0.0789,1.916667 -0.33229,0.332291 -0.56864,-0.258334 -0.52522,-1.3125 z m -262.000003,-1 c 0.04798,-1.164943 0.284941,-1.4019 0.604167,-0.604167 0.288871,0.721875 0.253344,1.584375 -0.07895,1.916667 -0.332292,0.332291 -0.568641,-0.258334 -0.52522,-1.3125 z m 137.220743,0.29736 c -0.43983,-0.707286 -2.09788,-2.282286 -3.68455,-3.5 C 201.02847,46.996312 200.0318,46 200.40032,46 c 1.37014,0 5.71461,3.346224 6.67547,5.141617 1.11698,2.087089 0.46489,2.568033 -0.7761,0.57241 z M 47.078947,49.821429 c -0.04342,-0.923215 -0.78609,-2.385715 -1.650376,-3.25 C 44.564286,45.707143 44.323453,45 44.893388,45 c 1.387562,0 3.360471,3.805662 2.750413,5.305439 -0.274479,0.674784 -0.520258,0.464182 -0.564854,-0.48401 z M 99.394557,37.5 c 0.0016,-7.7 0.158535,-10.717812 0.348833,-6.70625 0.190297,4.011563 0.189021,10.311563 -0.0028,14 C 99.548695,48.482188 99.392997,45.2 99.394557,37.5 Z m 13.684393,11.916667 c 0.048,-1.164943 0.28494,-1.4019 0.60416,-0.604167 0.28887,0.721875 0.25335,1.584375 -0.0789,1.916667 -0.3323,0.332291 -0.56864,-0.258334 -0.52522,-1.3125 z M 12.75,48.337719 c 0.6875,-0.277412 1.8125,-0.277412 2.5,0 0.6875,0.277413 0.125,0.504386 -1.25,0.504386 -1.375,0 -1.9375,-0.226973 -1.25,-0.504386 z m 6.0625,-1.020833 c 0.721875,-0.288871 1.584375,-0.253344 1.916667,0.07895 0.332291,0.332292 -0.258334,0.568641 -1.3125,0.52522 -1.164943,-0.04798 -1.4019,-0.284941 -0.604167,-0.604167 z m 13.796204,-0.739567 c 0.300263,-0.782475 1.196553,-1.672347 1.991754,-1.977495 1.159781,-0.44505 1.236443,-0.163588 0.387497,1.422681 -1.205423,2.252356 -3.210038,2.719808 -2.379251,0.554814 z m 6.617486,-0.156042 c 0.949405,-0.991226 1.94144,-1.58698 2.204522,-1.323898 0.263082,0.263082 -0.513704,1.074085 -1.72619,1.80223 -2.106309,1.264918 -2.127619,1.243608 -0.478332,-0.478332 z M 82.374067,37.5 c 0.0023,-6.05 0.166961,-8.396069 0.366011,-5.213487 0.19905,3.182582 0.197204,8.132582 -0.0041,11 C 82.53467,46.153931 82.371811,43.55 82.374067,37.5 Z M 220.6954,44.487443 C 219.78073,42.569349 219.23852,41 219.4905,41 c 0.68426,0 3.71992,6.122912 3.26246,6.580373 -0.21698,0.216982 -1.14288,-1.174837 -2.05756,-3.09293 z M 287.19495,45.5 c 0.0204,-1.65 0.2445,-2.203936 0.49804,-1.230968 0.25354,0.972967 0.23687,2.322967 -0.0371,3 C 287.38201,47.946064 287.17457,47.15 287.19495,45.5 Z m 188.05723,-1 c 0.0111,-2.2 0.21589,-2.982253 0.45508,-1.738341 0.23919,1.243913 0.23011,3.043913 -0.0202,4 C 475.43679,47.717747 475.24108,46.7 475.25218,44.5 Z M 489.232,45 c 0,-1.925 0.2058,-2.7125 0.45733,-1.75 0.25152,0.9625 0.25152,2.5375 0,3.5 C 489.4378,47.7125 489.232,46.925 489.232,45 Z M 29.55887,44.468197 C 27.661866,43.033375 27.667549,43 29.80887,43 31.089874,43 32,43.623052 32,44.5 c 0,1.809548 -0.0068,1.80946 -2.44113,-0.0318 z M 332.35496,37.5 c -0.003,-4.95 0.16605,-7.101078 0.37577,-4.780173 0.20972,2.320905 0.21222,6.370905 0.006,9 C 332.5296,44.348922 332.358,42.45 332.35496,37.5 Z M 14.58345,43.356872 C 13.708295,41.076255 14.200937,41.020029 16.25,43.166667 17.582737,44.562868 17.667856,45 16.606989,45 15.840833,45 14.93024,44.260592 14.58345,43.356872 Z M 21.75,43.337719 c 0.6875,-0.277412 1.8125,-0.277412 2.5,0 0.6875,0.277413 0.125,0.504386 -1.25,0.504386 -1.375,0 -1.9375,-0.226973 -1.25,-0.504386 z M 36,42.606989 c 0,-0.216156 0.698372,-0.661002 1.551938,-0.988546 0.889925,-0.341496 1.291322,-0.173849 0.940983,0.393011 C 37.905663,42.961658 36,43.416902 36,42.606989 Z M 68.309869,37.5 c 0.0056,-3.3 0.192301,-4.529441 0.414862,-2.732091 0.222562,1.79735 0.217969,4.49735 -0.0102,6 C 68.486352,42.270559 68.304256,40.8 68.309869,37.5 Z m -39.68633,2.961341 c -0.964979,-2.514694 -0.680311,-3.163555 0.498534,-1.136338 0.58369,1.003751 0.850598,2.035659 0.593129,2.293128 -0.257468,0.257469 -0.748717,-0.263087 -1.091663,-1.15679 z M 41.8125,40.316886 c 0.721875,-0.288871 1.584375,-0.253344 1.916667,0.07895 0.332291,0.332292 -0.258334,0.568641 -1.3125,0.52522 -1.164943,-0.04798 -1.4019,-0.284941 -0.604167,-0.604167 z M 46,40.118034 c 0,-0.55 0.45,-1.278115 1,-1.618034 0.55,-0.339919 1,-0.168034 1,0.381966 0,0.55 -0.45,1.278115 -1,1.618034 -0.55,0.339919 -1,0.168034 -1,-0.381966 z M 186.40499,37.75 184.5,35.5 l 2.25,1.904988 C 188.86444,39.195206 189.45524,40 188.65499,40 c -0.18976,0 -1.20226,-1.0125 -2.25,-2.25 z M 216.5,39 c -0.33992,-0.55 -0.14148,-1 0.44098,-1 0.58246,0 1.05902,0.45 1.05902,1 0,0.55 -0.19844,1 -0.44098,1 -0.24254,0 -0.7191,-0.45 -1.05902,-1 z m 258.82007,-5 c 0,-3.575 0.1815,-5.0375 0.40333,-3.25 0.22182,1.7875 0.22182,4.7125 0,6.5 -0.22183,1.7875 -0.40333,0.325 -0.40333,-3.25 z m -261.75578,2.293128 c -0.54268,-1.425198 -0.42782,-1.540062 0.5598,-0.559795 0.68342,0.678334 0.99067,1.485241 0.68278,1.793128 -0.30789,0.307888 -0.86705,-0.247112 -1.24258,-1.233333 z M 10.623539,34.461341 c -0.9649789,-2.514694 -0.6803108,-3.163555 0.498534,-1.136338 0.58369,1.003751 0.850598,2.035659 0.593129,2.293128 -0.257468,0.257469 -0.748717,-0.263087 -1.091663,-1.15679 z M 181.87244,33.25 C 180.62857,31.663944 180.66394,31.628574 182.25,32.872445 183.91575,34.178814 184.44548,35 183.62244,35 c -0.20765,0 -0.99515,-0.7875 -1.75,-1.75 z M 208.25,32.884952 c -3.40851,-2.18287 -4.51156,-3.648752 -1.5,-1.99341 2.29443,1.261163 5.88883,4.040698 5.25,4.059808 -0.275,0.0082 -1.9625,-0.921653 -3.75,-2.066398 z M 25.623539,32.461341 c -0.964979,-2.514694 -0.680311,-3.163555 0.498534,-1.136338 0.58369,1.003751 0.850598,2.035659 0.593129,2.293128 -0.257468,0.257469 -0.748717,-0.263087 -1.091663,-1.15679 z M 488.625,33.202254 c -0.27117,-0.43876 -0.0796,-1.45126 0.42567,-2.25 0.71729,-1.133859 0.92206,-0.958959 0.93402,0.797746 0.0157,2.313034 -0.49232,2.855684 -1.35969,1.452254 z M 50.030626,31.5 c 0,-0.55 0.436218,-1.675 0.969374,-2.5 0.533156,-0.825 0.969374,-1.05 0.969374,-0.5 0,0.55 -0.436218,1.675 -0.969374,2.5 -0.533156,0.825 -0.969374,1.05 -0.969374,0.5 z M 247.40249,17 c 0,-8.525 0.15337,-12.0125 0.34082,-7.75 0.18745,4.2625 0.18745,11.2375 0,15.5 -0.18745,4.2625 -0.34082,0.775 -0.34082,-7.75 z m 13.99207,1.5 c 0.002,-7.7 0.15853,-10.7178123 0.34883,-6.70625 0.1903,4.011563 0.18902,10.311563 -0.003,14 C 261.5487,29.482188 261.393,26.2 261.39456,18.5 Z M 8.6235386,29.461341 C 7.6585601,26.946647 7.9432282,26.297786 9.1220725,28.325003 9.7057628,29.328754 9.9726713,30.360662 9.7152024,30.618131 9.4577335,30.8756 8.9664848,30.355044 8.6235386,29.461341 Z M 36.030626,29.5 c 0,-0.55 0.436218,-1.675 0.969374,-2.5 0.533156,-0.825 0.969374,-1.05 0.969374,-0.5 0,0.55 -0.436218,1.675 -0.969374,2.5 -0.533156,0.825 -0.969374,1.05 -0.969374,0.5 z M 287.232,27 c 0,-1.925 0.2058,-2.7125 0.45733,-1.75 0.25152,0.9625 0.25152,2.5375 0,3.5 C 287.4378,29.7125 287.232,28.925 287.232,27 Z M 113.19495,26.5 c 0.0204,-1.65 0.2445,-2.203936 0.49804,-1.230968 0.25354,0.972967 0.23687,2.322967 -0.037,3 C 113.38201,28.946064 113.17457,28.15 113.19495,26.5 Z M 198.25,26.884952 c -3.40851,-2.18287 -4.51156,-3.648752 -1.5,-1.99341 2.29443,1.261163 5.88883,4.040698 5.25,4.059808 -0.275,0.0082 -1.9625,-0.921653 -3.75,-2.066398 z M 6.1624406,23.457173 C 4.4869522,19.779877 4.806606,18.99538 6.6182964,22.338408 c 0.8460217,1.561124 1.351103,3.025526 1.122403,3.254226 -0.2287001,0.2287 -0.9389165,-0.732257 -1.5782588,-2.135461 z m 16.5042264,1.87616 c -0.366667,-0.366666 -0.652983,-1.379166 -0.636258,-2.25 0.02497,-1.300307 0.220111,-1.257107 1.091664,0.24167 1.076773,1.85169 0.764606,3.228342 -0.455406,2.00833 z M 301.19495,23.5 c 0.0204,-1.65 0.2445,-2.203936 0.49804,-1.230968 0.25354,0.972967 0.23687,2.322967 -0.0371,3 C 301.38201,25.946064 301.17457,25.15 301.19495,23.5 Z m 172.884,0.916667 c 0.048,-1.164943 0.28494,-1.4019 0.60416,-0.604167 0.28887,0.721875 0.25335,1.584375 -0.0789,1.916667 -0.33229,0.332291 -0.56864,-0.258334 -0.52522,-1.3125 z M 38.085598,24 C 38.055363,23.175 38.466844,21.825 39,21 c 1.181322,-1.827966 1.181322,-0.249085 0,2.5 -0.566682,1.31874 -0.878155,1.489055 -0.914402,0.5 z M 178.25218,21.5 c 0.0111,-2.2 0.21589,-2.982253 0.45508,-1.738341 0.23919,1.243913 0.23011,3.043913 -0.0202,4 -0.25029,0.956088 -0.446,-0.06166 -0.4349,-2.261659 z m 138.82677,0.916667 c 0.048,-1.164943 0.28494,-1.4019 0.60416,-0.604167 0.28887,0.721875 0.25335,1.584375 -0.0789,1.916667 -0.33229,0.332291 -0.56864,-0.258334 -0.52522,-1.3125 z m 14,0 c 0.048,-1.164943 0.28494,-1.4019 0.60416,-0.604167 0.28887,0.721875 0.25335,1.584375 -0.0789,1.916667 -0.33229,0.332291 -0.56864,-0.258334 -0.52522,-1.3125 z M 54.030626,21.5 c 0,-0.55 0.436218,-1.675 0.969374,-2.5 0.533156,-0.825 0.969374,-1.05 0.969374,-0.5 0,0.55 -0.436218,1.675 -0.969374,2.5 -0.533156,0.825 -0.969374,1.05 -0.969374,0.5 z M 83.085598,21 C 83.055363,20.175 83.466844,18.825 84,18 c 1.181322,-1.827966 1.181322,-0.249085 0,2.5 -0.566682,1.31874 -0.878155,1.489055 -0.914402,0.5 z m 28.993352,-0.583333 c 0.048,-1.164943 0.28494,-1.4019 0.60416,-0.604167 0.28887,0.721875 0.25335,1.584375 -0.0789,1.916667 -0.3323,0.332291 -0.56864,-0.258334 -0.52522,-1.3125 z m 360.48534,-0.123539 c -0.54268,-1.425198 -0.42782,-1.540062 0.5598,-0.559795 0.68342,0.678334 0.99067,1.485241 0.68278,1.793128 -0.30789,0.307888 -0.86705,-0.247112 -1.24258,-1.233333 z M 20.623539,19.461341 c -0.964979,-2.514694 -0.680311,-3.163555 0.498534,-1.136338 0.58369,1.003751 0.850598,2.035659 0.593129,2.293128 -0.257468,0.257469 -0.748717,-0.263087 -1.091663,-1.15679 z M 193.15789,19 c 0,-1.375 0.22698,-1.9375 0.50439,-1.25 0.27741,0.6875 0.27741,1.8125 0,2.5 -0.27741,0.6875 -0.50439,0.125 -0.50439,-1.25 z m 15.50878,0.333333 C 208.3,18.966667 208,18.201667 208,17.633333 c 0,-0.626604 0.46577,-0.567562 1.18333,0.15 0.65084,0.650834 0.95084,1.415834 0.66667,1.7 -0.28417,0.284167 -0.81667,0.216667 -1.18333,-0.15 z m 121.41228,-0.916666 c 0.048,-1.164943 0.28494,-1.4019 0.60416,-0.604167 0.28887,0.721875 0.25335,1.584375 -0.0789,1.916667 -0.33229,0.332291 -0.56864,-0.258334 -0.52522,-1.3125 z M 40.085598,18.5 c 0.10413,-1.894223 1.770759,-5.083849 1.828804,-3.5 0.03023,0.825 -0.381246,2.175 -0.914402,3 -0.533156,0.825 -0.944637,1.05 -0.914402,0.5 z M 289.07895,17.416667 c 0.048,-1.164943 0.28494,-1.4019 0.60416,-0.604167 0.28887,0.721875 0.25335,1.584375 -0.0789,1.916667 -0.33229,0.332291 -0.56864,-0.258334 -0.52522,-1.3125 z M 96.561207,16.161594 c -0.413655,-1.286124 -2.171649,-2.95601 -3.906654,-3.710858 -1.739599,-0.756848 -2.394615,-1.390009 -1.460317,-1.411594 2.395792,-0.05535 7.187763,4.320805 6.60532,6.032152 -0.333477,0.97983 -0.722546,0.694017 -1.238349,-0.9097 z M 469.13922,15.966731 C 467.84078,14.885029 467.20854,14 467.73423,14 c 0.52569,0 1.77028,0.9 2.76577,2 2.28688,2.526974 1.69506,2.512505 -1.36078,-0.03327 z M 85,15.277432 c 0,-1.258249 2.858364,-3.752402 3.530297,-3.080469 0.26508,0.265081 -0.420794,1.298951 -1.524166,2.297489 C 85.902759,15.49299 85,15.845331 85,15.277432 Z M 179.03063,15.5 c 0,-0.55 0.43621,-1.675 0.96937,-2.5 0.53316,-0.825 0.96937,-1.05 0.96937,-0.5 0,0.55 -0.43621,1.675 -0.96937,2.5 -0.53316,0.825 -0.96937,1.05 -0.96937,0.5 z m 15.03403,-1.178836 c 1.75355,-2.878017 4.85155,-4.1462 7.93534,-3.248379 2.26471,0.659353 2.17666,0.737236 -0.93555,0.827535 -2.06245,0.05984 -4.41311,0.998945 -5.88144,2.34968 -2.43309,2.238216 -2.43895,2.238589 -1.11835,0.07116 z M 206,14 c -0.5887,-1.1 -0.84537,-2 -0.57037,-2 0.275,0 0.98167,0.9 1.57037,2 0.5887,1.1 0.84537,2 0.57037,2 -0.275,0 -0.98167,-0.9 -1.57037,-2 z m 14.11226,0.5 c -0.0658,-1.1 -1.03333,-3.498501 -2.14995,-5.3300012 -1.11662,-1.8315007 -1.56174,-3.0404652 -0.98915,-2.6865879 1.74553,1.0787959 4.17519,6.5464841 3.70324,8.3337211 -0.35306,1.337002 -0.46901,1.271824 -0.56414,-0.317132 z M 313.5,14 c -0.99549,-1.1 -1.30606,-2 -0.69017,-2 0.61589,0 1.60147,0.9 2.19017,2 0.5887,1.1 0.89928,2 0.69017,2 -0.20911,0 -1.19468,-0.9 -2.19017,-2 z m 15.12354,0.461341 c -0.96498,-2.514694 -0.68031,-3.163555 0.49853,-1.136338 0.58369,1.003751 0.8506,2.035659 0.59313,2.293128 -0.25747,0.257469 -0.74872,-0.263087 -1.09166,-1.15679 z M 459.25088,15 c 0.24816,-0.923341 1.71907,-1.55414 3.82613,-1.640829 3.13574,-0.129011 3.17151,-0.100459 0.42624,0.340233 -1.64821,0.264584 -3.36997,1.002957 -3.82613,1.640829 C 459.11704,16.123417 458.97864,16.012941 459.25088,15 Z M 108.56415,11.489262 c -1.01647,-1.8874804 -2.30377,-3.1501868 -2.86065,-2.8060139 -0.55689,0.3441729 -0.71567,0.1454613 -0.35286,-0.4415814 0.36281,-0.5870426 -0.58016,-2.0558278 -2.09549,-3.263967 -2.42926,-1.936795 -2.45944,-2.023462 -0.25515,-0.7327108 2.63038,1.5402527 8.69825,9.3900901 7.88619,10.2021501 -0.26064,0.260648 -1.30556,-1.070396 -2.32204,-2.957877 z M 304,14.622445 c 0,-0.207656 0.7875,-0.995156 1.75,-1.75 1.58606,-1.243871 1.62143,-1.208501 0.37756,0.377555 C 304.82119,14.915748 304,15.445479 304,14.622445 Z M 72.031803,13.44113 c 0.01749,-0.517622 0.692492,-1.814638 1.5,-2.88226 0.807509,-1.0676209 1.453885,-1.5176209 1.436394,-0.9999996 -0.01749,0.5176216 -0.692492,1.8146376 -1.5,2.8822596 -0.807509,1.067621 -1.453885,1.517621 -1.436394,1 z M 42.030626,12.5 c 0,-0.55 0.436218,-1.675 0.969374,-2.5 0.533156,-0.825 0.969374,-1.05 0.969374,-0.5 0,0.55 -0.436218,1.675 -0.969374,2.5 -0.533156,0.825 -0.969374,1.05 -0.969374,0.5 z M 308.8125,11.316886 c 0.72187,-0.288871 1.58438,-0.253344 1.91667,0.07895 0.33229,0.332292 -0.25834,0.568641 -1.3125,0.52522 -1.16495,-0.04798 -1.4019,-0.284941 -0.60417,-0.604167 z M 181.56429,9.7068719 c 0.37553,-0.9862204 0.93469,-1.5412204 1.24258,-1.2333333 0.30789,0.3078871 6.4e-4,1.1147947 -0.68278,1.7931284 -0.98762,0.980267 -1.10248,0.865403 -0.5598,-0.5597951 z M 292.94631,9.290648 C 294.04499,7.0442222 299.98983,2 301.53867,2 c 0.46744,0 -0.70004,1.1377794 -2.59439,2.5283987 -1.89435,1.3906192 -4.26198,3.5281192 -5.26139,4.75 L 291.86577,11.5 Z M 326,9.940983 c 0,-0.5824593 0.45,-0.7809017 1,-0.440983 0.55,0.3399187 1,0.816476 1,1.059017 C 328,10.801558 327.55,11 327,11 c -0.55,0 -1,-0.476558 -1,-1.059017 z M 480.7162,9.5733415 C 479.93154,8.7886793 477.76189,7.2153615 475.89477,6.0770796 474.02765,4.9387977 472.99498,4.005794 473.59996,4.0037381 474.78126,3.9997236 483,9.6850888 483,10.506272 c 0,0.867585 -0.81705,0.53382 -2.2838,-0.9329305 z M 58.984687,6.75 C 58.9661,4.0189061 58.130266,2.6864746 55.5,1.1949455 54.4,0.57117503 54.0625,0.04713346 54.75,0.03040869 56.854283,-0.0207821 60,3.8556948 60,6.5 60,7.875 59.775,9 59.5,9 59.225,9 58.993109,7.9875 58.984687,6.75 Z M 44.006589,7.3557553 c -0.0096,-1.6593123 5.556306,-7.36204809 7.144621,-7.32031988 0.741834,0.01948947 0.30918,0.61233101 -0.961454,1.31742558 -1.270635,0.7050947 -3.18017,2.6016487 -4.243411,4.2145646 -1.063242,1.6129159 -1.936132,2.4176643 -1.939756,1.7883297 z M 77.495966,6.1573758 c 1.089911,-1.2884432 2.886691,-2.8060263 3.992845,-3.3724068 2.123914,-1.0875009 1.81458,-0.7524016 -2.981657,3.2300108 -2.887419,2.3974825 -2.923039,2.4024985 -1.011188,0.142396 z M 184.49668,6.0053775 c 0.33809,-0.5470424 1.60214,-1.5025766 2.80901,-2.1234094 L 189.5,2.7531812 187.29181,4.8765906 c -2.30445,2.2159832 -3.85374,2.8416461 -2.79513,1.1287869 z M 0.03040869,4.9049876 C -0.00175417,3.2179647 3.0221673,-0.02193208 4.5787407,0.03180337 5.0854333,0.04929523 4.7923336,0.61179523 3.927408,1.2818034 3.0624824,1.9518115 1.8386663,3.4 1.2078167,4.5 0.31859815,6.0505128 0.05398321,6.1415311 0.03040869,4.9049876 Z M 12.580302,3.2185751 10.660604,0.5 13.330302,2.924314 c 2.8054,2.5475432 3.151166,3.0958594 1.919698,3.0442611 -0.4125,-0.017284 -1.613864,-1.2547837 -2.669698,-2.75 z M 213.81115,4.9334616 C 213.61562,4.3468655 210.99062,3.0284229 207.97782,2.0035891 204.96502,0.97875536 203.4,0.11858053 204.5,0.09208951 207.19462,0.0271956 215,3.639241 215,4.951108 c 0,1.3615266 -0.73275,1.3506502 -1.18885,-0.017646 z M 320.87244,4.25 C 319.62857,2.6639444 319.66394,2.6285741 321.25,3.8724447 322.91575,5.1788145 323.44548,6 322.62244,6 c -0.20765,0 -0.99515,-0.7875 -1.75,-1.75 z M 7.6383736,1.5 C 7.2912661,0.59545247 7.6333045,0 8.5,0 9.3666955,0 9.7087339,0.59545247 9.3616264,1.5 9.0450442,2.325 8.6573123,3 8.5,3 8.3426877,3 7.9549558,2.325 7.6383736,1.5 Z M 160.75,2.3377193 c 0.6875,-0.2774123 1.8125,-0.2774123 2.5,0 0.6875,0.2774123 0.125,0.504386 -1.25,0.504386 -1.375,0 -1.9375,-0.2269737 -1.25,-0.504386 z m 80.51903,-0.03071 c 0.97297,-0.2535434 2.32297,-0.2368691 3,0.037054 0.67703,0.2739231 -0.11903,0.4813677 -1.76903,0.460988 -1.65,-0.02038 -2.20394,-0.2444986 -1.23097,-0.498042 z m 25.98097,0.00367 c 0.9625,-0.2515276 2.5375,-0.2515276 3.5,0 0.9625,0.2515275 0.175,0.4573228 -1.75,0.4573228 -1.925,0 -2.7125,-0.2057953 -1.75,-0.4573228 z m 77.51166,-0.017935 c 1.24391,-0.2391932 3.04391,-0.2301119 4,0.020181 C 349.71775,2.5632124 348.7,2.758916 346.5,2.7478166 344.3,2.7367172 343.51775,2.5319324 344.76166,2.2927391 Z m 34,0 c 1.24391,-0.2391932 3.04391,-0.2301119 4,0.020181 C 383.71775,2.5632124 382.7,2.758916 380.5,2.7478166 378.3,2.7367172 377.51775,2.5319324 378.76166,2.2927391 Z m 26.48834,0.01793 c 0.9625,-0.2515276 2.5375,-0.2515276 3.5,0 0.9625,0.2515275 0.175,0.4573228 -1.75,0.4573228 -1.925,0 -2.7125,-0.2057953 -1.75,-0.4573228 z m 61.5625,0.00621 c 0.72187,-0.2888706 1.58438,-0.2533443 1.91667,0.078947 0.33229,0.3322917 -0.25834,0.5686404 -1.3125,0.5252193 -1.16495,-0.047984 -1.4019,-0.2849403 -0.60417,-0.6041663 z m -382,-1 C 85.534375,1.0280137 86.396875,1.06354 86.729167,1.3958313 87.061458,1.728123 86.470833,1.9644717 85.416667,1.9210506 84.251724,1.8730687 84.014767,1.6361123 84.8125,1.316886 Z m 108,0 c 0.72187,-0.2888706 1.58437,-0.2533443 1.91667,0.078947 0.33229,0.3322917 -0.25834,0.5686404 -1.3125,0.5252193 -1.16495,-0.047984 -1.4019,-0.2849403 -0.60417,-0.6041663 z m 3.9375,-0.979165 c 0.6875,-0.27741228 1.8125,-0.27741228 2.5,0 0.6875,0.27741228 0.125,0.50438596 -1.25,0.50438596 -1.375,0 -1.9375,-0.22697368 -1.25,-0.50438596 z"
       id="path18-3"
       inkscape:connector-curvature="0" />
    <path
       style="fill:#ffffff"
       d="M 8.5581818,90.75 C 4.8492422,84.5625 1.5869983,78.126974 1.308751,76.448831 0.98678299,74.507003 2.170196,69.007201 4.56365,61.32199 L 8.3244533,49.246319 13.412227,48.641664 c 2.798275,-0.332561 6.953149,-0.890913 9.233053,-1.240783 3.694783,-0.566995 4.222629,-0.392422 4.857012,1.606342 0.755886,2.381585 -0.404106,3.668112 -4.002292,4.43887 -1.1,0.235628 -3.219665,0.685748 -4.710366,1.000266 -2.349685,0.495751 -2.981791,1.483242 -4.75,7.420559 C 11.224169,71.32072 11.317318,74 14.461456,74 16.988744,74 17.783515,72.332423 19.610896,63.19552 19.962403,61.437984 20.606946,60 21.043213,60 c 0.436266,0 1.550494,-0.290596 2.47606,-0.645769 1.55107,-0.595202 1.545052,-0.379859 -0.07685,2.75 -3.023553,5.834673 -3.409916,9.420082 -1.375581,12.765276 2.415384,3.971781 5.313514,5.399657 10.043942,4.948538 C 34.249851,79.614052 36,79.856257 36,80.356279 36,82.627261 40.4896,85 44.78666,85 c 3.622687,0 4.953464,-0.526571 6.949944,-2.75 l 2.469301,-2.75 -0.513194,4.290247 C 53.201936,87.89307 47.270647,97.454883 43.172405,100.75 42.10541,101.6079 37.490316,102 28.459725,102 H 15.301708 Z M 41.654988,78.171259 C 40.744744,77.165452 40,75.794485 40,75.124666 c 0,-1.509151 8.802798,-16.884755 10.139941,-17.711154 0.535552,-0.330989 2.066301,-0.327581 3.401665,0.0076 4.192293,1.052199 4.022976,4.438257 -0.606566,12.130314 -6.648225,11.046131 -8.088362,12.146638 -11.280052,8.619859 z M 83.008594,74.879536 C 77.980168,72.87396 73.570929,66.93242 71.224334,59 69.352374,52.672035 68.459935,28.270573 69.881491,22.283384 72.956874,9.3307432 79.727117,2.1762486 89.717555,1.3215042 97.540501,0.65220226 103.12778,3.583796 108.12233,10.978326 c 2.93696,4.348222 3.83593,6.891603 4.75128,13.442301 3.32821,23.81857 -1.64221,44.096321 -12.20376,49.787457 -3.545572,1.910544 -13.596515,2.292664 -17.661256,0.671452 z M 94.610468,64.234687 C 95.221225,63.830609 96.534235,61.925 97.528268,60 99.906823,55.393798 100.7607,28.362291 98.788401,20.107744 96.382658,10.039152 88.734306,8.1397272 84.551759,16.572154 c -1.677997,3.383007 -1.955421,6.147239 -2,19.927846 -0.0574,17.743218 0.535129,22.069448 3.547103,25.898553 2.021544,2.569978 6.079334,3.445329 8.511606,1.836134 z M 138.35538,75.15032 C 135.48081,74.278656 130.93509,70.283528 127.94398,66 125.50547,62.507828 125.49929,62.433773 125.18413,32.888175 L 124.86825,3.2763493 128.05913,2.6381747 C 129.81411,2.2871786 132.76875,2 134.625,2 H 138 l 0.0997,27.25 c 0.12488,34.140363 0.26149,34.69394 8.76289,35.510817 5.10843,0.490855 5.14061,0.475809 6.63538,-3.101666 C 154.7106,58.756873 155,52.759595 155,30.532119 V 3 l 3.75,-0.013655 c 2.0625,-0.00751 4.7926,-0.2928662 6.06689,-0.6341247 l 2.3169,-0.62047 -0.3169,30.3841247 C 166.51621,60.945677 166.39214,62.679045 164.39145,66 c -1.1597,1.925 -2.606,3.392898 -3.21401,3.261996 -0.60801,-0.130902 -0.87359,0.366258 -0.59018,1.1048 1.33526,3.479631 -14.9654,6.986963 -22.23188,4.783524 z m 53.26939,-0.619428 c -4.59006,-1.636121 -9.25568,-5.961797 -12.39038,-11.487594 l -2.26561,-3.993785 4.98236,-2.524756 C 184.69145,55.136141 187.33867,54 187.83387,54 c 0.4952,0 2.11498,1.835425 3.59953,4.078722 6.48722,9.802861 19.10972,7.96033 17.14679,-2.502953 C 207.70813,50.927267 205.58014,48.676325 198.5,44.913123 184.52897,37.487316 179,31.110236 179,22.421956 c 0,-7.743397 2.80308,-13.2852843 9.26479,-18.3171247 0.97064,-0.7558501 4.33475,-1.9716793 7.47581,-2.7018426 4.91073,-1.14153768 6.45,-1.11274288 10.98455,0.2054866 2.90044,0.843181 5.94882,2.2083546 6.77419,3.0337191 0.82536,0.8253645 1.5147,1.1310199 1.53187,0.6792342 0.0561,-1.4762932 4.95905,7.1370404 4.9401,8.6785714 -0.0102,0.825947 -2.20155,2.458419 -4.8766,3.632812 l -4.85816,2.132811 -2.17436,-3.868752 c -4.27654,-7.6090906 -13.48096,-6.6276015 -14.80069,1.578234 -0.71849,4.467404 1.87476,7.463103 11.36029,13.12332 5.15801,3.0779 9.37821,6.077394 9.37821,6.665545 0,0.58815 0.2625,0.806863 0.58333,0.48603 0.90937,-0.909366 4.11676,2.7418 6.48297,7.379956 2.56049,5.01897 2.35946,13.179411 -0.46978,19.070234 -4.49705,9.363393 -18.0888,14.209917 -28.97175,10.330702 z m 108.39291,-0.661211 c -1.91527,-1.167564 -4.07908,-2.853382 -4.80846,-3.746262 -2.07861,-2.544552 -5.25063,-9.802604 -5.84564,-13.37568 -3.5358,-21.232728 -2.31981,-36.610356 3.66008,-46.286025 C 299.52779,-0.06219257 313.77972,-2.018165 323.25,6.3133699 324.7625,7.6440006 326,9.2428413 326,9.8663492 326,10.489857 326.38164,11 326.84809,11 c 0.46645,0 1.66659,2.3625 2.66698,5.25 2.70299,7.801889 3.22823,29.303217 0.96515,39.509192 -2.19989,9.92096 -7.00946,16.970729 -13.17796,19.31599 -4.52193,1.719232 -13.51582,1.091959 -17.28458,-1.205501 z m 13.1203,-10.124648 C 317.20082,60.287388 318,56.142562 318,38.528916 c 0,-18.693101 -1.37268,-24.959712 -5.83934,-26.657931 -3.7973,-1.443731 -6.92082,0.385249 -9.18806,5.380068 -1.65326,3.642188 -1.93181,6.619576 -1.95064,20.849724 -0.0126,9.54158 0.45091,18.046238 1.09006,20 1.08176,3.306744 5.37312,7.889289 7.38798,7.889289 0.55,0 2.18709,-1.010265 3.63798,-2.245033 z m 41.43909,10.168279 c -5.13218,-2.750687 -6.1774,-3.887861 -8.82413,-9.600494 -2.1108,-4.555906 -2.24679,-6.313036 -2.54759,-32.916871 L 342.8876,3.291894 348.1938,2.6546391 c 2.91841,-0.3504902 6.0745,-0.6411664 7.01353,-0.645947 1.56466,-0.00797 1.73179,2.4479328 2,29.3879229 0.27151,27.27163 0.43038,29.548661 2.19766,31.5 3.14415,3.471601 10.61189,2.556524 12.47311,-1.528422 C 372.62007,59.739742 373,49.629045 373,31.511964 c 0,-15.066662 0.34394,-27.6064958 0.76431,-27.8662985 0.42037,-0.2598026 3.23287,-0.6037703 6.25,-0.7643725 L 385.5,2.5892888 385.8108,27.544644 c 0.32055,25.737578 -0.46717,34.348661 -3.63395,39.725127 -0.89728,1.523374 -2.18123,2.558791 -2.85321,2.300927 -0.699,-0.268231 -1.00617,0.09304 -0.71787,0.844326 0.31467,0.82003 -1.2025,2.115272 -4.04003,3.449072 -6.08433,2.85997 -14.70481,2.881195 -19.98867,0.04922 z M 27.571429,73.428571 C 25.526007,71.38315 25.519216,71.419938 29.127287,65 c 1.700081,-3.025 4.504429,-8.144842 6.231885,-11.377426 4.585208,-8.580292 9.761467,-10.97441 11.214083,-5.186727 0.54905,2.18759 -0.928986,5.457333 -7.181714,15.887552 -1.590348,2.652869 -3.413345,5.75116 -4.051104,6.88509 -2.208305,3.926342 -5.206096,4.782995 -7.769008,2.220082 z M 234,39 V 3 h 4.91821 c 2.70502,0 5.63002,-0.273145 6.5,-0.6069888 C 246.81758,1.8560242 247,3.5282559 247,16.893011 V 32 h 7.5 7.5 V 17.5 3 l 4.75,-0.076511 c 2.6125,-0.042081 5.54307,-0.2280813 6.51238,-0.4133335 1.66078,-0.317404 1.74726,1.7480531 1.5,35.8265105 L 274.5,74.5 h -6 c -4.06667,0 -6.04028,-0.402778 -6.125,-1.25 -0.0688,-0.6875 -0.18125,-7.514448 -0.25,-15.170996 L 262,44.158008 254.49767,43.829004 246.99534,43.5 l -0.11609,15 c -0.0639,8.25 -0.0628,15.3375 0.002,15.75 C 246.94671,74.6625 244.075,75 240.5,75 H 234 Z m 166,0 V 3 l 4.25,-0.013655 c 2.3375,-0.00751 5.2625,-0.2849942 6.5,-0.6166313 L 413,1.7667373 V 32.883369 64 h 12.43713 12.43713 l -0.57624,3.75 C 436.14103,75.279471 436.90555,75 417.46482,75 H 400 Z m 47.66667,35.333333 C 447.3,73.966667 447,57.479896 447,37.696065 V 1.7254627 l 11.77884,0.4851097 c 10.70787,0.4410022 12.17822,0.7372333 16.17145,3.2580478 5.07372,3.2028966 7.01013,5.0057438 9.28173,8.6415018 2.10546,3.369864 4.97439,13.242287 4.69067,16.141317 -0.12103,1.236709 0.12138,3.039671 0.53869,4.006584 1.00659,2.332259 -1.06725,19.559623 -2.87145,23.853114 -2.69729,6.418771 -7.26594,11.548515 -12.69469,14.253778 C 469.22813,74.690632 467.4172,75 458.47032,75 452.89498,75 448.03333,74.7 447.66667,74.333333 Z M 469.48632,61.8321 c 4.16095,-3.273003 5.70957,-8.17476 6.26557,-19.8321 0.61083,-12.806738 -0.7899,-20.423244 -4.59401,-24.979951 -2.33671,-2.798999 -3.46667,-3.334581 -7.21428,-3.419435 -2.98989,-0.0677 -4.41089,0.308319 -4.3436,1.149386 0.055,0.6875 0.1675,12.05 0.25,25.25 L 460,64 h 3.36514 c 1.93782,0 4.53411,-0.919513 6.12118,-2.1679 z M 32.021092,44.896023 C 32.032693,43.57821 33.18761,39.35 34.587575,35.5 35.987541,31.65 38.48045,24.675 40.127374,20 44.580113,7.3603474 46.859187,3.1241778 50.111443,1.4423705 52.427629,0.24462447 53.47328,0.17900868 55.259031,1.1193536 60.750283,4.0109492 60.33983,7.1225295 51.779122,27.5 46.616666,39.788446 45.843831,41.085209 44.026479,40.508404 41.533388,39.717128 37.345276,41.524397 34.461691,44.635837 L 32,47.292045 Z M 14.691302,41.366868 C 13.876792,39.790091 11.630373,34.675 9.6992588,30 7.768145,25.325 4.7915028,18.268129 3.0844983,14.318064 -0.29509035,6.4975834 -0.05497352,3.7644458 4.2477466,1.0773526 6.046215,-0.04580952 6.5313819,0.00622291 7.5755817,1.4342512 8.5039772,2.7039076 8.9185809,2.7926014 9.2993305,1.8030027 10.33901,-0.89920788 16.017343,6.8725222 19.100364,15.217325 20.783401,19.772796 22.564744,24.4 23.058904,25.5 c 0.494159,1.1 2.218695,5.4875 3.832301,9.75 l 2.933829,7.75 -3.162517,0.01101 c -1.739384,0.0061 -4.811265,0.283643 -6.826402,0.616868 -3.298548,0.545449 -3.811553,0.319997 -5.144813,-2.261006 z"
       id="path16-6"
       inkscape:connector-curvature="0" />
    <path
       style="fill:#ffffff"
       d="M 70.75,101.9199 C 68.73976,100.74904 68.401323,95.998677 70.2,94.2 71.125628,93.274372 118.87667,93 279.04501,93 c 199.89312,0 207.7068,0.06827 209.3,1.828741 2.15105,2.376883 2.09544,4.462686 -0.17375,6.516269 -1.68949,1.52897 -17.5849,1.65267 -208.75,1.62458 C 140.73001,102.94921 71.922957,102.60309 70.75,101.9199 Z"
       id="path14"
       inkscape:connector-curvature="0" />
  </g>
</svg>
