<svg xmlns="http://www.w3.org/2000/svg" version="1.1" id="svg2" width="224" height="224"><path id="path12" d="M112.083 153.438c-1.246-.5-2.708-2.076-3.25-3.502-.543-1.427-.986-12.823-.986-25.354V101.82l-6.813-10.923c-3.748-6.007-13.878-22.079-22.512-35.714-8.634-13.635-16.898-27.085-18.364-29.889-2.453-4.691-2.55-5.305-1.206-7.708 1.862-3.334 7.691-4.153 10.034-1.41.845.99 10.674 16.199 21.844 33.799 20.308 32 22.68 35.5 24.069 35.5.755 0 8.93-12.574 30.233-46.5 13.47-21.452 15.927-24.5 19.748-24.5 3.132 0 5.967 2.768 5.967 5.826 0 2.472-6.944 14.033-31.939 53.174l-17.56 27.5-.5 25.332c-.466 23.605-.633 25.43-2.442 26.75-2.203 1.609-3.128 1.665-6.323.381zm10.93 8.287c1.635-.963 3.954-3.325 5.154-5.25 2.044-3.281 2.212-5.036 2.686-28l.506-24.5 17.886-28.5c9.836-15.675 20.11-31.8 22.829-35.832 9.366-13.888 10.775-20.077 6.308-27.7-4.049-6.908-12.893-9.435-21.068-6.02-3.818 1.597-11.45 12.586-31.467 45.317-5.775 9.443-10.767 17.184-11.094 17.202-.326.018-8.159-12.005-17.405-26.717-9.246-14.713-17.919-28.251-19.272-30.086-5.784-7.84-15.54-9.618-23.027-4.196-4.835 3.503-6.028 5.472-6.811 11.241-.764 5.628 1.476 9.811 25.585 47.79 10.3 16.226 19.919 31.565 21.376 34.088 2.647 4.586 2.648 4.597 2.648 26.783 0 17.77.309 22.932 1.548 25.898 1.778 4.255 5.056 8.08 7.952 9.278 3.643 1.506 12.52 1.055 15.665-.796z" fill="#fff" fill-opacity="1"/><g id="g12" transform="translate(8.513 177.106) scale(.41945)" fill="#fff"><path d="M14.255 101.75C12.748 99.846 10.864 96 11.44 96c.28 0 1.208 1.35 2.061 3l1.551 3h13.04c7.999 0 13.885-.45 15.225-1.164 1.974-1.052 2.052-1.004.812.5C42.969 102.741 40.612 103 29 103c-9.81 0-14.039-.359-14.745-1.25zM45 98.622c0-.207.787-.995 1.75-1.75 1.586-1.243 1.621-1.208.378.378C45.82 98.916 45 99.445 45 98.622zM8.5 92c-.853-1.65-1.326-3-1.051-3 .275 0 1.198 1.35 2.051 3 .853 1.65 1.326 3 1.051 3-.275 0-1.198-1.35-2.051-3zM48 94.622c0-.207.787-.995 1.75-1.75 1.586-1.243 1.621-1.208.378.378C48.82 94.916 48 95.445 48 94.622zM37.993 82.994c-1.273-1.104-2.129-2.19-1.903-2.415.225-.225 1.673.678 3.216 2.006 1.543 1.328 2.4 2.415 1.903 2.415-.497 0-1.944-.903-3.216-2.006zm10.371.5c3.618-1.887 4.17-1.885 2.279.006-.825.825-2.32 1.497-3.322 1.494-1.3-.005-1.003-.433 1.043-1.5zM52 80.59c0-.19.675-.906 1.5-1.591.865-.718 1.5-.815 1.5-.23 0 .56-.675 1.275-1.5 1.592-.825.316-1.5.42-1.5.23zM.624 78.461c-.343-.893-.578-2.6-.522-3.793.065-1.37.405-.883.924 1.325.873 3.717.636 5.174-.402 2.468zm40.405.578c-.81-.512-1.21-1.19-.893-1.509.319-.318 1.148.108 1.844.946 1.443 1.738 1.166 1.902-.951.563zm4.971.583c0-.207.787-.995 1.75-1.75 1.586-1.243 1.621-1.208.378.378C46.82 79.916 46 80.445 46 79.622zm42.25-3.338c1.512-.23 3.987-.23 5.5 0 1.512.229.275.416-2.75.416s-4.263-.187-2.75-.416zm55.014-.002c1.52-.23 3.77-.223 5 .014 1.23.237-.014.426-2.764.418-2.75-.007-3.756-.202-2.236-.432zm54.486.012c1.238-.238 3.263-.238 4.5 0 1.238.239.225.434-2.25.434s-3.487-.195-2.25-.434zm109.018-.019c1.797-.222 4.497-.218 6 .01 1.503.229.032.41-3.268.405-3.3-.005-4.53-.192-2.732-.415zm54.496.007c1.52-.23 3.77-.223 5 .014 1.23.238-.014.426-2.764.418-2.75-.007-3.756-.202-2.236-.432zm-168.452-.965c.722-.289 1.585-.253 1.917.079.332.332-.258.568-1.312.525-1.165-.048-1.402-.285-.604-.604zm13 0c.722-.289 1.585-.253 1.917.079.332.332-.258.568-1.312.525-1.165-.048-1.402-.285-.604-.604zm27.425-36.067l.237-36.75.276 36.188.275 36.187 3.237.403c3.173.394 3.162.405-.512.562L233 76zM261 60.5V45h-13v15.059c0 8.282-.338 14.851-.75 14.597-.412-.253-.618-7.367-.456-15.809l.294-15.347 7.456.329 7.456.329.125 13.921c.069 7.657.181 14.48.25 15.161.069.682 1.475 1.529 3.125 1.882 2.906.621 2.883.645-.75.76L261 76zM372 75c.825-.533 1.95-.97 2.5-.97s.325.437-.5.97c-.825.533-1.95.97-2.5.97s-.325-.437.5-.97zm74.667.333c-.367-.366-.565-17.129-.441-37.25L446.45 1.5l.525 37c.288 20.35.486 37.112.44 37.25-.045.138-.383-.05-.75-.417zM31.543 74.07c-.317-.512-.049-1.256.595-1.654.785-.485.901-.287.352.6-.599.97-.358 1.149.898.666 1.02-.39 1.468-.257 1.105.33-.77 1.246-2.199 1.274-2.95.058zm68.457.538c0-.216.698-.661 1.552-.989.89-.341 1.291-.173.94.393-.586.95-2.492 1.406-2.492.596zm33.872-1.357c-1.243-1.586-1.208-1.621.378-.378 1.666 1.307 2.195 2.128 1.372 2.128-.207 0-.995-.787-1.75-1.75zM155 74.607c0-.216.698-.661 1.552-.989.89-.341 1.291-.173.94.393-.586.95-2.492 1.406-2.492.596zm57.61-2.221c2.14-1.438 4.452-3.068 5.14-3.623.688-.554 1.25-.73 1.25-.392 0 .862-8.082 6.629-9.29 6.629-.544 0 .761-1.176 2.9-2.614zm62.145-21.135c.14-13.063.379-29.601.531-36.751.153-7.15.376 3.537.496 23.75.12 20.212-.12 36.75-.532 36.75-.412.001-.635-10.686-.495-23.75zm22.804 22.217c-1.068-.807-1.518-1.454-1-1.436.517.017 1.815.692 2.882 1.5 1.068.807 1.518 1.454 1 1.436-.517-.017-1.815-.692-2.882-1.5zm23.743-.829c1.54-1.451 3.058-2.639 3.372-2.639 1.041 0-1.974 3.09-4.092 4.194-1.491.777-1.287.336.72-1.555zm31.14.806c-1.865-1.494-1.853-1.512.308-.465 1.238.6 2.25 1.3 2.25 1.555 0 .765-.519.544-2.559-1.09zM399.451 39c0-20.075.133-28.288.297-18.25.163 10.037.163 26.462 0 36.5-.164 10.037-.297 1.825-.297-18.25zm36.112 34.707c.376-.986.935-1.541 1.243-1.233.308.307 0 1.114-.683 1.793-.988.98-1.102.865-.56-.56zm38.268-1.31c2.898-1.445 6.411-4.227 7.89-6.25 3.646-4.985 5.025-6.276 2.83-2.647-3.636 6.005-10.663 11.5-14.709 11.5-.68 0 1.115-1.172 3.989-2.603zM12 73.03c0-.532.74-.684 1.645-.337 1.007.387 2.221-.11 3.134-1.282 1.373-1.762 1.44-1.768.856-.08-.35 1.007-.635 2.02-.635 2.25 0 .23-1.125.418-2.5.418s-2.5-.436-2.5-.969zM77.5 72c-.995-1.1-1.398-2-.896-2 .503 0 1.477.9 2.164 2s1.09 2 .895 2c-.194 0-1.168-.9-2.163-2zm-25-2c.853-1.65 1.776-3 2.051-3 .275 0-.198 1.35-1.051 3s-1.776 3-2.051 3c-.275 0 .198-1.35 1.051-3zm130.816-.25c-1.692-1.788-3.59-4.375-4.216-5.75-.974-2.134-.955-2.219.13-.58.698 1.057 2.785 3.645 4.636 5.75 4.102 4.666 3.71 5.08-.55.58zM35 71.122c0-.482.749-1.495 1.664-2.25 1.508-1.244 1.552-1.162.465.878-1.24 2.327-2.129 2.9-2.129 1.372zm70 .167c0-.574.787-1.662 1.75-2.417 1.619-1.27 1.64-1.222.283.628-.807 1.1-1.594 2.188-1.75 2.417-.156.229-.283-.054-.283-.628zm25.298-.515c-2.221-2.868-2.441-4.119-.345-1.958 1.237 1.274 2.042 2.522 1.79 2.774-.252.252-.902-.115-1.445-.816zm248.36-.223c-.371-.967-.076-1.265.887-.895.794.304 1.195.956.89 1.449-.766 1.24-1.132 1.126-1.777-.554zM42 69c.589-1.1 1.295-2 1.57-2 .275 0 .019.9-.57 2s-1.295 2-1.57 2c-.275 0-.019-.9.57-2zm118.399.75c-.396-.688-.351-.916.099-.509.45.408 1.534.183 2.41-.5 1.409-1.098 1.434-1.04.22.509-1.636 2.086-1.8 2.116-2.73.5zm133.473-.5c-1.243-1.586-1.208-1.621.378-.378 1.666 1.307 2.195 2.128 1.372 2.128-.207 0-.995-.787-1.75-1.75zM12.141 69c0-.825.386-2.4.859-3.5.542-1.26.86-1.445.86-.5 0 .825-.387 2.4-.86 3.5-.542 1.26-.86 1.445-.86.5zM26 69.358c0-.537.7-1.85 1.555-2.917 1.467-1.83 1.487-1.798.365.559-1.458 3.061-1.92 3.628-1.92 2.358zm411.079-1.941c.048-1.165.285-1.402.604-.605.289.722.253 1.585-.079 1.917-.332.332-.568-.258-.525-1.312zM39.5 64c.853-1.65 1.776-3 2.051-3 .275 0-.198 1.35-1.051 3s-1.776 3-2.051 3c-.275 0 .198-1.35 1.051-3zm69.064 1.707c.376-.986.935-1.541 1.243-1.233.308.307 0 1.114-.683 1.793-.988.98-1.102.865-.56-.56zm236.406-.762c-.605-1.13-.925-2.581-.71-3.224.214-.642.894.283 1.512 2.056 1.27 3.642.85 4.254-.802 1.168zM307.5 65c-.352-.57.51-1 2-1s2.352.43 2 1c-.34.55-1.24 1-2 1s-1.66-.45-2-1zm-218.25-.69c.963-.25 2.538-.25 3.5 0 .963.252.175.458-1.75.458s-2.712-.206-1.75-.457zm60.953.01c.937-.247 1.99-1.354 2.341-2.46.351-1.106.859-1.79 1.128-1.521.992.991-1.797 4.657-3.457 4.545-1.605-.109-1.606-.145-.012-.564zm50.547.018c.688-.278 1.813-.278 2.5 0 .688.277.125.504-1.25.504s-1.938-.227-1.25-.504zm158.744-1.344c-2.556-2.825-1.468-3.087 1.22-.295 1.218 1.266 1.85 2.301 1.405 2.301-.445 0-1.626-.903-2.625-2.006zm-219.282-1.026c-1.79-2.868-1.473-3.786.39-1.126.881 1.258 1.427 2.463 1.212 2.677-.214.215-.935-.483-1.602-1.55zM205 63.622c0-.207.787-.995 1.75-1.75 1.586-1.243 1.621-1.208.378.378-1.307 1.666-2.128 2.195-2.128 1.372zm98.98-1.146c-.696-.838-1.071-1.718-.835-1.955.237-.236.98.45 1.651 1.524 1.452 2.325.968 2.58-.816.43zm10.12-.18c.729-1.213 1.54-1.99 1.803-1.727.263.263-.333 1.255-1.324 2.205-1.722 1.65-1.744 1.628-.479-.479zm69.979.12c.048-1.164.285-1.401.604-.604.289.722.253 1.585-.079 1.917-.332.332-.568-.258-.525-1.312zM413.445 33c0-17.325.137-24.413.303-15.75.167 8.662.167 22.837 0 31.5-.166 8.662-.303 1.575-.303-15.75zm-220.04 27.75L191.5 58.5l2.25 1.905c2.114 1.79 2.705 2.595 1.905 2.595-.19 0-1.202-1.012-2.25-2.25zm276.708-.202c.888-1.126 2.112-2.948 2.72-4.048.608-1.1 1.12-1.445 1.137-.766.016.679-1.208 2.5-2.72 4.048-1.512 1.548-2.024 1.893-1.137.766zm-345.034-.131c.048-1.165.285-1.402.604-.605.289.722.253 1.585-.079 1.917-.332.332-.568-.258-.525-1.312zm-100.746-.961c0-.8.375-1.456.834-1.456.458 0 .833.423.833.941s-.375 1.173-.833 1.456c-.459.283-.834-.14-.834-.941zm-3.52-.14c.721-.288 1.584-.252 1.916.08.332.332-.258.568-1.312.525-1.165-.048-1.402-.285-.605-.604zM56 59.25c0-.596-1.238-1.535-2.75-2.088-1.512-.552-2.049-1.04-1.191-1.083 2.075-.105 5.637 2.558 4.69 3.506-.412.412-.749.26-.749-.335zm41.61-1.75c.823-3.677 1.395-4.475 1.375-1.917-.009 1.055-.472 2.592-1.03 3.417-.742 1.095-.835.69-.345-1.5zm110.585 0c.02-1.65.244-2.204.498-1.231.254.973.237 2.323-.037 3-.274.677-.481-.119-.461-1.769zM5.079 57.417c.048-1.165.285-1.402.604-.605.289.722.253 1.585-.079 1.917-.332.332-.568-.258-.525-1.312zm27.485.29c.376-.986.935-1.541 1.243-1.233.308.307 0 1.114-.683 1.793-.988.98-1.102.865-.56-.56zM154.441 31c0-15.675.138-22.087.307-14.25.169 7.838.169 20.663 0 28.5-.17 7.838-.307 1.425-.307-14.25zm24 26.555c1.068-.855 2.38-1.555 2.917-1.555 1.27 0 .703.462-2.358 1.92-2.357 1.122-2.39 1.102-.559-.365zm151.638-.138c.048-1.165.285-1.402.604-.605.289.722.253 1.585-.079 1.917-.332.332-.568-.258-.525-1.312zm55 0c.048-1.165.285-1.402.604-.605.289.722.253 1.585-.079 1.917-.332.332-.568-.258-.525-1.312zm-302-2c.048-1.165.285-1.402.604-.605.289.722.253 1.585-.079 1.917-.332.332-.568-.258-.525-1.312zm55.36-25.917c.001-15.4.14-21.56.31-13.69.168 7.871.168 20.471-.002 28-.17 7.53-.308 1.09-.307-14.31zm-26.36 24.917c.048-1.165.285-1.402.604-.604.289.721.253 1.584-.079 1.916-.332.332-.568-.258-.525-1.312zm12.154-25.167L124 2l2.75.136c2.333.116 2.412.202.516.568l-2.234.43-.283 26.683-.283 26.683zM167.435 31c0-14.025.14-19.762.312-12.75.172 7.013.172 18.488 0 25.5-.172 7.013-.312 1.275-.312-12.75zm55.797 22c0-1.925.206-2.712.457-1.75.252.963.252 2.538 0 3.5-.251.962-.457.175-.457-1.75zM288 54.5c0-.825.177-1.5.393-1.5.216 0 .652.675.969 1.5.316.825.14 1.5-.393 1.5s-.969-.675-.969-1.5zm13.232-1.5c0-1.925.206-2.712.457-1.75.252.963.252 2.538 0 3.5-.251.962-.457.175-.457-1.75zm16 0c0-1.925.206-2.712.457-1.75.252.963.252 2.538 0 3.5-.251.962-.457.175-.457-1.75zM45 54.059c0-.518.445-1.216.989-1.552.566-.35.734.051.393.941-.665 1.732-1.382 2.05-1.382.611zM188 54c-.901-.582-1.025-.975-.309-.985.655-.008 1.47.435 1.809.985.767 1.242.421 1.242-1.5 0zM25.813 52.751c1.79-.861 2.177-1.656 1.71-3.516-.386-1.537-.228-2.17.437-1.76 2.624 1.622-.263 6.738-3.644 6.457-.449-.037.225-.568 1.497-1.18zm305.266-.334c.048-1.165.285-1.402.604-.605.289.722.253 1.585-.079 1.917-.332.332-.568-.258-.525-1.312zm-262-1c.048-1.165.285-1.402.604-.605.289.722.253 1.585-.079 1.917-.332.332-.568-.258-.525-1.312zm137.22.297c-.44-.707-2.097-2.282-3.684-3.5C201.028 46.996 200.032 46 200.4 46c1.37 0 5.715 3.346 6.676 5.142 1.117 2.087.465 2.568-.776.572zM47.08 49.821c-.043-.923-.786-2.385-1.65-3.25-.865-.864-1.106-1.571-.536-1.571 1.388 0 3.36 3.806 2.75 5.305-.274.675-.52.465-.564-.484zM99.395 37.5c.001-7.7.158-10.718.348-6.706.19 4.011.19 10.311-.002 14-.192 3.688-.348.406-.346-7.294zm13.684 11.917c.048-1.165.285-1.402.604-.604.289.721.253 1.584-.079 1.916-.332.332-.568-.258-.525-1.312zM12.75 48.337c.688-.277 1.813-.277 2.5 0 .688.278.125.505-1.25.505s-1.938-.227-1.25-.504zm6.063-1.02c.721-.289 1.584-.253 1.916.079.332.332-.258.568-1.312.525-1.165-.048-1.402-.285-.605-.604zm13.796-.74c.3-.782 1.196-1.672 1.991-1.977 1.16-.445 1.237-.164.388 1.423-1.205 2.252-3.21 2.72-2.38.554zm6.617-.156c.95-.99 1.942-1.587 2.205-1.324.263.263-.514 1.074-1.726 1.803-2.107 1.265-2.128 1.243-.479-.479zM82.374 37.5c.002-6.05.167-8.396.366-5.213.2 3.182.197 8.132-.004 11-.201 2.867-.364.263-.362-5.787zm138.321 6.987C219.781 42.57 219.24 41 219.491 41c.684 0 3.72 6.123 3.262 6.58-.217.217-1.143-1.174-2.058-3.093zm66.5 1.013c.02-1.65.244-2.204.498-1.231.254.973.237 2.323-.037 3-.274.677-.481-.119-.461-1.769zm188.057-1c.011-2.2.216-2.982.455-1.738.24 1.244.23 3.044-.02 4s-.446-.062-.435-2.262zm13.98.5c0-1.925.206-2.712.457-1.75.252.963.252 2.538 0 3.5-.251.962-.457.175-.457-1.75zm-459.673-.532c-1.897-1.435-1.891-1.468.25-1.468 1.28 0 2.191.623 2.191 1.5 0 1.81-.007 1.81-2.441-.032zM332.355 37.5c-.003-4.95.166-7.101.376-4.78.21 2.32.212 6.37.006 9-.207 2.629-.379.73-.382-4.22zM14.583 43.357c-.875-2.28-.382-2.337 1.667-.19 1.333 1.396 1.418 1.833.357 1.833-.766 0-1.677-.74-2.024-1.643zm7.167-.02c.688-.277 1.813-.277 2.5 0 .688.278.125.505-1.25.505s-1.938-.227-1.25-.504zm14.25-.73c0-.216.698-.661 1.552-.989.89-.341 1.291-.173.94.393-.586.95-2.492 1.406-2.492.596zM68.31 37.5c.005-3.3.192-4.53.415-2.732.222 1.797.218 4.497-.01 6-.229 1.503-.41.032-.405-3.268zm-39.686 2.961c-.965-2.514-.68-3.163.498-1.136.584 1.004.85 2.036.593 2.293-.257.258-.749-.263-1.091-1.157zm13.189-.144c.721-.289 1.584-.253 1.916.079.332.332-.258.568-1.312.525-1.165-.048-1.402-.285-.605-.604zM46 40.118c0-.55.45-1.278 1-1.618.55-.34 1-.168 1 .382s-.45 1.278-1 1.618c-.55.34-1 .168-1-.382zm140.405-2.368L184.5 35.5l2.25 1.905c2.114 1.79 2.705 2.595 1.905 2.595-.19 0-1.202-1.012-2.25-2.25zM216.5 39c-.34-.55-.141-1 .441-1s1.059.45 1.059 1-.198 1-.441 1-.72-.45-1.059-1zm258.82-5c0-3.575.182-5.037.403-3.25.222 1.788.222 4.713 0 6.5-.221 1.788-.403.325-.403-3.25zm-261.756 2.293c-.542-1.425-.428-1.54.56-.56.684.679.99 1.486.683 1.793-.308.308-.867-.247-1.243-1.233zm-202.94-1.832c-.965-2.514-.68-3.163.498-1.136.584 1.004.85 2.036.593 2.293-.257.258-.749-.263-1.091-1.157zm171.248-1.211c-1.243-1.586-1.208-1.621.378-.378 1.666 1.307 2.195 2.128 1.372 2.128-.207 0-.995-.787-1.75-1.75zm26.378-.365c-3.409-2.183-4.512-3.649-1.5-1.993 2.294 1.26 5.889 4.04 5.25 4.06-.275.008-1.962-.922-3.75-2.067zm-182.626-.424c-.965-2.514-.68-3.163.498-1.136.584 1.004.85 2.036.593 2.293-.257.258-.749-.263-1.091-1.157zm463.001.741c-.271-.439-.08-1.451.426-2.25.717-1.134.922-.959.934.798.015 2.313-.493 2.856-1.36 1.452zM50.031 31.5c0-.55.436-1.675.969-2.5.533-.825.97-1.05.97-.5s-.437 1.675-.97 2.5c-.533.825-.97 1.05-.97.5zM247.402 17c0-8.525.154-12.012.341-7.75.188 4.263.188 11.238 0 15.5-.187 4.263-.34.775-.34-7.75zm13.993 1.5c.002-7.7.158-10.718.348-6.706.19 4.011.19 10.311-.003 14-.191 3.688-.347.406-.345-7.294zM8.624 29.461c-.965-2.514-.68-3.163.498-1.136.584 1.004.85 2.036.593 2.293-.257.258-.749-.263-1.091-1.157zm27.407.039c0-.55.436-1.675.969-2.5.533-.825.97-1.05.97-.5s-.437 1.675-.97 2.5c-.533.825-.97 1.05-.97.5zM287.232 27c0-1.925.206-2.712.457-1.75.252.963.252 2.538 0 3.5-.251.962-.457.175-.457-1.75zm-174.037-.5c.02-1.65.244-2.204.498-1.231.254.973.237 2.323-.037 3-.274.677-.481-.119-.461-1.769zm85.055.385c-3.409-2.183-4.512-3.649-1.5-1.993 2.294 1.26 5.889 4.04 5.25 4.06-.275.008-1.962-.922-3.75-2.067zM6.162 23.457c-1.675-3.677-1.355-4.462.456-1.119.846 1.562 1.351 3.026 1.123 3.255-.229.228-.94-.733-1.579-2.136zm16.505 1.876c-.367-.366-.653-1.379-.637-2.25.025-1.3.22-1.257 1.092.242 1.077 1.852.765 3.228-.455 2.008zM301.195 23.5c.02-1.65.244-2.204.498-1.231.254.973.237 2.323-.037 3-.274.677-.481-.119-.461-1.769zm172.884.917c.048-1.165.285-1.402.604-.605.289.722.253 1.585-.079 1.917-.332.332-.568-.258-.525-1.312zM38.086 24c-.03-.825.38-2.175.914-3 1.181-1.828 1.181-.25 0 2.5-.567 1.319-.878 1.49-.914.5zm140.166-2.5c.011-2.2.216-2.982.455-1.738.24 1.244.23 3.044-.02 4s-.446-.062-.435-2.262zm138.827.917c.048-1.165.285-1.402.604-.605.289.722.253 1.585-.079 1.917-.332.332-.568-.258-.525-1.312zm14 0c.048-1.165.285-1.402.604-.605.289.722.253 1.585-.079 1.917-.332.332-.568-.258-.525-1.312zM54.031 21.5c0-.55.436-1.675.969-2.5.533-.825.97-1.05.97-.5s-.437 1.675-.97 2.5c-.533.825-.97 1.05-.97.5zm29.055-.5c-.03-.825.38-2.175.914-3 1.181-1.828 1.181-.25 0 2.5-.567 1.319-.878 1.49-.914.5zm28.993-.583c.048-1.165.285-1.402.604-.605.289.722.253 1.585-.079 1.917-.332.332-.568-.258-.525-1.312zm360.485-.124c-.542-1.425-.428-1.54.56-.56.684.679.99 1.486.683 1.793-.308.308-.867-.247-1.243-1.233zm-451.94-.832c-.965-2.514-.68-3.163.498-1.136.584 1.004.85 2.036.593 2.293-.257.258-.749-.263-1.091-1.157zM193.158 19c0-1.375.227-1.938.504-1.25.278.688.278 1.813 0 2.5-.277.688-.504.125-.504-1.25zm15.509.333c-.367-.366-.667-1.131-.667-1.7 0-.626.466-.567 1.183.15.651.651.951 1.416.667 1.7-.284.284-.817.217-1.183-.15zm121.412-.916c.048-1.165.285-1.402.604-.605.289.722.253 1.585-.079 1.917-.332.332-.568-.258-.525-1.312zM40.086 18.5c.104-1.894 1.77-5.084 1.828-3.5.03.825-.38 2.175-.914 3-.533.825-.945 1.05-.914.5zm248.993-1.083c.048-1.165.285-1.402.604-.605.289.722.253 1.585-.079 1.917-.332.332-.568-.258-.525-1.312zM96.561 16.162c-.413-1.287-2.171-2.956-3.906-3.711-1.74-.757-2.395-1.39-1.46-1.412 2.395-.055 7.187 4.32 6.605 6.032-.334.98-.723.694-1.239-.91zm372.578-.195c-1.298-1.082-1.93-1.967-1.405-1.967.526 0 1.77.9 2.766 2 2.287 2.527 1.695 2.513-1.36-.033zM85 15.277c0-1.258 2.858-3.752 3.53-3.08.265.265-.42 1.299-1.524 2.297-1.103.999-2.006 1.351-2.006.783zm94.03.223c0-.55.437-1.675.97-2.5.533-.825.97-1.05.97-.5s-.437 1.675-.97 2.5c-.533.825-.97 1.05-.97.5zm15.035-1.179c1.753-2.878 4.851-4.146 7.935-3.248 2.265.66 2.177.737-.936.827-2.062.06-4.413 1-5.881 2.35-2.433 2.238-2.439 2.239-1.118.071zM206 14c-.589-1.1-.845-2-.57-2s.981.9 1.57 2c.589 1.1.845 2 .57 2s-.981-.9-1.57-2zm14.112.5c-.066-1.1-1.033-3.499-2.15-5.33-1.116-1.832-1.561-3.04-.989-2.687 1.746 1.08 4.175 6.547 3.703 8.334-.353 1.337-.469 1.272-.564-.317zM313.5 14c-.995-1.1-1.306-2-.69-2 .616 0 1.601.9 2.19 2s.9 2 .69 2c-.209 0-1.195-.9-2.19-2zm15.124.461c-.965-2.514-.68-3.163.498-1.136.584 1.004.85 2.036.593 2.293-.257.258-.749-.263-1.091-1.157zM459.25 15c.248-.923 1.719-1.554 3.826-1.64 3.136-.13 3.172-.101.426.34-1.648.264-3.37 1.002-3.826 1.64-.56.783-.698.673-.426-.34zm-350.687-3.51c-1.016-1.888-2.304-3.15-2.86-2.807-.557.344-.716.146-.353-.441.362-.587-.58-2.056-2.096-3.264-2.43-1.937-2.46-2.024-.255-.733 2.63 1.54 8.698 9.39 7.886 10.202-.26.26-1.305-1.07-2.322-2.958zM304 14.621c0-.207.787-.995 1.75-1.75 1.586-1.243 1.621-1.208.378.378-1.307 1.666-2.128 2.195-2.128 1.372zm-231.968-1.18c.017-.518.692-1.816 1.5-2.883.807-1.068 1.454-1.518 1.436-1-.017.517-.692 1.815-1.5 2.882-.807 1.068-1.454 1.518-1.436 1zM42.03 12.5c0-.55.436-1.675.969-2.5.533-.825.97-1.05.97-.5s-.437 1.675-.97 2.5c-.533.825-.97 1.05-.97.5zm266.781-1.183c.722-.289 1.585-.253 1.917.079.332.332-.258.568-1.312.525-1.165-.048-1.402-.285-.604-.604zm-127.248-1.61c.376-.986.935-1.541 1.243-1.233.308.307 0 1.114-.683 1.793-.988.98-1.102.865-.56-.56zm111.382-.416C294.045 7.044 299.99 2 301.54 2c.467 0-.7 1.138-2.595 2.528-1.894 1.391-4.262 3.529-5.261 4.75l-1.817 2.222zM326 9.94c0-.582.45-.78 1-.441.55.34 1 .816 1 1.059s-.45.441-1 .441-1-.477-1-1.059zm154.716-.368c-.784-.784-2.954-2.358-4.821-3.496-1.867-1.138-2.9-2.071-2.295-2.073 1.181-.004 9.4 5.681 9.4 6.502 0 .868-.817.534-2.284-.933zM58.985 6.75c-.019-2.731-.855-4.064-3.485-5.555C54.4.57 54.062.047 54.75.03 56.854-.02 60 3.856 60 6.5c0 1.375-.225 2.5-.5 2.5s-.507-1.013-.515-2.25zm-14.978.606c-.01-1.66 5.556-7.362 7.144-7.32.742.019.31.612-.961 1.317-1.27.705-3.18 2.602-4.244 4.214-1.063 1.613-1.936 2.418-1.94 1.789zm33.489-1.199c1.09-1.288 2.887-2.806 3.993-3.372 2.124-1.088 1.814-.752-2.982 3.23-2.887 2.397-2.923 2.402-1.011.142zm107-.152c.339-.547 1.603-1.502 2.81-2.123l2.194-1.129-2.208 2.124c-2.305 2.216-3.854 2.841-2.795 1.128zM.03 4.905C-.002 3.218 3.022-.022 4.58.032c.506.017.213.58-.652 1.25S1.84 3.4 1.207 4.5C.32 6.05.055 6.142.03 4.905zm12.55-1.686L10.66.5l2.67 2.424c2.806 2.548 3.151 3.096 1.92 3.045-.412-.018-1.614-1.255-2.67-2.75zm201.231 1.714c-.195-.586-2.82-1.905-5.833-2.93C204.965.98 203.4.12 204.5.094 207.195.026 215 3.638 215 4.95c0 1.362-.733 1.35-1.189-.018zm107.061-.683c-1.243-1.586-1.208-1.621.378-.378C322.916 5.18 323.445 6 322.622 6c-.207 0-.995-.787-1.75-1.75zM7.638 1.5C7.291.595 7.633 0 8.5 0s1.209.595.862 1.5C9.045 2.325 8.657 3 8.5 3c-.157 0-.545-.675-.862-1.5zm153.112.838c.688-.278 1.813-.278 2.5 0 .688.277.125.504-1.25.504s-1.938-.227-1.25-.504zm80.519-.031c.973-.254 2.323-.237 3 .037.677.274-.119.481-1.769.461-1.65-.02-2.204-.244-1.231-.498zm25.981.004c.963-.252 2.538-.252 3.5 0 .963.251.175.457-1.75.457s-2.712-.206-1.75-.457zm77.512-.018c1.244-.24 3.044-.23 4 .02s-.062.446-2.262.435c-2.2-.011-2.982-.216-1.738-.455zm34 0c1.244-.24 3.044-.23 4 .02s-.062.446-2.262.435c-2.2-.011-2.982-.216-1.738-.455zm26.488.018c.963-.252 2.538-.252 3.5 0 .963.251.175.457-1.75.457s-2.712-.206-1.75-.457zm61.563.006c.721-.289 1.584-.253 1.916.079.332.332-.258.568-1.312.525-1.165-.048-1.402-.285-.604-.604zm-382-1c.721-.289 1.584-.253 1.916.079.332.332-.258.568-1.312.525-1.165-.048-1.402-.285-.605-.604zm108 0c.721-.289 1.584-.253 1.916.079.332.332-.258.568-1.312.525-1.165-.048-1.402-.285-.604-.604zm3.937-.98c.688-.277 1.813-.277 2.5 0 .688.278.125.505-1.25.505s-1.938-.227-1.25-.504z" id="path18-3"/><path d="M8.558 90.75c-3.709-6.188-6.971-12.623-7.25-14.301-.321-1.942.862-7.442 3.256-15.127l3.76-12.076 5.088-.604c2.799-.333 6.953-.891 9.233-1.241 3.695-.567 4.223-.393 4.857 1.606.756 2.382-.404 3.668-4.002 4.44-1.1.235-3.22.685-4.71 1-2.35.495-2.982 1.483-4.75 7.42C11.224 71.32 11.317 74 14.46 74c2.528 0 3.323-1.668 5.15-10.804.351-1.758.996-3.196 1.432-3.196.436 0 1.55-.29 2.476-.646 1.551-.595 1.545-.38-.077 2.75-3.023 5.835-3.41 9.42-1.375 12.766 2.415 3.971 5.313 5.4 10.044 4.948 2.139-.204 3.889.038 3.889.538C36 82.627 40.49 85 44.787 85c3.622 0 4.953-.527 6.95-2.75l2.469-2.75-.513 4.29c-.491 4.103-6.422 13.665-10.52 16.96-1.068.858-5.683 1.25-14.713 1.25H15.302zm33.097-12.579C40.745 77.165 40 75.794 40 75.125c0-1.51 8.803-16.885 10.14-17.711.535-.331 2.066-.328 3.402.007 4.192 1.052 4.023 4.438-.607 12.13-6.648 11.047-8.088 12.147-11.28 8.62zm41.354-3.291C77.98 72.874 73.57 66.932 71.224 59c-1.872-6.328-2.764-30.73-1.343-36.717C72.957 9.331 79.727 2.176 89.718 1.322c7.823-.67 13.41 2.262 18.404 9.656 2.937 4.349 3.836 6.892 4.752 13.443 3.328 23.818-1.643 44.096-12.204 49.787-3.546 1.91-13.597 2.293-17.661.672zM94.61 64.235c.611-.404 1.924-2.31 2.918-4.235 2.379-4.606 3.233-31.638 1.26-39.892-2.405-10.069-10.054-11.968-14.236-3.536-1.678 3.383-1.956 6.147-2 19.928-.058 17.743.535 22.07 3.547 25.899 2.021 2.57 6.08 3.445 8.511 1.836zm43.745 10.915c-2.874-.871-7.42-4.866-10.411-9.15-2.439-3.492-2.445-3.566-2.76-33.112l-.316-29.612 3.191-.638c1.755-.35 4.71-.638 6.566-.638H138l.1 27.25c.125 34.14.261 34.694 8.763 35.51 5.108.492 5.14.477 6.635-3.1 1.213-2.903 1.502-8.9 1.502-31.128V3l3.75-.014c2.063-.007 4.793-.293 6.067-.634l2.317-.62-.317 30.384c-.3 28.83-.425 30.563-2.426 33.884-1.16 1.925-2.606 3.393-3.214 3.262-.608-.13-.873.366-.59 1.105 1.336 3.48-14.965 6.987-22.232 4.783zm53.27-.62c-4.59-1.635-9.256-5.96-12.39-11.487l-2.266-3.993 4.982-2.525c2.74-1.389 5.388-2.525 5.883-2.525.495 0 2.115 1.835 3.6 4.079 6.487 9.803 19.11 7.96 17.146-2.503-.872-4.649-3-6.9-10.08-10.663C184.529 37.487 179 31.11 179 22.422c0-7.743 2.803-13.285 9.265-18.317.97-.756 4.335-1.972 7.476-2.702 4.91-1.142 6.45-1.113 10.984.205 2.9.844 5.949 2.209 6.774 3.034.826.826 1.515 1.131 1.532.68.056-1.477 4.96 7.136 4.94 8.678-.01.826-2.201 2.458-4.876 3.633l-4.858 2.133-2.175-3.87c-4.276-7.608-13.48-6.627-14.8 1.58-.719 4.467 1.874 7.462 11.36 13.122 5.158 3.078 9.378 6.078 9.378 6.666 0 .588.263.807.583.486.91-.91 4.117 2.742 6.483 7.38 2.56 5.019 2.36 13.18-.47 19.07-4.497 9.364-18.088 14.21-28.971 10.33zm108.393-.66c-1.916-1.168-4.08-2.854-4.809-3.747-2.078-2.544-5.25-9.802-5.845-13.375-3.536-21.233-2.32-36.61 3.66-46.286 6.504-10.524 20.756-12.48 30.226-4.149 1.512 1.331 2.75 2.93 2.75 3.553 0 .624.382 1.134.848 1.134.467 0 1.667 2.362 2.667 5.25 2.703 7.802 3.228 29.303.965 39.51-2.2 9.92-7.01 16.97-13.178 19.315-4.522 1.72-13.516 1.092-17.284-1.205zm13.12-10.125c4.063-3.458 4.862-7.602 4.862-25.216 0-18.693-1.373-24.96-5.84-26.658-3.797-1.444-6.92.385-9.187 5.38-1.654 3.642-1.932 6.62-1.951 20.85-.013 9.541.45 18.046 1.09 20 1.082 3.307 5.373 7.89 7.388 7.89.55 0 2.187-1.011 3.638-2.246zm41.44 10.168c-5.133-2.75-6.178-3.888-8.825-9.6-2.11-4.556-2.247-6.313-2.548-32.917l-.317-28.104 5.306-.637c2.918-.35 6.074-.642 7.013-.646 1.565-.008 1.732 2.448 2 29.388.272 27.271.43 29.548 2.198 31.5 3.144 3.471 10.612 2.556 12.473-1.529C372.62 59.74 373 49.63 373 31.512c0-15.067.344-27.607.764-27.866.42-.26 3.233-.604 6.25-.765l5.486-.292.31 24.956c.321 25.737-.466 34.348-3.633 39.725-.897 1.523-2.181 2.559-2.853 2.3-.7-.268-1.007.094-.718.845.314.82-1.203 2.115-4.04 3.45-6.085 2.86-14.705 2.88-19.989.048zM27.57 73.43c-2.045-2.046-2.052-2.01 1.556-8.429a740.24 740.24 0 006.232-11.377c4.585-8.58 9.762-10.975 11.214-5.187.55 2.187-.929 5.457-7.181 15.887-1.59 2.653-3.414 5.752-4.052 6.885-2.208 3.927-5.206 4.783-7.769 2.22zM234 39V3h4.918c2.705 0 5.63-.273 6.5-.607 1.4-.537 1.582 1.135 1.582 14.5V32h15V3l4.75-.077c2.612-.042 5.543-.228 6.512-.413 1.661-.317 1.748 1.748 1.5 35.827L274.5 74.5h-6c-4.067 0-6.04-.403-6.125-1.25-.069-.688-.181-7.514-.25-15.171L262 44.158l-7.502-.329-7.503-.329-.116 15c-.064 8.25-.063 15.338.002 15.75.066.412-2.806.75-6.381.75H234zm166 0V3l4.25-.014c2.337-.007 5.263-.285 6.5-.616l2.25-.603V64h24.874l-.576 3.75c-1.157 7.53-.392 7.25-19.833 7.25H400zm47.667 35.333C447.3 73.967 447 57.48 447 37.696V1.726l11.779.485c10.708.44 12.178.737 16.171 3.258 5.074 3.203 7.01 5.005 9.282 8.641 2.105 3.37 4.974 13.242 4.69 16.141-.12 1.237.122 3.04.54 4.007 1.006 2.332-1.068 19.56-2.872 23.853-2.697 6.419-7.266 11.549-12.695 14.254C469.228 74.69 467.417 75 458.47 75c-5.575 0-10.437-.3-10.803-.667zm21.82-12.5c4.16-3.274 5.709-8.176 6.265-19.833.61-12.807-.79-20.423-4.594-24.98-2.337-2.799-3.467-3.335-7.214-3.42-2.99-.067-4.411.309-4.344 1.15.055.688.168 12.05.25 25.25l.15 24h3.365c1.938 0 4.534-.92 6.121-2.168zM32.02 44.895c.012-1.318 1.167-5.546 2.567-9.396 1.4-3.85 3.892-10.825 5.54-15.5C44.58 7.36 46.858 3.124 50.11 1.442 52.428.245 53.473.18 55.26 1.12c5.491 2.892 5.08 6.004-3.48 26.381-5.162 12.288-5.935 13.585-7.753 13.008-2.493-.79-6.68 1.016-9.564 4.128L32 47.292zm-17.33-3.53C13.877 39.79 11.631 34.676 9.7 30a1281.721 1281.721 0 00-6.615-15.682C-.296 6.498-.055 3.764 4.248 1.078 6.046-.047 6.53.005 7.576 1.433c.928 1.27 1.343 1.359 1.723.369 1.04-2.702 6.718 5.07 9.801 13.414 1.683 4.556 3.465 9.183 3.959 10.283.494 1.1 2.219 5.487 3.832 9.75L29.825 43l-3.162.011c-1.74.006-4.812.284-6.827.617-3.298.545-3.811.32-5.145-2.261z" id="path16-6"/><path d="M70.75 101.92c-2.01-1.171-2.349-5.921-.55-7.72.926-.926 48.677-1.2 208.845-1.2 199.893 0 207.707.068 209.3 1.829 2.151 2.377 2.095 4.462-.174 6.516-1.69 1.529-17.585 1.653-208.75 1.625-138.691-.02-207.498-.367-208.671-1.05z" id="path14"/></g></svg>